<svg width="206" height="48" viewBox="0 0 206 48" fill="none" xmlns="http://www.w3.org/2000/svg">
<path d="M0.5 24C0.5 10.7452 11.2452 0 24.5 0H181.5C194.755 0 205.5 10.7452 205.5 24C205.5 37.2548 194.755 48 181.5 48H24.5C11.2452 48 0.5 37.2548 0.5 24Z" fill="#24449F"/>
<path d="M43.524 20.352V23.616H47.364V25.104H43.524V28.512H47.844V30H41.7V18.864H47.844V20.352H43.524ZM54.5386 21.04C55.232 21.04 55.8506 21.184 56.3946 21.472C56.9493 21.76 57.3813 22.1867 57.6906 22.752C58 23.3173 58.1546 24 58.1546 24.8V30H56.3466V25.072C56.3466 24.2827 56.1493 23.68 55.7546 23.264C55.36 22.8373 54.8213 22.624 54.1386 22.624C53.456 22.624 52.912 22.8373 52.5066 23.264C52.112 23.68 51.9146 24.2827 51.9146 25.072V30H50.0906V21.184H51.9146V22.192C52.2133 21.8293 52.592 21.5467 53.0506 21.344C53.52 21.1413 54.016 21.04 54.5386 21.04ZM63.8893 28.368L66.3853 21.184H68.3212L64.9613 30H62.7853L59.4413 21.184H61.3932L63.8893 28.368ZM70.628 20.016C70.2973 20.016 70.02 19.904 69.796 19.68C69.572 19.456 69.46 19.1787 69.46 18.848C69.46 18.5173 69.572 18.24 69.796 18.016C70.02 17.792 70.2973 17.68 70.628 17.68C70.948 17.68 71.22 17.792 71.444 18.016C71.668 18.24 71.78 18.5173 71.78 18.848C71.78 19.1787 71.668 19.456 71.444 19.68C71.22 19.904 70.948 20.016 70.628 20.016ZM71.524 21.184V30H69.7V21.184H71.524ZM73.3108 25.552C73.3108 24.6667 73.4921 23.8827 73.8548 23.2C74.2281 22.5173 74.7294 21.9893 75.3588 21.616C75.9988 21.232 76.7028 21.04 77.4708 21.04C78.1641 21.04 78.7668 21.1787 79.2788 21.456C79.8014 21.7227 80.2174 22.0587 80.5268 22.464V21.184H82.3668V30H80.5268V28.688C80.2174 29.104 79.7961 29.4507 79.2628 29.728C78.7294 30.0053 78.1214 30.144 77.4388 30.144C76.6814 30.144 75.9881 29.952 75.3588 29.568C74.7294 29.1733 74.2281 28.6293 73.8548 27.936C73.4921 27.232 73.3108 26.4373 73.3108 25.552ZM80.5268 25.584C80.5268 24.976 80.3988 24.448 80.1428 24C79.8974 23.552 79.5721 23.2107 79.1668 22.976C78.7614 22.7413 78.3241 22.624 77.8548 22.624C77.3854 22.624 76.9481 22.7413 76.5428 22.976C76.1374 23.2 75.8068 23.536 75.5508 23.984C75.3054 24.4213 75.1828 24.944 75.1828 25.552C75.1828 26.16 75.3054 26.6933 75.5508 27.152C75.8068 27.6107 76.1374 27.9627 76.5428 28.208C76.9588 28.4427 77.3961 28.56 77.8548 28.56C78.3241 28.56 78.7614 28.4427 79.1668 28.208C79.5721 27.9733 79.8974 27.632 80.1428 27.184C80.3988 26.7253 80.5268 26.192 80.5268 25.584ZM86.5865 22.464C86.8532 22.016 87.2052 21.6693 87.6425 21.424C88.0905 21.168 88.6185 21.04 89.2265 21.04V22.928H88.7625C88.0478 22.928 87.5038 23.1093 87.1305 23.472C86.7678 23.8347 86.5865 24.464 86.5865 25.36V30H84.7625V21.184H86.5865V22.464ZM94.4514 25.584C94.4514 24.6773 94.6327 23.8827 94.9954 23.2C95.3687 22.5067 95.8807 21.9733 96.5314 21.6C97.182 21.2267 97.9287 21.04 98.7714 21.04C99.838 21.04 100.718 21.296 101.411 21.808C102.115 22.3093 102.59 23.0293 102.835 23.968H100.867C100.707 23.5307 100.451 23.1893 100.099 22.944C99.7474 22.6987 99.3047 22.576 98.7714 22.576C98.0247 22.576 97.4274 22.8427 96.9794 23.376C96.542 23.8987 96.3234 24.6347 96.3234 25.584C96.3234 26.5333 96.542 27.2747 96.9794 27.808C97.4274 28.3413 98.0247 28.608 98.7714 28.608C99.8274 28.608 100.526 28.144 100.867 27.216H102.835C102.579 28.112 102.099 28.8267 101.395 29.36C100.691 29.8827 99.8167 30.144 98.7714 30.144C97.9287 30.144 97.182 29.9573 96.5314 29.584C95.8807 29.2 95.3687 28.6667 94.9954 27.984C94.6327 27.2907 94.4514 26.4907 94.4514 25.584ZM112.637 21.184V30H110.813V28.96C110.525 29.3227 110.146 29.6107 109.677 29.824C109.218 30.0267 108.728 30.128 108.205 30.128C107.512 30.128 106.888 29.984 106.333 29.696C105.789 29.408 105.357 28.9813 105.037 28.416C104.728 27.8507 104.573 27.168 104.573 26.368V21.184H106.381V26.096C106.381 26.8853 106.578 27.4933 106.973 27.92C107.368 28.336 107.906 28.544 108.589 28.544C109.272 28.544 109.81 28.336 110.205 27.92C110.61 27.4933 110.813 26.8853 110.813 26.096V21.184H112.637ZM116.868 22.464C117.134 22.016 117.486 21.6693 117.924 21.424C118.372 21.168 118.9 21.04 119.508 21.04V22.928H119.044C118.329 22.928 117.785 23.1093 117.412 23.472C117.049 23.8347 116.868 24.464 116.868 25.36V30H115.044V21.184H116.868V22.464ZM123.008 22.464C123.275 22.016 123.627 21.6693 124.064 21.424C124.512 21.168 125.04 21.04 125.648 21.04V22.928H125.184C124.47 22.928 123.926 23.1093 123.552 23.472C123.19 23.8347 123.008 24.464 123.008 25.36V30H121.184V21.184H123.008V22.464ZM129.149 21.184V30H127.325V21.184H129.149ZM129.885 18.816L126.349 20.56V19.216L129.885 17.264V18.816ZM130.936 25.584C130.936 24.6773 131.117 23.8827 131.48 23.2C131.853 22.5067 132.365 21.9733 133.016 21.6C133.666 21.2267 134.413 21.04 135.256 21.04C136.322 21.04 137.202 21.296 137.896 21.808C138.6 22.3093 139.074 23.0293 139.32 23.968H137.352C137.192 23.5307 136.936 23.1893 136.584 22.944C136.232 22.6987 135.789 22.576 135.256 22.576C134.509 22.576 133.912 22.8427 133.464 23.376C133.026 23.8987 132.808 24.6347 132.808 25.584C132.808 26.5333 133.026 27.2747 133.464 27.808C133.912 28.3413 134.509 28.608 135.256 28.608C136.312 28.608 137.01 28.144 137.352 27.216H139.32C139.064 28.112 138.584 28.8267 137.88 29.36C137.176 29.8827 136.301 30.144 135.256 30.144C134.413 30.144 133.666 29.9573 133.016 29.584C132.365 29.2 131.853 28.6667 131.48 27.984C131.117 27.2907 130.936 26.4907 130.936 25.584ZM149.122 21.184V30H147.298V28.96C147.01 29.3227 146.631 29.6107 146.162 29.824C145.703 30.0267 145.212 30.128 144.69 30.128C143.996 30.128 143.372 29.984 142.818 29.696C142.274 29.408 141.842 28.9813 141.522 28.416C141.212 27.8507 141.058 27.168 141.058 26.368V21.184H142.866V26.096C142.866 26.8853 143.063 27.4933 143.458 27.92C143.852 28.336 144.391 28.544 145.074 28.544C145.756 28.544 146.295 28.336 146.69 27.92C147.095 27.4933 147.298 26.8853 147.298 26.096V21.184H149.122ZM153.352 18.16V30H151.528V18.16H153.352ZM159.571 30.144C158.739 30.144 157.987 29.9573 157.315 29.584C156.643 29.2 156.115 28.6667 155.731 27.984C155.347 27.2907 155.155 26.4907 155.155 25.584C155.155 24.688 155.352 23.8933 155.747 23.2C156.142 22.5067 156.68 21.9733 157.363 21.6C158.046 21.2267 158.808 21.04 159.651 21.04C160.494 21.04 161.256 21.2267 161.939 21.6C162.622 21.9733 163.16 22.5067 163.555 23.2C163.95 23.8933 164.147 24.688 164.147 25.584C164.147 26.48 163.944 27.2747 163.539 27.968C163.134 28.6613 162.579 29.2 161.875 29.584C161.182 29.9573 160.414 30.144 159.571 30.144ZM159.571 28.56C160.04 28.56 160.478 28.448 160.883 28.224C161.299 28 161.635 27.664 161.891 27.216C162.147 26.768 162.275 26.224 162.275 25.584C162.275 24.944 162.152 24.4053 161.907 23.968C161.662 23.52 161.336 23.184 160.931 22.96C160.526 22.736 160.088 22.624 159.619 22.624C159.15 22.624 158.712 22.736 158.307 22.96C157.912 23.184 157.598 23.52 157.363 23.968C157.128 24.4053 157.011 24.944 157.011 25.584C157.011 26.5333 157.251 27.2693 157.731 27.792C158.222 28.304 158.835 28.56 159.571 28.56Z" fill="white"/>
</svg>
