<svg width="189" height="48" viewBox="0 0 189 48" fill="none" xmlns="http://www.w3.org/2000/svg">
<rect width="189" height="48" rx="24" fill="url(#paint0_linear_1_913)"/>
<path d="M47.744 18.88V20.368H43.024V23.648H46.704V25.136H43.024V30H41.2V18.88H47.744ZM48.8264 25.552C48.8264 24.6667 49.0077 23.8827 49.3704 23.2C49.7437 22.5173 50.245 21.9893 50.8744 21.616C51.5144 21.232 52.2184 21.04 52.9864 21.04C53.6797 21.04 54.2824 21.1787 54.7944 21.456C55.317 21.7227 55.733 22.0587 56.0424 22.464V21.184H57.8824V30H56.0424V28.688C55.733 29.104 55.3117 29.4507 54.7784 29.728C54.245 30.0053 53.637 30.144 52.9544 30.144C52.197 30.144 51.5037 29.952 50.8744 29.568C50.245 29.1733 49.7437 28.6293 49.3704 27.936C49.0077 27.232 48.8264 26.4373 48.8264 25.552ZM56.0424 25.584C56.0424 24.976 55.9144 24.448 55.6584 24C55.413 23.552 55.0877 23.2107 54.6824 22.976C54.277 22.7413 53.8397 22.624 53.3704 22.624C52.901 22.624 52.4637 22.7413 52.0584 22.976C51.653 23.2 51.3224 23.536 51.0664 23.984C50.821 24.4213 50.6984 24.944 50.6984 25.552C50.6984 26.16 50.821 26.6933 51.0664 27.152C51.3224 27.6107 51.653 27.9627 52.0584 28.208C52.4744 28.4427 52.9117 28.56 53.3704 28.56C53.8397 28.56 54.277 28.4427 54.6824 28.208C55.0877 27.9733 55.413 27.632 55.6584 27.184C55.9144 26.7253 56.0424 26.192 56.0424 25.584ZM62.1021 18.16V30H60.2781V18.16H62.1021ZM72.5769 25.376C72.5769 25.7067 72.5555 26.0053 72.5129 26.272H65.7769C65.8302 26.976 66.0915 27.5413 66.5609 27.968C67.0302 28.3947 67.6062 28.608 68.2889 28.608C69.2702 28.608 69.9635 28.1973 70.3689 27.376H72.3369C72.0702 28.1867 71.5849 28.8533 70.8809 29.376C70.1875 29.888 69.3235 30.144 68.2889 30.144C67.4462 30.144 66.6889 29.9573 66.0169 29.584C65.3555 29.2 64.8329 28.6667 64.4489 27.984C64.0755 27.2907 63.8889 26.4907 63.8889 25.584C63.8889 24.6773 64.0702 23.8827 64.4329 23.2C64.8062 22.5067 65.3235 21.9733 65.9849 21.6C66.6569 21.2267 67.4249 21.04 68.2889 21.04C69.1209 21.04 69.8622 21.2213 70.5129 21.584C71.1635 21.9467 71.6702 22.4587 72.0329 23.12C72.3955 23.7707 72.5769 24.5227 72.5769 25.376ZM70.6729 24.8C70.6622 24.128 70.4222 23.5893 69.9529 23.184C69.4835 22.7787 68.9022 22.576 68.2089 22.576C67.5795 22.576 67.0409 22.7787 66.5929 23.184C66.1449 23.5787 65.8782 24.1173 65.7929 24.8H70.6729ZM77.9201 24.416C77.9201 23.328 78.1708 22.352 78.6721 21.488C79.1841 20.624 79.8721 19.952 80.7361 19.472C81.6108 18.9813 82.5655 18.736 83.6001 18.736C84.7841 18.736 85.8348 19.0293 86.7521 19.616C87.6801 20.192 88.3521 21.0133 88.7681 22.08H86.5761C86.2881 21.4933 85.8881 21.056 85.3761 20.768C84.8641 20.48 84.2721 20.336 83.6001 20.336C82.8641 20.336 82.2081 20.5013 81.6321 20.832C81.0561 21.1627 80.6028 21.6373 80.2721 22.256C79.9521 22.8747 79.7921 23.5947 79.7921 24.416C79.7921 25.2373 79.9521 25.9573 80.2721 26.576C80.6028 27.1947 81.0561 27.6747 81.6321 28.016C82.2081 28.3467 82.8641 28.512 83.6001 28.512C84.2721 28.512 84.8641 28.368 85.3761 28.08C85.8881 27.792 86.2881 27.3547 86.5761 26.768H88.7681C88.3521 27.8347 87.6801 28.656 86.7521 29.232C85.8348 29.808 84.7841 30.096 83.6001 30.096C82.5548 30.096 81.6001 29.856 80.7361 29.376C79.8721 28.8853 79.1841 28.208 78.6721 27.344C78.1708 26.48 77.9201 25.504 77.9201 24.416ZM94.7271 30.144C93.8951 30.144 93.1431 29.9573 92.4711 29.584C91.7991 29.2 91.2711 28.6667 90.8871 27.984C90.5031 27.2907 90.3111 26.4907 90.3111 25.584C90.3111 24.688 90.5085 23.8933 90.9031 23.2C91.2978 22.5067 91.8365 21.9733 92.5191 21.6C93.2018 21.2267 93.9645 21.04 94.8071 21.04C95.6498 21.04 96.4125 21.2267 97.0951 21.6C97.7778 21.9733 98.3165 22.5067 98.7111 23.2C99.1058 23.8933 99.3031 24.688 99.3031 25.584C99.3031 26.48 99.1005 27.2747 98.6951 27.968C98.2898 28.6613 97.7351 29.2 97.0311 29.584C96.3378 29.9573 95.5698 30.144 94.7271 30.144ZM94.7271 28.56C95.1965 28.56 95.6338 28.448 96.0391 28.224C96.4551 28 96.7911 27.664 97.0471 27.216C97.3031 26.768 97.4311 26.224 97.4311 25.584C97.4311 24.944 97.3085 24.4053 97.0631 23.968C96.8178 23.52 96.4925 23.184 96.0871 22.96C95.6818 22.736 95.2445 22.624 94.7751 22.624C94.3058 22.624 93.8685 22.736 93.4631 22.96C93.0685 23.184 92.7538 23.52 92.5191 23.968C92.2845 24.4053 92.1671 24.944 92.1671 25.584C92.1671 26.5333 92.4071 27.2693 92.8871 27.792C93.3778 28.304 93.9911 28.56 94.7271 28.56ZM105.554 21.04C106.248 21.04 106.866 21.184 107.41 21.472C107.965 21.76 108.397 22.1867 108.706 22.752C109.016 23.3173 109.17 24 109.17 24.8V30H107.362V25.072C107.362 24.2827 107.165 23.68 106.77 23.264C106.376 22.8373 105.837 22.624 105.154 22.624C104.472 22.624 103.928 22.8373 103.522 23.264C103.128 23.68 102.93 24.2827 102.93 25.072V30H101.106V21.184H102.93V22.192C103.229 21.8293 103.608 21.5467 104.066 21.344C104.536 21.1413 105.032 21.04 105.554 21.04ZM115.321 30.144C114.489 30.144 113.737 29.9573 113.065 29.584C112.393 29.2 111.865 28.6667 111.481 27.984C111.097 27.2907 110.905 26.4907 110.905 25.584C110.905 24.688 111.102 23.8933 111.497 23.2C111.892 22.5067 112.43 21.9733 113.113 21.6C113.796 21.2267 114.558 21.04 115.401 21.04C116.244 21.04 117.006 21.2267 117.689 21.6C118.372 21.9733 118.91 22.5067 119.305 23.2C119.7 23.8933 119.897 24.688 119.897 25.584C119.897 26.48 119.694 27.2747 119.289 27.968C118.884 28.6613 118.329 29.2 117.625 29.584C116.932 29.9573 116.164 30.144 115.321 30.144ZM115.321 28.56C115.79 28.56 116.228 28.448 116.633 28.224C117.049 28 117.385 27.664 117.641 27.216C117.897 26.768 118.025 26.224 118.025 25.584C118.025 24.944 117.902 24.4053 117.657 23.968C117.412 23.52 117.086 23.184 116.681 22.96C116.276 22.736 115.838 22.624 115.369 22.624C114.9 22.624 114.462 22.736 114.057 22.96C113.662 23.184 113.348 23.52 113.113 23.968C112.878 24.4053 112.761 24.944 112.761 25.584C112.761 26.5333 113.001 27.2693 113.481 27.792C113.972 28.304 114.585 28.56 115.321 28.56ZM124.9 30.144C124.207 30.144 123.583 30.0213 123.028 29.776C122.484 29.52 122.052 29.1787 121.732 28.752C121.412 28.3147 121.241 27.8293 121.22 27.296H123.108C123.14 27.6693 123.316 27.984 123.636 28.24C123.967 28.4853 124.377 28.608 124.868 28.608C125.38 28.608 125.775 28.512 126.052 28.32C126.34 28.1173 126.484 27.8613 126.484 27.552C126.484 27.2213 126.324 26.976 126.004 26.816C125.695 26.656 125.199 26.48 124.516 26.288C123.855 26.1067 123.316 25.9307 122.9 25.76C122.484 25.5893 122.121 25.328 121.812 24.976C121.513 24.624 121.364 24.16 121.364 23.584C121.364 23.1147 121.503 22.688 121.78 22.304C122.057 21.9093 122.452 21.6 122.964 21.376C123.487 21.152 124.084 21.04 124.756 21.04C125.759 21.04 126.564 21.296 127.172 21.808C127.791 22.3093 128.121 22.9973 128.164 23.872H126.34C126.308 23.4773 126.148 23.1627 125.86 22.928C125.572 22.6933 125.183 22.576 124.692 22.576C124.212 22.576 123.844 22.6667 123.588 22.848C123.332 23.0293 123.204 23.2693 123.204 23.568C123.204 23.8027 123.289 24 123.46 24.16C123.631 24.32 123.839 24.448 124.084 24.544C124.329 24.6293 124.692 24.7413 125.172 24.88C125.812 25.0507 126.335 25.2267 126.74 25.408C127.156 25.5787 127.513 25.8347 127.812 26.176C128.111 26.5173 128.265 26.9707 128.276 27.536C128.276 28.0373 128.137 28.4853 127.86 28.88C127.583 29.2747 127.188 29.584 126.676 29.808C126.175 30.032 125.583 30.144 124.9 30.144ZM129.639 25.584C129.639 24.6773 129.82 23.8827 130.183 23.2C130.556 22.5067 131.068 21.9733 131.719 21.6C132.37 21.2267 133.116 21.04 133.959 21.04C135.026 21.04 135.906 21.296 136.599 21.808C137.303 22.3093 137.778 23.0293 138.023 23.968H136.055C135.895 23.5307 135.639 23.1893 135.287 22.944C134.935 22.6987 134.492 22.576 133.959 22.576C133.212 22.576 132.615 22.8427 132.167 23.376C131.73 23.8987 131.511 24.6347 131.511 25.584C131.511 26.5333 131.73 27.2747 132.167 27.808C132.615 28.3413 133.212 28.608 133.959 28.608C135.015 28.608 135.714 28.144 136.055 27.216H138.023C137.767 28.112 137.287 28.8267 136.583 29.36C135.879 29.8827 135.004 30.144 133.959 30.144C133.116 30.144 132.37 29.9573 131.719 29.584C131.068 29.2 130.556 28.6667 130.183 27.984C129.82 27.2907 129.639 26.4907 129.639 25.584ZM143.665 30.144C142.833 30.144 142.081 29.9573 141.409 29.584C140.737 29.2 140.209 28.6667 139.825 27.984C139.441 27.2907 139.249 26.4907 139.249 25.584C139.249 24.688 139.446 23.8933 139.841 23.2C140.235 22.5067 140.774 21.9733 141.457 21.6C142.139 21.2267 142.902 21.04 143.745 21.04C144.587 21.04 145.35 21.2267 146.033 21.6C146.715 21.9733 147.254 22.5067 147.649 23.2C148.043 23.8933 148.241 24.688 148.241 25.584C148.241 26.48 148.038 27.2747 147.633 27.968C147.227 28.6613 146.673 29.2 145.969 29.584C145.275 29.9573 144.507 30.144 143.665 30.144ZM143.665 28.56C144.134 28.56 144.571 28.448 144.977 28.224C145.393 28 145.729 27.664 145.985 27.216C146.241 26.768 146.369 26.224 146.369 25.584C146.369 24.944 146.246 24.4053 146.001 23.968C145.755 23.52 145.43 23.184 145.025 22.96C144.619 22.736 144.182 22.624 143.713 22.624C143.243 22.624 142.806 22.736 142.401 22.96C142.006 23.184 141.691 23.52 141.457 23.968C141.222 24.4053 141.105 24.944 141.105 25.584C141.105 26.5333 141.345 27.2693 141.825 27.792C142.315 28.304 142.929 28.56 143.665 28.56Z" fill="white"/>
<defs>
<linearGradient id="paint0_linear_1_913" x1="-8.08224" y1="41" x2="205.412" y2="-20.6658" gradientUnits="userSpaceOnUse">
<stop stop-color="#24449F"/>
<stop offset="0.539051" stop-color="#01E2E1"/>
<stop offset="1" stop-color="#0DEAB1"/>
</linearGradient>
</defs>
</svg>
