<svg width="214" height="41" viewBox="0 0 214 41" fill="none" xmlns="http://www.w3.org/2000/svg">
<rect x="0.5" y="0.5" width="213" height="40" rx="20" fill="#67AEC6"/>
<rect x="0.5" y="0.5" width="213" height="40" rx="20" stroke="#67AEC6"/>
<path d="M35.725 25.135C34.895 25.135 34.145 25.03 33.475 24.82C32.805 24.6 32.225 24.285 31.735 23.875L32.17 22.885C32.68 23.275 33.215 23.565 33.775 23.755C34.335 23.945 34.985 24.04 35.725 24.04C36.625 24.04 37.29 23.875 37.72 23.545C38.16 23.205 38.38 22.76 38.38 22.21C38.38 21.77 38.22 21.42 37.9 21.16C37.59 20.9 37.065 20.695 36.325 20.545L34.765 20.23C33.825 20.03 33.12 19.705 32.65 19.255C32.19 18.795 31.96 18.185 31.96 17.425C31.96 16.795 32.12 16.245 32.44 15.775C32.77 15.305 33.225 14.94 33.805 14.68C34.385 14.42 35.055 14.29 35.815 14.29C36.525 14.29 37.185 14.405 37.795 14.635C38.405 14.855 38.92 15.175 39.34 15.595L38.905 16.555C38.455 16.145 37.98 15.85 37.48 15.67C36.98 15.48 36.42 15.385 35.8 15.385C35.01 15.385 34.38 15.57 33.91 15.94C33.44 16.3 33.205 16.78 33.205 17.38C33.205 17.86 33.35 18.24 33.64 18.52C33.94 18.8 34.425 19.005 35.095 19.135L36.655 19.465C37.665 19.675 38.41 19.995 38.89 20.425C39.38 20.845 39.625 21.42 39.625 22.15C39.625 22.74 39.465 23.26 39.145 23.71C38.835 24.16 38.385 24.51 37.795 24.76C37.215 25.01 36.525 25.135 35.725 25.135ZM41.5335 25V14.425H48.2085V15.46H42.7335V19.12H47.8935V20.155H42.7335V23.965H48.2085V25H41.5335ZM50.2786 25V14.425H56.9536V15.46H51.4786V19.12H56.6386V20.155H51.4786V23.965H56.9536V25H50.2786ZM67.3163 25.135C66.3363 25.135 65.4813 24.915 64.7513 24.475C64.0313 24.025 63.4713 23.395 63.0713 22.585C62.6813 21.775 62.4863 20.815 62.4863 19.705C62.4863 18.595 62.6813 17.635 63.0713 16.825C63.4613 16.015 64.0163 15.39 64.7363 14.95C65.4663 14.51 66.3263 14.29 67.3163 14.29C68.3163 14.29 69.1763 14.51 69.8963 14.95C70.6263 15.39 71.1863 16.015 71.5763 16.825C71.9763 17.625 72.1763 18.58 72.1763 19.69C72.1763 20.8 71.9763 21.765 71.5763 22.585C71.1763 23.395 70.6113 24.025 69.8813 24.475C69.1613 24.915 68.3063 25.135 67.3163 25.135ZM67.3163 24.04C68.4463 24.04 69.3213 23.66 69.9413 22.9C70.5613 22.14 70.8713 21.075 70.8713 19.705C70.8713 18.335 70.5613 17.275 69.9413 16.525C69.3213 15.765 68.4463 15.385 67.3163 15.385C66.2063 15.385 65.3413 15.765 64.7213 16.525C64.1013 17.275 63.7913 18.335 63.7913 19.705C63.7913 21.065 64.1013 22.13 64.7213 22.9C65.3413 23.66 66.2063 24.04 67.3163 24.04ZM78.5453 25.135C77.1553 25.135 76.1003 24.77 75.3803 24.04C74.6603 23.3 74.3003 22.225 74.3003 20.815V14.425H75.5303V20.755C75.5303 22.945 76.5353 24.04 78.5453 24.04C80.5353 24.04 81.5303 22.945 81.5303 20.755V14.425H82.7603V20.815C82.7603 22.225 82.4003 23.3 81.6803 24.04C80.9703 24.77 79.9253 25.135 78.5453 25.135ZM85.2884 25V14.425H89.4734C90.6134 14.425 91.4834 14.69 92.0834 15.22C92.6934 15.75 92.9984 16.505 92.9984 17.485C92.9984 18.265 92.7834 18.905 92.3534 19.405C91.9334 19.905 91.3334 20.23 90.5534 20.38C91.0134 20.54 91.4084 20.93 91.7384 21.55L93.5984 25H92.2484L90.4184 21.61C90.1884 21.19 89.9234 20.905 89.6234 20.755C89.3234 20.605 88.9284 20.53 88.4384 20.53H86.5184V25H85.2884ZM86.5184 19.555H89.2934C90.9534 19.555 91.7834 18.865 91.7834 17.485C91.7834 16.125 90.9534 15.445 89.2934 15.445H86.5184V19.555ZM99.1751 25V14.425H105.715V15.46H100.405V19.15H105.415V20.185H100.405V25H99.1751ZM111.584 25.135C110.604 25.135 109.749 24.915 109.019 24.475C108.299 24.025 107.739 23.395 107.339 22.585C106.949 21.775 106.754 20.815 106.754 19.705C106.754 18.595 106.949 17.635 107.339 16.825C107.729 16.015 108.284 15.39 109.004 14.95C109.734 14.51 110.594 14.29 111.584 14.29C112.584 14.29 113.444 14.51 114.164 14.95C114.894 15.39 115.454 16.015 115.844 16.825C116.244 17.625 116.444 18.58 116.444 19.69C116.444 20.8 116.244 21.765 115.844 22.585C115.444 23.395 114.879 24.025 114.149 24.475C113.429 24.915 112.574 25.135 111.584 25.135ZM111.584 24.04C112.714 24.04 113.589 23.66 114.209 22.9C114.829 22.14 115.139 21.075 115.139 19.705C115.139 18.335 114.829 17.275 114.209 16.525C113.589 15.765 112.714 15.385 111.584 15.385C110.474 15.385 109.609 15.765 108.989 16.525C108.369 17.275 108.059 18.335 108.059 19.705C108.059 21.065 108.369 22.13 108.989 22.9C109.609 23.66 110.474 24.04 111.584 24.04ZM118.643 25V14.425H122.828C123.968 14.425 124.838 14.69 125.438 15.22C126.048 15.75 126.353 16.505 126.353 17.485C126.353 18.265 126.138 18.905 125.708 19.405C125.288 19.905 124.688 20.23 123.908 20.38C124.368 20.54 124.763 20.93 125.093 21.55L126.953 25H125.603L123.773 21.61C123.543 21.19 123.278 20.905 122.978 20.755C122.678 20.605 122.283 20.53 121.793 20.53H119.873V25H118.643ZM119.873 19.555H122.648C124.308 19.555 125.138 18.865 125.138 17.485C125.138 16.125 124.308 15.445 122.648 15.445H119.873V19.555ZM128.707 25V14.425H129.742L133.807 22.06L137.842 14.425H138.877V25H137.737V16.735L134.212 23.365H133.402L129.832 16.75V25H128.707ZM145.362 25V14.425H146.592V19.105H152.937V14.425H154.167V25H152.937V20.17H146.592V25H145.362ZM156.773 25V14.425H163.448V15.46H157.973V19.12H163.133V20.155H157.973V23.965H163.448V25H156.773ZM165.518 25V14.425H169.703C170.843 14.425 171.713 14.69 172.313 15.22C172.923 15.75 173.228 16.505 173.228 17.485C173.228 18.265 173.013 18.905 172.583 19.405C172.163 19.905 171.563 20.23 170.783 20.38C171.243 20.54 171.638 20.93 171.968 21.55L173.828 25H172.478L170.648 21.61C170.418 21.19 170.153 20.905 169.853 20.755C169.553 20.605 169.158 20.53 168.668 20.53H166.748V25H165.518ZM166.748 19.555H169.523C171.183 19.555 172.013 18.865 172.013 17.485C172.013 16.125 171.183 15.445 169.523 15.445H166.748V19.555ZM175.552 25V14.425H182.227V15.46H176.752V19.12H181.912V20.155H176.752V23.965H182.227V25H175.552Z" fill="white"/>
</svg>
