<svg width="158" height="41" viewBox="0 0 158 41" fill="none" xmlns="http://www.w3.org/2000/svg">
<rect x="0.5" y="0.5" width="157" height="40" rx="20" stroke="#67AEC6"/>
<path d="M32.305 25V14.425H33.535V23.92H38.92V25H32.305ZM40.4495 25V14.425H47.1245V15.46H41.6495V19.12H46.8095V20.155H41.6495V23.965H47.1245V25H40.4495ZM47.9696 25L52.6346 14.425H53.6846L58.3496 25H57.0746L55.9046 22.3H50.3996L49.2446 25H47.9696ZM53.1446 15.865L50.8496 21.265H55.4696L53.1746 15.865H53.1446ZM59.9173 25V14.425H64.1023C65.2423 14.425 66.1123 14.69 66.7123 15.22C67.3223 15.75 67.6273 16.505 67.6273 17.485C67.6273 18.265 67.4123 18.905 66.9823 19.405C66.5623 19.905 65.9623 20.23 65.1823 20.38C65.6423 20.54 66.0373 20.93 66.3673 21.55L68.2273 25H66.8773L65.0473 21.61C64.8173 21.19 64.5523 20.905 64.2523 20.755C63.9523 20.605 63.5573 20.53 63.0673 20.53H61.1473V25H59.9173ZM61.1473 19.555H63.9223C65.5823 19.555 66.4123 18.865 66.4123 17.485C66.4123 16.125 65.5823 15.445 63.9223 15.445H61.1473V19.555ZM69.9515 25V14.425H70.9115L77.2865 22.93V14.425H78.4265V25H77.4965L71.1065 16.465V25H69.9515ZM84.9375 25V14.425H85.9725L90.0375 22.06L94.0725 14.425H95.1075V25H93.9675V16.735L90.4425 23.365H89.6325L86.0625 16.75V25H84.9375ZM102.18 25.135C101.2 25.135 100.345 24.915 99.6146 24.475C98.8946 24.025 98.3346 23.395 97.9346 22.585C97.5446 21.775 97.3496 20.815 97.3496 19.705C97.3496 18.595 97.5446 17.635 97.9346 16.825C98.3246 16.015 98.8796 15.39 99.5996 14.95C100.33 14.51 101.19 14.29 102.18 14.29C103.18 14.29 104.04 14.51 104.76 14.95C105.49 15.39 106.05 16.015 106.44 16.825C106.84 17.625 107.04 18.58 107.04 19.69C107.04 20.8 106.84 21.765 106.44 22.585C106.04 23.395 105.475 24.025 104.745 24.475C104.025 24.915 103.17 25.135 102.18 25.135ZM102.18 24.04C103.31 24.04 104.185 23.66 104.805 22.9C105.425 22.14 105.735 21.075 105.735 19.705C105.735 18.335 105.425 17.275 104.805 16.525C104.185 15.765 103.31 15.385 102.18 15.385C101.07 15.385 100.205 15.765 99.5846 16.525C98.9646 17.275 98.6546 18.335 98.6546 19.705C98.6546 21.065 98.9646 22.13 99.5846 22.9C100.205 23.66 101.07 24.04 102.18 24.04ZM109.239 25V14.425H113.424C114.564 14.425 115.434 14.69 116.034 15.22C116.644 15.75 116.949 16.505 116.949 17.485C116.949 18.265 116.734 18.905 116.304 19.405C115.884 19.905 115.284 20.23 114.504 20.38C114.964 20.54 115.359 20.93 115.689 21.55L117.549 25H116.199L114.369 21.61C114.139 21.19 113.874 20.905 113.574 20.755C113.274 20.605 112.879 20.53 112.389 20.53H110.469V25H109.239ZM110.469 19.555H113.244C114.904 19.555 115.734 18.865 115.734 17.485C115.734 16.125 114.904 15.445 113.244 15.445H110.469V19.555ZM119.273 25V14.425H125.948V15.46H120.473V19.12H125.633V20.155H120.473V23.965H125.948V25H119.273Z" fill="#67AEC6"/>
</svg>
