<svg width="154" height="46" viewBox="0 0 154 46" fill="none" xmlns="http://www.w3.org/2000/svg">
<rect x="0.5" y="1.42493" width="153" height="44" rx="22" stroke="#67AEC6"/>
<path d="M32.305 18.4249H33.565V27.7549H39.055V28.9249H32.305V18.4249ZM41.5946 18.4249H47.9546V19.5949H42.8546V23.0749H47.8646V24.2449H42.8546V27.7549H48.0446V28.9249H41.5946V18.4249ZM56.2091 26.3149H51.7091L50.9441 28.9249H49.5941L52.7741 18.4249H55.1441L58.3241 28.9249H56.9741L56.2091 26.3149ZM53.8691 18.9649L52.0541 25.1449H55.8641L54.0491 18.9649H53.8691ZM66.4287 28.9249H65.1687V25.4149C65.1687 25.1549 65.1087 24.9549 64.9887 24.8149C64.8687 24.6749 64.6587 24.6049 64.3587 24.6049H61.0887V28.9249H59.8287V18.4249H63.5787C64.1187 18.4249 64.5887 18.5049 64.9887 18.6649C65.3887 18.8149 65.7187 19.0199 65.9787 19.2799C66.2487 19.5399 66.4487 19.8449 66.5787 20.1949C66.7187 20.5349 66.7887 20.8949 66.7887 21.2749V21.7249C66.7887 22.1149 66.6787 22.5049 66.4587 22.8949C66.2487 23.2849 65.9187 23.5849 65.4687 23.7949V23.9749C65.7687 24.0249 66.0037 24.1449 66.1737 24.3349C66.3437 24.5249 66.4287 24.7949 66.4287 25.1449V28.9249ZM61.0887 23.4349H63.4287C64.1387 23.4349 64.6637 23.2849 65.0037 22.9849C65.3537 22.6749 65.5287 22.2249 65.5287 21.6349V21.3649C65.5287 20.8349 65.3537 20.4099 65.0037 20.0899C64.6637 19.7599 64.1387 19.5949 63.4287 19.5949H61.0887V23.4349ZM74.3833 28.3849H74.5633V18.4249H75.8233V28.9249H73.3033L70.2733 18.9649H70.0933V28.9249H68.8333V18.4249H71.3533L74.3833 28.3849ZM86.7974 18.4249H89.1974L90.6074 28.3849H90.7874L92.1974 18.4249H94.5974V28.9249H93.4274V18.9649H93.2474L91.8374 28.9249H89.5574L88.1474 18.9649H87.9674V28.9249H86.7974V18.4249ZM96.192 22.5049C96.192 21.1449 96.517 20.0899 97.167 19.3399C97.817 18.5899 98.722 18.2149 99.882 18.2149C101.042 18.2149 101.947 18.5899 102.597 19.3399C103.247 20.0899 103.572 21.1449 103.572 22.5049V24.8449C103.572 26.2449 103.247 27.3099 102.597 28.0399C101.947 28.7699 101.042 29.1349 99.882 29.1349C98.722 29.1349 97.817 28.7699 97.167 28.0399C96.517 27.3099 96.192 26.2449 96.192 24.8449V22.5049ZM99.882 27.9649C100.692 27.9649 101.297 27.6899 101.697 27.1399C102.107 26.5799 102.312 25.7849 102.312 24.7549V22.5949C102.312 21.6349 102.107 20.8599 101.697 20.2699C101.297 19.6799 100.692 19.3849 99.882 19.3849C99.072 19.3849 98.462 19.6799 98.052 20.2699C97.652 20.8599 97.452 21.6349 97.452 22.5949V24.7549C97.452 25.7849 97.652 26.5799 98.052 27.1399C98.462 27.6899 99.072 27.9649 99.882 27.9649ZM112.352 28.9249H111.092V25.4149C111.092 25.1549 111.032 24.9549 110.912 24.8149C110.792 24.6749 110.582 24.6049 110.282 24.6049H107.012V28.9249H105.752V18.4249H109.502C110.042 18.4249 110.512 18.5049 110.912 18.6649C111.312 18.8149 111.642 19.0199 111.902 19.2799C112.172 19.5399 112.372 19.8449 112.502 20.1949C112.642 20.5349 112.712 20.8949 112.712 21.2749V21.7249C112.712 22.1149 112.602 22.5049 112.382 22.8949C112.172 23.2849 111.842 23.5849 111.392 23.7949V23.9749C111.692 24.0249 111.927 24.1449 112.097 24.3349C112.267 24.5249 112.352 24.7949 112.352 25.1449V28.9249ZM107.012 23.4349H109.352C110.062 23.4349 110.587 23.2849 110.927 22.9849C111.277 22.6749 111.452 22.2249 111.452 21.6349V21.3649C111.452 20.8349 111.277 20.4099 110.927 20.0899C110.587 19.7599 110.062 19.5949 109.352 19.5949H107.012V23.4349ZM115.071 18.4249H121.431V19.5949H116.331V23.0749H121.341V24.2449H116.331V27.7549H121.521V28.9249H115.071V18.4249Z" fill="#67AEC6"/>
</svg>
