<svg width="154" height="46" viewBox="0 0 154 46" fill="none" xmlns="http://www.w3.org/2000/svg">
<rect x="0.5" y="0.568542" width="153" height="44" rx="22" fill="#67AEC6"/>
<rect x="0.5" y="0.568542" width="153" height="44" rx="22" stroke="#67AEC6"/>
<path d="M32.305 17.5685H33.565V26.8985H39.055V28.0685H32.305V17.5685ZM41.5946 17.5685H47.9546V18.7385H42.8546V22.2185H47.8646V23.3885H42.8546V26.8985H48.0446V28.0685H41.5946V17.5685ZM56.2091 25.4585H51.7091L50.9441 28.0685H49.5941L52.7741 17.5685H55.1441L58.3241 28.0685H56.9741L56.2091 25.4585ZM53.8691 18.1085L52.0541 24.2885H55.8641L54.0491 18.1085H53.8691ZM66.4287 28.0685H65.1687V24.5585C65.1687 24.2985 65.1087 24.0985 64.9887 23.9585C64.8687 23.8185 64.6587 23.7485 64.3587 23.7485H61.0887V28.0685H59.8287V17.5685H63.5787C64.1187 17.5685 64.5887 17.6485 64.9887 17.8085C65.3887 17.9585 65.7187 18.1635 65.9787 18.4235C66.2487 18.6835 66.4487 18.9885 66.5787 19.3385C66.7187 19.6785 66.7887 20.0385 66.7887 20.4185V20.8685C66.7887 21.2585 66.6787 21.6485 66.4587 22.0385C66.2487 22.4285 65.9187 22.7285 65.4687 22.9385V23.1185C65.7687 23.1685 66.0037 23.2885 66.1737 23.4785C66.3437 23.6685 66.4287 23.9385 66.4287 24.2885V28.0685ZM61.0887 22.5785H63.4287C64.1387 22.5785 64.6637 22.4285 65.0037 22.1285C65.3537 21.8185 65.5287 21.3685 65.5287 20.7785V20.5085C65.5287 19.9785 65.3537 19.5535 65.0037 19.2335C64.6637 18.9035 64.1387 18.7385 63.4287 18.7385H61.0887V22.5785ZM74.3833 27.5285H74.5633V17.5685H75.8233V28.0685H73.3033L70.2733 18.1085H70.0933V28.0685H68.8333V17.5685H71.3533L74.3833 27.5285ZM86.7974 17.5685H89.1974L90.6074 27.5285H90.7874L92.1974 17.5685H94.5974V28.0685H93.4274V18.1085H93.2474L91.8374 28.0685H89.5574L88.1474 18.1085H87.9674V28.0685H86.7974V17.5685ZM96.192 21.6485C96.192 20.2885 96.517 19.2335 97.167 18.4835C97.817 17.7335 98.722 17.3585 99.882 17.3585C101.042 17.3585 101.947 17.7335 102.597 18.4835C103.247 19.2335 103.572 20.2885 103.572 21.6485V23.9885C103.572 25.3885 103.247 26.4535 102.597 27.1835C101.947 27.9135 101.042 28.2785 99.882 28.2785C98.722 28.2785 97.817 27.9135 97.167 27.1835C96.517 26.4535 96.192 25.3885 96.192 23.9885V21.6485ZM99.882 27.1085C100.692 27.1085 101.297 26.8335 101.697 26.2835C102.107 25.7235 102.312 24.9285 102.312 23.8985V21.7385C102.312 20.7785 102.107 20.0035 101.697 19.4135C101.297 18.8235 100.692 18.5285 99.882 18.5285C99.072 18.5285 98.462 18.8235 98.052 19.4135C97.652 20.0035 97.452 20.7785 97.452 21.7385V23.8985C97.452 24.9285 97.652 25.7235 98.052 26.2835C98.462 26.8335 99.072 27.1085 99.882 27.1085ZM112.352 28.0685H111.092V24.5585C111.092 24.2985 111.032 24.0985 110.912 23.9585C110.792 23.8185 110.582 23.7485 110.282 23.7485H107.012V28.0685H105.752V17.5685H109.502C110.042 17.5685 110.512 17.6485 110.912 17.8085C111.312 17.9585 111.642 18.1635 111.902 18.4235C112.172 18.6835 112.372 18.9885 112.502 19.3385C112.642 19.6785 112.712 20.0385 112.712 20.4185V20.8685C112.712 21.2585 112.602 21.6485 112.382 22.0385C112.172 22.4285 111.842 22.7285 111.392 22.9385V23.1185C111.692 23.1685 111.927 23.2885 112.097 23.4785C112.267 23.6685 112.352 23.9385 112.352 24.2885V28.0685ZM107.012 22.5785H109.352C110.062 22.5785 110.587 22.4285 110.927 22.1285C111.277 21.8185 111.452 21.3685 111.452 20.7785V20.5085C111.452 19.9785 111.277 19.5535 110.927 19.2335C110.587 18.9035 110.062 18.7385 109.352 18.7385H107.012V22.5785ZM115.071 17.5685H121.431V18.7385H116.331V22.2185H121.341V23.3885H116.331V26.8985H121.521V28.0685H115.071V17.5685Z" fill="white"/>
</svg>
