<svg width="212" height="48" viewBox="0 0 212 48" fill="none" xmlns="http://www.w3.org/2000/svg">
<rect x="0.5" width="211" height="48" rx="24" fill="url(#paint0_linear_61_296)"/>
<path d="M84.024 20.352V23.616H87.864V25.104H84.024V28.512H88.344V30H82.2V18.864H88.344V20.352H84.024ZM95.0386 21.04C95.732 21.04 96.3506 21.184 96.8946 21.472C97.4493 21.76 97.8813 22.1867 98.1906 22.752C98.5 23.3173 98.6546 24 98.6546 24.8V30H96.8466V25.072C96.8466 24.2827 96.6493 23.68 96.2546 23.264C95.86 22.8373 95.3213 22.624 94.6386 22.624C93.956 22.624 93.412 22.8373 93.0066 23.264C92.612 23.68 92.4146 24.2827 92.4146 25.072V30H90.5906V21.184H92.4146V22.192C92.7133 21.8293 93.092 21.5467 93.5506 21.344C94.02 21.1413 94.516 21.04 95.0386 21.04ZM104.389 28.368L106.885 21.184H108.821L105.461 30H103.285L99.9413 21.184H101.893L104.389 28.368ZM111.128 20.016C110.797 20.016 110.52 19.904 110.296 19.68C110.072 19.456 109.96 19.1787 109.96 18.848C109.96 18.5173 110.072 18.24 110.296 18.016C110.52 17.792 110.797 17.68 111.128 17.68C111.448 17.68 111.72 17.792 111.944 18.016C112.168 18.24 112.28 18.5173 112.28 18.848C112.28 19.1787 112.168 19.456 111.944 19.68C111.72 19.904 111.448 20.016 111.128 20.016ZM112.024 21.184V30H110.2V21.184H112.024ZM113.811 25.552C113.811 24.6667 113.992 23.8827 114.355 23.2C114.728 22.5173 115.229 21.9893 115.859 21.616C116.499 21.232 117.203 21.04 117.971 21.04C118.664 21.04 119.267 21.1787 119.779 21.456C120.301 21.7227 120.717 22.0587 121.027 22.464V21.184H122.867V30H121.027V28.688C120.717 29.104 120.296 29.4507 119.763 29.728C119.229 30.0053 118.621 30.144 117.939 30.144C117.181 30.144 116.488 29.952 115.859 29.568C115.229 29.1733 114.728 28.6293 114.355 27.936C113.992 27.232 113.811 26.4373 113.811 25.552ZM121.027 25.584C121.027 24.976 120.899 24.448 120.643 24C120.397 23.552 120.072 23.2107 119.667 22.976C119.261 22.7413 118.824 22.624 118.355 22.624C117.885 22.624 117.448 22.7413 117.043 22.976C116.637 23.2 116.307 23.536 116.051 23.984C115.805 24.4213 115.683 24.944 115.683 25.552C115.683 26.16 115.805 26.6933 116.051 27.152C116.307 27.6107 116.637 27.9627 117.043 28.208C117.459 28.4427 117.896 28.56 118.355 28.56C118.824 28.56 119.261 28.4427 119.667 28.208C120.072 27.9733 120.397 27.632 120.643 27.184C120.899 26.7253 121.027 26.192 121.027 25.584ZM127.087 22.464C127.353 22.016 127.705 21.6693 128.143 21.424C128.591 21.168 129.119 21.04 129.727 21.04V22.928H129.263C128.548 22.928 128.004 23.1093 127.631 23.472C127.268 23.8347 127.087 24.464 127.087 25.36V30H125.263V21.184H127.087V22.464Z" fill="#24449F"/>
<defs>
<linearGradient id="paint0_linear_61_296" x1="-8.52303" y1="41" x2="225.386" y2="-34.4266" gradientUnits="userSpaceOnUse">
<stop offset="0.19" stop-color="#01E2E1"/>
<stop offset="1" stop-color="#0DEAB1"/>
</linearGradient>
</defs>
</svg>
