<svg width="145" height="45" viewBox="0 0 145 45" fill="none" xmlns="http://www.w3.org/2000/svg">
<rect x="0.5" y="0.5" width="144" height="44" rx="22" fill="white"/>
<rect x="0.5" y="0.5" width="144" height="44" rx="22" stroke="white"/>
<path d="M32.26 17.5H38.92V18.67H36.22V26.83H38.92V28H32.26V26.83H34.96V18.67H32.26V17.5ZM46.8296 27.46H47.0096V17.5H48.2696V28H45.7496L42.7196 18.04H42.5396V28H41.2796V17.5H43.7996L46.8296 27.46ZM49.7741 17.5H51.1241L53.8691 27.46H54.0491L56.7941 17.5H58.1441L55.1741 28H52.7441L49.7741 17.5ZM59.9637 17.5H66.3237V18.67H61.2237V22.15H66.2337V23.32H61.2237V26.83H66.4137V28H59.9637V17.5ZM74.8033 20.53C74.8033 20.19 74.7333 19.89 74.5933 19.63C74.4633 19.37 74.2833 19.155 74.0533 18.985C73.8233 18.815 73.5583 18.685 73.2583 18.595C72.9583 18.505 72.6433 18.46 72.3133 18.46C72.0233 18.46 71.7483 18.5 71.4883 18.58C71.2283 18.65 70.9933 18.755 70.7833 18.895C70.5833 19.035 70.4233 19.21 70.3033 19.42C70.1833 19.62 70.1233 19.855 70.1233 20.125V20.215C70.1233 20.505 70.1833 20.755 70.3033 20.965C70.4233 21.165 70.5983 21.34 70.8283 21.49C71.0683 21.63 71.3633 21.75 71.7133 21.85C72.0633 21.94 72.4733 22.02 72.9433 22.09C74.0433 22.26 74.8533 22.585 75.3733 23.065C75.8933 23.535 76.1533 24.17 76.1533 24.97V25.15C76.1533 25.6 76.0733 26.015 75.9133 26.395C75.7633 26.765 75.5333 27.085 75.2233 27.355C74.9233 27.625 74.5483 27.835 74.0983 27.985C73.6483 28.135 73.1283 28.21 72.5383 28.21C71.8683 28.21 71.2733 28.115 70.7533 27.925C70.2433 27.725 69.8133 27.455 69.4633 27.115C69.1233 26.765 68.8633 26.36 68.6833 25.9C68.5033 25.43 68.4133 24.92 68.4133 24.37V23.92H69.6733V24.28C69.6733 25.2 69.9233 25.89 70.4233 26.35C70.9333 26.81 71.6383 27.04 72.5383 27.04C73.3183 27.04 73.9033 26.87 74.2933 26.53C74.6933 26.18 74.8933 25.72 74.8933 25.15V25.06C74.8933 24.51 74.6883 24.09 74.2783 23.8C73.8783 23.51 73.2233 23.3 72.3133 23.17C71.7833 23.1 71.3033 22.995 70.8733 22.855C70.4533 22.705 70.0933 22.515 69.7933 22.285C69.4933 22.045 69.2633 21.76 69.1033 21.43C68.9433 21.1 68.8633 20.71 68.8633 20.26V20.08C68.8633 19.67 68.9483 19.295 69.1183 18.955C69.2883 18.615 69.5233 18.32 69.8233 18.07C70.1333 17.82 70.4983 17.63 70.9183 17.5C71.3483 17.36 71.8183 17.29 72.3283 17.29C72.9183 17.29 73.4433 17.375 73.9033 17.545C74.3733 17.715 74.7683 17.945 75.0883 18.235C75.4083 18.515 75.6483 18.85 75.8083 19.24C75.9783 19.62 76.0633 20.02 76.0633 20.44V21.07H74.8033V20.53ZM77.8229 17.5H85.2029V18.67H82.1429V28H80.8829V18.67H77.8229V17.5ZM87.0074 21.58C87.0074 20.22 87.3324 19.165 87.9824 18.415C88.6324 17.665 89.5374 17.29 90.6974 17.29C91.8574 17.29 92.7624 17.665 93.4124 18.415C94.0624 19.165 94.3874 20.22 94.3874 21.58V23.92C94.3874 25.32 94.0624 26.385 93.4124 27.115C92.7624 27.845 91.8574 28.21 90.6974 28.21C89.5374 28.21 88.6324 27.845 87.9824 27.115C87.3324 26.385 87.0074 25.32 87.0074 23.92V21.58ZM90.6974 27.04C91.5074 27.04 92.1124 26.765 92.5124 26.215C92.9224 25.655 93.1274 24.86 93.1274 23.83V21.67C93.1274 20.71 92.9224 19.935 92.5124 19.345C92.1124 18.755 91.5074 18.46 90.6974 18.46C89.8874 18.46 89.2774 18.755 88.8674 19.345C88.4674 19.935 88.2674 20.71 88.2674 21.67V23.83C88.2674 24.86 88.4674 25.655 88.8674 26.215C89.2774 26.765 89.8874 27.04 90.6974 27.04ZM103.167 28H101.907V24.49C101.907 24.23 101.847 24.03 101.727 23.89C101.607 23.75 101.397 23.68 101.097 23.68H97.827V28H96.567V17.5H100.317C100.857 17.5 101.327 17.58 101.727 17.74C102.127 17.89 102.457 18.095 102.717 18.355C102.987 18.615 103.187 18.92 103.317 19.27C103.457 19.61 103.527 19.97 103.527 20.35V20.8C103.527 21.19 103.417 21.58 103.197 21.97C102.987 22.36 102.657 22.66 102.207 22.87V23.05C102.507 23.1 102.742 23.22 102.912 23.41C103.082 23.6 103.167 23.87 103.167 24.22V28ZM97.827 22.51H100.167C100.877 22.51 101.402 22.36 101.742 22.06C102.092 21.75 102.267 21.3 102.267 20.71V20.44C102.267 19.91 102.092 19.485 101.742 19.165C101.402 18.835 100.877 18.67 100.167 18.67H97.827V22.51ZM111.542 20.53C111.542 20.19 111.472 19.89 111.332 19.63C111.202 19.37 111.022 19.155 110.792 18.985C110.562 18.815 110.297 18.685 109.997 18.595C109.697 18.505 109.382 18.46 109.052 18.46C108.762 18.46 108.487 18.5 108.227 18.58C107.967 18.65 107.732 18.755 107.522 18.895C107.322 19.035 107.162 19.21 107.042 19.42C106.922 19.62 106.862 19.855 106.862 20.125V20.215C106.862 20.505 106.922 20.755 107.042 20.965C107.162 21.165 107.337 21.34 107.567 21.49C107.807 21.63 108.102 21.75 108.452 21.85C108.802 21.94 109.212 22.02 109.682 22.09C110.782 22.26 111.592 22.585 112.112 23.065C112.632 23.535 112.892 24.17 112.892 24.97V25.15C112.892 25.6 112.812 26.015 112.652 26.395C112.502 26.765 112.272 27.085 111.962 27.355C111.662 27.625 111.287 27.835 110.837 27.985C110.387 28.135 109.867 28.21 109.277 28.21C108.607 28.21 108.012 28.115 107.492 27.925C106.982 27.725 106.552 27.455 106.202 27.115C105.862 26.765 105.602 26.36 105.422 25.9C105.242 25.43 105.152 24.92 105.152 24.37V23.92H106.412V24.28C106.412 25.2 106.662 25.89 107.162 26.35C107.672 26.81 108.377 27.04 109.277 27.04C110.057 27.04 110.642 26.87 111.032 26.53C111.432 26.18 111.632 25.72 111.632 25.15V25.06C111.632 24.51 111.427 24.09 111.017 23.8C110.617 23.51 109.962 23.3 109.052 23.17C108.522 23.1 108.042 22.995 107.612 22.855C107.192 22.705 106.832 22.515 106.532 22.285C106.232 22.045 106.002 21.76 105.842 21.43C105.682 21.1 105.602 20.71 105.602 20.26V20.08C105.602 19.67 105.687 19.295 105.857 18.955C106.027 18.615 106.262 18.32 106.562 18.07C106.872 17.82 107.237 17.63 107.657 17.5C108.087 17.36 108.557 17.29 109.067 17.29C109.657 17.29 110.182 17.375 110.642 17.545C111.112 17.715 111.507 17.945 111.827 18.235C112.147 18.515 112.387 18.85 112.547 19.24C112.717 19.62 112.802 20.02 112.802 20.44V21.07H111.542V20.53Z" fill="#303C31"/>
</svg>
