<svg width="168" height="42" viewBox="0 0 168 42" fill="none" xmlns="http://www.w3.org/2000/svg">
<rect x="0.5" y="1.33716" width="167" height="40" rx="20" fill="#67AEC6"/>
<rect x="0.5" y="1.33716" width="167" height="40" rx="20" stroke="#67AEC6"/>
<path d="M60.805 25.8372V15.2622H62.035V24.7572H67.42V25.8372H60.805ZM72.8475 25.9722C71.8675 25.9722 71.0125 25.7522 70.2825 25.3122C69.5625 24.8622 69.0025 24.2322 68.6025 23.4222C68.2125 22.6122 68.0175 21.6522 68.0175 20.5422C68.0175 19.4322 68.2125 18.4722 68.6025 17.6622C68.9925 16.8522 69.5475 16.2272 70.2675 15.7872C70.9975 15.3472 71.8575 15.1272 72.8475 15.1272C73.8475 15.1272 74.7075 15.3472 75.4275 15.7872C76.1575 16.2272 76.7175 16.8522 77.1075 17.6622C77.5075 18.4622 77.7075 19.4172 77.7075 20.5272C77.7075 21.6372 77.5075 22.6022 77.1075 23.4222C76.7075 24.2322 76.1425 24.8622 75.4125 25.3122C74.6925 25.7522 73.8375 25.9722 72.8475 25.9722ZM72.8475 24.8772C73.9775 24.8772 74.8525 24.4972 75.4725 23.7372C76.0925 22.9772 76.4025 21.9122 76.4025 20.5422C76.4025 19.1722 76.0925 18.1122 75.4725 17.3622C74.8525 16.6022 73.9775 16.2222 72.8475 16.2222C71.7375 16.2222 70.8725 16.6022 70.2525 17.3622C69.6325 18.1122 69.3225 19.1722 69.3225 20.5422C69.3225 21.9022 69.6325 22.9672 70.2525 23.7372C70.8725 24.4972 71.7375 24.8772 72.8475 24.8772ZM84.7366 25.9722C83.0366 25.9722 81.7416 25.4922 80.8516 24.5322C79.9616 23.5722 79.5166 22.2472 79.5166 20.5572C79.5166 19.4372 79.7166 18.4722 80.1166 17.6622C80.5166 16.8522 81.0916 16.2272 81.8416 15.7872C82.5916 15.3472 83.4966 15.1272 84.5566 15.1272C85.3066 15.1272 85.9966 15.2422 86.6266 15.4722C87.2566 15.6922 87.7916 16.0172 88.2316 16.4472L87.7516 17.4372C87.2716 17.0172 86.7766 16.7122 86.2666 16.5222C85.7566 16.3322 85.1816 16.2372 84.5416 16.2372C83.3416 16.2372 82.4216 16.6172 81.7816 17.3772C81.1416 18.1272 80.8216 19.1872 80.8216 20.5572C80.8216 21.9572 81.1516 23.0272 81.8116 23.7672C82.4716 24.5072 83.4566 24.8772 84.7666 24.8772C85.6166 24.8772 86.4316 24.7322 87.2116 24.4422V21.3072H84.5266V20.3322H88.2766V25.2222C87.9966 25.3722 87.6566 25.5022 87.2566 25.6122C86.8666 25.7222 86.4516 25.8072 86.0116 25.8672C85.5716 25.9372 85.1466 25.9722 84.7366 25.9722ZM94.6429 25.8372V15.2622H95.8729V25.8372H94.6429ZM98.4808 25.8372V15.2622H99.4408L105.816 23.7672V15.2622H106.956V25.8372H106.026L99.6358 17.3022V25.8372H98.4808Z" fill="white"/>
</svg>
