<svg width="140" height="42" viewBox="0 0 140 42" fill="none" xmlns="http://www.w3.org/2000/svg">
<rect x="0.5" y="1" width="139" height="40" rx="20" fill="#67AEC6"/>
<rect x="0.5" y="1" width="139" height="40" rx="20" stroke="#67AEC6"/>
<path d="M32.23 25.5V14.925H33.79V24.165H39.025V25.5H32.23ZM39.0284 25.5L43.0634 20.1L39.1934 14.925H40.9934L43.9484 18.96L46.8734 14.925H48.6884L44.8184 20.1L48.8384 25.5H47.0234L43.9334 21.27L40.8584 25.5H39.0284ZM54.6556 25.635C53.5056 25.635 52.5356 25.42 51.7456 24.99C50.9556 24.55 50.3556 23.925 49.9456 23.115C49.5456 22.305 49.3456 21.34 49.3456 20.22C49.3456 19.11 49.5506 18.15 49.9606 17.34C50.3706 16.52 50.9656 15.89 51.7456 15.45C52.5256 15.01 53.4606 14.79 54.5506 14.79C55.3006 14.79 55.9956 14.9 56.6356 15.12C57.2756 15.34 57.8106 15.655 58.2406 16.065L57.6856 17.28C57.2056 16.88 56.7156 16.595 56.2156 16.425C55.7156 16.245 55.1606 16.155 54.5506 16.155C53.3806 16.155 52.4906 16.51 51.8806 17.22C51.2706 17.92 50.9656 18.92 50.9656 20.22C50.9656 21.55 51.2756 22.56 51.8956 23.25C52.5256 23.94 53.4656 24.285 54.7156 24.285C55.4756 24.285 56.2306 24.16 56.9806 23.91V21.075H54.4006V19.905H58.2856V24.885C57.8356 25.105 57.2756 25.285 56.6056 25.425C55.9456 25.565 55.2956 25.635 54.6556 25.635ZM69.2077 25.635C68.1977 25.635 67.3227 25.415 66.5827 24.975C65.8427 24.525 65.2677 23.895 64.8577 23.085C64.4577 22.265 64.2577 21.305 64.2577 20.205C64.2577 19.095 64.4577 18.135 64.8577 17.325C65.2677 16.515 65.8427 15.89 66.5827 15.45C67.3227 15.01 68.1977 14.79 69.2077 14.79C70.2077 14.79 71.0777 15.01 71.8177 15.45C72.5677 15.89 73.1427 16.515 73.5427 17.325C73.9527 18.135 74.1577 19.09 74.1577 20.19C74.1577 21.3 73.9527 22.265 73.5427 23.085C73.1427 23.895 72.5677 24.525 71.8177 24.975C71.0777 25.415 70.2077 25.635 69.2077 25.635ZM69.2077 24.285C70.2577 24.285 71.0727 23.93 71.6527 23.22C72.2427 22.5 72.5377 21.495 72.5377 20.205C72.5377 18.915 72.2477 17.915 71.6677 17.205C71.0877 16.495 70.2677 16.14 69.2077 16.14C68.1577 16.14 67.3377 16.495 66.7477 17.205C66.1677 17.915 65.8777 18.915 65.8777 20.205C65.8777 21.495 66.1677 22.5 66.7477 23.22C67.3377 23.93 68.1577 24.285 69.2077 24.285ZM76.0836 25.5V18.18H77.5536V19.395C77.8036 18.955 78.1436 18.62 78.5736 18.39C79.0136 18.16 79.5036 18.045 80.0436 18.045C81.7736 18.045 82.6386 19.025 82.6386 20.985V25.5H81.1236V21.075C81.1236 20.445 80.9986 19.985 80.7486 19.695C80.5086 19.405 80.1286 19.26 79.6086 19.26C78.9986 19.26 78.5086 19.455 78.1386 19.845C77.7786 20.225 77.5986 20.73 77.5986 21.36V25.5H76.0836ZM87.1111 25.635C86.3111 25.635 85.7111 25.41 85.3111 24.96C84.9211 24.51 84.7261 23.85 84.7261 22.98V14.925H86.2411V22.89C86.2411 23.88 86.6461 24.375 87.4561 24.375C87.5761 24.375 87.6861 24.37 87.7861 24.36C87.8961 24.35 88.0061 24.33 88.1161 24.3L88.0861 25.515C87.7461 25.595 87.4211 25.635 87.1111 25.635ZM89.1761 16.485V14.91H90.9461V16.485H89.1761ZM89.3111 25.5V18.18H90.8261V25.5H89.3111ZM92.9586 25.5V18.18H94.4286V19.395C94.6786 18.955 95.0186 18.62 95.4486 18.39C95.8886 18.16 96.3786 18.045 96.9186 18.045C98.6486 18.045 99.5136 19.025 99.5136 20.985V25.5H97.9986V21.075C97.9986 20.445 97.8736 19.985 97.6236 19.695C97.3836 19.405 97.0036 19.26 96.4836 19.26C95.8736 19.26 95.3836 19.455 95.0136 19.845C94.6536 20.225 94.4736 20.73 94.4736 21.36V25.5H92.9586ZM105.036 25.635C103.836 25.635 102.891 25.3 102.201 24.63C101.511 23.95 101.166 23.025 101.166 21.855C101.166 21.105 101.316 20.445 101.616 19.875C101.926 19.295 102.351 18.845 102.891 18.525C103.431 18.205 104.051 18.045 104.751 18.045C105.761 18.045 106.556 18.37 107.136 19.02C107.716 19.66 108.006 20.545 108.006 21.675V22.185H102.636C102.746 23.705 103.551 24.465 105.051 24.465C105.471 24.465 105.881 24.4 106.281 24.27C106.691 24.14 107.076 23.925 107.436 23.625L107.886 24.675C107.556 24.975 107.131 25.21 106.611 25.38C106.091 25.55 105.566 25.635 105.036 25.635ZM104.811 19.11C104.181 19.11 103.681 19.305 103.311 19.695C102.941 20.085 102.716 20.605 102.636 21.255H106.731C106.701 20.575 106.521 20.05 106.191 19.68C105.861 19.3 105.401 19.11 104.811 19.11Z" fill="white"/>
</svg>
