<svg width="128" height="41" viewBox="0 0 128 41" fill="none" xmlns="http://www.w3.org/2000/svg">
<rect x="0.5" y="0.5" width="127" height="40" rx="20" fill="white"/>
<rect x="0.5" y="0.5" width="127" height="40" rx="20" stroke="white"/>
<path d="M26.23 25V14.425H27.79V23.665H33.025V25H26.23ZM33.0284 25L37.0634 19.6L33.1934 14.425H34.9934L37.9484 18.46L40.8734 14.425H42.6884L38.8184 19.6L42.8384 25H41.0234L37.9334 20.77L34.8584 25H33.0284ZM48.6556 25.135C47.5056 25.135 46.5356 24.92 45.7456 24.49C44.9556 24.05 44.3556 23.425 43.9456 22.615C43.5456 21.805 43.3456 20.84 43.3456 19.72C43.3456 18.61 43.5506 17.65 43.9606 16.84C44.3706 16.02 44.9656 15.39 45.7456 14.95C46.5256 14.51 47.4606 14.29 48.5506 14.29C49.3006 14.29 49.9956 14.4 50.6356 14.62C51.2756 14.84 51.8106 15.155 52.2406 15.565L51.6856 16.78C51.2056 16.38 50.7156 16.095 50.2156 15.925C49.7156 15.745 49.1606 15.655 48.5506 15.655C47.3806 15.655 46.4906 16.01 45.8806 16.72C45.2706 17.42 44.9656 18.42 44.9656 19.72C44.9656 21.05 45.2756 22.06 45.8956 22.75C46.5256 23.44 47.4656 23.785 48.7156 23.785C49.4756 23.785 50.2306 23.66 50.9806 23.41V20.575H48.4006V19.405H52.2856V24.385C51.8356 24.605 51.2756 24.785 50.6056 24.925C49.9456 25.065 49.2956 25.135 48.6556 25.135ZM63.2077 25.135C62.1977 25.135 61.3227 24.915 60.5827 24.475C59.8427 24.025 59.2677 23.395 58.8577 22.585C58.4577 21.765 58.2577 20.805 58.2577 19.705C58.2577 18.595 58.4577 17.635 58.8577 16.825C59.2677 16.015 59.8427 15.39 60.5827 14.95C61.3227 14.51 62.1977 14.29 63.2077 14.29C64.2077 14.29 65.0777 14.51 65.8177 14.95C66.5677 15.39 67.1427 16.015 67.5427 16.825C67.9527 17.635 68.1577 18.59 68.1577 19.69C68.1577 20.8 67.9527 21.765 67.5427 22.585C67.1427 23.395 66.5677 24.025 65.8177 24.475C65.0777 24.915 64.2077 25.135 63.2077 25.135ZM63.2077 23.785C64.2577 23.785 65.0727 23.43 65.6527 22.72C66.2427 22 66.5377 20.995 66.5377 19.705C66.5377 18.415 66.2477 17.415 65.6677 16.705C65.0877 15.995 64.2677 15.64 63.2077 15.64C62.1577 15.64 61.3377 15.995 60.7477 16.705C60.1677 17.415 59.8777 18.415 59.8777 19.705C59.8777 20.995 60.1677 22 60.7477 22.72C61.3377 23.43 62.1577 23.785 63.2077 23.785ZM70.0836 25V17.68H71.5536V18.895C71.8036 18.455 72.1436 18.12 72.5736 17.89C73.0136 17.66 73.5036 17.545 74.0436 17.545C75.7736 17.545 76.6386 18.525 76.6386 20.485V25H75.1236V20.575C75.1236 19.945 74.9986 19.485 74.7486 19.195C74.5086 18.905 74.1286 18.76 73.6086 18.76C72.9986 18.76 72.5086 18.955 72.1386 19.345C71.7786 19.725 71.5986 20.23 71.5986 20.86V25H70.0836ZM81.1111 25.135C80.3111 25.135 79.7111 24.91 79.3111 24.46C78.9211 24.01 78.7261 23.35 78.7261 22.48V14.425H80.2411V22.39C80.2411 23.38 80.6461 23.875 81.4561 23.875C81.5761 23.875 81.6861 23.87 81.7861 23.86C81.8961 23.85 82.0061 23.83 82.1161 23.8L82.0861 25.015C81.7461 25.095 81.4211 25.135 81.1111 25.135ZM83.1761 15.985V14.41H84.9461V15.985H83.1761ZM83.3111 25V17.68H84.8261V25H83.3111ZM86.9586 25V17.68H88.4286V18.895C88.6786 18.455 89.0186 18.12 89.4486 17.89C89.8886 17.66 90.3786 17.545 90.9186 17.545C92.6486 17.545 93.5136 18.525 93.5136 20.485V25H91.9986V20.575C91.9986 19.945 91.8736 19.485 91.6236 19.195C91.3836 18.905 91.0036 18.76 90.4836 18.76C89.8736 18.76 89.3836 18.955 89.0136 19.345C88.6536 19.725 88.4736 20.23 88.4736 20.86V25H86.9586ZM99.0361 25.135C97.8361 25.135 96.8911 24.8 96.2011 24.13C95.5111 23.45 95.1661 22.525 95.1661 21.355C95.1661 20.605 95.3161 19.945 95.6161 19.375C95.9261 18.795 96.3511 18.345 96.8911 18.025C97.4311 17.705 98.0511 17.545 98.7511 17.545C99.7611 17.545 100.556 17.87 101.136 18.52C101.716 19.16 102.006 20.045 102.006 21.175V21.685H96.6361C96.7461 23.205 97.5511 23.965 99.0511 23.965C99.4711 23.965 99.8811 23.9 100.281 23.77C100.691 23.64 101.076 23.425 101.436 23.125L101.886 24.175C101.556 24.475 101.131 24.71 100.611 24.88C100.091 25.05 99.5661 25.135 99.0361 25.135ZM98.8111 18.61C98.1811 18.61 97.6811 18.805 97.3111 19.195C96.9411 19.585 96.7161 20.105 96.6361 20.755H100.731C100.701 20.075 100.521 19.55 100.191 19.18C99.8611 18.8 99.4011 18.61 98.8111 18.61Z" fill="#01486B"/>
</svg>
