<svg width="152" height="64" viewBox="0 0 152 64" fill="none" xmlns="http://www.w3.org/2000/svg">
<rect y="16" width="152" height="48" rx="24" fill="url(#paint0_linear_1_921)"/>
<path d="M50.784 34.88L46.608 46H44.496L40.304 34.88H42.256L45.552 44.128L48.864 34.88H50.784ZM60.3894 41.376C60.3894 41.7067 60.368 42.0053 60.3254 42.272H53.5894C53.6427 42.976 53.904 43.5413 54.3734 43.968C54.8427 44.3947 55.4187 44.608 56.1014 44.608C57.0827 44.608 57.776 44.1973 58.1814 43.376H60.1494C59.8827 44.1867 59.3974 44.8533 58.6934 45.376C58 45.888 57.136 46.144 56.1014 46.144C55.2587 46.144 54.5014 45.9573 53.8294 45.584C53.168 45.2 52.6454 44.6667 52.2614 43.984C51.888 43.2907 51.7014 42.4907 51.7014 41.584C51.7014 40.6773 51.8827 39.8827 52.2454 39.2C52.6187 38.5067 53.136 37.9733 53.7974 37.6C54.4694 37.2267 55.2374 37.04 56.1014 37.04C56.9334 37.04 57.6747 37.2213 58.3254 37.584C58.976 37.9467 59.4827 38.4587 59.8454 39.12C60.208 39.7707 60.3894 40.5227 60.3894 41.376ZM58.4854 40.8C58.4747 40.128 58.2347 39.5893 57.7654 39.184C57.296 38.7787 56.7147 38.576 56.0214 38.576C55.392 38.576 54.8534 38.7787 54.4054 39.184C53.9574 39.5787 53.6907 40.1173 53.6054 40.8H58.4854ZM64.0084 38.464C64.275 38.016 64.627 37.6693 65.0644 37.424C65.5124 37.168 66.0404 37.04 66.6484 37.04V38.928H66.1844C65.4697 38.928 64.9257 39.1093 64.5524 39.472C64.1897 39.8347 64.0084 40.464 64.0084 41.36V46H62.1844V37.184H64.0084V38.464ZM83.1533 37.04C83.8466 37.04 84.4653 37.184 85.0093 37.472C85.5639 37.76 85.9959 38.1867 86.3053 38.752C86.6253 39.3173 86.7853 40 86.7853 40.8V46H84.9773V41.072C84.9773 40.2827 84.7799 39.68 84.3853 39.264C83.9906 38.8373 83.4519 38.624 82.7693 38.624C82.0866 38.624 81.5426 38.8373 81.1373 39.264C80.7426 39.68 80.5453 40.2827 80.5453 41.072V46H78.7373V41.072C78.7373 40.2827 78.5399 39.68 78.1453 39.264C77.7506 38.8373 77.2119 38.624 76.5293 38.624C75.8466 38.624 75.3026 38.8373 74.8973 39.264C74.5026 39.68 74.3053 40.2827 74.3053 41.072V46H72.4813V37.184H74.3053V38.192C74.6039 37.8293 74.9826 37.5467 75.4413 37.344C75.8999 37.1413 76.3906 37.04 76.9133 37.04C77.6173 37.04 78.2466 37.1893 78.8013 37.488C79.3559 37.7867 79.7826 38.2187 80.0813 38.784C80.3479 38.2507 80.7639 37.8293 81.3293 37.52C81.8946 37.2 82.5026 37.04 83.1533 37.04ZM88.4983 41.552C88.4983 40.6667 88.6796 39.8827 89.0423 39.2C89.4156 38.5173 89.9169 37.9893 90.5463 37.616C91.1863 37.232 91.8903 37.04 92.6583 37.04C93.3516 37.04 93.9543 37.1787 94.4663 37.456C94.9889 37.7227 95.4049 38.0587 95.7143 38.464V37.184H97.5543V46H95.7143V44.688C95.4049 45.104 94.9836 45.4507 94.4503 45.728C93.9169 46.0053 93.3089 46.144 92.6263 46.144C91.8689 46.144 91.1756 45.952 90.5463 45.568C89.9169 45.1733 89.4156 44.6293 89.0423 43.936C88.6796 43.232 88.4983 42.4373 88.4983 41.552ZM95.7143 41.584C95.7143 40.976 95.5863 40.448 95.3303 40C95.0849 39.552 94.7596 39.2107 94.3543 38.976C93.9489 38.7413 93.5116 38.624 93.0423 38.624C92.5729 38.624 92.1356 38.7413 91.7303 38.976C91.3249 39.2 90.9943 39.536 90.7383 39.984C90.4929 40.4213 90.3703 40.944 90.3703 41.552C90.3703 42.16 90.4929 42.6933 90.7383 43.152C90.9943 43.6107 91.3249 43.9627 91.7303 44.208C92.1463 44.4427 92.5836 44.56 93.0423 44.56C93.5116 44.56 93.9489 44.4427 94.3543 44.208C94.7596 43.9733 95.0849 43.632 95.3303 43.184C95.5863 42.7253 95.7143 42.192 95.7143 41.584ZM100.878 36.016C100.547 36.016 100.27 35.904 100.046 35.68C99.822 35.456 99.71 35.1787 99.71 34.848C99.71 34.5173 99.822 34.24 100.046 34.016C100.27 33.792 100.547 33.68 100.878 33.68C101.198 33.68 101.47 33.792 101.694 34.016C101.918 34.24 102.03 34.5173 102.03 34.848C102.03 35.1787 101.918 35.456 101.694 35.68C101.47 35.904 101.198 36.016 100.878 36.016ZM101.774 37.184V46H99.95V37.184H101.774ZM107.369 46.144C106.675 46.144 106.051 46.0213 105.497 45.776C104.953 45.52 104.521 45.1787 104.201 44.752C103.881 44.3147 103.71 43.8293 103.689 43.296H105.577C105.609 43.6693 105.785 43.984 106.105 44.24C106.435 44.4853 106.846 44.608 107.337 44.608C107.849 44.608 108.243 44.512 108.521 44.32C108.809 44.1173 108.953 43.8613 108.953 43.552C108.953 43.2213 108.793 42.976 108.473 42.816C108.163 42.656 107.667 42.48 106.985 42.288C106.323 42.1067 105.785 41.9307 105.369 41.76C104.953 41.5893 104.59 41.328 104.281 40.976C103.982 40.624 103.833 40.16 103.833 39.584C103.833 39.1147 103.971 38.688 104.249 38.304C104.526 37.9093 104.921 37.6 105.433 37.376C105.955 37.152 106.553 37.04 107.225 37.04C108.227 37.04 109.033 37.296 109.641 37.808C110.259 38.3093 110.59 38.9973 110.633 39.872H108.809C108.777 39.4773 108.617 39.1627 108.329 38.928C108.041 38.6933 107.651 38.576 107.161 38.576C106.681 38.576 106.313 38.6667 106.057 38.848C105.801 39.0293 105.673 39.2693 105.673 39.568C105.673 39.8027 105.758 40 105.929 40.16C106.099 40.32 106.307 40.448 106.553 40.544C106.798 40.6293 107.161 40.7413 107.641 40.88C108.281 41.0507 108.803 41.2267 109.209 41.408C109.625 41.5787 109.982 41.8347 110.281 42.176C110.579 42.5173 110.734 42.9707 110.745 43.536C110.745 44.0373 110.606 44.4853 110.329 44.88C110.051 45.2747 109.657 45.584 109.145 45.808C108.643 46.032 108.051 46.144 107.369 46.144Z" fill="white"/>
<defs>
<linearGradient id="paint0_linear_1_921" x1="-6.5" y1="57" x2="170" y2="16" gradientUnits="userSpaceOnUse">
<stop stop-color="#24449F"/>
<stop offset="0.539051" stop-color="#01E2E1"/>
<stop offset="1" stop-color="#0DEAB1"/>
</linearGradient>
</defs>
</svg>
