<svg width="152" height="48" viewBox="0 0 152 48" fill="none" xmlns="http://www.w3.org/2000/svg">
<path d="M0 24C0 10.7452 10.7452 0 24 0H128C141.255 0 152 10.7452 152 24C152 37.2548 141.255 48 128 48H24C10.7452 48 0 37.2548 0 24Z" fill="#24449F"/>
<path d="M50.784 18.88L46.608 30H44.496L40.304 18.88H42.256L45.552 28.128L48.864 18.88H50.784ZM60.3894 25.376C60.3894 25.7067 60.368 26.0053 60.3254 26.272H53.5894C53.6427 26.976 53.904 27.5413 54.3734 27.968C54.8427 28.3947 55.4187 28.608 56.1014 28.608C57.0827 28.608 57.776 28.1973 58.1814 27.376H60.1494C59.8827 28.1867 59.3974 28.8533 58.6934 29.376C58 29.888 57.136 30.144 56.1014 30.144C55.2587 30.144 54.5014 29.9573 53.8294 29.584C53.168 29.2 52.6454 28.6667 52.2614 27.984C51.888 27.2907 51.7014 26.4907 51.7014 25.584C51.7014 24.6773 51.8827 23.8827 52.2454 23.2C52.6187 22.5067 53.136 21.9733 53.7974 21.6C54.4694 21.2267 55.2374 21.04 56.1014 21.04C56.9334 21.04 57.6747 21.2213 58.3254 21.584C58.976 21.9467 59.4827 22.4587 59.8454 23.12C60.208 23.7707 60.3894 24.5227 60.3894 25.376ZM58.4854 24.8C58.4747 24.128 58.2347 23.5893 57.7654 23.184C57.296 22.7787 56.7147 22.576 56.0214 22.576C55.392 22.576 54.8534 22.7787 54.4054 23.184C53.9574 23.5787 53.6907 24.1173 53.6054 24.8H58.4854ZM64.0084 22.464C64.275 22.016 64.627 21.6693 65.0644 21.424C65.5124 21.168 66.0404 21.04 66.6484 21.04V22.928H66.1844C65.4697 22.928 64.9257 23.1093 64.5524 23.472C64.1897 23.8347 64.0084 24.464 64.0084 25.36V30H62.1844V21.184H64.0084V22.464ZM83.1533 21.04C83.8466 21.04 84.4653 21.184 85.0093 21.472C85.5639 21.76 85.9959 22.1867 86.3053 22.752C86.6253 23.3173 86.7853 24 86.7853 24.8V30H84.9773V25.072C84.9773 24.2827 84.7799 23.68 84.3853 23.264C83.9906 22.8373 83.4519 22.624 82.7693 22.624C82.0866 22.624 81.5426 22.8373 81.1373 23.264C80.7426 23.68 80.5453 24.2827 80.5453 25.072V30H78.7373V25.072C78.7373 24.2827 78.5399 23.68 78.1453 23.264C77.7506 22.8373 77.2119 22.624 76.5293 22.624C75.8466 22.624 75.3026 22.8373 74.8973 23.264C74.5026 23.68 74.3053 24.2827 74.3053 25.072V30H72.4813V21.184H74.3053V22.192C74.6039 21.8293 74.9826 21.5467 75.4413 21.344C75.8999 21.1413 76.3906 21.04 76.9133 21.04C77.6173 21.04 78.2466 21.1893 78.8013 21.488C79.3559 21.7867 79.7826 22.2187 80.0813 22.784C80.3479 22.2507 80.7639 21.8293 81.3293 21.52C81.8946 21.2 82.5026 21.04 83.1533 21.04ZM88.4983 25.552C88.4983 24.6667 88.6796 23.8827 89.0423 23.2C89.4156 22.5173 89.9169 21.9893 90.5463 21.616C91.1863 21.232 91.8903 21.04 92.6583 21.04C93.3516 21.04 93.9543 21.1787 94.4663 21.456C94.9889 21.7227 95.4049 22.0587 95.7143 22.464V21.184H97.5543V30H95.7143V28.688C95.4049 29.104 94.9836 29.4507 94.4503 29.728C93.9169 30.0053 93.3089 30.144 92.6263 30.144C91.8689 30.144 91.1756 29.952 90.5463 29.568C89.9169 29.1733 89.4156 28.6293 89.0423 27.936C88.6796 27.232 88.4983 26.4373 88.4983 25.552ZM95.7143 25.584C95.7143 24.976 95.5863 24.448 95.3303 24C95.0849 23.552 94.7596 23.2107 94.3543 22.976C93.9489 22.7413 93.5116 22.624 93.0423 22.624C92.5729 22.624 92.1356 22.7413 91.7303 22.976C91.3249 23.2 90.9943 23.536 90.7383 23.984C90.4929 24.4213 90.3703 24.944 90.3703 25.552C90.3703 26.16 90.4929 26.6933 90.7383 27.152C90.9943 27.6107 91.3249 27.9627 91.7303 28.208C92.1463 28.4427 92.5836 28.56 93.0423 28.56C93.5116 28.56 93.9489 28.4427 94.3543 28.208C94.7596 27.9733 95.0849 27.632 95.3303 27.184C95.5863 26.7253 95.7143 26.192 95.7143 25.584ZM100.878 20.016C100.547 20.016 100.27 19.904 100.046 19.68C99.822 19.456 99.71 19.1787 99.71 18.848C99.71 18.5173 99.822 18.24 100.046 18.016C100.27 17.792 100.547 17.68 100.878 17.68C101.198 17.68 101.47 17.792 101.694 18.016C101.918 18.24 102.03 18.5173 102.03 18.848C102.03 19.1787 101.918 19.456 101.694 19.68C101.47 19.904 101.198 20.016 100.878 20.016ZM101.774 21.184V30H99.95V21.184H101.774ZM107.369 30.144C106.675 30.144 106.051 30.0213 105.497 29.776C104.953 29.52 104.521 29.1787 104.201 28.752C103.881 28.3147 103.71 27.8293 103.689 27.296H105.577C105.609 27.6693 105.785 27.984 106.105 28.24C106.435 28.4853 106.846 28.608 107.337 28.608C107.849 28.608 108.243 28.512 108.521 28.32C108.809 28.1173 108.953 27.8613 108.953 27.552C108.953 27.2213 108.793 26.976 108.473 26.816C108.163 26.656 107.667 26.48 106.985 26.288C106.323 26.1067 105.785 25.9307 105.369 25.76C104.953 25.5893 104.59 25.328 104.281 24.976C103.982 24.624 103.833 24.16 103.833 23.584C103.833 23.1147 103.971 22.688 104.249 22.304C104.526 21.9093 104.921 21.6 105.433 21.376C105.955 21.152 106.553 21.04 107.225 21.04C108.227 21.04 109.033 21.296 109.641 21.808C110.259 22.3093 110.59 22.9973 110.633 23.872H108.809C108.777 23.4773 108.617 23.1627 108.329 22.928C108.041 22.6933 107.651 22.576 107.161 22.576C106.681 22.576 106.313 22.6667 106.057 22.848C105.801 23.0293 105.673 23.2693 105.673 23.568C105.673 23.8027 105.758 24 105.929 24.16C106.099 24.32 106.307 24.448 106.553 24.544C106.798 24.6293 107.161 24.7413 107.641 24.88C108.281 25.0507 108.803 25.2267 109.209 25.408C109.625 25.5787 109.982 25.8347 110.281 26.176C110.579 26.5173 110.734 26.9707 110.745 27.536C110.745 28.0373 110.606 28.4853 110.329 28.88C110.051 29.2747 109.657 29.584 109.145 29.808C108.643 30.032 108.051 30.144 107.369 30.144Z" fill="white"/>
</svg>
