<svg width="44" height="43" viewBox="0 0 44 43" fill="none" xmlns="http://www.w3.org/2000/svg">
<g id="transport" clip-path="url(#clip0_25_1382)">
<path id="Vector" d="M32.6547 22.0625C35.2311 22.0625 37.3197 19.9638 37.3197 17.375C37.3197 14.7862 35.2311 12.6875 32.6547 12.6875C30.0783 12.6875 27.9897 14.7862 27.9897 17.375C27.9897 19.9638 30.0783 22.0625 32.6547 22.0625Z" stroke="#231F20" stroke-width="2" stroke-linecap="round" stroke-linejoin="round"/>
<path id="Vector_2" d="M17.727 10.8125C20.3034 10.8125 22.392 8.71383 22.392 6.125C22.392 3.53617 20.3034 1.4375 17.727 1.4375C15.1506 1.4375 13.062 3.53617 13.062 6.125C13.062 8.71383 15.1506 10.8125 17.727 10.8125Z" stroke="#231F20" stroke-width="2" stroke-linecap="round" stroke-linejoin="round"/>
<path id="Vector_3" d="M27.0569 32.375C27.0569 32.375 34.9314 29.0937 37.7117 28.625C40.0256 28.2312 41.5183 29.2625 42.414 30.0312C43.4963 30.95 43.1604 32.7312 41.8169 33.2187L19.7982 41.1875C18.1748 41.7687 16.4021 41.6937 14.8534 40.9625L2.01538 34.925C1.36228 34.625 0.933105 33.95 0.933105 33.2187V23.075C0.933105 21.9687 1.88476 21.1062 2.98569 21.2C5.11292 21.4062 8.02386 22.1375 12.129 24.875H20.2834C24.6871 24.875 27.0569 28.2312 27.0569 32.375ZM27.0569 32.375H12.129" stroke="#231F20" stroke-width="2" stroke-linecap="round" stroke-linejoin="round"/>
</g>
<defs>
<clipPath id="clip0_25_1382">
<rect width="44" height="42" fill="white" transform="translate(0 0.5)"/>
</clipPath>
</defs>
</svg>
