<svg width="54" height="54" viewBox="0 0 54 54" fill="none" xmlns="http://www.w3.org/2000/svg">
<g id="Isolation_Mode" clip-path="url(#clip0_1083_1722)">
<path id="Vector" d="M26.9673 38.2677C33.0959 38.2677 38.0641 33.2995 38.0641 27.1709C38.0641 21.0422 33.0959 16.074 26.9673 16.074C20.8386 16.074 15.8704 21.0422 15.8704 27.1709C15.8704 33.2995 20.8386 38.2677 26.9673 38.2677Z" stroke="#231F20" stroke-width="2.025" stroke-miterlimit="10" stroke-linecap="round"/>
<path id="Vector_2" d="M26.9672 46.003C37.3679 46.003 45.7992 37.5717 45.7992 27.1711C45.7992 16.7705 37.3679 8.33911 26.9672 8.33911C16.5666 8.33911 8.13528 16.7705 8.13528 27.1711C8.13528 37.5717 16.5666 46.003 26.9672 46.003Z" stroke="#231F20" stroke-width="2.025" stroke-miterlimit="10" stroke-linecap="round"/>
<path id="Vector_3" d="M27.0036 52.9156C41.3145 52.9156 52.9158 41.3143 52.9158 27.0035C52.9158 12.6926 41.3145 1.09131 27.0036 1.09131C12.6928 1.09131 1.09149 12.6926 1.09149 27.0035C1.09149 41.3143 12.6928 52.9156 27.0036 52.9156Z" stroke="#231F20" stroke-width="2.025" stroke-miterlimit="10" stroke-linecap="round"/>
</g>
<defs>
<clipPath id="clip0_1083_1722">
<rect width="54" height="54" fill="white"/>
</clipPath>
</defs>
</svg>
