<svg width="215" height="177" viewBox="0 0 215 177" fill="none" xmlns="http://www.w3.org/2000/svg">
<path d="M0.052002 8C0.052002 3.58171 3.63372 0 8.052 0C12.4703 0 16.052 3.58171 16.052 8C16.052 12.4183 12.4703 16 8.052 16C3.63372 16 0.052002 12.4183 0.052002 8ZM198.598 169C198.598 164.582 202.18 161 206.598 161C211.016 161 214.598 164.582 214.598 169C214.598 173.418 211.016 177 206.598 177C202.18 177 198.598 173.418 198.598 169ZM9.552 8V99H6.552V8H9.552ZM78.052 167.5H206.598V170.5H78.052V167.5ZM9.552 99C9.552 136.832 40.2205 167.5 78.052 167.5V170.5C38.5636 170.5 6.552 138.488 6.552 99H9.552Z" fill="#0DEAB1"/>
</svg>
