<svg width="215" height="161" viewBox="0 0 215 161" fill="none" xmlns="http://www.w3.org/2000/svg">
<path d="M0.052002 153C0.052002 157.418 3.63372 161 8.052 161C12.4703 161 16.052 157.418 16.052 153C16.052 148.582 12.4703 145 8.052 145C3.63372 145 0.052002 148.582 0.052002 153ZM198.598 8C198.598 12.4183 202.18 16 206.598 16C211.016 16 214.598 12.4183 214.598 8C214.598 3.58172 211.016 0 206.598 0C202.18 0 198.598 3.58172 198.598 8ZM9.552 153V78H6.552V153H9.552ZM78.052 9.5H206.598V6.5H78.052V9.5ZM9.552 78C9.552 40.1685 40.2205 9.5 78.052 9.5V6.5C38.5636 6.5 6.552 38.5116 6.552 78H9.552Z" fill="#0DEAB1"/>
</svg>
