<svg width="125" height="171" viewBox="0 0 125 171" fill="none" xmlns="http://www.w3.org/2000/svg">
<path d="M116.351 171C120.769 171 124.351 167.418 124.351 163C124.351 158.582 120.769 155 116.351 155C111.932 155 108.351 158.582 108.351 163C108.351 167.418 111.932 171 116.351 171ZM8.75878 16C13.1771 16 16.7588 12.4183 16.7588 8C16.7588 3.58173 13.1771 -1.74116e-07 8.75878 0C4.3405 1.74116e-07 0.758781 3.58173 0.758782 8C0.758782 12.4183 4.3405 16 8.75878 16ZM116.351 161.5L78.7588 161.5L78.7588 164.5L116.351 164.5L116.351 161.5ZM10.2588 93L10.2588 8L7.25878 8L7.25879 93L10.2588 93ZM78.7588 161.5C40.9273 161.5 10.2588 130.832 10.2588 93L7.25879 93C7.25879 132.488 39.2704 164.5 78.7588 164.5L78.7588 161.5Z" fill="#0DEAB1"/>
</svg>
