<svg width="133" height="172" viewBox="0 0 133 172" fill="none" xmlns="http://www.w3.org/2000/svg">
<path d="M0.701172 164C0.701172 168.418 4.28289 172 8.70117 172C13.1195 172 16.7012 168.418 16.7012 164C16.7012 159.582 13.1195 156 8.70117 156C4.28289 156 0.701172 159.582 0.701172 164ZM116.057 8C116.057 12.4183 119.639 16 124.057 16C128.476 16 132.057 12.4183 132.057 8C132.057 3.58172 128.476 0 124.057 0C119.639 0 116.057 3.58172 116.057 8ZM10.2012 164V78H7.20117V164H10.2012ZM78.7012 9.5H124.057V6.5H78.7012V9.5ZM10.2012 78C10.2012 40.1685 40.8697 9.5 78.7012 9.5V6.5C39.2128 6.5 7.20117 38.5116 7.20117 78H10.2012Z" fill="#0DEAB1"/>
</svg>
