<svg width="109" height="17" viewBox="0 0 109 17" fill="none" xmlns="http://www.w3.org/2000/svg">
<path d="M0.53418 8.5C0.53418 12.9183 4.1159 16.5 8.53418 16.5C12.9525 16.5 16.5342 12.9183 16.5342 8.5C16.5342 4.08172 12.9525 0.5 8.53418 0.5C4.1159 0.5 0.53418 4.08172 0.53418 8.5ZM92.0428 8.5C92.0428 12.9183 95.6245 16.5 100.043 16.5C104.461 16.5 108.043 12.9183 108.043 8.5C108.043 4.08172 104.461 0.5 100.043 0.5C95.6245 0.5 92.0428 4.08172 92.0428 8.5ZM8.53418 10H100.043V7H8.53418V10Z" fill="#0DEAB1"/>
</svg>
