<svg width="174" height="189" viewBox="0 0 174 189" fill="none" xmlns="http://www.w3.org/2000/svg">
<path id="Vector" d="M170.391 62.3207C158.458 62.3207 146.654 62.3207 134.843 62.3207C134.692 62.1198 134.462 61.9476 134.397 61.7251C128.574 42.4993 115.062 32.7034 95.5965 30.8518C78.3357 29.2084 62.6473 32.9689 50.75 46.676C42.7299 55.9121 39.0896 67.0859 37.3592 78.9917C35.2554 93.4452 35.5426 107.82 39.585 121.893C47.7056 150.183 69.2601 160.617 95.5247 158.177C110.725 156.763 123.419 150.584 130.973 136.676C133.773 131.516 135.316 125.682 137.772 119.252C125.308 119.252 114.042 119.252 102.777 119.252C91.5111 119.252 80.2025 119.252 68.6498 119.252V90.0005H173.507V186.424H145.038V157.101C143.71 157.947 142.884 158.177 142.59 158.701C132.595 176.556 116.325 184.938 97.0038 187.881C73.3025 191.49 51.4321 186.546 32.4624 171.36C17.3699 159.275 8.32309 143.272 3.95762 124.656C-2.09515 98.8706 -1.03968 73.4228 10.0966 49.1232C23.0494 20.8622 45.6019 4.97342 76.2822 0.925885C97.2407 -1.83706 117.28 1.50718 135.675 12.3724C153.977 23.1874 165.487 39.0617 170.154 59.8377C170.319 60.584 170.312 61.3663 170.398 62.3279L170.391 62.3207Z" fill="white"/>
</svg>
