<svg width="72" height="72" viewBox="0 0 72 72" fill="none" xmlns="http://www.w3.org/2000/svg">
<path d="M36 10.8571C38.5247 10.8571 40.5714 8.81039 40.5714 6.28566C40.5714 3.76093 38.5247 1.71423 36 1.71423C33.4753 1.71423 31.4286 3.76093 31.4286 6.28566C31.4286 8.81039 33.4753 10.8571 36 10.8571Z" stroke="white" stroke-width="1.2" stroke-linecap="round" stroke-linejoin="round"/>
<path d="M36 10.8572V38.2858" stroke="white" stroke-width="1.2" stroke-linecap="round" stroke-linejoin="round"/>
<path d="M52 20C54.5247 20 56.5714 17.9533 56.5714 15.4286C56.5714 12.9039 54.5247 10.8572 52 10.8572C49.4753 10.8572 47.4286 12.9039 47.4286 15.4286C47.4286 17.9533 49.4753 20 52 20Z" stroke="white" stroke-width="1.2" stroke-linecap="round" stroke-linejoin="round"/>
<path d="M42.8572 24.5714V38.2857" stroke="white" stroke-width="1.2" stroke-linecap="round" stroke-linejoin="round"/>
<path d="M20 24.5714C22.5247 24.5714 24.5714 22.5247 24.5714 20C24.5714 17.4753 22.5247 15.4286 20 15.4286C17.4753 15.4286 15.4286 17.4753 15.4286 20C15.4286 22.5247 17.4753 24.5714 20 24.5714Z" stroke="white" stroke-width="1.2" stroke-linecap="round" stroke-linejoin="round"/>
<path d="M29.1429 29.1428V38.2857" stroke="white" stroke-width="1.2" stroke-linecap="round" stroke-linejoin="round"/>
<path d="M23.233 23.233L29.1429 29.1429" stroke="white" stroke-width="1.2" stroke-linecap="round" stroke-linejoin="round"/>
<path d="M48.767 18.6616L42.8572 24.5715" stroke="white" stroke-width="1.2" stroke-linecap="round" stroke-linejoin="round"/>
<path d="M24.5714 38.2858H47.4286" stroke="white" stroke-width="1.2" stroke-linecap="round" stroke-linejoin="round"/>
<path d="M24.5714 52.0001V38.2858" stroke="white" stroke-width="1.2" stroke-linecap="round" stroke-linejoin="round"/>
<path d="M47.4286 52.0001V38.2858" stroke="white" stroke-width="1.2" stroke-linecap="round" stroke-linejoin="round"/>
<path d="M20 52H52" stroke="white" stroke-width="1.2" stroke-linecap="round" stroke-linejoin="round"/>
<path d="M20 70.2857V52" stroke="white" stroke-width="1.2" stroke-linecap="round" stroke-linejoin="round"/>
<path d="M52 70.2857V52" stroke="white" stroke-width="1.2" stroke-linecap="round" stroke-linejoin="round"/>
</svg>
