<svg width="72" height="72" viewBox="0 0 72 72" fill="none" xmlns="http://www.w3.org/2000/svg">
<path d="M36 22.4483C38.5201 22.4483 40.5631 20.4016 40.5631 17.8768C40.5631 15.3521 38.5201 13.3054 36 13.3054C33.4798 13.3054 31.4368 15.3521 31.4368 17.8768C31.4368 20.4016 33.4798 22.4483 36 22.4483Z" stroke="white" stroke-width="1.2" stroke-linecap="round" stroke-linejoin="round"/>
<path d="M24.0395 27.5733C18.693 22.2171 18.693 13.5339 24.0395 8.17773" stroke="white" stroke-width="1.2" stroke-linecap="round" stroke-linejoin="round"/>
<path d="M47.9605 8.18042C53.307 13.5366 53.307 22.2198 47.9605 27.576" stroke="white" stroke-width="1.2" stroke-linecap="round" stroke-linejoin="round"/>
<path d="M17.5852 34.0394C8.67433 25.1124 8.67433 10.6413 17.5852 1.71436" stroke="white" stroke-width="1.2" stroke-linecap="round" stroke-linejoin="round"/>
<path d="M54.4148 1.71436C63.3256 10.6413 63.3256 25.1124 54.4148 34.0394" stroke="white" stroke-width="1.2" stroke-linecap="round" stroke-linejoin="round"/>
<path d="M28.0145 47.4285L48.5486 65.7142" stroke="white" stroke-width="1.2" stroke-linecap="round" stroke-linejoin="round"/>
<path d="M43.9855 47.4285L23.4513 65.7142" stroke="white" stroke-width="1.2" stroke-linecap="round" stroke-linejoin="round"/>
<path d="M22.3105 70.2858L34.3268 22.1309" stroke="white" stroke-width="1.2" stroke-linecap="round" stroke-linejoin="round"/>
<path d="M49.6895 70.2858L37.6732 22.1309" stroke="white" stroke-width="1.2" stroke-linecap="round" stroke-linejoin="round"/>
<path d="M45.1263 42.8572H26.8737" stroke="white" stroke-width="1.2" stroke-linecap="round" stroke-linejoin="round"/>
</svg>
