<svg width="50" height="50" viewBox="0 0 50 50" fill="none" xmlns="http://www.w3.org/2000/svg">
<g clip-path="url(#clip0_187_1781)">
<path d="M25 48.8095C38.1496 48.8095 48.8095 38.1496 48.8095 25C48.8095 11.8503 38.1496 1.19043 25 1.19043C11.8503 1.19043 1.19044 11.8503 1.19044 25C1.19044 38.1496 11.8503 48.8095 25 48.8095Z" stroke="#0DEAB1" stroke-width="2" stroke-linecap="round" stroke-linejoin="round"/>
<path d="M8.3333 25H1.19044" stroke="#0DEAB1" stroke-width="2" stroke-linecap="round" stroke-linejoin="round"/>
<path d="M48.8095 25H16.2699" stroke="#0DEAB1" stroke-width="2" stroke-linecap="round" stroke-linejoin="round"/>
<path d="M25 17.8571V48.8094" stroke="#0DEAB1" stroke-width="2" stroke-linecap="round" stroke-linejoin="round"/>
<path d="M25 1.19043V9.92059" stroke="#0DEAB1" stroke-width="2" stroke-linecap="round" stroke-linejoin="round"/>
<path d="M21.0318 13.8889H3.94008" stroke="#0DEAB1" stroke-width="2" stroke-linecap="round" stroke-linejoin="round"/>
<path d="M46.0635 13.8889H28.9682" stroke="#0DEAB1" stroke-width="2" stroke-linecap="round" stroke-linejoin="round"/>
<path d="M32.1429 36.1111H3.94008" stroke="#0DEAB1" stroke-width="2" stroke-linecap="round" stroke-linejoin="round"/>
<path d="M46.0617 36.1111H40.0793" stroke="#0DEAB1" stroke-width="2" stroke-linecap="round" stroke-linejoin="round"/>
<path d="M25 17.8572C27.1916 17.8572 28.9683 16.0805 28.9683 13.8889C28.9683 11.6973 27.1916 9.92065 25 9.92065C22.8084 9.92065 21.0318 11.6973 21.0318 13.8889C21.0318 16.0805 22.8084 17.8572 25 17.8572Z" stroke="#0DEAB1" stroke-width="2" stroke-linecap="round" stroke-linejoin="round"/>
<path d="M12.3016 28.9682C14.4932 28.9682 16.2698 27.1916 16.2698 25C16.2698 22.8084 14.4932 21.0317 12.3016 21.0317C10.11 21.0317 8.33333 22.8084 8.33333 25C8.33333 27.1916 10.11 28.9682 12.3016 28.9682Z" stroke="#0DEAB1" stroke-width="2" stroke-linecap="round" stroke-linejoin="round"/>
<path d="M36.1111 40.0795C38.3028 40.0795 40.0794 38.3028 40.0794 36.1112C40.0794 33.9196 38.3028 32.1429 36.1111 32.1429C33.9195 32.1429 32.1429 33.9196 32.1429 36.1112C32.1429 38.3028 33.9195 40.0795 36.1111 40.0795Z" stroke="#0DEAB1" stroke-width="2" stroke-linecap="round" stroke-linejoin="round"/>
<path d="M34.9118 39.8942C32.5855 45.3316 29.0123 48.8095 25 48.8095C18.7019 48.8095 13.4815 40.2346 12.4762 28.9647" stroke="#0DEAB1" stroke-width="2" stroke-linecap="round" stroke-linejoin="round"/>
<path d="M12.4762 21.0317C13.4832 9.76362 18.7019 1.19043 25 1.19043C32.0194 1.19043 37.6984 11.8395 37.6984 25C37.6984 27.5343 37.4885 29.977 37.097 32.2663" stroke="#0DEAB1" stroke-width="2" stroke-linecap="round" stroke-linejoin="round"/>
</g>
<defs>
<clipPath id="clip0_187_1781">
<rect width="50" height="50" fill="white"/>
</clipPath>
</defs>
</svg>
