<svg width="72" height="72" viewBox="0 0 72 72" fill="none" xmlns="http://www.w3.org/2000/svg">
<g clip-path="url(#clip0_59_296)">
<path d="M21.918 68.6841V26.4453H44.1417V68.6841" stroke="white" stroke-width="1.2" stroke-linecap="round" stroke-linejoin="round"/>
<path d="M36.2499 22.9051V17.6707L57.0708 23.8995V68.6841" stroke="white" stroke-width="1.2" stroke-linecap="round" stroke-linejoin="round"/>
<path d="M33.0299 20.5079H24.1924V26.4453" stroke="white" stroke-width="1.2" stroke-linecap="round" stroke-linejoin="round"/>
<path d="M17.8492 43.3947L11.1461 46.4548V68.6842" stroke="white" stroke-width="1.2" stroke-linecap="round" stroke-linejoin="round"/>
<path d="M46.8503 20.8423V12.6362" stroke="white" stroke-width="1.2" stroke-linecap="round" stroke-linejoin="round"/>
<path d="M42.0759 19.4137V15.5164" stroke="white" stroke-width="1.2" stroke-linecap="round" stroke-linejoin="round"/>
<path d="M57.0707 29.9655H52.4391" stroke="white" stroke-width="1.2" stroke-linecap="round" stroke-linejoin="round"/>
<path d="M57.0707 38.1001H52.4391" stroke="white" stroke-width="1.2" stroke-linecap="round" stroke-linejoin="round"/>
<path d="M57.0707 46.2347H52.4391" stroke="white" stroke-width="1.2" stroke-linecap="round" stroke-linejoin="round"/>
<path d="M57.0707 54.3693H52.4391" stroke="white" stroke-width="1.2" stroke-linecap="round" stroke-linejoin="round"/>
<path d="M57.0707 62.5039H52.4391" stroke="white" stroke-width="1.2" stroke-linecap="round" stroke-linejoin="round"/>
<path d="M26.7467 32.0684H30.1926" stroke="white" stroke-width="1.2" stroke-linecap="round" stroke-linejoin="round"/>
<path d="M35.8671 32.0684H39.313" stroke="white" stroke-width="1.2" stroke-linecap="round" stroke-linejoin="round"/>
<path d="M26.7467 37.9801H30.1926" stroke="white" stroke-width="1.2" stroke-linecap="round" stroke-linejoin="round"/>
<path d="M35.8671 37.9801H39.313" stroke="white" stroke-width="1.2" stroke-linecap="round" stroke-linejoin="round"/>
<path d="M26.7467 43.8889H30.1926" stroke="white" stroke-width="1.2" stroke-linecap="round" stroke-linejoin="round"/>
<path d="M35.8671 43.8889H39.313" stroke="white" stroke-width="1.2" stroke-linecap="round" stroke-linejoin="round"/>
<path d="M26.7467 49.7977H30.1926" stroke="white" stroke-width="1.2" stroke-linecap="round" stroke-linejoin="round"/>
<path d="M35.8671 49.7977H39.313" stroke="white" stroke-width="1.2" stroke-linecap="round" stroke-linejoin="round"/>
<path d="M26.7467 55.7094H30.1926" stroke="white" stroke-width="1.2" stroke-linecap="round" stroke-linejoin="round"/>
<path d="M35.8671 55.7094H39.313" stroke="white" stroke-width="1.2" stroke-linecap="round" stroke-linejoin="round"/>
<path d="M26.7467 61.6182H30.1926" stroke="white" stroke-width="1.2" stroke-linecap="round" stroke-linejoin="round"/>
<path d="M35.8671 61.6182H39.313" stroke="white" stroke-width="1.2" stroke-linecap="round" stroke-linejoin="round"/>
<path d="M11.3918 50.6292H15.0177" stroke="white" stroke-width="1.2" stroke-linecap="round" stroke-linejoin="round"/>
<path d="M11.3918 56.5208H15.0177" stroke="white" stroke-width="1.2" stroke-linecap="round" stroke-linejoin="round"/>
<path d="M11.3918 62.4125H15.0177" stroke="white" stroke-width="1.2" stroke-linecap="round" stroke-linejoin="round"/>
<path d="M4.09448 68.6841H67.9056" stroke="white" stroke-width="1.2" stroke-linecap="round" stroke-linejoin="round"/>
<path d="M0.860033 19.7479C5.06591 19.7479 9.2718 18.1421 12.4776 14.9334C15.6892 11.7276 17.2921 7.52173 17.2921 3.31585" stroke="white" stroke-width="1.2" stroke-linecap="round" stroke-linejoin="round"/>
<path d="M1.20562 14.3391C3.93716 14.3391 6.67156 13.2962 8.75735 11.2104C10.8403 9.12748 11.8832 6.39023 11.886 3.65869" stroke="white" stroke-width="1.2" stroke-linecap="round" stroke-linejoin="round"/>
<path d="M6.64313 3.75586C6.64313 5.12448 6.12311 6.49025 5.07735 7.53315C4.0316 8.57605 2.66868 9.09607 1.30006 9.09607" stroke="white" stroke-width="1.2" stroke-linecap="round" stroke-linejoin="round"/>
</g>
<defs>
<clipPath id="clip0_59_296">
<rect width="72" height="67.0827" fill="white" transform="translate(0 2.45862)"/>
</clipPath>
</defs>
</svg>
