<svg width="50" height="50" viewBox="0 0 50 50" fill="none" xmlns="http://www.w3.org/2000/svg">
<g clip-path="url(#clip0_187_1921)">
<path d="M24.9999 7.5397C26.7532 7.5397 28.1745 6.11838 28.1745 4.36509C28.1745 2.61181 26.7532 1.19049 24.9999 1.19049C23.2466 1.19049 21.8253 2.61181 21.8253 4.36509C21.8253 6.11838 23.2466 7.5397 24.9999 7.5397Z" stroke="#0DEAB1" stroke-width="2" stroke-linecap="round" stroke-linejoin="round"/>
<path d="M25 7.53967V26.5873" stroke="#0DEAB1" stroke-width="2" stroke-linecap="round" stroke-linejoin="round"/>
<path d="M36.111 13.8889C37.8643 13.8889 39.2856 12.4676 39.2856 10.7143C39.2856 8.96099 37.8643 7.53967 36.111 7.53967C34.3578 7.53967 32.9364 8.96099 32.9364 10.7143C32.9364 12.4676 34.3578 13.8889 36.111 13.8889Z" stroke="#0DEAB1" stroke-width="2" stroke-linecap="round" stroke-linejoin="round"/>
<path d="M29.7618 17.0635V26.5873" stroke="#0DEAB1" stroke-width="2" stroke-linecap="round" stroke-linejoin="round"/>
<path d="M13.8888 17.0635C15.6421 17.0635 17.0634 15.6422 17.0634 13.8889C17.0634 12.1356 15.6421 10.7143 13.8888 10.7143C12.1355 10.7143 10.7142 12.1356 10.7142 13.8889C10.7142 15.6422 12.1355 17.0635 13.8888 17.0635Z" stroke="#0DEAB1" stroke-width="2" stroke-linecap="round" stroke-linejoin="round"/>
<path d="M20.2381 20.2381V26.5873" stroke="#0DEAB1" stroke-width="2" stroke-linecap="round" stroke-linejoin="round"/>
<path d="M16.134 16.134L20.238 20.2381" stroke="#0DEAB1" stroke-width="2" stroke-linecap="round" stroke-linejoin="round"/>
<path d="M33.8659 12.9594L29.7618 17.0635" stroke="#0DEAB1" stroke-width="2" stroke-linecap="round" stroke-linejoin="round"/>
<path d="M17.0635 26.5873H32.9365" stroke="#0DEAB1" stroke-width="2" stroke-linecap="round" stroke-linejoin="round"/>
<path d="M17.0635 36.1111V26.5873" stroke="#0DEAB1" stroke-width="2" stroke-linecap="round" stroke-linejoin="round"/>
<path d="M32.9364 36.1111V26.5873" stroke="#0DEAB1" stroke-width="2" stroke-linecap="round" stroke-linejoin="round"/>
<path d="M13.8889 36.1111H36.1111" stroke="#0DEAB1" stroke-width="2" stroke-linecap="round" stroke-linejoin="round"/>
<path d="M13.8889 48.8095V36.1111" stroke="#0DEAB1" stroke-width="2" stroke-linecap="round" stroke-linejoin="round"/>
<path d="M36.1111 48.8095V36.1111" stroke="#0DEAB1" stroke-width="2" stroke-linecap="round" stroke-linejoin="round"/>
</g>
<defs>
<clipPath id="clip0_187_1921">
<rect width="30.9524" height="50" fill="white" transform="translate(9.5238)"/>
</clipPath>
</defs>
</svg>
