<svg width="72" height="72" viewBox="0 0 72 72" fill="none" xmlns="http://www.w3.org/2000/svg">
<path d="M36.0001 13.1429C39.156 13.1429 41.7143 10.5846 41.7143 7.42864C41.7143 4.27273 39.156 1.71436 36.0001 1.71436C32.8441 1.71436 30.2858 4.27273 30.2858 7.42864C30.2858 10.5846 32.8441 13.1429 36.0001 13.1429Z" stroke="white" stroke-width="1.2" stroke-linecap="round" stroke-linejoin="round"/>
<path d="M36 22.2857V13.1428" stroke="white" stroke-width="1.2" stroke-linecap="round" stroke-linejoin="round"/>
<path d="M36.0001 70.2857C39.156 70.2857 41.7143 67.7274 41.7143 64.5715C41.7143 61.4156 39.156 58.8572 36.0001 58.8572C32.8441 58.8572 30.2858 61.4156 30.2858 64.5715C30.2858 67.7274 32.8441 70.2857 36.0001 70.2857Z" stroke="white" stroke-width="1.2" stroke-linecap="round" stroke-linejoin="round"/>
<path d="M36 49.7144V58.8572" stroke="white" stroke-width="1.2" stroke-linecap="round" stroke-linejoin="round"/>
<path d="M66.4554 21.865C66.5386 18.7102 64.0485 16.0853 60.8937 16.0021C57.7389 15.9189 55.114 18.409 55.0308 21.5638C54.9477 24.7186 57.4377 27.3435 60.5926 27.4267C63.7474 27.5099 66.3723 25.0198 66.4554 21.865Z" stroke="white" stroke-width="1.2" stroke-linecap="round" stroke-linejoin="round"/>
<path d="M47.8781 29.143L55.7943 24.5715" stroke="white" stroke-width="1.2" stroke-linecap="round" stroke-linejoin="round"/>
<path d="M16.9687 50.4358C17.0519 47.281 14.5618 44.6561 11.407 44.5729C8.2522 44.4897 5.6273 46.9798 5.54413 50.1346C5.46097 53.2894 7.95104 55.9143 11.1059 55.9975C14.2607 56.0807 16.8856 53.5906 16.9687 50.4358Z" stroke="white" stroke-width="1.2" stroke-linecap="round" stroke-linejoin="round"/>
<path d="M24.1245 42.8572L16.2057 47.4286" stroke="white" stroke-width="1.2" stroke-linecap="round" stroke-linejoin="round"/>
<path d="M11.2965 27.4278C14.4523 27.4042 16.9914 24.8267 16.9677 21.6708C16.944 18.515 14.3665 15.9759 11.2107 15.9996C8.05488 16.0233 5.51578 18.6008 5.53947 21.7566C5.56315 24.9124 8.14065 27.4515 11.2965 27.4278Z" stroke="white" stroke-width="1.2" stroke-linecap="round" stroke-linejoin="round"/>
<path d="M24.1245 29.143L16.2057 24.5715" stroke="white" stroke-width="1.2" stroke-linecap="round" stroke-linejoin="round"/>
<path d="M60.7844 56.003C63.9402 55.9794 66.4793 53.4019 66.4556 50.246C66.4319 47.0902 63.8544 44.5511 60.6986 44.5748C57.5428 44.5985 55.0037 47.176 55.0274 50.3318C55.0511 53.4876 57.6286 56.0267 60.7844 56.003Z" stroke="white" stroke-width="1.2" stroke-linecap="round" stroke-linejoin="round"/>
<path d="M47.8756 42.8572L55.7943 47.4286" stroke="white" stroke-width="1.2" stroke-linecap="round" stroke-linejoin="round"/>
<path d="M36.0001 49.7142C43.5742 49.7142 49.7143 43.5741 49.7143 35.9999C49.7143 28.4257 43.5742 22.2856 36.0001 22.2856C28.4259 22.2856 22.2858 28.4257 22.2858 35.9999C22.2858 43.5741 28.4259 49.7142 36.0001 49.7142Z" stroke="white" stroke-width="1.2" stroke-linecap="round" stroke-linejoin="round"/>
</svg>
