<svg width="50" height="50" viewBox="0 0 50 50" fill="none" xmlns="http://www.w3.org/2000/svg">
<g clip-path="url(#clip0_187_1826)">
<path d="M48.4789 7.78217H42.2179" stroke="#0DEAB1" stroke-width="2" stroke-linecap="round" stroke-linejoin="round"/>
<path d="M45.3483 7.78214V1.52112" stroke="#0DEAB1" stroke-width="2" stroke-linecap="round" stroke-linejoin="round"/>
<path d="M48.4789 23.4347V7.78217" stroke="#0DEAB1" stroke-width="2" stroke-linecap="round" stroke-linejoin="round"/>
<path d="M42.2179 23.4347V7.78217" stroke="#0DEAB1" stroke-width="2" stroke-linecap="round" stroke-linejoin="round"/>
<path d="M32.8263 10.9127H26.5653" stroke="#0DEAB1" stroke-width="2" stroke-linecap="round" stroke-linejoin="round"/>
<path d="M29.6959 10.9127V4.65167" stroke="#0DEAB1" stroke-width="2" stroke-linecap="round" stroke-linejoin="round"/>
<path d="M32.8263 17.1737V10.9127" stroke="#0DEAB1" stroke-width="2" stroke-linecap="round" stroke-linejoin="round"/>
<path d="M26.5653 17.1737V10.9127" stroke="#0DEAB1" stroke-width="2" stroke-linecap="round" stroke-linejoin="round"/>
<path d="M20.3043 48.4789C20.3043 45.0179 23.1043 42.2178 26.5653 42.2178" stroke="#0DEAB1" stroke-width="2" stroke-linecap="round" stroke-linejoin="round"/>
<path d="M14.0432 48.4789C14.0432 41.557 19.6434 35.9568 26.5653 35.9568" stroke="#0DEAB1" stroke-width="2" stroke-linecap="round" stroke-linejoin="round"/>
<path d="M7.78221 42.2178C7.78221 35.2959 13.3823 29.6958 20.3043 29.6958" stroke="#0DEAB1" stroke-width="2" stroke-linecap="round" stroke-linejoin="round"/>
<path d="M1.52119 42.2179C1.52119 31.835 9.9214 23.4348 20.3043 23.4348" stroke="#0DEAB1" stroke-width="2" stroke-linecap="round" stroke-linejoin="round"/>
<path d="M7.78221 42.2178V48.4789" stroke="#0DEAB1" stroke-width="2" stroke-linecap="round" stroke-linejoin="round"/>
<path d="M1.52119 42.2178V48.4789" stroke="#0DEAB1" stroke-width="2" stroke-linecap="round" stroke-linejoin="round"/>
<path d="M26.5653 17.1737C26.5653 20.6347 23.7652 23.4347 20.3043 23.4347" stroke="#0DEAB1" stroke-width="2" stroke-linecap="round" stroke-linejoin="round"/>
<path d="M32.8263 17.1737C32.8263 24.0956 27.2262 29.6958 20.3043 29.6958" stroke="#0DEAB1" stroke-width="2" stroke-linecap="round" stroke-linejoin="round"/>
<path d="M42.2179 23.4348C42.2179 30.3567 36.6178 35.9569 29.6959 35.9569" stroke="#0DEAB1" stroke-width="2" stroke-linecap="round" stroke-linejoin="round"/>
<path d="M48.4789 23.4348C48.4789 33.8177 40.0787 42.2179 29.6959 42.2179" stroke="#0DEAB1" stroke-width="2" stroke-linecap="round" stroke-linejoin="round"/>
<path d="M26.5653 35.9568H29.6958" stroke="#0DEAB1" stroke-width="2" stroke-linecap="round" stroke-linejoin="round"/>
<path d="M26.5653 42.2178H29.6958" stroke="#0DEAB1" stroke-width="2" stroke-linecap="round" stroke-linejoin="round"/>
</g>
<defs>
<clipPath id="clip0_187_1826">
<rect width="49.3056" height="49.3056" fill="white" transform="translate(0.347229 0.347229)"/>
</clipPath>
</defs>
</svg>
