<svg width="122" height="122" viewBox="0 0 122 122" fill="none" xmlns="http://www.w3.org/2000/svg">
<path d="M23.8694 27.4058C23.8694 23.4963 27.0323 20.3333 30.9418 20.3333" stroke="#24449F" stroke-width="2.03333" stroke-linecap="round" stroke-linejoin="round"/>
<path d="M23.8694 112.275C23.8694 116.185 27.0323 119.348 30.9418 119.348" stroke="#24449F" stroke-width="2.03333" stroke-linecap="round" stroke-linejoin="round"/>
<path d="M80.4492 112.275C80.4492 116.185 77.2862 119.348 73.3767 119.348" stroke="#24449F" stroke-width="2.03333" stroke-linecap="round" stroke-linejoin="round"/>
<path d="M23.8694 27.4058V112.275" stroke="#24449F" stroke-width="2.03333" stroke-linecap="round" stroke-linejoin="round"/>
<path d="M73.3767 119.348H30.9419" stroke="#24449F" stroke-width="2.03333" stroke-linecap="round" stroke-linejoin="round"/>
<path d="M30.9419 20.3333H52.3557" stroke="#24449F" stroke-width="2.03333" stroke-linecap="round" stroke-linejoin="round"/>
<path d="M80.4492 52.1594V105.203V112.275" stroke="#24449F" stroke-width="2.03333" stroke-linecap="round" stroke-linejoin="round"/>
<path d="M46.855 34.4783H57.4637" stroke="#24449F" stroke-width="2.03333" stroke-linecap="round" stroke-linejoin="round"/>
<circle cx="52.1593" cy="107.167" r="2.65217" stroke="#24449F" stroke-width="2.03333" stroke-linecap="round" stroke-linejoin="round"/>
<path d="M83.9855 38.0145C83.9855 26.286 74.4966 16.7971 62.7681 16.7971" stroke="#24449F" stroke-width="2.03333" stroke-linecap="round" stroke-linejoin="round"/>
<path d="M98.1304 38.0145C98.1304 18.467 82.3156 2.65216 62.7681 2.65216" stroke="#24449F" stroke-width="2.03333" stroke-linecap="round" stroke-linejoin="round"/>
</svg>
