<svg width="122" height="122" viewBox="0 0 122 122" fill="none" xmlns="http://www.w3.org/2000/svg">
<path d="M60.9998 38.0374C65.2701 38.0374 68.7318 34.5693 68.7318 30.2913C68.7318 26.0133 65.2701 22.5453 60.9998 22.5453C56.7296 22.5453 53.2678 26.0133 53.2678 30.2913C53.2678 34.5693 56.7296 38.0374 60.9998 38.0374Z" stroke="#24449F" stroke-width="2.03333" stroke-linecap="round" stroke-linejoin="round"/>
<path d="M40.7335 46.7214C31.6741 37.6456 31.6741 22.9325 40.7335 13.8567" stroke="#24449F" stroke-width="2.03333" stroke-linecap="round" stroke-linejoin="round"/>
<path d="M81.2664 13.8611C90.3257 22.9369 90.3257 37.65 81.2664 46.7258" stroke="#24449F" stroke-width="2.03333" stroke-linecap="round" stroke-linejoin="round"/>
<path d="M29.7968 57.6777C14.6979 42.5514 14.6979 18.0309 29.7968 2.90466" stroke="#24449F" stroke-width="2.03333" stroke-linecap="round" stroke-linejoin="round"/>
<path d="M92.2029 2.90466C107.302 18.0309 107.302 42.5514 92.2029 57.6777" stroke="#24449F" stroke-width="2.03333" stroke-linecap="round" stroke-linejoin="round"/>
<path d="M47.4688 80.3651L82.2628 111.349" stroke="#24449F" stroke-width="2.03333" stroke-linecap="round" stroke-linejoin="round"/>
<path d="M74.5308 80.3651L39.7368 111.349" stroke="#24449F" stroke-width="2.03333" stroke-linecap="round" stroke-linejoin="round"/>
<path d="M37.804 119.095L58.1649 37.4993" stroke="#24449F" stroke-width="2.03333" stroke-linecap="round" stroke-linejoin="round"/>
<path d="M84.1959 119.095L63.835 37.4993" stroke="#24449F" stroke-width="2.03333" stroke-linecap="round" stroke-linejoin="round"/>
<path d="M76.4637 72.6191H45.5356" stroke="#24449F" stroke-width="2.03333" stroke-linecap="round" stroke-linejoin="round"/>
</svg>
