<svg width="110" height="122" viewBox="0 0 110 122" fill="none" xmlns="http://www.w3.org/2000/svg">
<path d="M55.0004 22.2697C60.3479 22.2697 64.6829 17.9347 64.6829 12.5872C64.6829 7.23968 60.3479 2.90466 55.0004 2.90466C49.6529 2.90466 45.3179 7.23968 45.3179 12.5872C45.3179 17.9347 49.6529 22.2697 55.0004 22.2697Z" stroke="#24449F" stroke-width="2.03333" stroke-linecap="round" stroke-linejoin="round"/>
<path d="M55 37.7618V22.2698" stroke="#24449F" stroke-width="2.03333" stroke-linecap="round" stroke-linejoin="round"/>
<path d="M55.0004 119.095C60.3479 119.095 64.6829 114.76 64.6829 109.413C64.6829 104.065 60.3479 99.7302 55.0004 99.7302C49.6529 99.7302 45.3179 104.065 45.3179 109.413C45.3179 114.76 49.6529 119.095 55.0004 119.095Z" stroke="#24449F" stroke-width="2.03333" stroke-linecap="round" stroke-linejoin="round"/>
<path d="M55 84.238V99.7301" stroke="#24449F" stroke-width="2.03333" stroke-linecap="round" stroke-linejoin="round"/>
<path d="M106.605 37.0493C106.746 31.7036 102.527 27.2558 97.1812 27.1149C91.8355 26.974 87.3878 31.1933 87.2468 36.539C87.1059 41.8846 91.3252 46.3324 96.6709 46.4733C102.017 46.6142 106.464 42.3949 106.605 37.0493Z" stroke="#24449F" stroke-width="2.03333" stroke-linecap="round" stroke-linejoin="round"/>
<path d="M75.127 49.3809L88.5405 41.6349" stroke="#24449F" stroke-width="2.03333" stroke-linecap="round" stroke-linejoin="round"/>
<path d="M22.7527 85.4606C22.8936 80.115 18.6743 75.6672 13.3286 75.5263C7.98297 75.3854 3.53522 79.6047 3.39431 84.9503C3.25339 90.296 7.47268 94.7438 12.8183 94.8847C18.164 95.0256 22.6117 90.8063 22.7527 85.4606Z" stroke="#24449F" stroke-width="2.03333" stroke-linecap="round" stroke-linejoin="round"/>
<path d="M34.8778 72.6191L21.46 80.3652" stroke="#24449F" stroke-width="2.03333" stroke-linecap="round" stroke-linejoin="round"/>
<path d="M13.1413 46.4752C18.4887 46.4351 22.7911 42.0677 22.7509 36.7203C22.7108 31.3729 18.3434 27.0706 12.996 27.1107C7.64862 27.1508 3.34625 31.5182 3.38639 36.8656C3.42652 42.213 7.79395 46.5153 13.1413 46.4752Z" stroke="#24449F" stroke-width="2.03333" stroke-linecap="round" stroke-linejoin="round"/>
<path d="M34.8778 49.3809L21.46 41.6349" stroke="#24449F" stroke-width="2.03333" stroke-linecap="round" stroke-linejoin="round"/>
<path d="M96.9961 94.894C102.343 94.8539 106.646 90.4865 106.606 85.1391C106.566 79.7917 102.198 75.4894 96.8507 75.5295C91.5034 75.5696 87.201 79.9371 87.2411 85.2844C87.2813 90.6318 91.6487 94.9342 96.9961 94.894Z" stroke="#24449F" stroke-width="2.03333" stroke-linecap="round" stroke-linejoin="round"/>
<path d="M75.1228 72.6191L88.5406 80.3652" stroke="#24449F" stroke-width="2.03333" stroke-linecap="round" stroke-linejoin="round"/>
<path d="M55.0003 84.2381C67.8343 84.2381 78.2384 73.8341 78.2384 61.0001C78.2384 48.166 67.8343 37.762 55.0003 37.762C42.1663 37.762 31.7622 48.166 31.7622 61.0001C31.7622 73.8341 42.1663 84.2381 55.0003 84.2381Z" stroke="#24449F" stroke-width="2.03333" stroke-linecap="round" stroke-linejoin="round"/>
</svg>
