<svg width="72" height="72" viewBox="0 0 72 72" fill="none" xmlns="http://www.w3.org/2000/svg">
<path d="M36 70.2858C54.9355 70.2858 70.2857 54.9356 70.2857 36.0001C70.2857 17.0646 54.9355 1.71436 36 1.71436C17.0645 1.71436 1.71429 17.0646 1.71429 36.0001C1.71429 54.9356 17.0645 70.2858 36 70.2858Z" stroke="white" stroke-width="1.2" stroke-linecap="round" stroke-linejoin="round"/>
<path d="M12 36H1.71429" stroke="white" stroke-width="1.2" stroke-linecap="round" stroke-linejoin="round"/>
<path d="M70.2857 36H23.4286" stroke="white" stroke-width="1.2" stroke-linecap="round" stroke-linejoin="round"/>
<path d="M36 25.7144V70.2858" stroke="white" stroke-width="1.2" stroke-linecap="round" stroke-linejoin="round"/>
<path d="M36 1.71436V14.2858" stroke="white" stroke-width="1.2" stroke-linecap="round" stroke-linejoin="round"/>
<path d="M30.2857 20H5.67365" stroke="white" stroke-width="1.2" stroke-linecap="round" stroke-linejoin="round"/>
<path d="M66.3314 20H41.7143" stroke="white" stroke-width="1.2" stroke-linecap="round" stroke-linejoin="round"/>
<path d="M46.2857 52H5.67365" stroke="white" stroke-width="1.2" stroke-linecap="round" stroke-linejoin="round"/>
<path d="M66.3289 52H57.7143" stroke="white" stroke-width="1.2" stroke-linecap="round" stroke-linejoin="round"/>
<path d="M36 25.7142C39.1559 25.7142 41.7143 23.1558 41.7143 19.9999C41.7143 16.844 39.1559 14.2856 36 14.2856C32.8441 14.2856 30.2857 16.844 30.2857 19.9999C30.2857 23.1558 32.8441 25.7142 36 25.7142Z" stroke="white" stroke-width="1.2" stroke-linecap="round" stroke-linejoin="round"/>
<path d="M17.7143 41.7142C20.8702 41.7142 23.4286 39.1558 23.4286 35.9999C23.4286 32.844 20.8702 30.2856 17.7143 30.2856C14.5584 30.2856 12 32.844 12 35.9999C12 39.1558 14.5584 41.7142 17.7143 41.7142Z" stroke="white" stroke-width="1.2" stroke-linecap="round" stroke-linejoin="round"/>
<path d="M52 57.7142C55.1559 57.7142 57.7143 55.1558 57.7143 51.9999C57.7143 48.844 55.1559 46.2856 52 46.2856C48.8441 46.2856 46.2857 48.844 46.2857 51.9999C46.2857 55.1558 48.8441 57.7142 52 57.7142Z" stroke="white" stroke-width="1.2" stroke-linecap="round" stroke-linejoin="round"/>
<path d="M50.273 57.4476C46.9232 65.2775 41.7778 70.2857 36 70.2857C26.9308 70.2857 19.4133 57.9378 17.9657 41.7092" stroke="white" stroke-width="1.2" stroke-linecap="round" stroke-linejoin="round"/>
<path d="M17.9657 30.2858C19.4159 14.0598 26.9308 1.71436 36 1.71436C46.1079 1.71436 54.2857 17.049 54.2857 36.0001C54.2857 39.6496 53.9835 43.1671 53.4197 46.4636" stroke="white" stroke-width="1.2" stroke-linecap="round" stroke-linejoin="round"/>
</svg>
