<svg width="72" height="71" viewBox="0 0 72 71" fill="none" xmlns="http://www.w3.org/2000/svg">
<path d="M69.8095 10.7063H60.7936" stroke="white" stroke-width="1.2" stroke-linecap="round" stroke-linejoin="round"/>
<path d="M65.3016 10.7063V1.69043" stroke="white" stroke-width="1.2" stroke-linecap="round" stroke-linejoin="round"/>
<path d="M69.8095 33.246V10.7063" stroke="white" stroke-width="1.2" stroke-linecap="round" stroke-linejoin="round"/>
<path d="M60.7936 33.246V10.7063" stroke="white" stroke-width="1.2" stroke-linecap="round" stroke-linejoin="round"/>
<path d="M47.2698 15.2142H38.254" stroke="white" stroke-width="1.2" stroke-linecap="round" stroke-linejoin="round"/>
<path d="M42.7619 15.2142V6.19836" stroke="white" stroke-width="1.2" stroke-linecap="round" stroke-linejoin="round"/>
<path d="M47.2698 24.2301V15.2142" stroke="white" stroke-width="1.2" stroke-linecap="round" stroke-linejoin="round"/>
<path d="M38.254 24.2301V15.2142" stroke="white" stroke-width="1.2" stroke-linecap="round" stroke-linejoin="round"/>
<path d="M29.2381 69.3096C29.2381 64.3258 33.2702 60.2937 38.254 60.2937" stroke="white" stroke-width="1.2" stroke-linecap="round" stroke-linejoin="round"/>
<path d="M20.2222 69.3096C20.2222 59.342 28.2864 51.2778 38.254 51.2778" stroke="white" stroke-width="1.2" stroke-linecap="round" stroke-linejoin="round"/>
<path d="M11.2064 60.2937C11.2064 50.3262 19.2706 42.262 29.2381 42.262" stroke="white" stroke-width="1.2" stroke-linecap="round" stroke-linejoin="round"/>
<path d="M2.19049 60.2937C2.19049 45.3424 14.2868 33.2461 29.2381 33.2461" stroke="white" stroke-width="1.2" stroke-linecap="round" stroke-linejoin="round"/>
<path d="M11.2064 60.2937V69.3096" stroke="white" stroke-width="1.2" stroke-linecap="round" stroke-linejoin="round"/>
<path d="M2.19049 60.2937V69.3096" stroke="white" stroke-width="1.2" stroke-linecap="round" stroke-linejoin="round"/>
<path d="M38.254 24.2301C38.254 29.2139 34.2219 33.246 29.2381 33.246" stroke="white" stroke-width="1.2" stroke-linecap="round" stroke-linejoin="round"/>
<path d="M47.2698 24.2301C47.2698 34.1977 39.2056 42.2618 29.2381 42.2618" stroke="white" stroke-width="1.2" stroke-linecap="round" stroke-linejoin="round"/>
<path d="M60.7936 33.2461C60.7936 43.2136 52.7295 51.2778 42.7619 51.2778" stroke="white" stroke-width="1.2" stroke-linecap="round" stroke-linejoin="round"/>
<path d="M69.8095 33.2461C69.8095 48.1974 57.7132 60.2937 42.7619 60.2937" stroke="white" stroke-width="1.2" stroke-linecap="round" stroke-linejoin="round"/>
<path d="M38.254 51.2778H42.7619" stroke="white" stroke-width="1.2" stroke-linecap="round" stroke-linejoin="round"/>
<path d="M38.254 60.2937H42.7619" stroke="white" stroke-width="1.2" stroke-linecap="round" stroke-linejoin="round"/>
</svg>
