<svg width="122" height="122" viewBox="0 0 122 122" fill="none" xmlns="http://www.w3.org/2000/svg">
<path d="M61 119.095C93.0851 119.095 119.095 93.0851 119.095 61C119.095 28.9149 93.0851 2.90479 61 2.90479C28.9149 2.90479 2.90479 28.9149 2.90479 61C2.90479 93.0851 28.9149 119.095 61 119.095Z" stroke="#24449F" stroke-width="2.03333" stroke-linecap="round" stroke-linejoin="round"/>
<path d="M20.3334 61H2.90479" stroke="#24449F" stroke-width="2.03333" stroke-linecap="round" stroke-linejoin="round"/>
<path d="M119.095 61H39.6982" stroke="#24449F" stroke-width="2.03333" stroke-linecap="round" stroke-linejoin="round"/>
<path d="M61 43.5715V119.095" stroke="#24449F" stroke-width="2.03333" stroke-linecap="round" stroke-linejoin="round"/>
<path d="M61 2.90479V24.2064" stroke="#24449F" stroke-width="2.03333" stroke-linecap="round" stroke-linejoin="round"/>
<path d="M51.3173 33.8889H9.61353" stroke="#24449F" stroke-width="2.03333" stroke-linecap="round" stroke-linejoin="round"/>
<path d="M112.395 33.8889H70.6826" stroke="#24449F" stroke-width="2.03333" stroke-linecap="round" stroke-linejoin="round"/>
<path d="M78.4284 88.1111H9.61353" stroke="#24449F" stroke-width="2.03333" stroke-linecap="round" stroke-linejoin="round"/>
<path d="M112.391 88.1111H97.7937" stroke="#24449F" stroke-width="2.03333" stroke-linecap="round" stroke-linejoin="round"/>
<path d="M60.9999 43.5714C66.3474 43.5714 70.6825 39.2364 70.6825 33.8888C70.6825 28.5413 66.3474 24.2063 60.9999 24.2063C55.6524 24.2063 51.3174 28.5413 51.3174 33.8888C51.3174 39.2364 55.6524 43.5714 60.9999 43.5714Z" stroke="#24449F" stroke-width="2.03333" stroke-linecap="round" stroke-linejoin="round"/>
<path d="M30.0158 70.6825C35.3633 70.6825 39.6983 66.3474 39.6983 60.9999C39.6983 55.6524 35.3633 51.3174 30.0158 51.3174C24.6683 51.3174 20.3333 55.6524 20.3333 60.9999C20.3333 66.3474 24.6683 70.6825 30.0158 70.6825Z" stroke="#24449F" stroke-width="2.03333" stroke-linecap="round" stroke-linejoin="round"/>
<path d="M88.111 97.7935C93.4585 97.7935 97.7935 93.4585 97.7935 88.111C97.7935 82.7635 93.4585 78.4285 88.111 78.4285C82.7635 78.4285 78.4285 82.7635 78.4285 88.111C78.4285 93.4585 82.7635 97.7935 88.111 97.7935Z" stroke="#24449F" stroke-width="2.03333" stroke-linecap="round" stroke-linejoin="round"/>
<path d="M85.1851 97.3419C79.509 110.609 70.7904 119.095 61.0002 119.095C45.633 119.095 32.895 98.1725 30.4421 70.6741" stroke="#24449F" stroke-width="2.03333" stroke-linecap="round" stroke-linejoin="round"/>
<path d="M30.4421 51.3175C32.8994 23.8234 45.633 2.90479 61.0002 2.90479C78.1276 2.90479 91.9844 28.8884 91.9844 61C91.9844 67.1839 91.4723 73.1441 90.5169 78.7298" stroke="#24449F" stroke-width="2.03333" stroke-linecap="round" stroke-linejoin="round"/>
</svg>
