<svg width="72" height="72" viewBox="0 0 72 72" fill="none" xmlns="http://www.w3.org/2000/svg">
<path d="M14.0869 16.1739C14.0869 13.8667 15.9536 12 18.2608 12" stroke="white" stroke-width="1.2" stroke-linecap="round" stroke-linejoin="round"/>
<path d="M14.0869 66.2607C14.0869 68.568 15.9536 70.4347 18.2608 70.4347" stroke="white" stroke-width="1.2" stroke-linecap="round" stroke-linejoin="round"/>
<path d="M47.4782 66.2607C47.4782 68.568 45.6116 70.4347 43.3043 70.4347" stroke="white" stroke-width="1.2" stroke-linecap="round" stroke-linejoin="round"/>
<path d="M14.0869 16.1738V66.2608" stroke="white" stroke-width="1.2" stroke-linecap="round" stroke-linejoin="round"/>
<path d="M43.3043 70.4348H18.2609" stroke="white" stroke-width="1.2" stroke-linecap="round" stroke-linejoin="round"/>
<path d="M18.2609 12H30.8985" stroke="white" stroke-width="1.2" stroke-linecap="round" stroke-linejoin="round"/>
<path d="M47.4783 30.7827V62.0871V66.261" stroke="white" stroke-width="1.2" stroke-linecap="round" stroke-linejoin="round"/>
<path d="M27.6522 20.3479H33.913" stroke="white" stroke-width="1.2" stroke-linecap="round" stroke-linejoin="round"/>
<circle cx="30.7826" cy="63.2464" r="1.56522" stroke="white" stroke-width="1.2" stroke-linecap="round" stroke-linejoin="round"/>
<path d="M49.5652 22.4348C49.5652 15.5131 43.9652 9.91309 37.0435 9.91309" stroke="white" stroke-width="1.2" stroke-linecap="round" stroke-linejoin="round"/>
<path d="M57.913 22.4348C57.913 10.8985 48.5797 1.56519 37.0435 1.56519" stroke="white" stroke-width="1.2" stroke-linecap="round" stroke-linejoin="round"/>
</svg>
