<svg width="43" height="42" viewBox="0 0 43 42" fill="none" xmlns="http://www.w3.org/2000/svg">
<g id="Isolation_Mode" clip-path="url(#clip0_803_205)">
<path id="Vector" d="M21.4093 0C9.87011 0 0.477905 9.3922 0.477905 20.9314C0.477905 32.4707 9.87011 41.8629 21.4093 41.8629C32.9486 41.8629 42.3408 32.4707 42.3408 20.9314C42.3408 9.3922 32.9571 0 21.4093 0ZM36.9176 27.7318H32.4867C32.7689 26.1835 32.9742 24.5754 33.0598 22.9245H38.2264C38.0296 24.6182 37.5763 26.2263 36.9176 27.7318ZM30.8871 34.9684H30.1686C30.6647 33.9591 31.1095 32.8727 31.4859 31.7179H34.4712C33.4362 32.9668 32.2386 34.0617 30.8956 34.9684H30.8871ZM5.90109 14.1311H10.332C10.0497 15.6793 9.84445 17.2875 9.75891 18.9384H4.59234C4.78908 17.2447 5.24244 15.6366 5.90109 14.1311ZM11.9316 6.89446H12.6501C12.154 7.90382 11.7092 8.99017 11.3328 10.1449H8.35606C9.39109 8.89608 10.5886 7.80117 11.9316 6.89446ZM19.4163 6.89446V10.1449H15.567C16.0631 8.88752 16.6363 7.79262 17.2521 6.89446H19.4163ZM19.4163 14.1311V18.9384H13.7536C13.8477 17.219 14.0615 15.6109 14.378 14.1311H19.4163ZM19.4163 22.9245V27.7318H14.378C14.0701 26.252 13.8477 24.6438 13.7536 22.9245H19.4163ZM19.4163 31.7179V34.9684H17.2521C16.6363 34.0703 16.0631 32.9754 15.567 31.7179H19.4163ZM23.4024 34.9684V31.7179H27.2517C26.7555 32.9754 26.1824 34.0703 25.5665 34.9684H23.4024ZM23.4024 27.7318V22.9245H29.0565C28.9625 24.6438 28.7486 26.252 28.4321 27.7318H23.3939H23.4024ZM23.4024 18.9384V14.1311H28.4407C28.7486 15.6109 28.971 17.219 29.0651 18.9384H23.411H23.4024ZM23.4024 10.1449V6.89446H25.5665C26.1824 7.79262 26.7555 8.88752 27.2517 10.1449H23.4024ZM30.1686 6.89446H30.8871C32.2301 7.80117 33.4362 8.89608 34.4626 10.1449H31.4859C31.1095 8.99017 30.6732 7.90382 30.1686 6.89446ZM9.75891 22.9245C9.84445 24.5754 10.0412 26.1835 10.332 27.7318H5.90109C5.24244 26.2263 4.78908 24.6182 4.59234 22.9245H9.75891ZM11.3328 31.7179C11.7092 32.8727 12.1455 33.9591 12.6501 34.9684H11.9316C10.5886 34.0617 9.38253 32.9668 8.35606 31.7179H11.3328ZM33.0598 18.9384C32.9742 17.2875 32.7775 15.6793 32.4867 14.1311H36.9176C37.5763 15.6366 38.0296 17.2447 38.2264 18.9384H33.0598Z" fill="#999999"/>
</g>
<defs>
<clipPath id="clip0_803_205">
<rect width="41.8629" height="41.8629" fill="white" transform="translate(0.477905)"/>
</clipPath>
</defs>
</svg>
