<svg width="43" height="42" viewBox="0 0 43 42" fill="none" xmlns="http://www.w3.org/2000/svg">
<g clip-path="url(#clip0_755_141)">
<path d="M21.4094 0.0685425C9.87012 0.0685425 0.477913 9.46075 0.477913 21C0.477913 32.5392 9.87012 41.9314 21.4094 41.9314C32.9486 41.9314 42.3408 32.5392 42.3408 21C42.3408 9.46075 32.9571 0.0685425 21.4094 0.0685425ZM36.9176 27.8003H32.4867C32.769 26.2521 32.9743 24.644 33.0598 22.993H38.2264C38.0296 24.6867 37.5763 26.2949 36.9176 27.8003ZM30.8871 35.037H30.1686C30.6647 34.0276 31.1095 32.9413 31.4859 31.7865H34.4712C33.4362 33.0353 32.2386 34.1302 30.8957 35.037H30.8871ZM5.9011 14.1996H10.332C10.0497 15.7479 9.84445 17.356 9.75892 19.0069H4.59235C4.78909 17.3132 5.24245 15.7051 5.9011 14.1996ZM11.9316 6.963H12.6501C12.154 7.97236 11.7092 9.05871 11.3328 10.2135H8.35607C9.3911 8.96462 10.5886 7.86972 11.9316 6.963ZM19.4163 6.963V10.2135H15.567C16.0632 8.95606 16.6363 7.86116 17.2521 6.963H19.4163ZM19.4163 14.1996V19.0069H13.7536C13.8477 17.2876 14.0615 15.6794 14.378 14.1996H19.4163ZM19.4163 22.993V27.8003H14.378C14.0701 26.3205 13.8477 24.7124 13.7536 22.993H19.4163ZM19.4163 31.7865V35.037H17.2521C16.6363 34.1388 16.0632 33.0439 15.567 31.7865H19.4163ZM23.4024 35.037V31.7865H27.2517C26.7556 33.0439 26.1824 34.1388 25.5666 35.037H23.4024ZM23.4024 27.8003V22.993H29.0566C28.9625 24.7124 28.7486 26.3205 28.4321 27.8003H23.3939H23.4024ZM23.4024 19.0069V14.1996H28.4407C28.7486 15.6794 28.971 17.2876 29.0651 19.0069H23.411H23.4024ZM23.4024 10.2135V6.963H25.5666C26.1824 7.86116 26.7556 8.95606 27.2517 10.2135H23.4024ZM30.1686 6.963H30.8871C32.2301 7.86972 33.4362 8.96462 34.4626 10.2135H31.4859C31.1095 9.05871 30.6732 7.97236 30.1686 6.963ZM9.75892 22.993C9.84445 24.644 10.0412 26.2521 10.332 27.8003H5.9011C5.24245 26.2949 4.78909 24.6867 4.59235 22.993H9.75892ZM11.3328 31.7865C11.7092 32.9413 12.1455 34.0276 12.6501 35.037H11.9316C10.5886 34.1302 9.38254 33.0353 8.35607 31.7865H11.3328ZM33.0598 19.0069C32.9743 17.356 32.7775 15.7479 32.4867 14.1996H36.9176C37.5763 15.7051 38.0296 17.3132 38.2264 19.0069H33.0598Z" fill="white"/>
</g>
<defs>
<clipPath id="clip0_755_141">
<rect width="41.8629" height="41.8629" fill="white" transform="translate(0.477913 0.0685425)"/>
</clipPath>
</defs>
</svg>
