<svg width="19" height="19" viewBox="0 0 19 19" fill="none" xmlns="http://www.w3.org/2000/svg">
<path id="Vector" fill-rule="evenodd" clip-rule="evenodd" d="M0.577148 9.52536V18.5416H4.86987V6.25704H0.577148V9.52536ZM18.8943 10.0376C18.6098 7.71235 17.5528 6.26517 14.4065 6.26517C12.5609 6.26517 11.3252 6.93996 10.8049 7.9237H10.7479V6.26517H7.32518V18.5498H10.9106V12.4603C10.9106 10.8587 11.2276 9.30583 13.1951 9.30583C15.1626 9.30583 15.317 11.1351 15.317 12.5741V18.5498H19V11.8018C19 11.1676 18.9675 10.5823 18.9024 10.0376H18.8943ZM2.72351 0.126953C1.53651 0.126953 0.577148 1.08632 0.577148 2.27331C0.577148 3.46031 1.53651 4.41962 2.72351 4.41962C3.9105 4.41962 4.86987 3.46031 4.86987 2.27331C4.86987 1.08632 3.9105 0.126953 2.72351 0.126953Z" fill="#999999"/>
</svg>
