<svg width="29" height="30" viewBox="0 0 29 30" fill="none" xmlns="http://www.w3.org/2000/svg">
<rect y="0.439209" width="29" height="29" rx="14.5" fill="white"/>
<path d="M10.3933 14.4992V7.83921H18.2773V9.24321H11.8693V13.7432H12.0853C12.2053 13.5032 12.3613 13.2752 12.5533 13.0592C12.7453 12.8312 12.9673 12.6332 13.2193 12.4652C13.4833 12.2972 13.7773 12.1652 14.1013 12.0692C14.4253 11.9612 14.7853 11.9072 15.1813 11.9072C15.7573 11.9072 16.2853 12.0032 16.7653 12.1952C17.2573 12.3872 17.6773 12.6572 18.0253 13.0052C18.3733 13.3532 18.6433 13.7732 18.8353 14.2652C19.0393 14.7572 19.1413 15.3032 19.1413 15.9032V16.2272C19.1413 16.8272 19.0453 17.3972 18.8533 17.9372C18.6613 18.4652 18.3793 18.9392 18.0073 19.3592C17.6353 19.7672 17.1733 20.0912 16.6213 20.3312C16.0693 20.5712 15.4333 20.6912 14.7133 20.6912C13.9813 20.6912 13.3333 20.5832 12.7693 20.3672C12.2053 20.1512 11.7313 19.8512 11.3473 19.4672C10.9633 19.0832 10.6693 18.6332 10.4653 18.1172C10.2733 17.5892 10.1773 17.0192 10.1773 16.4072V15.9032H11.6893V16.2992C11.6893 17.2952 11.9653 18.0452 12.5173 18.5492C13.0813 19.0412 13.8133 19.2872 14.7133 19.2872C15.1933 19.2872 15.6133 19.2032 15.9733 19.0352C16.3453 18.8552 16.6513 18.6212 16.8913 18.3332C17.1433 18.0332 17.3293 17.6912 17.4493 17.3072C17.5693 16.9112 17.6293 16.5032 17.6293 16.0832V15.9752C17.6293 15.6032 17.5633 15.2552 17.4313 14.9312C17.3113 14.6072 17.1373 14.3252 16.9093 14.0852C16.6933 13.8452 16.4233 13.6592 16.0993 13.5272C15.7873 13.3832 15.4453 13.3112 15.0733 13.3112C14.8213 13.3112 14.5873 13.3472 14.3713 13.4192C14.1673 13.4912 13.9873 13.5872 13.8313 13.7072C13.6753 13.8152 13.5433 13.9412 13.4353 14.0852C13.3393 14.2292 13.2733 14.3672 13.2373 14.4992H10.3933Z" fill="#999999"/>
</svg>
