<svg width="29" height="30" viewBox="0 0 29 30" fill="none" xmlns="http://www.w3.org/2000/svg">
<rect y="0.439209" width="29" height="29" rx="14.5" fill="white"/>
<path d="M18.7813 19.0352V20.4392H10.2493V18.2792C10.2493 17.7032 10.3453 17.2052 10.5373 16.7852C10.7293 16.3532 10.9993 15.9872 11.3473 15.6872C11.7073 15.3752 12.1393 15.1172 12.6433 14.9132C13.1473 14.7092 13.7173 14.5352 14.3533 14.3912C15.4213 14.1512 16.1893 13.8092 16.6573 13.3652C17.1373 12.9212 17.3773 12.3752 17.3773 11.7272V11.6192C17.3773 11.2952 17.3233 10.9772 17.2153 10.6652C17.1073 10.3532 16.9393 10.0712 16.7113 9.81921C16.4833 9.56721 16.1893 9.36921 15.8293 9.22521C15.4813 9.06921 15.0613 8.99121 14.5693 8.99121C13.6453 8.99121 12.9253 9.27321 12.4093 9.83721C11.9053 10.4012 11.6533 11.1512 11.6533 12.0872V12.8792H10.1413V11.9792C10.1413 11.4032 10.2373 10.8512 10.4293 10.3232C10.6213 9.79521 10.9033 9.32721 11.2753 8.91921C11.6473 8.51121 12.1093 8.18721 12.6613 7.94721C13.2133 7.70721 13.8493 7.58721 14.5693 7.58721C15.3013 7.58721 15.9373 7.70121 16.4773 7.92921C17.0173 8.14521 17.4673 8.43921 17.8273 8.81121C18.1873 9.17121 18.4513 9.58521 18.6193 10.0532C18.7993 10.5092 18.8893 10.9772 18.8893 11.4572V11.7812C18.8893 12.7412 18.5893 13.5632 17.9893 14.2472C17.3893 14.9192 16.4293 15.3992 15.1093 15.6872C13.9573 15.9392 13.1113 16.2752 12.5713 16.6952C12.0313 17.1032 11.7613 17.7032 11.7613 18.4952V19.0352H18.7813Z" fill="#999999"/>
</svg>
