<svg width="29" height="30" viewBox="0 0 29 30" fill="none" xmlns="http://www.w3.org/2000/svg">
<rect y="0.439209" width="29" height="29" rx="14.5" fill="white"/>
<path d="M13.2553 14.1752V12.0872L17.3593 9.45921V9.24321H10.2313V7.83921H18.6553V10.1432L14.5513 12.7712V12.9872H15.2713C15.7513 12.9872 16.2133 13.0652 16.6573 13.2212C17.1013 13.3772 17.4913 13.6052 17.8273 13.9052C18.1753 14.2052 18.4513 14.5772 18.6553 15.0212C18.8713 15.4532 18.9793 15.9572 18.9793 16.5332V16.8572C18.9793 17.3972 18.8713 17.9012 18.6553 18.3692C18.4393 18.8372 18.1393 19.2452 17.7553 19.5932C17.3713 19.9292 16.9153 20.1992 16.3873 20.4032C15.8713 20.5952 15.3073 20.6912 14.6953 20.6912C13.9873 20.6912 13.3513 20.5832 12.7873 20.3672C12.2233 20.1512 11.7433 19.8572 11.3473 19.4852C10.9513 19.1012 10.6453 18.6572 10.4293 18.1532C10.2253 17.6372 10.1233 17.0912 10.1233 16.5152V15.5432H11.6353V16.4072C11.6353 16.8632 11.7073 17.2712 11.8513 17.6312C12.0073 17.9792 12.2173 18.2792 12.4813 18.5312C12.7573 18.7712 13.0813 18.9572 13.4533 19.0892C13.8253 19.2212 14.2273 19.2872 14.6593 19.2872C15.0553 19.2872 15.4213 19.2212 15.7573 19.0892C16.1053 18.9572 16.4053 18.7772 16.6573 18.5492C16.9093 18.3092 17.1073 18.0332 17.2513 17.7212C17.3953 17.3972 17.4673 17.0552 17.4673 16.6952V16.5872C17.4673 15.8312 17.2273 15.2432 16.7473 14.8232C16.2673 14.3912 15.6673 14.1752 14.9473 14.1752H13.2553Z" fill="#999999"/>
</svg>
