<svg width="23" height="23" viewBox="0 0 23 23" fill="none" xmlns="http://www.w3.org/2000/svg">
<g id="icon-phone" clip-path="url(#clip0_5_2232)">
<path id="Vector" d="M16.66 22.9549C7.47 22.9549 0 15.4849 0 6.29492V2.12492C0 0.984922 0.93 0.0449219 2.08 0.0449219H6.25C6.75 0.0449219 6.94 0.234922 7 0.294922C7.29 0.584922 7.3 1.07492 7.29 1.85492V6.56492C7.29 7.34492 7.29 7.84492 6.99 8.13492C6.94 8.19492 6.76 8.36492 6.29 8.37492L5.14 8.40492L5.28 9.54492C5.81 13.7949 9.15 17.1449 13.41 17.6749L14.55 17.8149L14.58 16.6649C14.59 16.1949 14.77 16.0249 14.82 15.9649C15.07 15.7149 15.48 15.6649 16.11 15.6649H21.36C21.99 15.6649 22.4 15.7149 22.66 15.9649C22.72 16.0249 22.91 16.2049 22.91 16.7149V20.8849C22.91 22.0349 21.97 22.9649 20.83 22.9649H16.67L16.66 22.9549Z" fill="#7F7769"/>
</g>
<defs>
<clipPath id="clip0_5_2232">
<rect width="22.91" height="22.91" fill="white" transform="translate(0 0.0449219)"/>
</clipPath>
</defs>
</svg>
