<svg width="22" height="21" viewBox="0 0 22 21" fill="none" xmlns="http://www.w3.org/2000/svg">
<path id="Vector" fill-rule="evenodd" clip-rule="evenodd" d="M21.4312 9.88619C21.2849 4.39837 16.7645 0 11.2035 0C5.64249 0 1.2279 4.28455 1.00026 9.69107C0.975865 9.82929 0.975841 9.98374 0.975841 10.1301C0.975841 12.0407 1.52051 13.8374 2.44734 15.374L0.59375 20.8212L6.26855 19.0244C7.7401 19.8293 9.42299 20.2765 11.2035 20.2765C16.8539 20.2765 21.4394 15.748 21.4394 10.1301C21.4394 10.0407 21.4312 9.97561 21.4312 9.87805V9.88619ZM15.8946 12.1952C15.6344 12.0732 14.4149 11.4634 14.1873 11.374C13.9352 11.309 13.7808 11.252 13.6101 11.5122C13.4475 11.7642 12.9677 12.3171 12.8214 12.4716C12.675 12.6504 12.5288 12.6667 12.293 12.5529C12.0247 12.4309 11.2197 12.1707 10.2685 11.309C9.5124 10.6423 9.00023 9.83743 8.87014 9.60166C8.73193 9.33336 8.84575 9.21952 8.9677 9.07318C9.08965 8.97562 9.22794 8.80491 9.34989 8.64231C9.38241 8.60979 9.41492 8.57726 9.43931 8.52847C9.50435 8.42278 9.53682 8.34962 9.59374 8.2358C9.68317 8.06507 9.65062 7.9187 9.56932 7.80488C9.52054 7.68293 9.01651 6.43905 8.797 5.95124C8.59375 5.44718 8.38232 5.5366 8.24411 5.5366C8.08151 5.5366 7.92706 5.51219 7.75632 5.51219C7.57746 5.51219 7.31734 5.56911 7.0897 5.82927C6.83766 6.08131 6.19541 6.66667 6.19541 7.91058C6.19541 8.19513 6.25226 8.48784 6.34169 8.748C6.57747 9.64232 7.14654 10.3496 7.21971 10.4797C7.34166 10.6504 8.95144 13.2358 11.5043 14.2277C14.0734 15.2196 14.0735 14.8862 14.5206 14.8456C14.9759 14.8131 16.0003 14.2602 16.2117 13.6586C16.4149 13.0813 16.4149 12.5854 16.3499 12.4716C16.293 12.3903 16.1222 12.3171 15.8783 12.2033L15.8946 12.1952ZM11.2035 18.683C9.46364 18.683 7.83767 18.1627 6.47994 17.2683L3.17907 18.3171L4.24416 15.1383C3.21977 13.7399 2.60186 12 2.60186 10.1301C2.60186 9.84553 2.60994 9.58536 2.65059 9.30893C3.08149 4.98372 6.74818 1.60161 11.2035 1.60161C15.6588 1.60161 19.4393 5.07315 19.7808 9.46341C19.8052 9.69105 19.8052 9.9187 19.8052 10.1301C19.8052 14.8293 15.9515 18.6748 11.2035 18.6748V18.683Z" fill="white"/>
</svg>
