<svg width="178" height="184" viewBox="0 0 178 184" fill="none" xmlns="http://www.w3.org/2000/svg">
<path id="Vector" d="M110.47 90.8613C132.441 60.7129 154.29 30.7367 176.556 0.179229C164.148 0.179229 152.596 0.272523 141.05 0.107464C138.494 0.0715814 137.073 0.982996 135.665 2.96371C121.226 23.1655 106.708 43.3099 92.1973 63.4615C91.3859 64.5882 90.51 65.6647 89.4617 67.021C88.4421 65.7006 87.6451 64.7174 86.9056 63.6983C72.3947 43.5468 57.8551 23.4167 43.4448 3.19335C41.8221 0.918407 40.1492 0.0715816 37.3705 0.114641C26.5717 0.2797 15.7729 0.172052 4.97412 0.193582C3.89712 0.193582 2.82012 0.351465 1.26923 0.466288C23.3407 31.2175 45.0819 61.5095 66.8948 91.9091C44.7875 122.345 22.7519 152.68 0.278381 183.61C13.3173 183.61 25.509 183.682 37.7008 183.495C38.8855 183.481 40.3502 182.118 41.1687 181.005C52.1542 166.006 63.0463 150.943 73.9743 135.894C78.6988 129.385 83.4376 122.883 88.3775 116.087C89.4401 117.508 90.3018 118.634 91.1275 119.775C105.818 140.121 120.479 160.48 135.242 180.776C136.125 181.988 137.719 183.46 139.004 183.481C151.476 183.682 163.962 183.603 177.338 183.603C154.735 152.256 132.642 121.613 110.463 90.8542L110.47 90.8613Z" fill="white"/>
</svg>
