<svg width="17" height="15" viewBox="0 0 17 15" fill="none" xmlns="http://www.w3.org/2000/svg">
<g id="Isolation_Mode" clip-path="url(#clip0_9_3146)">
<path id="Vector" d="M14.6866 13.1725C12.9885 10.9097 11.2908 8.64654 9.5943 6.38214C9.34609 6.6456 9.09947 6.90748 8.85285 7.17094C10.5128 9.38513 12.1743 11.5993 13.8342 13.8119C13.8647 13.8529 13.8952 13.8926 13.9254 13.9336H11.7811L7.7046 8.39515C7.45639 8.65861 7.20818 8.92367 6.96156 9.18713C7.94073 10.5149 8.91831 11.8443 9.8959 13.1725C10.3453 13.7817 10.7928 14.3906 11.2421 14.9999H16.0573C15.599 14.3906 15.142 13.7817 14.6869 13.1725H14.6866ZM2.30723 1.06581H4.2732L5.92995 3.27396C6.68061 4.27442 7.4316 5.27648 8.18227 6.27694C8.42889 6.01348 8.67551 5.7516 8.92245 5.48814C7.55046 3.65914 6.17847 1.83046 4.80649 -0.00012207H0.198242C1.49586 1.76341 2.79316 3.52535 4.09078 5.28856C4.82778 6.28743 5.56351 7.28663 6.29892 8.2855C6.54555 8.02204 6.79217 7.75857 7.04038 7.49511L2.30723 1.06581Z" fill="white"/>
<path id="Vector_2" d="M7.70403 8.39516C7.45582 8.65862 7.20761 8.92367 6.96099 9.18714C5.71391 10.5149 4.4665 11.8443 3.21942 13.1725C2.64831 13.7817 2.07721 14.3906 1.50483 14.9999H0C0.571105 14.3906 1.14221 13.7817 1.71459 13.1725C2.50784 12.3258 3.303 11.4792 4.09625 10.6322C4.8304 9.84945 5.56422 9.06828 6.29836 8.28551C6.54498 8.02205 6.7916 7.75858 7.03981 7.49512L7.70372 8.39516H7.70403Z" fill="white"/>
<path id="Vector_3" d="M15.5835 -0.00012207C13.587 2.1273 11.5905 4.25472 9.59401 6.38214C9.3458 6.6456 9.09918 6.90748 8.85256 7.17094C8.63009 6.87411 8.40636 6.57537 8.18262 6.27694C8.42924 6.01348 8.67586 5.7516 8.9228 5.48814C10.639 3.65914 12.3551 1.82887 14.0713 -0.00012207H15.5835Z" fill="white"/>
</g>
<defs>
<clipPath id="clip0_9_3146">
<rect width="16.0567" height="15" fill="white"/>
</clipPath>
</defs>
</svg>
