<svg width="22" height="17" viewBox="0 0 22 17" fill="none" xmlns="http://www.w3.org/2000/svg">
<path id="Vector" fill-rule="evenodd" clip-rule="evenodd" d="M21.0818 4.06099C21.0818 4.06099 20.8704 2.55695 20.2444 1.90655C19.4558 1.04475 18.5615 1.03661 18.1631 0.979701C15.2444 0.768318 10.8785 0.768311 10.8785 0.768311H10.8542C10.8542 0.768311 6.49637 0.768318 3.57766 0.979701C3.16303 1.03661 2.27689 1.04475 1.48827 1.90655C0.870381 2.56508 0.650844 4.06099 0.650844 4.06099C0.650844 4.06099 0.439453 5.82523 0.439453 7.56507V9.22364C0.439453 10.9879 0.650844 12.7277 0.650844 12.7277C0.650844 12.7277 0.86225 14.2318 1.48827 14.8984C2.27689 15.7684 3.31752 15.7359 3.79719 15.8253C5.45573 15.996 10.8785 16.0529 10.8785 16.0529C10.8785 16.0529 15.2525 16.0285 18.1631 15.8253C18.5615 15.7684 19.4476 15.7684 20.2444 14.8984C20.8704 14.2318 21.0818 12.7277 21.0818 12.7277C21.0818 12.7277 21.2851 10.9879 21.2851 9.22364V7.56507C21.2851 5.82523 21.0818 4.06099 21.0818 4.06099ZM14.3501 8.17483L8.70781 11.2155V5.1179L11.2607 6.50816L14.3419 8.18296L14.3501 8.17483Z" fill="white"/>
</svg>
