<svg width="305" height="544" viewBox="0 0 305 544" fill="none" xmlns="http://www.w3.org/2000/svg">
<g filter="url(#filter0_d_91_1298)">
<rect x="12" width="293" height="524" rx="24" fill="#0DEAB1" shape-rendering="crispEdges"/>
<path d="M120.111 68.4669V54.524" stroke="#24449F" stroke-width="2.03333" stroke-linecap="round" stroke-linejoin="round"/>
<path d="M135.603 80.8606V54.524" stroke="#24449F" stroke-width="2.03333" stroke-linecap="round" stroke-linejoin="round"/>
<path d="M120.111 54.524H135.603" stroke="#24449F" stroke-width="2.03333" stroke-linecap="round" stroke-linejoin="round"/>
<path d="M34.9048 93.2541V155.222" stroke="#24449F" stroke-width="2.03333" stroke-linecap="round" stroke-linejoin="round"/>
<path d="M151.095 93.2541V155.222" stroke="#24449F" stroke-width="2.03333" stroke-linecap="round" stroke-linejoin="round"/>
<path d="M34.9048 155.222H151.095" stroke="#24449F" stroke-width="2.03333" stroke-linecap="round" stroke-linejoin="round"/>
<path d="M34.9048 93.254L93 46.7778" stroke="#24449F" stroke-width="2.03333" stroke-linecap="round" stroke-linejoin="round"/>
<path d="M93 46.7778L120.111 68.4667" stroke="#24449F" stroke-width="2.03333" stroke-linecap="round" stroke-linejoin="round"/>
<path d="M135.603 80.8605L151.095 93.2542" stroke="#24449F" stroke-width="2.03333" stroke-linecap="round" stroke-linejoin="round"/>
<circle cx="93" cy="137.798" r="2.90476" stroke="#24449F" stroke-width="2.03333" stroke-linecap="round" stroke-linejoin="round"/>
<path d="M103.956 126.846C97.9014 120.791 88.1027 120.791 82.0479 126.846" stroke="#24449F" stroke-width="2.03333" stroke-linecap="round" stroke-linejoin="round"/>
<path d="M114.908 115.89C102.799 103.78 83.2012 103.78 71.0916 115.89" stroke="#24449F" stroke-width="2.03333" stroke-linecap="round" stroke-linejoin="round"/>
<path d="M125.865 104.938C107.7 86.7732 78.3042 86.7732 60.1355 104.938" stroke="#24449F" stroke-width="2.03333" stroke-linecap="round" stroke-linejoin="round"/>
<path d="M35.384 313.776V305.856L58.928 272.16H70.664V304.992H77V313.776H70.664V324H60.584V313.776H35.384ZM61.232 282.96L46.472 304.992H61.232V282.96ZM89.0336 324.504C87.2096 324.504 85.6976 323.952 84.4976 322.848C83.3456 321.696 82.7696 320.28 82.7696 318.6C82.7696 316.92 83.3456 315.528 84.4976 314.424C85.6976 313.272 87.2096 312.696 89.0336 312.696C90.8096 312.696 92.2736 313.272 93.4256 314.424C94.5776 315.528 95.1536 316.92 95.1536 318.6C95.1536 320.28 94.5776 321.696 93.4256 322.848C92.2736 323.952 90.8096 324.504 89.0336 324.504Z" fill="#24449F"/>
<path d="M32.84 379.6C32.84 377.952 33.208 376.48 33.944 375.184C34.696 373.872 35.712 372.856 36.992 372.136C38.288 371.4 39.736 371.032 41.336 371.032C43.208 371.032 44.848 371.512 46.256 372.472C47.664 373.432 48.648 374.76 49.208 376.456H45.344C44.96 375.656 44.416 375.056 43.712 374.656C43.024 374.256 42.224 374.056 41.312 374.056C40.336 374.056 39.464 374.288 38.696 374.752C37.944 375.2 37.352 375.84 36.92 376.672C36.504 377.504 36.296 378.48 36.296 379.6C36.296 380.704 36.504 381.68 36.92 382.528C37.352 383.36 37.944 384.008 38.696 384.472C39.464 384.92 40.336 385.144 41.312 385.144C42.224 385.144 43.024 384.944 43.712 384.544C44.416 384.128 44.96 383.52 45.344 382.72H49.208C48.648 384.432 47.664 385.768 46.256 386.728C44.864 387.672 43.224 388.144 41.336 388.144C39.736 388.144 38.288 387.784 36.992 387.064C35.712 386.328 34.696 385.312 33.944 384.016C33.208 382.72 32.84 381.248 32.84 379.6ZM51.2139 381.304C51.2139 379.96 51.4779 378.768 52.0059 377.728C52.5499 376.688 53.2779 375.888 54.1899 375.328C55.1179 374.768 56.1499 374.488 57.2859 374.488C58.2779 374.488 59.1419 374.688 59.8779 375.088C60.6299 375.488 61.2299 375.992 61.6779 376.6V374.704H65.0619V388H61.6779V386.056C61.2459 386.68 60.6459 387.2 59.8779 387.616C59.1259 388.016 58.2539 388.216 57.2619 388.216C56.1419 388.216 55.1179 387.928 54.1899 387.352C53.2779 386.776 52.5499 385.968 52.0059 384.928C51.4779 383.872 51.2139 382.664 51.2139 381.304ZM61.6779 381.352C61.6779 380.536 61.5179 379.84 61.1979 379.264C60.8779 378.672 60.4459 378.224 59.9019 377.92C59.3579 377.6 58.7739 377.44 58.1499 377.44C57.5259 377.44 56.9499 377.592 56.4219 377.896C55.8939 378.2 55.4619 378.648 55.1259 379.24C54.8059 379.816 54.6459 380.504 54.6459 381.304C54.6459 382.104 54.8059 382.808 55.1259 383.416C55.4619 384.008 55.8939 384.464 56.4219 384.784C56.9659 385.104 57.5419 385.264 58.1499 385.264C58.7739 385.264 59.3579 385.112 59.9019 384.808C60.4459 384.488 60.8779 384.04 61.1979 383.464C61.5179 382.872 61.6779 382.168 61.6779 381.352ZM73.4315 388.216C72.3435 388.216 71.3675 388.024 70.5035 387.64C69.6395 387.24 68.9515 386.704 68.4395 386.032C67.9435 385.36 67.6715 384.616 67.6235 383.8H71.0075C71.0715 384.312 71.3195 384.736 71.7515 385.072C72.1995 385.408 72.7515 385.576 73.4075 385.576C74.0475 385.576 74.5435 385.448 74.8955 385.192C75.2635 384.936 75.4475 384.608 75.4475 384.208C75.4475 383.776 75.2235 383.456 74.7755 383.248C74.3435 383.024 73.6475 382.784 72.6875 382.528C71.6955 382.288 70.8795 382.04 70.2395 381.784C69.6155 381.528 69.0715 381.136 68.6075 380.608C68.1595 380.08 67.9355 379.368 67.9355 378.472C67.9355 377.736 68.1435 377.064 68.5595 376.456C68.9915 375.848 69.5995 375.368 70.3835 375.016C71.1835 374.664 72.1195 374.488 73.1915 374.488C74.7755 374.488 76.0395 374.888 76.9835 375.688C77.9275 376.472 78.4475 377.536 78.5435 378.88H75.3275C75.2795 378.352 75.0555 377.936 74.6555 377.632C74.2715 377.312 73.7515 377.152 73.0955 377.152C72.4875 377.152 72.0155 377.264 71.6795 377.488C71.3595 377.712 71.1995 378.024 71.1995 378.424C71.1995 378.872 71.4235 379.216 71.8715 379.456C72.3195 379.68 73.0155 379.912 73.9595 380.152C74.9195 380.392 75.7115 380.64 76.3355 380.896C76.9595 381.152 77.4955 381.552 77.9435 382.096C78.4075 382.624 78.6475 383.328 78.6635 384.208C78.6635 384.976 78.4475 385.664 78.0155 386.272C77.5995 386.88 76.9915 387.36 76.1915 387.712C75.4075 388.048 74.4875 388.216 73.4315 388.216ZM80.5576 381.304C80.5576 379.96 80.8216 378.768 81.3496 377.728C81.8936 376.688 82.6216 375.888 83.5336 375.328C84.4616 374.768 85.4936 374.488 86.6296 374.488C87.6216 374.488 88.4856 374.688 89.2216 375.088C89.9736 375.488 90.5736 375.992 91.0216 376.6V374.704H94.4056V388H91.0216V386.056C90.5896 386.68 89.9896 387.2 89.2216 387.616C88.4696 388.016 87.5976 388.216 86.6056 388.216C85.4856 388.216 84.4616 387.928 83.5336 387.352C82.6216 386.776 81.8936 385.968 81.3496 384.928C80.8216 383.872 80.5576 382.664 80.5576 381.304ZM91.0216 381.352C91.0216 380.536 90.8616 379.84 90.5416 379.264C90.2216 378.672 89.7896 378.224 89.2456 377.92C88.7016 377.6 88.1176 377.44 87.4936 377.44C86.8696 377.44 86.2936 377.592 85.7656 377.896C85.2376 378.2 84.8056 378.648 84.4696 379.24C84.1496 379.816 83.9896 380.504 83.9896 381.304C83.9896 382.104 84.1496 382.808 84.4696 383.416C84.8056 384.008 85.2376 384.464 85.7656 384.784C86.3096 385.104 86.8856 385.264 87.4936 385.264C88.1176 385.264 88.7016 385.112 89.2456 384.808C89.7896 384.488 90.2216 384.04 90.5416 383.464C90.8616 382.872 91.0216 382.168 91.0216 381.352ZM102.542 381.352C102.542 379.976 102.822 378.776 103.382 377.752C103.942 376.712 104.718 375.912 105.71 375.352C106.702 374.776 107.838 374.488 109.118 374.488C110.766 374.488 112.126 374.904 113.198 375.736C114.286 376.552 115.014 377.704 115.382 379.192H111.758C111.566 378.616 111.238 378.168 110.774 377.848C110.326 377.512 109.766 377.344 109.094 377.344C108.134 377.344 107.374 377.696 106.814 378.4C106.254 379.088 105.974 380.072 105.974 381.352C105.974 382.616 106.254 383.6 106.814 384.304C107.374 384.992 108.134 385.336 109.094 385.336C110.454 385.336 111.342 384.728 111.758 383.512H115.382C115.014 384.952 114.286 386.096 113.198 386.944C112.11 387.792 110.75 388.216 109.118 388.216C107.838 388.216 106.702 387.936 105.71 387.376C104.718 386.8 103.942 386 103.382 384.976C102.822 383.936 102.542 382.728 102.542 381.352ZM121.204 370.24V388H117.844V370.24H121.204ZM126.227 373.12C125.635 373.12 125.139 372.936 124.739 372.568C124.355 372.184 124.163 371.712 124.163 371.152C124.163 370.592 124.355 370.128 124.739 369.76C125.139 369.376 125.635 369.184 126.227 369.184C126.819 369.184 127.307 369.376 127.691 369.76C128.091 370.128 128.291 370.592 128.291 371.152C128.291 371.712 128.091 372.184 127.691 372.568C127.307 372.936 126.819 373.12 126.227 373.12ZM127.883 374.704V388H124.523V374.704H127.883ZM143.563 381.064C143.563 381.544 143.531 381.976 143.467 382.36H133.747C133.827 383.32 134.163 384.072 134.755 384.616C135.347 385.16 136.075 385.432 136.939 385.432C138.187 385.432 139.075 384.896 139.603 383.824H143.227C142.843 385.104 142.107 386.16 141.019 386.992C139.931 387.808 138.595 388.216 137.011 388.216C135.731 388.216 134.579 387.936 133.555 387.376C132.547 386.8 131.755 385.992 131.179 384.952C130.619 383.912 130.339 382.712 130.339 381.352C130.339 379.976 130.619 378.768 131.179 377.728C131.739 376.688 132.523 375.888 133.531 375.328C134.539 374.768 135.699 374.488 137.011 374.488C138.275 374.488 139.403 374.76 140.395 375.304C141.403 375.848 142.179 376.624 142.723 377.632C143.283 378.624 143.563 379.768 143.563 381.064ZM140.083 380.104C140.067 379.24 139.755 378.552 139.147 378.04C138.539 377.512 137.795 377.248 136.915 377.248C136.083 377.248 135.379 377.504 134.803 378.016C134.243 378.512 133.899 379.208 133.771 380.104H140.083ZM153.383 374.512C154.967 374.512 156.247 375.016 157.223 376.024C158.199 377.016 158.687 378.408 158.687 380.2V388H155.327V380.656C155.327 379.6 155.063 378.792 154.535 378.232C154.007 377.656 153.287 377.368 152.375 377.368C151.447 377.368 150.711 377.656 150.167 378.232C149.639 378.792 149.375 379.6 149.375 380.656V388H146.015V374.704H149.375V376.36C149.823 375.784 150.391 375.336 151.079 375.016C151.783 374.68 152.551 374.512 153.383 374.512ZM165.795 377.464V383.896C165.795 384.344 165.899 384.672 166.107 384.88C166.331 385.072 166.699 385.168 167.211 385.168H168.771V388H166.659C163.827 388 162.411 386.624 162.411 383.872V377.464H160.827V374.704H162.411V371.416H165.795V374.704H168.771V377.464H165.795ZM183.547 381.064C183.547 381.544 183.515 381.976 183.451 382.36H173.731C173.811 383.32 174.147 384.072 174.739 384.616C175.331 385.16 176.059 385.432 176.923 385.432C178.171 385.432 179.059 384.896 179.587 383.824H183.211C182.827 385.104 182.091 386.16 181.003 386.992C179.915 387.808 178.579 388.216 176.995 388.216C175.715 388.216 174.563 387.936 173.539 387.376C172.531 386.8 171.739 385.992 171.163 384.952C170.603 383.912 170.323 382.712 170.323 381.352C170.323 379.976 170.603 378.768 171.163 377.728C171.723 376.688 172.507 375.888 173.515 375.328C174.523 374.768 175.683 374.488 176.995 374.488C178.259 374.488 179.387 374.76 180.379 375.304C181.387 375.848 182.163 376.624 182.707 377.632C183.267 378.624 183.547 379.768 183.547 381.064ZM180.067 380.104C180.051 379.24 179.739 378.552 179.131 378.04C178.523 377.512 177.779 377.248 176.899 377.248C176.067 377.248 175.363 377.504 174.787 378.016C174.227 378.512 173.883 379.208 173.755 380.104H180.067Z" fill="#24449F"/>
<path d="M35.024 428.668H39.416V430H33.386V417.454H35.024V428.668ZM45.4575 430.162C44.5335 430.162 43.6935 429.952 42.9375 429.532C42.1935 429.112 41.6055 428.518 41.1735 427.75C40.7535 426.97 40.5435 426.07 40.5435 425.05C40.5435 424.042 40.7595 423.154 41.1915 422.386C41.6355 421.606 42.2355 421.012 42.9915 420.604C43.7475 420.184 44.5935 419.974 45.5295 419.974C46.4655 419.974 47.3115 420.184 48.0675 420.604C48.8235 421.012 49.4175 421.6 49.8495 422.368C50.2935 423.136 50.5155 424.03 50.5155 425.05C50.5155 426.07 50.2875 426.97 49.8315 427.75C49.3875 428.518 48.7815 429.112 48.0135 429.532C47.2455 429.952 46.3935 430.162 45.4575 430.162ZM45.4575 428.722C46.0455 428.722 46.5975 428.584 47.1135 428.308C47.6295 428.032 48.0435 427.618 48.3555 427.066C48.6795 426.514 48.8415 425.842 48.8415 425.05C48.8415 424.258 48.6855 423.586 48.3735 423.034C48.0615 422.482 47.6535 422.074 47.1495 421.81C46.6455 421.534 46.0995 421.396 45.5115 421.396C44.9115 421.396 44.3595 421.534 43.8555 421.81C43.3635 422.074 42.9675 422.482 42.6675 423.034C42.3675 423.586 42.2175 424.258 42.2175 425.05C42.2175 425.854 42.3615 426.532 42.6495 427.084C42.9495 427.636 43.3455 428.05 43.8375 428.326C44.3295 428.59 44.8695 428.722 45.4575 428.722ZM54.3072 421.738C54.5952 421.174 55.0032 420.736 55.5312 420.424C56.0712 420.112 56.7252 419.956 57.4932 419.956V421.648H57.0612C55.2252 421.648 54.3072 422.644 54.3072 424.636V430H52.6692V420.136H54.3072V421.738ZM68.384 424.69C68.384 425.002 68.366 425.332 68.33 425.68H60.446C60.506 426.652 60.836 427.414 61.436 427.966C62.048 428.506 62.786 428.776 63.65 428.776C64.358 428.776 64.946 428.614 65.414 428.29C65.894 427.954 66.23 427.51 66.422 426.958H68.186C67.922 427.906 67.394 428.68 66.602 429.28C65.81 429.868 64.826 430.162 63.65 430.162C62.714 430.162 61.874 429.952 61.13 429.532C60.398 429.112 59.822 428.518 59.402 427.75C58.982 426.97 58.772 426.07 58.772 425.05C58.772 424.03 58.976 423.136 59.384 422.368C59.792 421.6 60.362 421.012 61.094 420.604C61.838 420.184 62.69 419.974 63.65 419.974C64.586 419.974 65.414 420.178 66.134 420.586C66.854 420.994 67.406 421.558 67.79 422.278C68.186 422.986 68.384 423.79 68.384 424.69ZM66.692 424.348C66.692 423.724 66.554 423.19 66.278 422.746C66.002 422.29 65.624 421.948 65.144 421.72C64.676 421.48 64.154 421.36 63.578 421.36C62.75 421.36 62.042 421.624 61.454 422.152C60.878 422.68 60.548 423.412 60.464 424.348H66.692ZM82.4082 419.956C83.1762 419.956 83.8602 420.118 84.4602 420.442C85.0602 420.754 85.5342 421.228 85.8822 421.864C86.2302 422.5 86.4042 423.274 86.4042 424.186V430H84.7842V424.42C84.7842 423.436 84.5382 422.686 84.0462 422.17C83.5662 421.642 82.9122 421.378 82.0842 421.378C81.2322 421.378 80.5542 421.654 80.0502 422.206C79.5462 422.746 79.2942 423.532 79.2942 424.564V430H77.6742V424.42C77.6742 423.436 77.4282 422.686 76.9362 422.17C76.4562 421.642 75.8022 421.378 74.9742 421.378C74.1222 421.378 73.4442 421.654 72.9402 422.206C72.4362 422.746 72.1842 423.532 72.1842 424.564V430H70.5462V420.136H72.1842V421.558C72.5082 421.042 72.9402 420.646 73.4802 420.37C74.0322 420.094 74.6382 419.956 75.2982 419.956C76.1262 419.956 76.8582 420.142 77.4942 420.514C78.1302 420.886 78.6042 421.432 78.9162 422.152C79.1922 421.456 79.6482 420.916 80.2842 420.532C80.9202 420.148 81.6282 419.956 82.4082 419.956ZM94.7359 418.534C94.4239 418.534 94.1599 418.426 93.9439 418.21C93.7279 417.994 93.6199 417.73 93.6199 417.418C93.6199 417.106 93.7279 416.842 93.9439 416.626C94.1599 416.41 94.4239 416.302 94.7359 416.302C95.0359 416.302 95.2879 416.41 95.4919 416.626C95.7079 416.842 95.8159 417.106 95.8159 417.418C95.8159 417.73 95.7079 417.994 95.4919 418.21C95.2879 418.426 95.0359 418.534 94.7359 418.534ZM95.5279 420.136V430H93.8899V420.136H95.5279ZM99.9576 421.954C100.282 421.39 100.762 420.922 101.398 420.55C102.046 420.166 102.796 419.974 103.648 419.974C104.524 419.974 105.316 420.184 106.024 420.604C106.744 421.024 107.308 421.618 107.716 422.386C108.124 423.142 108.328 424.024 108.328 425.032C108.328 426.028 108.124 426.916 107.716 427.696C107.308 428.476 106.744 429.082 106.024 429.514C105.316 429.946 104.524 430.162 103.648 430.162C102.808 430.162 102.064 429.976 101.416 429.604C100.78 429.22 100.294 428.746 99.9576 428.182V434.68H98.3196V420.136H99.9576V421.954ZM106.654 425.032C106.654 424.288 106.504 423.64 106.204 423.088C105.904 422.536 105.496 422.116 104.98 421.828C104.476 421.54 103.918 421.396 103.306 421.396C102.706 421.396 102.148 421.546 101.632 421.846C101.128 422.134 100.72 422.56 100.408 423.124C100.108 423.676 99.9576 424.318 99.9576 425.05C99.9576 425.794 100.108 426.448 100.408 427.012C100.72 427.564 101.128 427.99 101.632 428.29C102.148 428.578 102.706 428.722 103.306 428.722C103.918 428.722 104.476 428.578 104.98 428.29C105.496 427.99 105.904 427.564 106.204 427.012C106.504 426.448 106.654 425.788 106.654 425.032ZM113.976 430.162C113.22 430.162 112.542 430.036 111.942 429.784C111.342 429.52 110.868 429.16 110.52 428.704C110.172 428.236 109.98 427.702 109.944 427.102H111.636C111.684 427.594 111.912 427.996 112.32 428.308C112.74 428.62 113.286 428.776 113.958 428.776C114.582 428.776 115.074 428.638 115.434 428.362C115.794 428.086 115.974 427.738 115.974 427.318C115.974 426.886 115.782 426.568 115.398 426.364C115.014 426.148 114.42 425.938 113.616 425.734C112.884 425.542 112.284 425.35 111.816 425.158C111.36 424.954 110.964 424.66 110.628 424.276C110.304 423.88 110.142 423.364 110.142 422.728C110.142 422.224 110.292 421.762 110.592 421.342C110.892 420.922 111.318 420.592 111.87 420.352C112.422 420.1 113.052 419.974 113.76 419.974C114.852 419.974 115.734 420.25 116.406 420.802C117.078 421.354 117.438 422.11 117.486 423.07H115.848C115.812 422.554 115.602 422.14 115.218 421.828C114.846 421.516 114.342 421.36 113.706 421.36C113.118 421.36 112.65 421.486 112.302 421.738C111.954 421.99 111.78 422.32 111.78 422.728C111.78 423.052 111.882 423.322 112.086 423.538C112.302 423.742 112.566 423.91 112.878 424.042C113.202 424.162 113.646 424.3 114.21 424.456C114.918 424.648 115.494 424.84 115.938 425.032C116.382 425.212 116.76 425.488 117.072 425.86C117.396 426.232 117.564 426.718 117.576 427.318C117.576 427.858 117.426 428.344 117.126 428.776C116.826 429.208 116.4 429.55 115.848 429.802C115.308 430.042 114.684 430.162 113.976 430.162ZM128.636 420.136V430H126.998V428.542C126.686 429.046 126.248 429.442 125.684 429.73C125.132 430.006 124.52 430.144 123.848 430.144C123.08 430.144 122.39 429.988 121.778 429.676C121.166 429.352 120.68 428.872 120.32 428.236C119.972 427.6 119.798 426.826 119.798 425.914V420.136H121.418V425.698C121.418 426.67 121.664 427.42 122.156 427.948C122.648 428.464 123.32 428.722 124.172 428.722C125.048 428.722 125.738 428.452 126.242 427.912C126.746 427.372 126.998 426.586 126.998 425.554V420.136H128.636ZM143.264 419.956C144.032 419.956 144.716 420.118 145.316 420.442C145.916 420.754 146.39 421.228 146.738 421.864C147.086 422.5 147.26 423.274 147.26 424.186V430H145.64V424.42C145.64 423.436 145.394 422.686 144.902 422.17C144.422 421.642 143.768 421.378 142.94 421.378C142.088 421.378 141.41 421.654 140.906 422.206C140.402 422.746 140.15 423.532 140.15 424.564V430H138.53V424.42C138.53 423.436 138.284 422.686 137.792 422.17C137.312 421.642 136.658 421.378 135.83 421.378C134.978 421.378 134.3 421.654 133.796 422.206C133.292 422.746 133.04 423.532 133.04 424.564V430H131.402V420.136H133.04V421.558C133.364 421.042 133.796 420.646 134.336 420.37C134.888 420.094 135.494 419.956 136.154 419.956C136.982 419.956 137.714 420.142 138.35 420.514C138.986 420.886 139.46 421.432 139.772 422.152C140.048 421.456 140.504 420.916 141.14 420.532C141.776 420.148 142.484 419.956 143.264 419.956ZM154.133 425.032C154.133 424.024 154.337 423.142 154.745 422.386C155.153 421.618 155.711 421.024 156.419 420.604C157.139 420.184 157.943 419.974 158.831 419.974C159.599 419.974 160.313 420.154 160.973 420.514C161.633 420.862 162.137 421.324 162.485 421.9V416.68H164.141V430H162.485V428.146C162.161 428.734 161.681 429.22 161.045 429.604C160.409 429.976 159.665 430.162 158.813 430.162C157.937 430.162 157.139 429.946 156.419 429.514C155.711 429.082 155.153 428.476 154.745 427.696C154.337 426.916 154.133 426.028 154.133 425.032ZM162.485 425.05C162.485 424.306 162.335 423.658 162.035 423.106C161.735 422.554 161.327 422.134 160.811 421.846C160.307 421.546 159.749 421.396 159.137 421.396C158.525 421.396 157.967 421.54 157.463 421.828C156.959 422.116 156.557 422.536 156.257 423.088C155.957 423.64 155.807 424.288 155.807 425.032C155.807 425.788 155.957 426.448 156.257 427.012C156.557 427.564 156.959 427.99 157.463 428.29C157.967 428.578 158.525 428.722 159.137 428.722C159.749 428.722 160.307 428.578 160.811 428.29C161.327 427.99 161.735 427.564 162.035 427.012C162.335 426.448 162.485 425.794 162.485 425.05ZM171.211 430.162C170.287 430.162 169.447 429.952 168.691 429.532C167.947 429.112 167.359 428.518 166.927 427.75C166.507 426.97 166.297 426.07 166.297 425.05C166.297 424.042 166.513 423.154 166.945 422.386C167.389 421.606 167.989 421.012 168.745 420.604C169.501 420.184 170.347 419.974 171.283 419.974C172.219 419.974 173.065 420.184 173.821 420.604C174.577 421.012 175.171 421.6 175.603 422.368C176.047 423.136 176.269 424.03 176.269 425.05C176.269 426.07 176.041 426.97 175.585 427.75C175.141 428.518 174.535 429.112 173.767 429.532C172.999 429.952 172.147 430.162 171.211 430.162ZM171.211 428.722C171.799 428.722 172.351 428.584 172.867 428.308C173.383 428.032 173.797 427.618 174.109 427.066C174.433 426.514 174.595 425.842 174.595 425.05C174.595 424.258 174.439 423.586 174.127 423.034C173.815 422.482 173.407 422.074 172.903 421.81C172.399 421.534 171.853 421.396 171.265 421.396C170.665 421.396 170.113 421.534 169.609 421.81C169.117 422.074 168.721 422.482 168.421 423.034C168.121 423.586 167.971 424.258 167.971 425.05C167.971 425.854 168.115 426.532 168.403 427.084C168.703 427.636 169.099 428.05 169.591 428.326C170.083 428.59 170.623 428.722 171.211 428.722ZM180.061 416.68V430H178.423V416.68H180.061ZM187.155 430.162C186.231 430.162 185.391 429.952 184.635 429.532C183.891 429.112 183.303 428.518 182.871 427.75C182.451 426.97 182.241 426.07 182.241 425.05C182.241 424.042 182.457 423.154 182.889 422.386C183.333 421.606 183.933 421.012 184.689 420.604C185.445 420.184 186.291 419.974 187.227 419.974C188.163 419.974 189.009 420.184 189.765 420.604C190.521 421.012 191.115 421.6 191.547 422.368C191.991 423.136 192.213 424.03 192.213 425.05C192.213 426.07 191.985 426.97 191.529 427.75C191.085 428.518 190.479 429.112 189.711 429.532C188.943 429.952 188.091 430.162 187.155 430.162ZM187.155 428.722C187.743 428.722 188.295 428.584 188.811 428.308C189.327 428.032 189.741 427.618 190.053 427.066C190.377 426.514 190.539 425.842 190.539 425.05C190.539 424.258 190.383 423.586 190.071 423.034C189.759 422.482 189.351 422.074 188.847 421.81C188.343 421.534 187.797 421.396 187.209 421.396C186.609 421.396 186.057 421.534 185.553 421.81C185.061 422.074 184.665 422.482 184.365 423.034C184.065 423.586 183.915 424.258 183.915 425.05C183.915 425.854 184.059 426.532 184.347 427.084C184.647 427.636 185.043 428.05 185.535 428.326C186.027 428.59 186.567 428.722 187.155 428.722ZM196.004 421.738C196.292 421.174 196.7 420.736 197.228 420.424C197.768 420.112 198.422 419.956 199.19 419.956V421.648H198.758C196.922 421.648 196.004 422.644 196.004 424.636V430H194.366V420.136H196.004V421.738ZM209.372 430.162C208.616 430.162 207.938 430.036 207.338 429.784C206.738 429.52 206.264 429.16 205.916 428.704C205.568 428.236 205.376 427.702 205.34 427.102H207.032C207.08 427.594 207.308 427.996 207.716 428.308C208.136 428.62 208.682 428.776 209.354 428.776C209.978 428.776 210.47 428.638 210.83 428.362C211.19 428.086 211.37 427.738 211.37 427.318C211.37 426.886 211.178 426.568 210.794 426.364C210.41 426.148 209.816 425.938 209.012 425.734C208.28 425.542 207.68 425.35 207.212 425.158C206.756 424.954 206.36 424.66 206.024 424.276C205.7 423.88 205.538 423.364 205.538 422.728C205.538 422.224 205.688 421.762 205.988 421.342C206.288 420.922 206.714 420.592 207.266 420.352C207.818 420.1 208.448 419.974 209.156 419.974C210.248 419.974 211.13 420.25 211.802 420.802C212.474 421.354 212.834 422.11 212.882 423.07H211.244C211.208 422.554 210.998 422.14 210.614 421.828C210.242 421.516 209.738 421.36 209.102 421.36C208.514 421.36 208.046 421.486 207.698 421.738C207.35 421.99 207.176 422.32 207.176 422.728C207.176 423.052 207.278 423.322 207.482 423.538C207.698 423.742 207.962 423.91 208.274 424.042C208.598 424.162 209.042 424.3 209.606 424.456C210.314 424.648 210.89 424.84 211.334 425.032C211.778 425.212 212.156 425.488 212.468 425.86C212.792 426.232 212.96 426.718 212.972 427.318C212.972 427.858 212.822 428.344 212.522 428.776C212.222 429.208 211.796 429.55 211.244 429.802C210.704 430.042 210.08 430.162 209.372 430.162ZM216.13 418.534C215.818 418.534 215.554 418.426 215.338 418.21C215.122 417.994 215.014 417.73 215.014 417.418C215.014 417.106 215.122 416.842 215.338 416.626C215.554 416.41 215.818 416.302 216.13 416.302C216.43 416.302 216.682 416.41 216.886 416.626C217.102 416.842 217.21 417.106 217.21 417.418C217.21 417.73 217.102 417.994 216.886 418.21C216.682 418.426 216.43 418.534 216.13 418.534ZM216.922 420.136V430H215.284V420.136H216.922ZM221.712 421.486V427.3C221.712 427.78 221.814 428.122 222.018 428.326C222.222 428.518 222.576 428.614 223.08 428.614H224.286V430H222.81C221.898 430 221.214 429.79 220.758 429.37C220.302 428.95 220.074 428.26 220.074 427.3V421.486H218.796V420.136H220.074V417.652H221.712V420.136H224.286V421.486H221.712ZM230.458 425.032C230.458 424.024 230.662 423.142 231.07 422.386C231.478 421.618 232.036 421.024 232.744 420.604C233.464 420.184 234.262 419.974 235.138 419.974C236.002 419.974 236.752 420.16 237.388 420.532C238.024 420.904 238.498 421.372 238.81 421.936V420.136H240.466V430H238.81V428.164C238.486 428.74 238 429.22 237.352 429.604C236.716 429.976 235.972 430.162 235.12 430.162C234.244 430.162 233.452 429.946 232.744 429.514C232.036 429.082 231.478 428.476 231.07 427.696C230.662 426.916 230.458 426.028 230.458 425.032ZM238.81 425.05C238.81 424.306 238.66 423.658 238.36 423.106C238.06 422.554 237.652 422.134 237.136 421.846C236.632 421.546 236.074 421.396 235.462 421.396C234.85 421.396 234.292 421.54 233.788 421.828C233.284 422.116 232.882 422.536 232.582 423.088C232.282 423.64 232.132 424.288 232.132 425.032C232.132 425.788 232.282 426.448 232.582 427.012C232.882 427.564 233.284 427.99 233.788 428.29C234.292 428.578 234.85 428.722 235.462 428.722C236.074 428.722 236.632 428.578 237.136 428.29C237.652 427.99 238.06 427.564 238.36 427.012C238.66 426.448 238.81 425.794 238.81 425.05ZM255.096 419.956C255.864 419.956 256.548 420.118 257.148 420.442C257.748 420.754 258.222 421.228 258.57 421.864C258.918 422.5 259.092 423.274 259.092 424.186V430H257.472V424.42C257.472 423.436 257.226 422.686 256.734 422.17C256.254 421.642 255.6 421.378 254.772 421.378C253.92 421.378 253.242 421.654 252.738 422.206C252.234 422.746 251.982 423.532 251.982 424.564V430H250.362V424.42C250.362 423.436 250.116 422.686 249.624 422.17C249.144 421.642 248.49 421.378 247.662 421.378C246.81 421.378 246.132 421.654 245.628 422.206C245.124 422.746 244.872 423.532 244.872 424.564V430H243.234V420.136H244.872V421.558C245.196 421.042 245.628 420.646 246.168 420.37C246.72 420.094 247.326 419.956 247.986 419.956C248.814 419.956 249.546 420.142 250.182 420.514C250.818 420.886 251.292 421.432 251.604 422.152C251.88 421.456 252.336 420.916 252.972 420.532C253.608 420.148 254.316 419.956 255.096 419.956ZM270.779 424.69C270.779 425.002 270.761 425.332 270.725 425.68H262.841C262.901 426.652 263.231 427.414 263.831 427.966C264.443 428.506 265.181 428.776 266.045 428.776C266.753 428.776 267.341 428.614 267.809 428.29C268.289 427.954 268.625 427.51 268.817 426.958H270.581C270.317 427.906 269.789 428.68 268.997 429.28C268.205 429.868 267.221 430.162 266.045 430.162C265.109 430.162 264.269 429.952 263.525 429.532C262.793 429.112 262.217 428.518 261.797 427.75C261.377 426.97 261.167 426.07 261.167 425.05C261.167 424.03 261.371 423.136 261.779 422.368C262.187 421.6 262.757 421.012 263.489 420.604C264.233 420.184 265.085 419.974 266.045 419.974C266.981 419.974 267.809 420.178 268.529 420.586C269.249 420.994 269.801 421.558 270.185 422.278C270.581 422.986 270.779 423.79 270.779 424.69ZM269.087 424.348C269.087 423.724 268.949 423.19 268.673 422.746C268.397 422.29 268.019 421.948 267.539 421.72C267.071 421.48 266.549 421.36 265.973 421.36C265.145 421.36 264.437 421.624 263.849 422.152C263.273 422.68 262.943 423.412 262.859 424.348H269.087ZM274.939 421.486V427.3C274.939 427.78 275.041 428.122 275.245 428.326C275.449 428.518 275.803 428.614 276.307 428.614H277.513V430H276.037C275.125 430 274.441 429.79 273.985 429.37C273.529 428.95 273.301 428.26 273.301 427.3V421.486H272.023V420.136H273.301V417.652H274.939V420.136H277.513V421.486H274.939ZM281.189 427.732L279.173 432.574H278.075L279.389 427.732H281.189ZM32.774 452.05C32.774 451.03 32.978 450.142 33.386 449.386C33.794 448.618 34.358 448.024 35.078 447.604C35.81 447.184 36.644 446.974 37.58 446.974C38.792 446.974 39.788 447.268 40.568 447.856C41.36 448.444 41.882 449.26 42.134 450.304H40.37C40.202 449.704 39.872 449.23 39.38 448.882C38.9 448.534 38.3 448.36 37.58 448.36C36.644 448.36 35.888 448.684 35.312 449.332C34.736 449.968 34.448 450.874 34.448 452.05C34.448 453.238 34.736 454.156 35.312 454.804C35.888 455.452 36.644 455.776 37.58 455.776C38.3 455.776 38.9 455.608 39.38 455.272C39.86 454.936 40.19 454.456 40.37 453.832H42.134C41.87 454.84 41.342 455.65 40.55 456.262C39.758 456.862 38.768 457.162 37.58 457.162C36.644 457.162 35.81 456.952 35.078 456.532C34.358 456.112 33.794 455.518 33.386 454.75C32.978 453.982 32.774 453.082 32.774 452.05ZM48.6216 457.162C47.6976 457.162 46.8576 456.952 46.1016 456.532C45.3576 456.112 44.7696 455.518 44.3376 454.75C43.9176 453.97 43.7076 453.07 43.7076 452.05C43.7076 451.042 43.9236 450.154 44.3556 449.386C44.7996 448.606 45.3996 448.012 46.1556 447.604C46.9116 447.184 47.7576 446.974 48.6936 446.974C49.6296 446.974 50.4756 447.184 51.2316 447.604C51.9876 448.012 52.5816 448.6 53.0136 449.368C53.4576 450.136 53.6796 451.03 53.6796 452.05C53.6796 453.07 53.4516 453.97 52.9956 454.75C52.5516 455.518 51.9456 456.112 51.1776 456.532C50.4096 456.952 49.5576 457.162 48.6216 457.162ZM48.6216 455.722C49.2096 455.722 49.7616 455.584 50.2776 455.308C50.7936 455.032 51.2076 454.618 51.5196 454.066C51.8436 453.514 52.0056 452.842 52.0056 452.05C52.0056 451.258 51.8496 450.586 51.5376 450.034C51.2256 449.482 50.8176 449.074 50.3136 448.81C49.8096 448.534 49.2636 448.396 48.6756 448.396C48.0756 448.396 47.5236 448.534 47.0196 448.81C46.5276 449.074 46.1316 449.482 45.8316 450.034C45.5316 450.586 45.3816 451.258 45.3816 452.05C45.3816 452.854 45.5256 453.532 45.8136 454.084C46.1136 454.636 46.5096 455.05 47.0016 455.326C47.4936 455.59 48.0336 455.722 48.6216 455.722ZM60.6393 446.956C61.8393 446.956 62.8113 447.322 63.5553 448.054C64.2993 448.774 64.6713 449.818 64.6713 451.186V457H63.0513V451.42C63.0513 450.436 62.8053 449.686 62.3133 449.17C61.8213 448.642 61.1493 448.378 60.2973 448.378C59.4333 448.378 58.7433 448.648 58.2273 449.188C57.7233 449.728 57.4713 450.514 57.4713 451.546V457H55.8333V447.136H57.4713V448.54C57.7953 448.036 58.2333 447.646 58.7853 447.37C59.3493 447.094 59.9673 446.956 60.6393 446.956ZM70.8389 457.162C70.0829 457.162 69.4049 457.036 68.8049 456.784C68.2049 456.52 67.7309 456.16 67.3829 455.704C67.0349 455.236 66.8429 454.702 66.8069 454.102H68.4989C68.5469 454.594 68.7749 454.996 69.1829 455.308C69.6029 455.62 70.1489 455.776 70.8209 455.776C71.4449 455.776 71.9369 455.638 72.2969 455.362C72.6569 455.086 72.8369 454.738 72.8369 454.318C72.8369 453.886 72.6449 453.568 72.2609 453.364C71.8769 453.148 71.2829 452.938 70.4789 452.734C69.7469 452.542 69.1469 452.35 68.6789 452.158C68.2229 451.954 67.8269 451.66 67.4909 451.276C67.1669 450.88 67.0049 450.364 67.0049 449.728C67.0049 449.224 67.1549 448.762 67.4549 448.342C67.7549 447.922 68.1809 447.592 68.7329 447.352C69.2849 447.1 69.9149 446.974 70.6229 446.974C71.7149 446.974 72.5969 447.25 73.2689 447.802C73.9409 448.354 74.3009 449.11 74.3489 450.07H72.7109C72.6749 449.554 72.4649 449.14 72.0809 448.828C71.7089 448.516 71.2049 448.36 70.5689 448.36C69.9809 448.36 69.5129 448.486 69.1649 448.738C68.8169 448.99 68.6429 449.32 68.6429 449.728C68.6429 450.052 68.7449 450.322 68.9489 450.538C69.1649 450.742 69.4289 450.91 69.7409 451.042C70.0649 451.162 70.5089 451.3 71.0729 451.456C71.7809 451.648 72.3569 451.84 72.8009 452.032C73.2449 452.212 73.6229 452.488 73.9349 452.86C74.2589 453.232 74.4269 453.718 74.4389 454.318C74.4389 454.858 74.2889 455.344 73.9889 455.776C73.6889 456.208 73.2629 456.55 72.7109 456.802C72.1709 457.042 71.5469 457.162 70.8389 457.162ZM85.7512 451.69C85.7512 452.002 85.7332 452.332 85.6972 452.68H77.8132C77.8732 453.652 78.2032 454.414 78.8032 454.966C79.4152 455.506 80.1532 455.776 81.0172 455.776C81.7252 455.776 82.3132 455.614 82.7812 455.29C83.2612 454.954 83.5972 454.51 83.7892 453.958H85.5532C85.2892 454.906 84.7612 455.68 83.9692 456.28C83.1772 456.868 82.1932 457.162 81.0172 457.162C80.0812 457.162 79.2412 456.952 78.4972 456.532C77.7652 456.112 77.1892 455.518 76.7692 454.75C76.3492 453.97 76.1392 453.07 76.1392 452.05C76.1392 451.03 76.3432 450.136 76.7512 449.368C77.1592 448.6 77.7292 448.012 78.4612 447.604C79.2052 447.184 80.0572 446.974 81.0172 446.974C81.9532 446.974 82.7812 447.178 83.5012 447.586C84.2212 447.994 84.7732 448.558 85.1572 449.278C85.5532 449.986 85.7512 450.79 85.7512 451.69ZM84.0592 451.348C84.0592 450.724 83.9212 450.19 83.6452 449.746C83.3692 449.29 82.9912 448.948 82.5112 448.72C82.0432 448.48 81.5212 448.36 80.9452 448.36C80.1172 448.36 79.4092 448.624 78.8212 449.152C78.2452 449.68 77.9152 450.412 77.8312 451.348H84.0592ZM87.3013 452.05C87.3013 451.03 87.5053 450.142 87.9133 449.386C88.3213 448.618 88.8853 448.024 89.6053 447.604C90.3373 447.184 91.1713 446.974 92.1073 446.974C93.3193 446.974 94.3153 447.268 95.0953 447.856C95.8873 448.444 96.4093 449.26 96.6613 450.304H94.8973C94.7293 449.704 94.3993 449.23 93.9073 448.882C93.4273 448.534 92.8273 448.36 92.1073 448.36C91.1713 448.36 90.4153 448.684 89.8393 449.332C89.2633 449.968 88.9753 450.874 88.9753 452.05C88.9753 453.238 89.2633 454.156 89.8393 454.804C90.4153 455.452 91.1713 455.776 92.1073 455.776C92.8273 455.776 93.4273 455.608 93.9073 455.272C94.3873 454.936 94.7173 454.456 94.8973 453.832H96.6613C96.3973 454.84 95.8693 455.65 95.0773 456.262C94.2853 456.862 93.2953 457.162 92.1073 457.162C91.1713 457.162 90.3373 456.952 89.6053 456.532C88.8853 456.112 88.3213 455.518 87.9133 454.75C87.5053 453.982 87.3013 453.082 87.3013 452.05ZM100.845 448.486V454.3C100.845 454.78 100.947 455.122 101.151 455.326C101.355 455.518 101.709 455.614 102.213 455.614H103.419V457H101.943C101.031 457 100.347 456.79 99.8909 456.37C99.4349 455.95 99.2069 455.26 99.2069 454.3V448.486H97.9289V447.136H99.2069V444.652H100.845V447.136H103.419V448.486H100.845ZM114.404 451.69C114.404 452.002 114.386 452.332 114.35 452.68H106.466C106.526 453.652 106.856 454.414 107.456 454.966C108.068 455.506 108.806 455.776 109.67 455.776C110.378 455.776 110.966 455.614 111.434 455.29C111.914 454.954 112.25 454.51 112.442 453.958H114.206C113.942 454.906 113.414 455.68 112.622 456.28C111.83 456.868 110.846 457.162 109.67 457.162C108.734 457.162 107.894 456.952 107.15 456.532C106.418 456.112 105.842 455.518 105.422 454.75C105.002 453.97 104.792 453.07 104.792 452.05C104.792 451.03 104.996 450.136 105.404 449.368C105.812 448.6 106.382 448.012 107.114 447.604C107.858 447.184 108.71 446.974 109.67 446.974C110.606 446.974 111.434 447.178 112.154 447.586C112.874 447.994 113.426 448.558 113.81 449.278C114.206 449.986 114.404 450.79 114.404 451.69ZM112.712 451.348C112.712 450.724 112.574 450.19 112.298 449.746C112.022 449.29 111.644 448.948 111.164 448.72C110.696 448.48 110.174 448.36 109.598 448.36C108.77 448.36 108.062 448.624 107.474 449.152C106.898 449.68 106.568 450.412 106.484 451.348H112.712ZM118.564 448.486V454.3C118.564 454.78 118.666 455.122 118.87 455.326C119.074 455.518 119.428 455.614 119.932 455.614H121.138V457H119.662C118.75 457 118.066 456.79 117.61 456.37C117.154 455.95 116.926 455.26 116.926 454.3V448.486H115.648V447.136H116.926V444.652H118.564V447.136H121.138V448.486H118.564ZM131.87 447.136V457H130.232V455.542C129.92 456.046 129.482 456.442 128.918 456.73C128.366 457.006 127.754 457.144 127.082 457.144C126.314 457.144 125.624 456.988 125.012 456.676C124.4 456.352 123.914 455.872 123.554 455.236C123.206 454.6 123.032 453.826 123.032 452.914V447.136H124.652V452.698C124.652 453.67 124.898 454.42 125.39 454.948C125.882 455.464 126.554 455.722 127.406 455.722C128.282 455.722 128.972 455.452 129.476 454.912C129.98 454.372 130.232 453.586 130.232 452.554V447.136H131.87ZM136.274 448.738C136.562 448.174 136.97 447.736 137.498 447.424C138.038 447.112 138.692 446.956 139.46 446.956V448.648H139.028C137.192 448.648 136.274 449.644 136.274 451.636V457H134.636V447.136H136.274V448.738ZM145.538 452.032C145.538 451.024 145.742 450.142 146.15 449.386C146.558 448.618 147.116 448.024 147.824 447.604C148.544 447.184 149.342 446.974 150.218 446.974C151.082 446.974 151.832 447.16 152.468 447.532C153.104 447.904 153.578 448.372 153.89 448.936V447.136H155.546V457H153.89V455.164C153.566 455.74 153.08 456.22 152.432 456.604C151.796 456.976 151.052 457.162 150.2 457.162C149.324 457.162 148.532 456.946 147.824 456.514C147.116 456.082 146.558 455.476 146.15 454.696C145.742 453.916 145.538 453.028 145.538 452.032ZM153.89 452.05C153.89 451.306 153.74 450.658 153.44 450.106C153.14 449.554 152.732 449.134 152.216 448.846C151.712 448.546 151.154 448.396 150.542 448.396C149.93 448.396 149.372 448.54 148.868 448.828C148.364 449.116 147.962 449.536 147.662 450.088C147.362 450.64 147.212 451.288 147.212 452.032C147.212 452.788 147.362 453.448 147.662 454.012C147.962 454.564 148.364 454.99 148.868 455.29C149.372 455.578 149.93 455.722 150.542 455.722C151.154 455.722 151.712 455.578 152.216 455.29C152.732 454.99 153.14 454.564 153.44 454.012C153.74 453.448 153.89 452.794 153.89 452.05ZM157.702 452.032C157.702 451.024 157.906 450.142 158.314 449.386C158.722 448.618 159.28 448.024 159.988 447.604C160.708 447.184 161.512 446.974 162.4 446.974C163.168 446.974 163.882 447.154 164.542 447.514C165.202 447.862 165.706 448.324 166.054 448.9V443.68H167.71V457H166.054V455.146C165.73 455.734 165.25 456.22 164.614 456.604C163.978 456.976 163.234 457.162 162.382 457.162C161.506 457.162 160.708 456.946 159.988 456.514C159.28 456.082 158.722 455.476 158.314 454.696C157.906 453.916 157.702 453.028 157.702 452.032ZM166.054 452.05C166.054 451.306 165.904 450.658 165.604 450.106C165.304 449.554 164.896 449.134 164.38 448.846C163.876 448.546 163.318 448.396 162.706 448.396C162.094 448.396 161.536 448.54 161.032 448.828C160.528 449.116 160.126 449.536 159.826 450.088C159.526 450.64 159.376 451.288 159.376 452.032C159.376 452.788 159.526 453.448 159.826 454.012C160.126 454.564 160.528 454.99 161.032 455.29C161.536 455.578 162.094 455.722 162.706 455.722C163.318 455.722 163.876 455.578 164.38 455.29C164.896 454.99 165.304 454.564 165.604 454.012C165.904 453.448 166.054 452.794 166.054 452.05ZM171.324 445.534C171.012 445.534 170.748 445.426 170.532 445.21C170.316 444.994 170.208 444.73 170.208 444.418C170.208 444.106 170.316 443.842 170.532 443.626C170.748 443.41 171.012 443.302 171.324 443.302C171.624 443.302 171.876 443.41 172.08 443.626C172.296 443.842 172.404 444.106 172.404 444.418C172.404 444.73 172.296 444.994 172.08 445.21C171.876 445.426 171.624 445.534 171.324 445.534ZM172.116 447.136V457H170.478V447.136H172.116ZM176.545 448.954C176.869 448.39 177.349 447.922 177.985 447.55C178.633 447.166 179.383 446.974 180.235 446.974C181.111 446.974 181.903 447.184 182.611 447.604C183.331 448.024 183.895 448.618 184.303 449.386C184.711 450.142 184.915 451.024 184.915 452.032C184.915 453.028 184.711 453.916 184.303 454.696C183.895 455.476 183.331 456.082 182.611 456.514C181.903 456.946 181.111 457.162 180.235 457.162C179.395 457.162 178.651 456.976 178.003 456.604C177.367 456.22 176.881 455.746 176.545 455.182V461.68H174.907V447.136H176.545V448.954ZM183.241 452.032C183.241 451.288 183.091 450.64 182.791 450.088C182.491 449.536 182.083 449.116 181.567 448.828C181.063 448.54 180.505 448.396 179.893 448.396C179.293 448.396 178.735 448.546 178.219 448.846C177.715 449.134 177.307 449.56 176.995 450.124C176.695 450.676 176.545 451.318 176.545 452.05C176.545 452.794 176.695 453.448 176.995 454.012C177.307 454.564 177.715 454.99 178.219 455.29C178.735 455.578 179.293 455.722 179.893 455.722C180.505 455.722 181.063 455.578 181.567 455.29C182.083 454.99 182.491 454.564 182.791 454.012C183.091 453.448 183.241 452.788 183.241 452.032ZM187.918 445.534C187.606 445.534 187.342 445.426 187.126 445.21C186.91 444.994 186.802 444.73 186.802 444.418C186.802 444.106 186.91 443.842 187.126 443.626C187.342 443.41 187.606 443.302 187.918 443.302C188.218 443.302 188.47 443.41 188.674 443.626C188.89 443.842 188.998 444.106 188.998 444.418C188.998 444.73 188.89 444.994 188.674 445.21C188.47 445.426 188.218 445.534 187.918 445.534ZM188.71 447.136V457H187.072V447.136H188.71ZM194.993 457.162C194.237 457.162 193.559 457.036 192.959 456.784C192.359 456.52 191.885 456.16 191.537 455.704C191.189 455.236 190.997 454.702 190.961 454.102H192.653C192.701 454.594 192.929 454.996 193.337 455.308C193.757 455.62 194.303 455.776 194.975 455.776C195.599 455.776 196.091 455.638 196.451 455.362C196.811 455.086 196.991 454.738 196.991 454.318C196.991 453.886 196.799 453.568 196.415 453.364C196.031 453.148 195.437 452.938 194.633 452.734C193.901 452.542 193.301 452.35 192.833 452.158C192.377 451.954 191.981 451.66 191.645 451.276C191.321 450.88 191.159 450.364 191.159 449.728C191.159 449.224 191.309 448.762 191.609 448.342C191.909 447.922 192.335 447.592 192.887 447.352C193.439 447.1 194.069 446.974 194.777 446.974C195.869 446.974 196.751 447.25 197.423 447.802C198.095 448.354 198.455 449.11 198.503 450.07H196.865C196.829 449.554 196.619 449.14 196.235 448.828C195.863 448.516 195.359 448.36 194.723 448.36C194.135 448.36 193.667 448.486 193.319 448.738C192.971 448.99 192.797 449.32 192.797 449.728C192.797 450.052 192.899 450.322 193.103 450.538C193.319 450.742 193.583 450.91 193.895 451.042C194.219 451.162 194.663 451.3 195.227 451.456C195.935 451.648 196.511 451.84 196.955 452.032C197.399 452.212 197.777 452.488 198.089 452.86C198.413 453.232 198.581 453.718 198.593 454.318C198.593 454.858 198.443 455.344 198.143 455.776C197.843 456.208 197.417 456.55 196.865 456.802C196.325 457.042 195.701 457.162 194.993 457.162ZM200.294 452.05C200.294 451.03 200.498 450.142 200.906 449.386C201.314 448.618 201.878 448.024 202.598 447.604C203.33 447.184 204.164 446.974 205.1 446.974C206.312 446.974 207.308 447.268 208.088 447.856C208.88 448.444 209.402 449.26 209.654 450.304H207.89C207.722 449.704 207.392 449.23 206.9 448.882C206.42 448.534 205.82 448.36 205.1 448.36C204.164 448.36 203.408 448.684 202.832 449.332C202.256 449.968 201.968 450.874 201.968 452.05C201.968 453.238 202.256 454.156 202.832 454.804C203.408 455.452 204.164 455.776 205.1 455.776C205.82 455.776 206.42 455.608 206.9 455.272C207.38 454.936 207.71 454.456 207.89 453.832H209.654C209.39 454.84 208.862 455.65 208.07 456.262C207.278 456.862 206.288 457.162 205.1 457.162C204.164 457.162 203.33 456.952 202.598 456.532C201.878 456.112 201.314 455.518 200.906 454.75C200.498 453.982 200.294 453.082 200.294 452.05ZM212.685 445.534C212.373 445.534 212.109 445.426 211.893 445.21C211.677 444.994 211.569 444.73 211.569 444.418C211.569 444.106 211.677 443.842 211.893 443.626C212.109 443.41 212.373 443.302 212.685 443.302C212.985 443.302 213.237 443.41 213.441 443.626C213.657 443.842 213.765 444.106 213.765 444.418C213.765 444.73 213.657 444.994 213.441 445.21C213.237 445.426 212.985 445.534 212.685 445.534ZM213.477 447.136V457H211.839V447.136H213.477ZM221.075 446.956C222.275 446.956 223.247 447.322 223.991 448.054C224.735 448.774 225.107 449.818 225.107 451.186V457H223.487V451.42C223.487 450.436 223.241 449.686 222.749 449.17C222.257 448.642 221.585 448.378 220.733 448.378C219.869 448.378 219.179 448.648 218.663 449.188C218.159 449.728 217.907 450.514 217.907 451.546V457H216.269V447.136H217.907V448.54C218.231 448.036 218.669 447.646 219.221 447.37C219.785 447.094 220.403 446.956 221.075 446.956ZM231.85 446.974C232.702 446.974 233.446 447.16 234.082 447.532C234.73 447.904 235.21 448.372 235.522 448.936V447.136H237.178V457.216C237.178 458.116 236.986 458.914 236.602 459.61C236.218 460.318 235.666 460.87 234.946 461.266C234.238 461.662 233.41 461.86 232.462 461.86C231.166 461.86 230.086 461.554 229.222 460.942C228.358 460.33 227.848 459.496 227.692 458.44H229.312C229.492 459.04 229.864 459.52 230.428 459.88C230.992 460.252 231.67 460.438 232.462 460.438C233.362 460.438 234.094 460.156 234.658 459.592C235.234 459.028 235.522 458.236 235.522 457.216V455.146C235.198 455.722 234.718 456.202 234.082 456.586C233.446 456.97 232.702 457.162 231.85 457.162C230.974 457.162 230.176 456.946 229.456 456.514C228.748 456.082 228.19 455.476 227.782 454.696C227.374 453.916 227.17 453.028 227.17 452.032C227.17 451.024 227.374 450.142 227.782 449.386C228.19 448.618 228.748 448.024 229.456 447.604C230.176 447.184 230.974 446.974 231.85 446.974ZM235.522 452.05C235.522 451.306 235.372 450.658 235.072 450.106C234.772 449.554 234.364 449.134 233.848 448.846C233.344 448.546 232.786 448.396 232.174 448.396C231.562 448.396 231.004 448.54 230.5 448.828C229.996 449.116 229.594 449.536 229.294 450.088C228.994 450.64 228.844 451.288 228.844 452.032C228.844 452.788 228.994 453.448 229.294 454.012C229.594 454.564 229.996 454.99 230.5 455.29C231.004 455.578 231.562 455.722 232.174 455.722C232.786 455.722 233.344 455.578 233.848 455.29C234.364 454.99 234.772 454.564 235.072 454.012C235.372 453.448 235.522 452.794 235.522 452.05ZM253.745 451.69C253.745 452.002 253.727 452.332 253.691 452.68H245.807C245.867 453.652 246.197 454.414 246.797 454.966C247.409 455.506 248.147 455.776 249.011 455.776C249.719 455.776 250.307 455.614 250.775 455.29C251.255 454.954 251.591 454.51 251.783 453.958H253.547C253.283 454.906 252.755 455.68 251.963 456.28C251.171 456.868 250.187 457.162 249.011 457.162C248.075 457.162 247.235 456.952 246.491 456.532C245.759 456.112 245.183 455.518 244.763 454.75C244.343 453.97 244.133 453.07 244.133 452.05C244.133 451.03 244.337 450.136 244.745 449.368C245.153 448.6 245.723 448.012 246.455 447.604C247.199 447.184 248.051 446.974 249.011 446.974C249.947 446.974 250.775 447.178 251.495 447.586C252.215 447.994 252.767 448.558 253.151 449.278C253.547 449.986 253.745 450.79 253.745 451.69ZM252.053 451.348C252.053 450.724 251.915 450.19 251.639 449.746C251.363 449.29 250.985 448.948 250.505 448.72C250.037 448.48 249.515 448.36 248.939 448.36C248.111 448.36 247.403 448.624 246.815 449.152C246.239 449.68 245.909 450.412 245.825 451.348H252.053ZM257.545 443.68V457H255.907V443.68H257.545ZM261.183 445.534C260.871 445.534 260.607 445.426 260.391 445.21C260.175 444.994 260.067 444.73 260.067 444.418C260.067 444.106 260.175 443.842 260.391 443.626C260.607 443.41 260.871 443.302 261.183 443.302C261.483 443.302 261.735 443.41 261.939 443.626C262.155 443.842 262.263 444.106 262.263 444.418C262.263 444.73 262.155 444.994 261.939 445.21C261.735 445.426 261.483 445.534 261.183 445.534ZM261.975 447.136V457H260.337V447.136H261.975ZM266.765 448.486V454.3C266.765 454.78 266.867 455.122 267.071 455.326C267.275 455.518 267.629 455.614 268.133 455.614H269.339V457H267.863C266.951 457 266.267 456.79 265.811 456.37C265.355 455.95 265.127 455.26 265.127 454.3V448.486H263.849V447.136H265.127V444.652H266.765V447.136H269.339V448.486H266.765ZM271.846 457.108C271.534 457.108 271.27 457 271.054 456.784C270.838 456.568 270.73 456.304 270.73 455.992C270.73 455.68 270.838 455.416 271.054 455.2C271.27 454.984 271.534 454.876 271.846 454.876C272.146 454.876 272.398 454.984 272.602 455.2C272.818 455.416 272.926 455.68 272.926 455.992C272.926 456.304 272.818 456.568 272.602 456.784C272.398 457 272.146 457.108 271.846 457.108Z" fill="#24449F"/>
</g>
<defs>
<filter id="filter0_d_91_1298" x="0" y="-4" width="317" height="548" filterUnits="userSpaceOnUse" color-interpolation-filters="sRGB">
<feFlood flood-opacity="0" result="BackgroundImageFix"/>
<feColorMatrix in="SourceAlpha" type="matrix" values="0 0 0 0 0 0 0 0 0 0 0 0 0 0 0 0 0 0 127 0" result="hardAlpha"/>
<feOffset dy="8"/>
<feGaussianBlur stdDeviation="6"/>
<feComposite in2="hardAlpha" operator="out"/>
<feColorMatrix type="matrix" values="0 0 0 0 0 0 0 0 0 0 0 0 0 0 0 0 0 0 0.07 0"/>
<feBlend mode="normal" in2="BackgroundImageFix" result="effect1_dropShadow_91_1298"/>
<feBlend mode="normal" in="SourceGraphic" in2="effect1_dropShadow_91_1298" result="shape"/>
</filter>
</defs>
</svg>
