<svg width="305" height="544" viewBox="0 0 305 544" fill="none" xmlns="http://www.w3.org/2000/svg">
<g filter="url(#filter0_d_91_782)">
<rect x="12" width="293" height="524" rx="24" fill="#0DEAB1" shape-rendering="crispEdges"/>
<path d="M93 159.095C125.085 159.095 151.095 133.085 151.095 101C151.095 68.9149 125.085 42.9048 93 42.9048C60.9149 42.9048 34.9048 68.9149 34.9048 101C34.9048 133.085 60.9149 159.095 93 159.095Z" stroke="#24449F" stroke-width="2.03333" stroke-linecap="round" stroke-linejoin="round"/>
<path d="M52.3334 101H34.9048" stroke="#24449F" stroke-width="2.03333" stroke-linecap="round" stroke-linejoin="round"/>
<path d="M151.096 101H71.6987" stroke="#24449F" stroke-width="2.03333" stroke-linecap="round" stroke-linejoin="round"/>
<path d="M93 83.5715V159.095" stroke="#24449F" stroke-width="2.03333" stroke-linecap="round" stroke-linejoin="round"/>
<path d="M93 42.9048V64.2064" stroke="#24449F" stroke-width="2.03333" stroke-linecap="round" stroke-linejoin="round"/>
<path d="M83.3178 73.8889H41.614" stroke="#24449F" stroke-width="2.03333" stroke-linecap="round" stroke-linejoin="round"/>
<path d="M144.395 73.8889H102.683" stroke="#24449F" stroke-width="2.03333" stroke-linecap="round" stroke-linejoin="round"/>
<path d="M110.429 128.111H41.614" stroke="#24449F" stroke-width="2.03333" stroke-linecap="round" stroke-linejoin="round"/>
<path d="M144.391 128.111H129.794" stroke="#24449F" stroke-width="2.03333" stroke-linecap="round" stroke-linejoin="round"/>
<path d="M92.9999 83.5714C98.3474 83.5714 102.682 79.2364 102.682 73.8888C102.682 68.5413 98.3474 64.2063 92.9999 64.2063C87.6524 64.2063 83.3174 68.5413 83.3174 73.8888C83.3174 79.2364 87.6524 83.5714 92.9999 83.5714Z" stroke="#24449F" stroke-width="2.03333" stroke-linecap="round" stroke-linejoin="round"/>
<path d="M62.0158 110.682C67.3633 110.682 71.6983 106.347 71.6983 101C71.6983 95.6524 67.3633 91.3174 62.0158 91.3174C56.6683 91.3174 52.3333 95.6524 52.3333 101C52.3333 106.347 56.6683 110.682 62.0158 110.682Z" stroke="#24449F" stroke-width="2.03333" stroke-linecap="round" stroke-linejoin="round"/>
<path d="M120.111 137.794C125.459 137.794 129.794 133.459 129.794 128.111C129.794 122.763 125.459 118.428 120.111 118.428C114.763 118.428 110.428 122.763 110.428 128.111C110.428 133.459 114.763 137.794 120.111 137.794Z" stroke="#24449F" stroke-width="2.03333" stroke-linecap="round" stroke-linejoin="round"/>
<path d="M117.185 137.342C111.509 150.609 102.79 159.095 93.0002 159.095C77.633 159.095 64.895 138.172 62.4421 110.674" stroke="#24449F" stroke-width="2.03333" stroke-linecap="round" stroke-linejoin="round"/>
<path d="M62.4421 91.3175C64.8994 63.8234 77.633 42.9048 93.0002 42.9048C110.128 42.9048 123.984 68.8884 123.984 101C123.984 107.184 123.472 113.144 122.517 118.73" stroke="#24449F" stroke-width="2.03333" stroke-linecap="round" stroke-linejoin="round"/>
<path d="M34.592 251.8V242.512H51.944V295H41.576V251.8H34.592ZM67.5179 295.504C65.6939 295.504 64.1819 294.952 62.9819 293.848C61.8299 292.696 61.2539 291.28 61.2539 289.6C61.2539 287.92 61.8299 286.528 62.9819 285.424C64.1819 284.272 65.6939 283.696 67.5179 283.696C69.2939 283.696 70.7579 284.272 71.9099 285.424C73.0619 286.528 73.6379 287.92 73.6379 289.6C73.6379 291.28 73.0619 292.696 71.9099 293.848C70.7579 294.952 69.2939 295.504 67.5179 295.504Z" fill="#24449F"/>
<path d="M39.512 342.248C41.272 342.248 42.816 342.592 44.144 343.28C45.488 343.968 46.52 344.952 47.24 346.232C47.976 347.496 48.344 348.968 48.344 350.648C48.344 352.328 47.976 353.8 47.24 355.064C46.52 356.312 45.488 357.28 44.144 357.968C42.816 358.656 41.272 359 39.512 359H33.656V342.248H39.512ZM39.392 356.144C41.152 356.144 42.512 355.664 43.472 354.704C44.432 353.744 44.912 352.392 44.912 350.648C44.912 348.904 44.432 347.544 43.472 346.568C42.512 345.576 41.152 345.08 39.392 345.08H37.016V356.144H39.392ZM49.9951 352.304C49.9951 350.96 50.2591 349.768 50.7871 348.728C51.3311 347.688 52.0591 346.888 52.9711 346.328C53.8991 345.768 54.9311 345.488 56.0671 345.488C57.0591 345.488 57.9231 345.688 58.6591 346.088C59.4111 346.488 60.0111 346.992 60.4591 347.6V345.704H63.8431V359H60.4591V357.056C60.0271 357.68 59.4271 358.2 58.6591 358.616C57.9071 359.016 57.0351 359.216 56.0431 359.216C54.9231 359.216 53.8991 358.928 52.9711 358.352C52.0591 357.776 51.3311 356.968 50.7871 355.928C50.2591 354.872 49.9951 353.664 49.9951 352.304ZM60.4591 352.352C60.4591 351.536 60.2991 350.84 59.9791 350.264C59.6591 349.672 59.2271 349.224 58.6831 348.92C58.1391 348.6 57.5551 348.44 56.9311 348.44C56.3071 348.44 55.7311 348.592 55.2031 348.896C54.6751 349.2 54.2431 349.648 53.9071 350.24C53.5871 350.816 53.4271 351.504 53.4271 352.304C53.4271 353.104 53.5871 353.808 53.9071 354.416C54.2431 355.008 54.6751 355.464 55.2031 355.784C55.7471 356.104 56.3231 356.264 56.9311 356.264C57.5551 356.264 58.1391 356.112 58.6831 355.808C59.2271 355.488 59.6591 355.04 59.9791 354.464C60.2991 353.872 60.4591 353.168 60.4591 352.352ZM71.0368 348.464V354.896C71.0368 355.344 71.1408 355.672 71.3488 355.88C71.5728 356.072 71.9408 356.168 72.4528 356.168H74.0128V359H71.9008C69.0688 359 67.6528 357.624 67.6528 354.872V348.464H66.0688V345.704H67.6528V342.416H71.0368V345.704H74.0128V348.464H71.0368ZM75.5654 352.304C75.5654 350.96 75.8294 349.768 76.3574 348.728C76.9014 347.688 77.6294 346.888 78.5414 346.328C79.4694 345.768 80.5014 345.488 81.6374 345.488C82.6294 345.488 83.4934 345.688 84.2294 346.088C84.9814 346.488 85.5814 346.992 86.0294 347.6V345.704H89.4134V359H86.0294V357.056C85.5974 357.68 84.9974 358.2 84.2294 358.616C83.4774 359.016 82.6054 359.216 81.6134 359.216C80.4934 359.216 79.4694 358.928 78.5414 358.352C77.6294 357.776 76.9014 356.968 76.3574 355.928C75.8294 354.872 75.5654 353.664 75.5654 352.304ZM86.0294 352.352C86.0294 351.536 85.8694 350.84 85.5494 350.264C85.2294 349.672 84.7974 349.224 84.2534 348.92C83.7094 348.6 83.1254 348.44 82.5014 348.44C81.8774 348.44 81.3014 348.592 80.7734 348.896C80.2454 349.2 79.8134 349.648 79.4774 350.24C79.1574 350.816 78.9974 351.504 78.9974 352.304C78.9974 353.104 79.1574 353.808 79.4774 354.416C79.8134 355.008 80.2454 355.464 80.7734 355.784C81.3174 356.104 81.8934 356.264 82.5014 356.264C83.1254 356.264 83.7094 356.112 84.2534 355.808C84.7974 355.488 85.2294 355.04 85.5494 354.464C85.8694 353.872 86.0294 353.168 86.0294 352.352ZM97.5978 350.6C97.5978 348.952 97.9658 347.48 98.7018 346.184C99.4538 344.872 100.47 343.856 101.75 343.136C103.046 342.4 104.494 342.032 106.094 342.032C107.966 342.032 109.606 342.512 111.014 343.472C112.422 344.432 113.406 345.76 113.966 347.456H110.102C109.718 346.656 109.174 346.056 108.47 345.656C107.782 345.256 106.982 345.056 106.07 345.056C105.094 345.056 104.222 345.288 103.454 345.752C102.702 346.2 102.11 346.84 101.678 347.672C101.262 348.504 101.054 349.48 101.054 350.6C101.054 351.704 101.262 352.68 101.678 353.528C102.11 354.36 102.702 355.008 103.454 355.472C104.222 355.92 105.094 356.144 106.07 356.144C106.982 356.144 107.782 355.944 108.47 355.544C109.174 355.128 109.718 354.52 110.102 353.72H113.966C113.406 355.432 112.422 356.768 111.014 357.728C109.622 358.672 107.982 359.144 106.094 359.144C104.494 359.144 103.046 358.784 101.75 358.064C100.47 357.328 99.4538 356.312 98.7018 355.016C97.9658 353.72 97.5978 352.248 97.5978 350.6ZM129.196 352.064C129.196 352.544 129.164 352.976 129.1 353.36H119.38C119.46 354.32 119.796 355.072 120.388 355.616C120.98 356.16 121.708 356.432 122.572 356.432C123.82 356.432 124.708 355.896 125.236 354.824H128.86C128.476 356.104 127.74 357.16 126.652 357.992C125.564 358.808 124.228 359.216 122.644 359.216C121.364 359.216 120.212 358.936 119.188 358.376C118.18 357.8 117.388 356.992 116.812 355.952C116.252 354.912 115.972 353.712 115.972 352.352C115.972 350.976 116.252 349.768 116.812 348.728C117.372 347.688 118.156 346.888 119.164 346.328C120.172 345.768 121.332 345.488 122.644 345.488C123.908 345.488 125.036 345.76 126.028 346.304C127.036 346.848 127.812 347.624 128.356 348.632C128.916 349.624 129.196 350.768 129.196 352.064ZM125.716 351.104C125.7 350.24 125.388 349.552 124.78 349.04C124.172 348.512 123.428 348.248 122.548 348.248C121.716 348.248 121.012 348.504 120.436 349.016C119.876 349.512 119.532 350.208 119.404 351.104H125.716ZM139.016 345.512C140.6 345.512 141.88 346.016 142.856 347.024C143.832 348.016 144.32 349.408 144.32 351.2V359H140.96V351.656C140.96 350.6 140.696 349.792 140.168 349.232C139.64 348.656 138.92 348.368 138.008 348.368C137.08 348.368 136.344 348.656 135.8 349.232C135.272 349.792 135.008 350.6 135.008 351.656V359H131.648V345.704H135.008V347.36C135.456 346.784 136.024 346.336 136.712 346.016C137.416 345.68 138.184 345.512 139.016 345.512ZM151.427 348.464V354.896C151.427 355.344 151.531 355.672 151.739 355.88C151.963 356.072 152.331 356.168 152.843 356.168H154.403V359H152.291C149.459 359 148.043 357.624 148.043 354.872V348.464H146.459V345.704H148.043V342.416H151.427V345.704H154.403V348.464H151.427ZM169.18 352.064C169.18 352.544 169.148 352.976 169.084 353.36H159.364C159.444 354.32 159.78 355.072 160.372 355.616C160.964 356.16 161.692 356.432 162.556 356.432C163.804 356.432 164.692 355.896 165.22 354.824H168.844C168.46 356.104 167.724 357.16 166.636 357.992C165.548 358.808 164.212 359.216 162.628 359.216C161.348 359.216 160.196 358.936 159.172 358.376C158.164 357.8 157.372 356.992 156.796 355.952C156.236 354.912 155.956 353.712 155.956 352.352C155.956 350.976 156.236 349.768 156.796 348.728C157.356 347.688 158.14 346.888 159.148 346.328C160.156 345.768 161.316 345.488 162.628 345.488C163.892 345.488 165.02 345.76 166.012 346.304C167.02 346.848 167.796 347.624 168.34 348.632C168.9 349.624 169.18 350.768 169.18 352.064ZM165.7 351.104C165.684 350.24 165.372 349.552 164.764 349.04C164.156 348.512 163.412 348.248 162.532 348.248C161.7 348.248 160.996 348.504 160.42 349.016C159.86 349.512 159.516 350.208 159.388 351.104H165.7ZM174.993 347.768C175.425 347.064 175.985 346.512 176.673 346.112C177.377 345.712 178.177 345.512 179.073 345.512V349.04H178.185C177.129 349.04 176.329 349.288 175.785 349.784C175.257 350.28 174.993 351.144 174.993 352.376V359H171.633V345.704H174.993V347.768ZM186.424 359.216C185.336 359.216 184.36 359.024 183.496 358.64C182.632 358.24 181.944 357.704 181.432 357.032C180.936 356.36 180.664 355.616 180.616 354.8H184C184.064 355.312 184.312 355.736 184.744 356.072C185.192 356.408 185.744 356.576 186.4 356.576C187.04 356.576 187.536 356.448 187.888 356.192C188.256 355.936 188.44 355.608 188.44 355.208C188.44 354.776 188.216 354.456 187.768 354.248C187.336 354.024 186.64 353.784 185.68 353.528C184.688 353.288 183.872 353.04 183.232 352.784C182.608 352.528 182.064 352.136 181.6 351.608C181.152 351.08 180.928 350.368 180.928 349.472C180.928 348.736 181.136 348.064 181.552 347.456C181.984 346.848 182.592 346.368 183.376 346.016C184.176 345.664 185.112 345.488 186.184 345.488C187.768 345.488 189.032 345.888 189.976 346.688C190.92 347.472 191.44 348.536 191.536 349.88H188.32C188.272 349.352 188.048 348.936 187.648 348.632C187.264 348.312 186.744 348.152 186.088 348.152C185.48 348.152 185.008 348.264 184.672 348.488C184.352 348.712 184.192 349.024 184.192 349.424C184.192 349.872 184.416 350.216 184.864 350.456C185.312 350.68 186.008 350.912 186.952 351.152C187.912 351.392 188.704 351.64 189.328 351.896C189.952 352.152 190.488 352.552 190.936 353.096C191.4 353.624 191.64 354.328 191.656 355.208C191.656 355.976 191.44 356.664 191.008 357.272C190.592 357.88 189.984 358.36 189.184 358.712C188.4 359.048 187.48 359.216 186.424 359.216ZM212.493 352.064C212.493 352.544 212.461 352.976 212.397 353.36H202.677C202.757 354.32 203.093 355.072 203.685 355.616C204.277 356.16 205.005 356.432 205.869 356.432C207.117 356.432 208.005 355.896 208.533 354.824H212.157C211.773 356.104 211.037 357.16 209.949 357.992C208.861 358.808 207.525 359.216 205.941 359.216C204.661 359.216 203.509 358.936 202.485 358.376C201.477 357.8 200.685 356.992 200.109 355.952C199.549 354.912 199.269 353.712 199.269 352.352C199.269 350.976 199.549 349.768 200.109 348.728C200.669 347.688 201.453 346.888 202.461 346.328C203.469 345.768 204.629 345.488 205.941 345.488C207.205 345.488 208.333 345.76 209.325 346.304C210.333 346.848 211.109 347.624 211.653 348.632C212.213 349.624 212.493 350.768 212.493 352.064ZM209.013 351.104C208.997 350.24 208.685 349.552 208.077 349.04C207.469 348.512 206.725 348.248 205.845 348.248C205.013 348.248 204.309 348.504 203.733 349.016C203.173 349.512 202.829 350.208 202.701 351.104H209.013ZM39.44 388.168C38.272 388.168 37.216 387.968 36.272 387.568C35.344 387.168 34.608 386.592 34.064 385.84C33.52 385.088 33.24 384.2 33.224 383.176H36.824C36.872 383.864 37.112 384.408 37.544 384.808C37.992 385.208 38.6 385.408 39.368 385.408C40.152 385.408 40.768 385.224 41.216 384.856C41.664 384.472 41.888 383.976 41.888 383.368C41.888 382.872 41.736 382.464 41.432 382.144C41.128 381.824 40.744 381.576 40.28 381.4C39.832 381.208 39.208 381 38.408 380.776C37.32 380.456 36.432 380.144 35.744 379.84C35.072 379.52 34.488 379.048 33.992 378.424C33.512 377.784 33.272 376.936 33.272 375.88C33.272 374.888 33.52 374.024 34.016 373.288C34.512 372.552 35.208 371.992 36.104 371.608C37 371.208 38.024 371.008 39.176 371.008C40.904 371.008 42.304 371.432 43.376 372.28C44.464 373.112 45.064 374.28 45.176 375.784H41.48C41.448 375.208 41.2 374.736 40.736 374.368C40.288 373.984 39.688 373.792 38.936 373.792C38.28 373.792 37.752 373.96 37.352 374.296C36.968 374.632 36.776 375.12 36.776 375.76C36.776 376.208 36.92 376.584 37.208 376.888C37.512 377.176 37.88 377.416 38.312 377.608C38.76 377.784 39.384 377.992 40.184 378.232C41.272 378.552 42.16 378.872 42.848 379.192C43.536 379.512 44.128 379.992 44.624 380.632C45.12 381.272 45.368 382.112 45.368 383.152C45.368 384.048 45.136 384.88 44.672 385.648C44.208 386.416 43.528 387.032 42.632 387.496C41.736 387.944 40.672 388.168 39.44 388.168ZM60.641 381.064C60.641 381.544 60.609 381.976 60.545 382.36H50.825C50.905 383.32 51.241 384.072 51.833 384.616C52.425 385.16 53.153 385.432 54.017 385.432C55.265 385.432 56.153 384.896 56.681 383.824H60.305C59.921 385.104 59.185 386.16 58.097 386.992C57.009 387.808 55.673 388.216 54.089 388.216C52.809 388.216 51.657 387.936 50.633 387.376C49.625 386.8 48.833 385.992 48.257 384.952C47.697 383.912 47.417 382.712 47.417 381.352C47.417 379.976 47.697 378.768 48.257 377.728C48.817 376.688 49.601 375.888 50.609 375.328C51.617 374.768 52.777 374.488 54.089 374.488C55.353 374.488 56.481 374.76 57.473 375.304C58.481 375.848 59.257 376.624 59.801 377.632C60.361 378.624 60.641 379.768 60.641 381.064ZM57.161 380.104C57.145 379.24 56.833 378.552 56.225 378.04C55.617 377.512 54.873 377.248 53.993 377.248C53.161 377.248 52.457 377.504 51.881 378.016C51.321 378.512 50.977 379.208 50.849 380.104H57.161ZM66.4535 376.768C66.8855 376.064 67.4455 375.512 68.1335 375.112C68.8375 374.712 69.6375 374.512 70.5335 374.512V378.04H69.6455C68.5895 378.04 67.7895 378.288 67.2455 378.784C66.7175 379.28 66.4535 380.144 66.4535 381.376V388H63.0935V374.704H66.4535V376.768ZM78.3406 384.904L81.7006 374.704H85.2766L80.3566 388H76.2766L71.3806 374.704H74.9806L78.3406 384.904ZM88.8678 373.12C88.2758 373.12 87.7798 372.936 87.3798 372.568C86.9958 372.184 86.8038 371.712 86.8038 371.152C86.8038 370.592 86.9958 370.128 87.3798 369.76C87.7798 369.376 88.2758 369.184 88.8678 369.184C89.4598 369.184 89.9478 369.376 90.3318 369.76C90.7318 370.128 90.9318 370.592 90.9318 371.152C90.9318 371.712 90.7318 372.184 90.3318 372.568C89.9478 372.936 89.4598 373.12 88.8678 373.12ZM90.5238 374.704V388H87.1638V374.704H90.5238ZM92.9795 381.304C92.9795 379.96 93.2435 378.768 93.7715 377.728C94.3155 376.688 95.0515 375.888 95.9795 375.328C96.9075 374.768 97.9395 374.488 99.0755 374.488C99.9395 374.488 100.764 374.68 101.548 375.064C102.332 375.432 102.956 375.928 103.42 376.552V370.24H106.828V388H103.42V386.032C103.004 386.688 102.42 387.216 101.668 387.616C100.916 388.016 100.044 388.216 99.0515 388.216C97.9315 388.216 96.9075 387.928 95.9795 387.352C95.0515 386.776 94.3155 385.968 93.7715 384.928C93.2435 383.872 92.9795 382.664 92.9795 381.304ZM103.444 381.352C103.444 380.536 103.284 379.84 102.964 379.264C102.644 378.672 102.212 378.224 101.668 377.92C101.124 377.6 100.54 377.44 99.9155 377.44C99.2915 377.44 98.7155 377.592 98.1875 377.896C97.6595 378.2 97.2275 378.648 96.8915 379.24C96.5715 379.816 96.4115 380.504 96.4115 381.304C96.4115 382.104 96.5715 382.808 96.8915 383.416C97.2275 384.008 97.6595 384.464 98.1875 384.784C98.7315 385.104 99.3075 385.264 99.9155 385.264C100.54 385.264 101.124 385.112 101.668 384.808C102.212 384.488 102.644 384.04 102.964 383.464C103.284 382.872 103.444 382.168 103.444 381.352ZM116.013 388.216C114.733 388.216 113.581 387.936 112.557 387.376C111.533 386.8 110.725 385.992 110.133 384.952C109.557 383.912 109.269 382.712 109.269 381.352C109.269 379.992 109.565 378.792 110.157 377.752C110.765 376.712 111.589 375.912 112.629 375.352C113.669 374.776 114.829 374.488 116.109 374.488C117.389 374.488 118.549 374.776 119.589 375.352C120.629 375.912 121.445 376.712 122.037 377.752C122.645 378.792 122.949 379.992 122.949 381.352C122.949 382.712 122.637 383.912 122.013 384.952C121.405 385.992 120.573 386.8 119.517 387.376C118.477 387.936 117.309 388.216 116.013 388.216ZM116.013 385.288C116.621 385.288 117.189 385.144 117.717 384.856C118.261 384.552 118.693 384.104 119.013 383.512C119.333 382.92 119.493 382.2 119.493 381.352C119.493 380.088 119.157 379.12 118.485 378.448C117.829 377.76 117.021 377.416 116.061 377.416C115.101 377.416 114.293 377.76 113.637 378.448C112.997 379.12 112.677 380.088 112.677 381.352C112.677 382.616 112.989 383.592 113.613 384.28C114.253 384.952 115.053 385.288 116.013 385.288ZM128.774 376.768C129.206 376.064 129.766 375.512 130.454 375.112C131.158 374.712 131.958 374.512 132.854 374.512V378.04H131.966C130.91 378.04 130.11 378.288 129.566 378.784C129.038 379.28 128.774 380.144 128.774 381.376V388H125.414V374.704H128.774V376.768ZM147.477 381.064C147.477 381.544 147.445 381.976 147.381 382.36H137.661C137.741 383.32 138.077 384.072 138.669 384.616C139.261 385.16 139.989 385.432 140.853 385.432C142.101 385.432 142.989 384.896 143.517 383.824H147.141C146.757 385.104 146.021 386.16 144.933 386.992C143.845 387.808 142.509 388.216 140.925 388.216C139.645 388.216 138.493 387.936 137.469 387.376C136.461 386.8 135.669 385.992 135.093 384.952C134.533 383.912 134.253 382.712 134.253 381.352C134.253 379.976 134.533 378.768 135.093 377.728C135.653 376.688 136.437 375.888 137.445 375.328C138.453 374.768 139.613 374.488 140.925 374.488C142.189 374.488 143.317 374.76 144.309 375.304C145.317 375.848 146.093 376.624 146.637 377.632C147.197 378.624 147.477 379.768 147.477 381.064ZM143.997 380.104C143.981 379.24 143.669 378.552 143.061 378.04C142.453 377.512 141.709 377.248 140.829 377.248C139.997 377.248 139.293 377.504 138.717 378.016C138.157 378.512 137.813 379.208 137.685 380.104H143.997ZM155.017 388.216C153.929 388.216 152.953 388.024 152.089 387.64C151.225 387.24 150.537 386.704 150.025 386.032C149.529 385.36 149.257 384.616 149.209 383.8H152.593C152.657 384.312 152.905 384.736 153.337 385.072C153.785 385.408 154.337 385.576 154.993 385.576C155.633 385.576 156.129 385.448 156.481 385.192C156.849 384.936 157.033 384.608 157.033 384.208C157.033 383.776 156.809 383.456 156.361 383.248C155.929 383.024 155.233 382.784 154.273 382.528C153.281 382.288 152.465 382.04 151.825 381.784C151.201 381.528 150.657 381.136 150.193 380.608C149.745 380.08 149.521 379.368 149.521 378.472C149.521 377.736 149.729 377.064 150.145 376.456C150.577 375.848 151.185 375.368 151.969 375.016C152.769 374.664 153.705 374.488 154.777 374.488C156.361 374.488 157.625 374.888 158.569 375.688C159.513 376.472 160.033 377.536 160.129 378.88H156.913C156.865 378.352 156.641 377.936 156.241 377.632C155.857 377.312 155.337 377.152 154.681 377.152C154.073 377.152 153.601 377.264 153.265 377.488C152.945 377.712 152.785 378.024 152.785 378.424C152.785 378.872 153.009 379.216 153.457 379.456C153.905 379.68 154.601 379.912 155.545 380.152C156.505 380.392 157.297 380.64 157.921 380.896C158.545 381.152 159.081 381.552 159.529 382.096C159.993 382.624 160.233 383.328 160.249 384.208C160.249 384.976 160.033 385.664 159.601 386.272C159.185 386.88 158.577 387.36 157.777 387.712C156.993 388.048 156.073 388.216 155.017 388.216ZM167.862 381.352C167.862 379.976 168.142 378.776 168.702 377.752C169.262 376.712 170.038 375.912 171.03 375.352C172.022 374.776 173.158 374.488 174.438 374.488C176.086 374.488 177.446 374.904 178.518 375.736C179.606 376.552 180.334 377.704 180.702 379.192H177.078C176.886 378.616 176.558 378.168 176.094 377.848C175.646 377.512 175.086 377.344 174.414 377.344C173.454 377.344 172.694 377.696 172.134 378.4C171.574 379.088 171.294 380.072 171.294 381.352C171.294 382.616 171.574 383.6 172.134 384.304C172.694 384.992 173.454 385.336 174.414 385.336C175.774 385.336 176.662 384.728 177.078 383.512H180.702C180.334 384.952 179.606 386.096 178.518 386.944C177.43 387.792 176.07 388.216 174.438 388.216C173.158 388.216 172.022 387.936 171.03 387.376C170.038 386.8 169.262 386 168.702 384.976C168.142 383.936 167.862 382.728 167.862 381.352ZM195.524 381.064C195.524 381.544 195.492 381.976 195.428 382.36H185.708C185.788 383.32 186.124 384.072 186.716 384.616C187.308 385.16 188.036 385.432 188.9 385.432C190.148 385.432 191.036 384.896 191.564 383.824H195.188C194.804 385.104 194.068 386.16 192.98 386.992C191.892 387.808 190.556 388.216 188.972 388.216C187.692 388.216 186.54 387.936 185.516 387.376C184.508 386.8 183.716 385.992 183.14 384.952C182.58 383.912 182.3 382.712 182.3 381.352C182.3 379.976 182.58 378.768 183.14 377.728C183.7 376.688 184.484 375.888 185.492 375.328C186.5 374.768 187.66 374.488 188.972 374.488C190.236 374.488 191.364 374.76 192.356 375.304C193.364 375.848 194.14 376.624 194.684 377.632C195.244 378.624 195.524 379.768 195.524 381.064ZM192.044 380.104C192.028 379.24 191.716 378.552 191.108 378.04C190.5 377.512 189.756 377.248 188.876 377.248C188.044 377.248 187.34 377.504 186.764 378.016C186.204 378.512 185.86 379.208 185.732 380.104H192.044ZM205.344 374.512C206.928 374.512 208.208 375.016 209.184 376.024C210.16 377.016 210.648 378.408 210.648 380.2V388H207.288V380.656C207.288 379.6 207.024 378.792 206.496 378.232C205.968 377.656 205.248 377.368 204.336 377.368C203.408 377.368 202.672 377.656 202.128 378.232C201.6 378.792 201.336 379.6 201.336 380.656V388H197.976V374.704H201.336V376.36C201.784 375.784 202.352 375.336 203.04 375.016C203.744 374.68 204.512 374.512 205.344 374.512ZM217.756 377.464V383.896C217.756 384.344 217.86 384.672 218.068 384.88C218.292 385.072 218.66 385.168 219.172 385.168H220.732V388H218.62C215.788 388 214.372 386.624 214.372 383.872V377.464H212.788V374.704H214.372V371.416H217.756V374.704H220.732V377.464H217.756ZM226.508 376.768C226.94 376.064 227.5 375.512 228.188 375.112C228.892 374.712 229.692 374.512 230.588 374.512V378.04H229.7C228.644 378.04 227.844 378.288 227.3 378.784C226.772 379.28 226.508 380.144 226.508 381.376V388H223.148V374.704H226.508V376.768ZM231.987 381.304C231.987 379.96 232.251 378.768 232.779 377.728C233.323 376.688 234.051 375.888 234.963 375.328C235.891 374.768 236.923 374.488 238.059 374.488C239.051 374.488 239.915 374.688 240.651 375.088C241.403 375.488 242.003 375.992 242.451 376.6V374.704H245.835V388H242.451V386.056C242.019 386.68 241.419 387.2 240.651 387.616C239.899 388.016 239.027 388.216 238.035 388.216C236.915 388.216 235.891 387.928 234.963 387.352C234.051 386.776 233.323 385.968 232.779 384.928C232.251 383.872 231.987 382.664 231.987 381.304ZM242.451 381.352C242.451 380.536 242.291 379.84 241.971 379.264C241.651 378.672 241.219 378.224 240.675 377.92C240.131 377.6 239.547 377.44 238.923 377.44C238.299 377.44 237.723 377.592 237.195 377.896C236.667 378.2 236.235 378.648 235.899 379.24C235.579 379.816 235.419 380.504 235.419 381.304C235.419 382.104 235.579 382.808 235.899 383.416C236.235 384.008 236.667 384.464 237.195 384.784C237.739 385.104 238.315 385.264 238.923 385.264C239.547 385.264 240.131 385.112 240.675 384.808C241.219 384.488 241.651 384.04 241.971 383.464C242.291 382.872 242.451 382.168 242.451 381.352ZM250.821 373.12C250.229 373.12 249.733 372.936 249.333 372.568C248.949 372.184 248.757 371.712 248.757 371.152C248.757 370.592 248.949 370.128 249.333 369.76C249.733 369.376 250.229 369.184 250.821 369.184C251.413 369.184 251.901 369.376 252.285 369.76C252.685 370.128 252.885 370.592 252.885 371.152C252.885 371.712 252.685 372.184 252.285 372.568C251.901 372.936 251.413 373.12 250.821 373.12ZM252.477 374.704V388H249.117V374.704H252.477ZM260.885 388.216C259.797 388.216 258.821 388.024 257.957 387.64C257.093 387.24 256.405 386.704 255.893 386.032C255.397 385.36 255.125 384.616 255.077 383.8H258.461C258.525 384.312 258.773 384.736 259.205 385.072C259.653 385.408 260.205 385.576 260.861 385.576C261.501 385.576 261.997 385.448 262.349 385.192C262.717 384.936 262.901 384.608 262.901 384.208C262.901 383.776 262.677 383.456 262.229 383.248C261.797 383.024 261.101 382.784 260.141 382.528C259.149 382.288 258.333 382.04 257.693 381.784C257.069 381.528 256.525 381.136 256.061 380.608C255.613 380.08 255.389 379.368 255.389 378.472C255.389 377.736 255.597 377.064 256.013 376.456C256.445 375.848 257.053 375.368 257.837 375.016C258.637 374.664 259.573 374.488 260.645 374.488C262.229 374.488 263.493 374.888 264.437 375.688C265.381 376.472 265.901 377.536 265.997 378.88H262.781C262.733 378.352 262.509 377.936 262.109 377.632C261.725 377.312 261.205 377.152 260.549 377.152C259.941 377.152 259.469 377.264 259.133 377.488C258.813 377.712 258.653 378.024 258.653 378.424C258.653 378.872 258.877 379.216 259.325 379.456C259.773 379.68 260.469 379.912 261.413 380.152C262.373 380.392 263.165 380.64 263.789 380.896C264.413 381.152 264.949 381.552 265.397 382.096C265.861 382.624 266.101 383.328 266.117 384.208C266.117 384.976 265.901 385.664 265.469 386.272C265.053 386.88 264.445 387.36 263.645 387.712C262.861 388.048 261.941 388.216 260.885 388.216Z" fill="#24449F"/>
<path d="M35.024 428.668H39.416V430H33.386V417.454H35.024V428.668ZM45.4575 430.162C44.5335 430.162 43.6935 429.952 42.9375 429.532C42.1935 429.112 41.6055 428.518 41.1735 427.75C40.7535 426.97 40.5435 426.07 40.5435 425.05C40.5435 424.042 40.7595 423.154 41.1915 422.386C41.6355 421.606 42.2355 421.012 42.9915 420.604C43.7475 420.184 44.5935 419.974 45.5295 419.974C46.4655 419.974 47.3115 420.184 48.0675 420.604C48.8235 421.012 49.4175 421.6 49.8495 422.368C50.2935 423.136 50.5155 424.03 50.5155 425.05C50.5155 426.07 50.2875 426.97 49.8315 427.75C49.3875 428.518 48.7815 429.112 48.0135 429.532C47.2455 429.952 46.3935 430.162 45.4575 430.162ZM45.4575 428.722C46.0455 428.722 46.5975 428.584 47.1135 428.308C47.6295 428.032 48.0435 427.618 48.3555 427.066C48.6795 426.514 48.8415 425.842 48.8415 425.05C48.8415 424.258 48.6855 423.586 48.3735 423.034C48.0615 422.482 47.6535 422.074 47.1495 421.81C46.6455 421.534 46.0995 421.396 45.5115 421.396C44.9115 421.396 44.3595 421.534 43.8555 421.81C43.3635 422.074 42.9675 422.482 42.6675 423.034C42.3675 423.586 42.2175 424.258 42.2175 425.05C42.2175 425.854 42.3615 426.532 42.6495 427.084C42.9495 427.636 43.3455 428.05 43.8375 428.326C44.3295 428.59 44.8695 428.722 45.4575 428.722ZM54.3072 421.738C54.5952 421.174 55.0032 420.736 55.5312 420.424C56.0712 420.112 56.7252 419.956 57.4932 419.956V421.648H57.0612C55.2252 421.648 54.3072 422.644 54.3072 424.636V430H52.6692V420.136H54.3072V421.738ZM68.384 424.69C68.384 425.002 68.366 425.332 68.33 425.68H60.446C60.506 426.652 60.836 427.414 61.436 427.966C62.048 428.506 62.786 428.776 63.65 428.776C64.358 428.776 64.946 428.614 65.414 428.29C65.894 427.954 66.23 427.51 66.422 426.958H68.186C67.922 427.906 67.394 428.68 66.602 429.28C65.81 429.868 64.826 430.162 63.65 430.162C62.714 430.162 61.874 429.952 61.13 429.532C60.398 429.112 59.822 428.518 59.402 427.75C58.982 426.97 58.772 426.07 58.772 425.05C58.772 424.03 58.976 423.136 59.384 422.368C59.792 421.6 60.362 421.012 61.094 420.604C61.838 420.184 62.69 419.974 63.65 419.974C64.586 419.974 65.414 420.178 66.134 420.586C66.854 420.994 67.406 421.558 67.79 422.278C68.186 422.986 68.384 423.79 68.384 424.69ZM66.692 424.348C66.692 423.724 66.554 423.19 66.278 422.746C66.002 422.29 65.624 421.948 65.144 421.72C64.676 421.48 64.154 421.36 63.578 421.36C62.75 421.36 62.042 421.624 61.454 422.152C60.878 422.68 60.548 423.412 60.464 424.348H66.692ZM82.4082 419.956C83.1762 419.956 83.8602 420.118 84.4602 420.442C85.0602 420.754 85.5342 421.228 85.8822 421.864C86.2302 422.5 86.4042 423.274 86.4042 424.186V430H84.7842V424.42C84.7842 423.436 84.5382 422.686 84.0462 422.17C83.5662 421.642 82.9122 421.378 82.0842 421.378C81.2322 421.378 80.5542 421.654 80.0502 422.206C79.5462 422.746 79.2942 423.532 79.2942 424.564V430H77.6742V424.42C77.6742 423.436 77.4282 422.686 76.9362 422.17C76.4562 421.642 75.8022 421.378 74.9742 421.378C74.1222 421.378 73.4442 421.654 72.9402 422.206C72.4362 422.746 72.1842 423.532 72.1842 424.564V430H70.5462V420.136H72.1842V421.558C72.5082 421.042 72.9402 420.646 73.4802 420.37C74.0322 420.094 74.6382 419.956 75.2982 419.956C76.1262 419.956 76.8582 420.142 77.4942 420.514C78.1302 420.886 78.6042 421.432 78.9162 422.152C79.1922 421.456 79.6482 420.916 80.2842 420.532C80.9202 420.148 81.6282 419.956 82.4082 419.956ZM94.7359 418.534C94.4239 418.534 94.1599 418.426 93.9439 418.21C93.7279 417.994 93.6199 417.73 93.6199 417.418C93.6199 417.106 93.7279 416.842 93.9439 416.626C94.1599 416.41 94.4239 416.302 94.7359 416.302C95.0359 416.302 95.2879 416.41 95.4919 416.626C95.7079 416.842 95.8159 417.106 95.8159 417.418C95.8159 417.73 95.7079 417.994 95.4919 418.21C95.2879 418.426 95.0359 418.534 94.7359 418.534ZM95.5279 420.136V430H93.8899V420.136H95.5279ZM99.9576 421.954C100.282 421.39 100.762 420.922 101.398 420.55C102.046 420.166 102.796 419.974 103.648 419.974C104.524 419.974 105.316 420.184 106.024 420.604C106.744 421.024 107.308 421.618 107.716 422.386C108.124 423.142 108.328 424.024 108.328 425.032C108.328 426.028 108.124 426.916 107.716 427.696C107.308 428.476 106.744 429.082 106.024 429.514C105.316 429.946 104.524 430.162 103.648 430.162C102.808 430.162 102.064 429.976 101.416 429.604C100.78 429.22 100.294 428.746 99.9576 428.182V434.68H98.3196V420.136H99.9576V421.954ZM106.654 425.032C106.654 424.288 106.504 423.64 106.204 423.088C105.904 422.536 105.496 422.116 104.98 421.828C104.476 421.54 103.918 421.396 103.306 421.396C102.706 421.396 102.148 421.546 101.632 421.846C101.128 422.134 100.72 422.56 100.408 423.124C100.108 423.676 99.9576 424.318 99.9576 425.05C99.9576 425.794 100.108 426.448 100.408 427.012C100.72 427.564 101.128 427.99 101.632 428.29C102.148 428.578 102.706 428.722 103.306 428.722C103.918 428.722 104.476 428.578 104.98 428.29C105.496 427.99 105.904 427.564 106.204 427.012C106.504 426.448 106.654 425.788 106.654 425.032ZM113.976 430.162C113.22 430.162 112.542 430.036 111.942 429.784C111.342 429.52 110.868 429.16 110.52 428.704C110.172 428.236 109.98 427.702 109.944 427.102H111.636C111.684 427.594 111.912 427.996 112.32 428.308C112.74 428.62 113.286 428.776 113.958 428.776C114.582 428.776 115.074 428.638 115.434 428.362C115.794 428.086 115.974 427.738 115.974 427.318C115.974 426.886 115.782 426.568 115.398 426.364C115.014 426.148 114.42 425.938 113.616 425.734C112.884 425.542 112.284 425.35 111.816 425.158C111.36 424.954 110.964 424.66 110.628 424.276C110.304 423.88 110.142 423.364 110.142 422.728C110.142 422.224 110.292 421.762 110.592 421.342C110.892 420.922 111.318 420.592 111.87 420.352C112.422 420.1 113.052 419.974 113.76 419.974C114.852 419.974 115.734 420.25 116.406 420.802C117.078 421.354 117.438 422.11 117.486 423.07H115.848C115.812 422.554 115.602 422.14 115.218 421.828C114.846 421.516 114.342 421.36 113.706 421.36C113.118 421.36 112.65 421.486 112.302 421.738C111.954 421.99 111.78 422.32 111.78 422.728C111.78 423.052 111.882 423.322 112.086 423.538C112.302 423.742 112.566 423.91 112.878 424.042C113.202 424.162 113.646 424.3 114.21 424.456C114.918 424.648 115.494 424.84 115.938 425.032C116.382 425.212 116.76 425.488 117.072 425.86C117.396 426.232 117.564 426.718 117.576 427.318C117.576 427.858 117.426 428.344 117.126 428.776C116.826 429.208 116.4 429.55 115.848 429.802C115.308 430.042 114.684 430.162 113.976 430.162ZM128.636 420.136V430H126.998V428.542C126.686 429.046 126.248 429.442 125.684 429.73C125.132 430.006 124.52 430.144 123.848 430.144C123.08 430.144 122.39 429.988 121.778 429.676C121.166 429.352 120.68 428.872 120.32 428.236C119.972 427.6 119.798 426.826 119.798 425.914V420.136H121.418V425.698C121.418 426.67 121.664 427.42 122.156 427.948C122.648 428.464 123.32 428.722 124.172 428.722C125.048 428.722 125.738 428.452 126.242 427.912C126.746 427.372 126.998 426.586 126.998 425.554V420.136H128.636ZM143.264 419.956C144.032 419.956 144.716 420.118 145.316 420.442C145.916 420.754 146.39 421.228 146.738 421.864C147.086 422.5 147.26 423.274 147.26 424.186V430H145.64V424.42C145.64 423.436 145.394 422.686 144.902 422.17C144.422 421.642 143.768 421.378 142.94 421.378C142.088 421.378 141.41 421.654 140.906 422.206C140.402 422.746 140.15 423.532 140.15 424.564V430H138.53V424.42C138.53 423.436 138.284 422.686 137.792 422.17C137.312 421.642 136.658 421.378 135.83 421.378C134.978 421.378 134.3 421.654 133.796 422.206C133.292 422.746 133.04 423.532 133.04 424.564V430H131.402V420.136H133.04V421.558C133.364 421.042 133.796 420.646 134.336 420.37C134.888 420.094 135.494 419.956 136.154 419.956C136.982 419.956 137.714 420.142 138.35 420.514C138.986 420.886 139.46 421.432 139.772 422.152C140.048 421.456 140.504 420.916 141.14 420.532C141.776 420.148 142.484 419.956 143.264 419.956ZM154.133 425.032C154.133 424.024 154.337 423.142 154.745 422.386C155.153 421.618 155.711 421.024 156.419 420.604C157.139 420.184 157.943 419.974 158.831 419.974C159.599 419.974 160.313 420.154 160.973 420.514C161.633 420.862 162.137 421.324 162.485 421.9V416.68H164.141V430H162.485V428.146C162.161 428.734 161.681 429.22 161.045 429.604C160.409 429.976 159.665 430.162 158.813 430.162C157.937 430.162 157.139 429.946 156.419 429.514C155.711 429.082 155.153 428.476 154.745 427.696C154.337 426.916 154.133 426.028 154.133 425.032ZM162.485 425.05C162.485 424.306 162.335 423.658 162.035 423.106C161.735 422.554 161.327 422.134 160.811 421.846C160.307 421.546 159.749 421.396 159.137 421.396C158.525 421.396 157.967 421.54 157.463 421.828C156.959 422.116 156.557 422.536 156.257 423.088C155.957 423.64 155.807 424.288 155.807 425.032C155.807 425.788 155.957 426.448 156.257 427.012C156.557 427.564 156.959 427.99 157.463 428.29C157.967 428.578 158.525 428.722 159.137 428.722C159.749 428.722 160.307 428.578 160.811 428.29C161.327 427.99 161.735 427.564 162.035 427.012C162.335 426.448 162.485 425.794 162.485 425.05ZM171.211 430.162C170.287 430.162 169.447 429.952 168.691 429.532C167.947 429.112 167.359 428.518 166.927 427.75C166.507 426.97 166.297 426.07 166.297 425.05C166.297 424.042 166.513 423.154 166.945 422.386C167.389 421.606 167.989 421.012 168.745 420.604C169.501 420.184 170.347 419.974 171.283 419.974C172.219 419.974 173.065 420.184 173.821 420.604C174.577 421.012 175.171 421.6 175.603 422.368C176.047 423.136 176.269 424.03 176.269 425.05C176.269 426.07 176.041 426.97 175.585 427.75C175.141 428.518 174.535 429.112 173.767 429.532C172.999 429.952 172.147 430.162 171.211 430.162ZM171.211 428.722C171.799 428.722 172.351 428.584 172.867 428.308C173.383 428.032 173.797 427.618 174.109 427.066C174.433 426.514 174.595 425.842 174.595 425.05C174.595 424.258 174.439 423.586 174.127 423.034C173.815 422.482 173.407 422.074 172.903 421.81C172.399 421.534 171.853 421.396 171.265 421.396C170.665 421.396 170.113 421.534 169.609 421.81C169.117 422.074 168.721 422.482 168.421 423.034C168.121 423.586 167.971 424.258 167.971 425.05C167.971 425.854 168.115 426.532 168.403 427.084C168.703 427.636 169.099 428.05 169.591 428.326C170.083 428.59 170.623 428.722 171.211 428.722ZM180.061 416.68V430H178.423V416.68H180.061ZM187.155 430.162C186.231 430.162 185.391 429.952 184.635 429.532C183.891 429.112 183.303 428.518 182.871 427.75C182.451 426.97 182.241 426.07 182.241 425.05C182.241 424.042 182.457 423.154 182.889 422.386C183.333 421.606 183.933 421.012 184.689 420.604C185.445 420.184 186.291 419.974 187.227 419.974C188.163 419.974 189.009 420.184 189.765 420.604C190.521 421.012 191.115 421.6 191.547 422.368C191.991 423.136 192.213 424.03 192.213 425.05C192.213 426.07 191.985 426.97 191.529 427.75C191.085 428.518 190.479 429.112 189.711 429.532C188.943 429.952 188.091 430.162 187.155 430.162ZM187.155 428.722C187.743 428.722 188.295 428.584 188.811 428.308C189.327 428.032 189.741 427.618 190.053 427.066C190.377 426.514 190.539 425.842 190.539 425.05C190.539 424.258 190.383 423.586 190.071 423.034C189.759 422.482 189.351 422.074 188.847 421.81C188.343 421.534 187.797 421.396 187.209 421.396C186.609 421.396 186.057 421.534 185.553 421.81C185.061 422.074 184.665 422.482 184.365 423.034C184.065 423.586 183.915 424.258 183.915 425.05C183.915 425.854 184.059 426.532 184.347 427.084C184.647 427.636 185.043 428.05 185.535 428.326C186.027 428.59 186.567 428.722 187.155 428.722ZM196.004 421.738C196.292 421.174 196.7 420.736 197.228 420.424C197.768 420.112 198.422 419.956 199.19 419.956V421.648H198.758C196.922 421.648 196.004 422.644 196.004 424.636V430H194.366V420.136H196.004V421.738ZM209.372 430.162C208.616 430.162 207.938 430.036 207.338 429.784C206.738 429.52 206.264 429.16 205.916 428.704C205.568 428.236 205.376 427.702 205.34 427.102H207.032C207.08 427.594 207.308 427.996 207.716 428.308C208.136 428.62 208.682 428.776 209.354 428.776C209.978 428.776 210.47 428.638 210.83 428.362C211.19 428.086 211.37 427.738 211.37 427.318C211.37 426.886 211.178 426.568 210.794 426.364C210.41 426.148 209.816 425.938 209.012 425.734C208.28 425.542 207.68 425.35 207.212 425.158C206.756 424.954 206.36 424.66 206.024 424.276C205.7 423.88 205.538 423.364 205.538 422.728C205.538 422.224 205.688 421.762 205.988 421.342C206.288 420.922 206.714 420.592 207.266 420.352C207.818 420.1 208.448 419.974 209.156 419.974C210.248 419.974 211.13 420.25 211.802 420.802C212.474 421.354 212.834 422.11 212.882 423.07H211.244C211.208 422.554 210.998 422.14 210.614 421.828C210.242 421.516 209.738 421.36 209.102 421.36C208.514 421.36 208.046 421.486 207.698 421.738C207.35 421.99 207.176 422.32 207.176 422.728C207.176 423.052 207.278 423.322 207.482 423.538C207.698 423.742 207.962 423.91 208.274 424.042C208.598 424.162 209.042 424.3 209.606 424.456C210.314 424.648 210.89 424.84 211.334 425.032C211.778 425.212 212.156 425.488 212.468 425.86C212.792 426.232 212.96 426.718 212.972 427.318C212.972 427.858 212.822 428.344 212.522 428.776C212.222 429.208 211.796 429.55 211.244 429.802C210.704 430.042 210.08 430.162 209.372 430.162ZM216.13 418.534C215.818 418.534 215.554 418.426 215.338 418.21C215.122 417.994 215.014 417.73 215.014 417.418C215.014 417.106 215.122 416.842 215.338 416.626C215.554 416.41 215.818 416.302 216.13 416.302C216.43 416.302 216.682 416.41 216.886 416.626C217.102 416.842 217.21 417.106 217.21 417.418C217.21 417.73 217.102 417.994 216.886 418.21C216.682 418.426 216.43 418.534 216.13 418.534ZM216.922 420.136V430H215.284V420.136H216.922ZM221.712 421.486V427.3C221.712 427.78 221.814 428.122 222.018 428.326C222.222 428.518 222.576 428.614 223.08 428.614H224.286V430H222.81C221.898 430 221.214 429.79 220.758 429.37C220.302 428.95 220.074 428.26 220.074 427.3V421.486H218.796V420.136H220.074V417.652H221.712V420.136H224.286V421.486H221.712ZM230.458 425.032C230.458 424.024 230.662 423.142 231.07 422.386C231.478 421.618 232.036 421.024 232.744 420.604C233.464 420.184 234.262 419.974 235.138 419.974C236.002 419.974 236.752 420.16 237.388 420.532C238.024 420.904 238.498 421.372 238.81 421.936V420.136H240.466V430H238.81V428.164C238.486 428.74 238 429.22 237.352 429.604C236.716 429.976 235.972 430.162 235.12 430.162C234.244 430.162 233.452 429.946 232.744 429.514C232.036 429.082 231.478 428.476 231.07 427.696C230.662 426.916 230.458 426.028 230.458 425.032ZM238.81 425.05C238.81 424.306 238.66 423.658 238.36 423.106C238.06 422.554 237.652 422.134 237.136 421.846C236.632 421.546 236.074 421.396 235.462 421.396C234.85 421.396 234.292 421.54 233.788 421.828C233.284 422.116 232.882 422.536 232.582 423.088C232.282 423.64 232.132 424.288 232.132 425.032C232.132 425.788 232.282 426.448 232.582 427.012C232.882 427.564 233.284 427.99 233.788 428.29C234.292 428.578 234.85 428.722 235.462 428.722C236.074 428.722 236.632 428.578 237.136 428.29C237.652 427.99 238.06 427.564 238.36 427.012C238.66 426.448 238.81 425.794 238.81 425.05ZM255.096 419.956C255.864 419.956 256.548 420.118 257.148 420.442C257.748 420.754 258.222 421.228 258.57 421.864C258.918 422.5 259.092 423.274 259.092 424.186V430H257.472V424.42C257.472 423.436 257.226 422.686 256.734 422.17C256.254 421.642 255.6 421.378 254.772 421.378C253.92 421.378 253.242 421.654 252.738 422.206C252.234 422.746 251.982 423.532 251.982 424.564V430H250.362V424.42C250.362 423.436 250.116 422.686 249.624 422.17C249.144 421.642 248.49 421.378 247.662 421.378C246.81 421.378 246.132 421.654 245.628 422.206C245.124 422.746 244.872 423.532 244.872 424.564V430H243.234V420.136H244.872V421.558C245.196 421.042 245.628 420.646 246.168 420.37C246.72 420.094 247.326 419.956 247.986 419.956C248.814 419.956 249.546 420.142 250.182 420.514C250.818 420.886 251.292 421.432 251.604 422.152C251.88 421.456 252.336 420.916 252.972 420.532C253.608 420.148 254.316 419.956 255.096 419.956ZM270.779 424.69C270.779 425.002 270.761 425.332 270.725 425.68H262.841C262.901 426.652 263.231 427.414 263.831 427.966C264.443 428.506 265.181 428.776 266.045 428.776C266.753 428.776 267.341 428.614 267.809 428.29C268.289 427.954 268.625 427.51 268.817 426.958H270.581C270.317 427.906 269.789 428.68 268.997 429.28C268.205 429.868 267.221 430.162 266.045 430.162C265.109 430.162 264.269 429.952 263.525 429.532C262.793 429.112 262.217 428.518 261.797 427.75C261.377 426.97 261.167 426.07 261.167 425.05C261.167 424.03 261.371 423.136 261.779 422.368C262.187 421.6 262.757 421.012 263.489 420.604C264.233 420.184 265.085 419.974 266.045 419.974C266.981 419.974 267.809 420.178 268.529 420.586C269.249 420.994 269.801 421.558 270.185 422.278C270.581 422.986 270.779 423.79 270.779 424.69ZM269.087 424.348C269.087 423.724 268.949 423.19 268.673 422.746C268.397 422.29 268.019 421.948 267.539 421.72C267.071 421.48 266.549 421.36 265.973 421.36C265.145 421.36 264.437 421.624 263.849 422.152C263.273 422.68 262.943 423.412 262.859 424.348H269.087ZM274.939 421.486V427.3C274.939 427.78 275.041 428.122 275.245 428.326C275.449 428.518 275.803 428.614 276.307 428.614H277.513V430H276.037C275.125 430 274.441 429.79 273.985 429.37C273.529 428.95 273.301 428.26 273.301 427.3V421.486H272.023V420.136H273.301V417.652H274.939V420.136H277.513V421.486H274.939ZM281.189 427.732L279.173 432.574H278.075L279.389 427.732H281.189ZM32.774 452.05C32.774 451.03 32.978 450.142 33.386 449.386C33.794 448.618 34.358 448.024 35.078 447.604C35.81 447.184 36.644 446.974 37.58 446.974C38.792 446.974 39.788 447.268 40.568 447.856C41.36 448.444 41.882 449.26 42.134 450.304H40.37C40.202 449.704 39.872 449.23 39.38 448.882C38.9 448.534 38.3 448.36 37.58 448.36C36.644 448.36 35.888 448.684 35.312 449.332C34.736 449.968 34.448 450.874 34.448 452.05C34.448 453.238 34.736 454.156 35.312 454.804C35.888 455.452 36.644 455.776 37.58 455.776C38.3 455.776 38.9 455.608 39.38 455.272C39.86 454.936 40.19 454.456 40.37 453.832H42.134C41.87 454.84 41.342 455.65 40.55 456.262C39.758 456.862 38.768 457.162 37.58 457.162C36.644 457.162 35.81 456.952 35.078 456.532C34.358 456.112 33.794 455.518 33.386 454.75C32.978 453.982 32.774 453.082 32.774 452.05ZM48.6216 457.162C47.6976 457.162 46.8576 456.952 46.1016 456.532C45.3576 456.112 44.7696 455.518 44.3376 454.75C43.9176 453.97 43.7076 453.07 43.7076 452.05C43.7076 451.042 43.9236 450.154 44.3556 449.386C44.7996 448.606 45.3996 448.012 46.1556 447.604C46.9116 447.184 47.7576 446.974 48.6936 446.974C49.6296 446.974 50.4756 447.184 51.2316 447.604C51.9876 448.012 52.5816 448.6 53.0136 449.368C53.4576 450.136 53.6796 451.03 53.6796 452.05C53.6796 453.07 53.4516 453.97 52.9956 454.75C52.5516 455.518 51.9456 456.112 51.1776 456.532C50.4096 456.952 49.5576 457.162 48.6216 457.162ZM48.6216 455.722C49.2096 455.722 49.7616 455.584 50.2776 455.308C50.7936 455.032 51.2076 454.618 51.5196 454.066C51.8436 453.514 52.0056 452.842 52.0056 452.05C52.0056 451.258 51.8496 450.586 51.5376 450.034C51.2256 449.482 50.8176 449.074 50.3136 448.81C49.8096 448.534 49.2636 448.396 48.6756 448.396C48.0756 448.396 47.5236 448.534 47.0196 448.81C46.5276 449.074 46.1316 449.482 45.8316 450.034C45.5316 450.586 45.3816 451.258 45.3816 452.05C45.3816 452.854 45.5256 453.532 45.8136 454.084C46.1136 454.636 46.5096 455.05 47.0016 455.326C47.4936 455.59 48.0336 455.722 48.6216 455.722ZM60.6393 446.956C61.8393 446.956 62.8113 447.322 63.5553 448.054C64.2993 448.774 64.6713 449.818 64.6713 451.186V457H63.0513V451.42C63.0513 450.436 62.8053 449.686 62.3133 449.17C61.8213 448.642 61.1493 448.378 60.2973 448.378C59.4333 448.378 58.7433 448.648 58.2273 449.188C57.7233 449.728 57.4713 450.514 57.4713 451.546V457H55.8333V447.136H57.4713V448.54C57.7953 448.036 58.2333 447.646 58.7853 447.37C59.3493 447.094 59.9673 446.956 60.6393 446.956ZM70.8389 457.162C70.0829 457.162 69.4049 457.036 68.8049 456.784C68.2049 456.52 67.7309 456.16 67.3829 455.704C67.0349 455.236 66.8429 454.702 66.8069 454.102H68.4989C68.5469 454.594 68.7749 454.996 69.1829 455.308C69.6029 455.62 70.1489 455.776 70.8209 455.776C71.4449 455.776 71.9369 455.638 72.2969 455.362C72.6569 455.086 72.8369 454.738 72.8369 454.318C72.8369 453.886 72.6449 453.568 72.2609 453.364C71.8769 453.148 71.2829 452.938 70.4789 452.734C69.7469 452.542 69.1469 452.35 68.6789 452.158C68.2229 451.954 67.8269 451.66 67.4909 451.276C67.1669 450.88 67.0049 450.364 67.0049 449.728C67.0049 449.224 67.1549 448.762 67.4549 448.342C67.7549 447.922 68.1809 447.592 68.7329 447.352C69.2849 447.1 69.9149 446.974 70.6229 446.974C71.7149 446.974 72.5969 447.25 73.2689 447.802C73.9409 448.354 74.3009 449.11 74.3489 450.07H72.7109C72.6749 449.554 72.4649 449.14 72.0809 448.828C71.7089 448.516 71.2049 448.36 70.5689 448.36C69.9809 448.36 69.5129 448.486 69.1649 448.738C68.8169 448.99 68.6429 449.32 68.6429 449.728C68.6429 450.052 68.7449 450.322 68.9489 450.538C69.1649 450.742 69.4289 450.91 69.7409 451.042C70.0649 451.162 70.5089 451.3 71.0729 451.456C71.7809 451.648 72.3569 451.84 72.8009 452.032C73.2449 452.212 73.6229 452.488 73.9349 452.86C74.2589 453.232 74.4269 453.718 74.4389 454.318C74.4389 454.858 74.2889 455.344 73.9889 455.776C73.6889 456.208 73.2629 456.55 72.7109 456.802C72.1709 457.042 71.5469 457.162 70.8389 457.162ZM85.7512 451.69C85.7512 452.002 85.7332 452.332 85.6972 452.68H77.8132C77.8732 453.652 78.2032 454.414 78.8032 454.966C79.4152 455.506 80.1532 455.776 81.0172 455.776C81.7252 455.776 82.3132 455.614 82.7812 455.29C83.2612 454.954 83.5972 454.51 83.7892 453.958H85.5532C85.2892 454.906 84.7612 455.68 83.9692 456.28C83.1772 456.868 82.1932 457.162 81.0172 457.162C80.0812 457.162 79.2412 456.952 78.4972 456.532C77.7652 456.112 77.1892 455.518 76.7692 454.75C76.3492 453.97 76.1392 453.07 76.1392 452.05C76.1392 451.03 76.3432 450.136 76.7512 449.368C77.1592 448.6 77.7292 448.012 78.4612 447.604C79.2052 447.184 80.0572 446.974 81.0172 446.974C81.9532 446.974 82.7812 447.178 83.5012 447.586C84.2212 447.994 84.7732 448.558 85.1572 449.278C85.5532 449.986 85.7512 450.79 85.7512 451.69ZM84.0592 451.348C84.0592 450.724 83.9212 450.19 83.6452 449.746C83.3692 449.29 82.9912 448.948 82.5112 448.72C82.0432 448.48 81.5212 448.36 80.9452 448.36C80.1172 448.36 79.4092 448.624 78.8212 449.152C78.2452 449.68 77.9152 450.412 77.8312 451.348H84.0592ZM87.3013 452.05C87.3013 451.03 87.5053 450.142 87.9133 449.386C88.3213 448.618 88.8853 448.024 89.6053 447.604C90.3373 447.184 91.1713 446.974 92.1073 446.974C93.3193 446.974 94.3153 447.268 95.0953 447.856C95.8873 448.444 96.4093 449.26 96.6613 450.304H94.8973C94.7293 449.704 94.3993 449.23 93.9073 448.882C93.4273 448.534 92.8273 448.36 92.1073 448.36C91.1713 448.36 90.4153 448.684 89.8393 449.332C89.2633 449.968 88.9753 450.874 88.9753 452.05C88.9753 453.238 89.2633 454.156 89.8393 454.804C90.4153 455.452 91.1713 455.776 92.1073 455.776C92.8273 455.776 93.4273 455.608 93.9073 455.272C94.3873 454.936 94.7173 454.456 94.8973 453.832H96.6613C96.3973 454.84 95.8693 455.65 95.0773 456.262C94.2853 456.862 93.2953 457.162 92.1073 457.162C91.1713 457.162 90.3373 456.952 89.6053 456.532C88.8853 456.112 88.3213 455.518 87.9133 454.75C87.5053 453.982 87.3013 453.082 87.3013 452.05ZM100.845 448.486V454.3C100.845 454.78 100.947 455.122 101.151 455.326C101.355 455.518 101.709 455.614 102.213 455.614H103.419V457H101.943C101.031 457 100.347 456.79 99.8909 456.37C99.4349 455.95 99.2069 455.26 99.2069 454.3V448.486H97.9289V447.136H99.2069V444.652H100.845V447.136H103.419V448.486H100.845ZM114.404 451.69C114.404 452.002 114.386 452.332 114.35 452.68H106.466C106.526 453.652 106.856 454.414 107.456 454.966C108.068 455.506 108.806 455.776 109.67 455.776C110.378 455.776 110.966 455.614 111.434 455.29C111.914 454.954 112.25 454.51 112.442 453.958H114.206C113.942 454.906 113.414 455.68 112.622 456.28C111.83 456.868 110.846 457.162 109.67 457.162C108.734 457.162 107.894 456.952 107.15 456.532C106.418 456.112 105.842 455.518 105.422 454.75C105.002 453.97 104.792 453.07 104.792 452.05C104.792 451.03 104.996 450.136 105.404 449.368C105.812 448.6 106.382 448.012 107.114 447.604C107.858 447.184 108.71 446.974 109.67 446.974C110.606 446.974 111.434 447.178 112.154 447.586C112.874 447.994 113.426 448.558 113.81 449.278C114.206 449.986 114.404 450.79 114.404 451.69ZM112.712 451.348C112.712 450.724 112.574 450.19 112.298 449.746C112.022 449.29 111.644 448.948 111.164 448.72C110.696 448.48 110.174 448.36 109.598 448.36C108.77 448.36 108.062 448.624 107.474 449.152C106.898 449.68 106.568 450.412 106.484 451.348H112.712ZM118.564 448.486V454.3C118.564 454.78 118.666 455.122 118.87 455.326C119.074 455.518 119.428 455.614 119.932 455.614H121.138V457H119.662C118.75 457 118.066 456.79 117.61 456.37C117.154 455.95 116.926 455.26 116.926 454.3V448.486H115.648V447.136H116.926V444.652H118.564V447.136H121.138V448.486H118.564ZM131.87 447.136V457H130.232V455.542C129.92 456.046 129.482 456.442 128.918 456.73C128.366 457.006 127.754 457.144 127.082 457.144C126.314 457.144 125.624 456.988 125.012 456.676C124.4 456.352 123.914 455.872 123.554 455.236C123.206 454.6 123.032 453.826 123.032 452.914V447.136H124.652V452.698C124.652 453.67 124.898 454.42 125.39 454.948C125.882 455.464 126.554 455.722 127.406 455.722C128.282 455.722 128.972 455.452 129.476 454.912C129.98 454.372 130.232 453.586 130.232 452.554V447.136H131.87ZM136.274 448.738C136.562 448.174 136.97 447.736 137.498 447.424C138.038 447.112 138.692 446.956 139.46 446.956V448.648H139.028C137.192 448.648 136.274 449.644 136.274 451.636V457H134.636V447.136H136.274V448.738ZM145.538 452.032C145.538 451.024 145.742 450.142 146.15 449.386C146.558 448.618 147.116 448.024 147.824 447.604C148.544 447.184 149.342 446.974 150.218 446.974C151.082 446.974 151.832 447.16 152.468 447.532C153.104 447.904 153.578 448.372 153.89 448.936V447.136H155.546V457H153.89V455.164C153.566 455.74 153.08 456.22 152.432 456.604C151.796 456.976 151.052 457.162 150.2 457.162C149.324 457.162 148.532 456.946 147.824 456.514C147.116 456.082 146.558 455.476 146.15 454.696C145.742 453.916 145.538 453.028 145.538 452.032ZM153.89 452.05C153.89 451.306 153.74 450.658 153.44 450.106C153.14 449.554 152.732 449.134 152.216 448.846C151.712 448.546 151.154 448.396 150.542 448.396C149.93 448.396 149.372 448.54 148.868 448.828C148.364 449.116 147.962 449.536 147.662 450.088C147.362 450.64 147.212 451.288 147.212 452.032C147.212 452.788 147.362 453.448 147.662 454.012C147.962 454.564 148.364 454.99 148.868 455.29C149.372 455.578 149.93 455.722 150.542 455.722C151.154 455.722 151.712 455.578 152.216 455.29C152.732 454.99 153.14 454.564 153.44 454.012C153.74 453.448 153.89 452.794 153.89 452.05ZM157.702 452.032C157.702 451.024 157.906 450.142 158.314 449.386C158.722 448.618 159.28 448.024 159.988 447.604C160.708 447.184 161.512 446.974 162.4 446.974C163.168 446.974 163.882 447.154 164.542 447.514C165.202 447.862 165.706 448.324 166.054 448.9V443.68H167.71V457H166.054V455.146C165.73 455.734 165.25 456.22 164.614 456.604C163.978 456.976 163.234 457.162 162.382 457.162C161.506 457.162 160.708 456.946 159.988 456.514C159.28 456.082 158.722 455.476 158.314 454.696C157.906 453.916 157.702 453.028 157.702 452.032ZM166.054 452.05C166.054 451.306 165.904 450.658 165.604 450.106C165.304 449.554 164.896 449.134 164.38 448.846C163.876 448.546 163.318 448.396 162.706 448.396C162.094 448.396 161.536 448.54 161.032 448.828C160.528 449.116 160.126 449.536 159.826 450.088C159.526 450.64 159.376 451.288 159.376 452.032C159.376 452.788 159.526 453.448 159.826 454.012C160.126 454.564 160.528 454.99 161.032 455.29C161.536 455.578 162.094 455.722 162.706 455.722C163.318 455.722 163.876 455.578 164.38 455.29C164.896 454.99 165.304 454.564 165.604 454.012C165.904 453.448 166.054 452.794 166.054 452.05ZM171.324 445.534C171.012 445.534 170.748 445.426 170.532 445.21C170.316 444.994 170.208 444.73 170.208 444.418C170.208 444.106 170.316 443.842 170.532 443.626C170.748 443.41 171.012 443.302 171.324 443.302C171.624 443.302 171.876 443.41 172.08 443.626C172.296 443.842 172.404 444.106 172.404 444.418C172.404 444.73 172.296 444.994 172.08 445.21C171.876 445.426 171.624 445.534 171.324 445.534ZM172.116 447.136V457H170.478V447.136H172.116ZM176.545 448.954C176.869 448.39 177.349 447.922 177.985 447.55C178.633 447.166 179.383 446.974 180.235 446.974C181.111 446.974 181.903 447.184 182.611 447.604C183.331 448.024 183.895 448.618 184.303 449.386C184.711 450.142 184.915 451.024 184.915 452.032C184.915 453.028 184.711 453.916 184.303 454.696C183.895 455.476 183.331 456.082 182.611 456.514C181.903 456.946 181.111 457.162 180.235 457.162C179.395 457.162 178.651 456.976 178.003 456.604C177.367 456.22 176.881 455.746 176.545 455.182V461.68H174.907V447.136H176.545V448.954ZM183.241 452.032C183.241 451.288 183.091 450.64 182.791 450.088C182.491 449.536 182.083 449.116 181.567 448.828C181.063 448.54 180.505 448.396 179.893 448.396C179.293 448.396 178.735 448.546 178.219 448.846C177.715 449.134 177.307 449.56 176.995 450.124C176.695 450.676 176.545 451.318 176.545 452.05C176.545 452.794 176.695 453.448 176.995 454.012C177.307 454.564 177.715 454.99 178.219 455.29C178.735 455.578 179.293 455.722 179.893 455.722C180.505 455.722 181.063 455.578 181.567 455.29C182.083 454.99 182.491 454.564 182.791 454.012C183.091 453.448 183.241 452.788 183.241 452.032ZM187.918 445.534C187.606 445.534 187.342 445.426 187.126 445.21C186.91 444.994 186.802 444.73 186.802 444.418C186.802 444.106 186.91 443.842 187.126 443.626C187.342 443.41 187.606 443.302 187.918 443.302C188.218 443.302 188.47 443.41 188.674 443.626C188.89 443.842 188.998 444.106 188.998 444.418C188.998 444.73 188.89 444.994 188.674 445.21C188.47 445.426 188.218 445.534 187.918 445.534ZM188.71 447.136V457H187.072V447.136H188.71ZM194.993 457.162C194.237 457.162 193.559 457.036 192.959 456.784C192.359 456.52 191.885 456.16 191.537 455.704C191.189 455.236 190.997 454.702 190.961 454.102H192.653C192.701 454.594 192.929 454.996 193.337 455.308C193.757 455.62 194.303 455.776 194.975 455.776C195.599 455.776 196.091 455.638 196.451 455.362C196.811 455.086 196.991 454.738 196.991 454.318C196.991 453.886 196.799 453.568 196.415 453.364C196.031 453.148 195.437 452.938 194.633 452.734C193.901 452.542 193.301 452.35 192.833 452.158C192.377 451.954 191.981 451.66 191.645 451.276C191.321 450.88 191.159 450.364 191.159 449.728C191.159 449.224 191.309 448.762 191.609 448.342C191.909 447.922 192.335 447.592 192.887 447.352C193.439 447.1 194.069 446.974 194.777 446.974C195.869 446.974 196.751 447.25 197.423 447.802C198.095 448.354 198.455 449.11 198.503 450.07H196.865C196.829 449.554 196.619 449.14 196.235 448.828C195.863 448.516 195.359 448.36 194.723 448.36C194.135 448.36 193.667 448.486 193.319 448.738C192.971 448.99 192.797 449.32 192.797 449.728C192.797 450.052 192.899 450.322 193.103 450.538C193.319 450.742 193.583 450.91 193.895 451.042C194.219 451.162 194.663 451.3 195.227 451.456C195.935 451.648 196.511 451.84 196.955 452.032C197.399 452.212 197.777 452.488 198.089 452.86C198.413 453.232 198.581 453.718 198.593 454.318C198.593 454.858 198.443 455.344 198.143 455.776C197.843 456.208 197.417 456.55 196.865 456.802C196.325 457.042 195.701 457.162 194.993 457.162ZM200.294 452.05C200.294 451.03 200.498 450.142 200.906 449.386C201.314 448.618 201.878 448.024 202.598 447.604C203.33 447.184 204.164 446.974 205.1 446.974C206.312 446.974 207.308 447.268 208.088 447.856C208.88 448.444 209.402 449.26 209.654 450.304H207.89C207.722 449.704 207.392 449.23 206.9 448.882C206.42 448.534 205.82 448.36 205.1 448.36C204.164 448.36 203.408 448.684 202.832 449.332C202.256 449.968 201.968 450.874 201.968 452.05C201.968 453.238 202.256 454.156 202.832 454.804C203.408 455.452 204.164 455.776 205.1 455.776C205.82 455.776 206.42 455.608 206.9 455.272C207.38 454.936 207.71 454.456 207.89 453.832H209.654C209.39 454.84 208.862 455.65 208.07 456.262C207.278 456.862 206.288 457.162 205.1 457.162C204.164 457.162 203.33 456.952 202.598 456.532C201.878 456.112 201.314 455.518 200.906 454.75C200.498 453.982 200.294 453.082 200.294 452.05ZM212.685 445.534C212.373 445.534 212.109 445.426 211.893 445.21C211.677 444.994 211.569 444.73 211.569 444.418C211.569 444.106 211.677 443.842 211.893 443.626C212.109 443.41 212.373 443.302 212.685 443.302C212.985 443.302 213.237 443.41 213.441 443.626C213.657 443.842 213.765 444.106 213.765 444.418C213.765 444.73 213.657 444.994 213.441 445.21C213.237 445.426 212.985 445.534 212.685 445.534ZM213.477 447.136V457H211.839V447.136H213.477ZM221.075 446.956C222.275 446.956 223.247 447.322 223.991 448.054C224.735 448.774 225.107 449.818 225.107 451.186V457H223.487V451.42C223.487 450.436 223.241 449.686 222.749 449.17C222.257 448.642 221.585 448.378 220.733 448.378C219.869 448.378 219.179 448.648 218.663 449.188C218.159 449.728 217.907 450.514 217.907 451.546V457H216.269V447.136H217.907V448.54C218.231 448.036 218.669 447.646 219.221 447.37C219.785 447.094 220.403 446.956 221.075 446.956ZM231.85 446.974C232.702 446.974 233.446 447.16 234.082 447.532C234.73 447.904 235.21 448.372 235.522 448.936V447.136H237.178V457.216C237.178 458.116 236.986 458.914 236.602 459.61C236.218 460.318 235.666 460.87 234.946 461.266C234.238 461.662 233.41 461.86 232.462 461.86C231.166 461.86 230.086 461.554 229.222 460.942C228.358 460.33 227.848 459.496 227.692 458.44H229.312C229.492 459.04 229.864 459.52 230.428 459.88C230.992 460.252 231.67 460.438 232.462 460.438C233.362 460.438 234.094 460.156 234.658 459.592C235.234 459.028 235.522 458.236 235.522 457.216V455.146C235.198 455.722 234.718 456.202 234.082 456.586C233.446 456.97 232.702 457.162 231.85 457.162C230.974 457.162 230.176 456.946 229.456 456.514C228.748 456.082 228.19 455.476 227.782 454.696C227.374 453.916 227.17 453.028 227.17 452.032C227.17 451.024 227.374 450.142 227.782 449.386C228.19 448.618 228.748 448.024 229.456 447.604C230.176 447.184 230.974 446.974 231.85 446.974ZM235.522 452.05C235.522 451.306 235.372 450.658 235.072 450.106C234.772 449.554 234.364 449.134 233.848 448.846C233.344 448.546 232.786 448.396 232.174 448.396C231.562 448.396 231.004 448.54 230.5 448.828C229.996 449.116 229.594 449.536 229.294 450.088C228.994 450.64 228.844 451.288 228.844 452.032C228.844 452.788 228.994 453.448 229.294 454.012C229.594 454.564 229.996 454.99 230.5 455.29C231.004 455.578 231.562 455.722 232.174 455.722C232.786 455.722 233.344 455.578 233.848 455.29C234.364 454.99 234.772 454.564 235.072 454.012C235.372 453.448 235.522 452.794 235.522 452.05ZM253.745 451.69C253.745 452.002 253.727 452.332 253.691 452.68H245.807C245.867 453.652 246.197 454.414 246.797 454.966C247.409 455.506 248.147 455.776 249.011 455.776C249.719 455.776 250.307 455.614 250.775 455.29C251.255 454.954 251.591 454.51 251.783 453.958H253.547C253.283 454.906 252.755 455.68 251.963 456.28C251.171 456.868 250.187 457.162 249.011 457.162C248.075 457.162 247.235 456.952 246.491 456.532C245.759 456.112 245.183 455.518 244.763 454.75C244.343 453.97 244.133 453.07 244.133 452.05C244.133 451.03 244.337 450.136 244.745 449.368C245.153 448.6 245.723 448.012 246.455 447.604C247.199 447.184 248.051 446.974 249.011 446.974C249.947 446.974 250.775 447.178 251.495 447.586C252.215 447.994 252.767 448.558 253.151 449.278C253.547 449.986 253.745 450.79 253.745 451.69ZM252.053 451.348C252.053 450.724 251.915 450.19 251.639 449.746C251.363 449.29 250.985 448.948 250.505 448.72C250.037 448.48 249.515 448.36 248.939 448.36C248.111 448.36 247.403 448.624 246.815 449.152C246.239 449.68 245.909 450.412 245.825 451.348H252.053ZM257.545 443.68V457H255.907V443.68H257.545ZM261.183 445.534C260.871 445.534 260.607 445.426 260.391 445.21C260.175 444.994 260.067 444.73 260.067 444.418C260.067 444.106 260.175 443.842 260.391 443.626C260.607 443.41 260.871 443.302 261.183 443.302C261.483 443.302 261.735 443.41 261.939 443.626C262.155 443.842 262.263 444.106 262.263 444.418C262.263 444.73 262.155 444.994 261.939 445.21C261.735 445.426 261.483 445.534 261.183 445.534ZM261.975 447.136V457H260.337V447.136H261.975ZM266.765 448.486V454.3C266.765 454.78 266.867 455.122 267.071 455.326C267.275 455.518 267.629 455.614 268.133 455.614H269.339V457H267.863C266.951 457 266.267 456.79 265.811 456.37C265.355 455.95 265.127 455.26 265.127 454.3V448.486H263.849V447.136H265.127V444.652H266.765V447.136H269.339V448.486H266.765ZM271.846 457.108C271.534 457.108 271.27 457 271.054 456.784C270.838 456.568 270.73 456.304 270.73 455.992C270.73 455.68 270.838 455.416 271.054 455.2C271.27 454.984 271.534 454.876 271.846 454.876C272.146 454.876 272.398 454.984 272.602 455.2C272.818 455.416 272.926 455.68 272.926 455.992C272.926 456.304 272.818 456.568 272.602 456.784C272.398 457 272.146 457.108 271.846 457.108Z" fill="#24449F"/>
</g>
<defs>
<filter id="filter0_d_91_782" x="0" y="-4" width="317" height="548" filterUnits="userSpaceOnUse" color-interpolation-filters="sRGB">
<feFlood flood-opacity="0" result="BackgroundImageFix"/>
<feColorMatrix in="SourceAlpha" type="matrix" values="0 0 0 0 0 0 0 0 0 0 0 0 0 0 0 0 0 0 127 0" result="hardAlpha"/>
<feOffset dy="8"/>
<feGaussianBlur stdDeviation="6"/>
<feComposite in2="hardAlpha" operator="out"/>
<feColorMatrix type="matrix" values="0 0 0 0 0 0 0 0 0 0 0 0 0 0 0 0 0 0 0.07 0"/>
<feBlend mode="normal" in2="BackgroundImageFix" result="effect1_dropShadow_91_782"/>
<feBlend mode="normal" in="SourceGraphic" in2="effect1_dropShadow_91_782" result="shape"/>
</filter>
</defs>
</svg>
