<svg width="305" height="544" viewBox="0 0 305 544" fill="none" xmlns="http://www.w3.org/2000/svg">
<g filter="url(#filter0_d_91_1476)">
<rect x="12" width="293" height="524" rx="24" fill="#0DEAB1" shape-rendering="crispEdges"/>
<path d="M55.8694 67.4058C55.8694 63.4963 59.0323 60.3333 62.9418 60.3333" stroke="#24449F" stroke-width="2.03333" stroke-linecap="round" stroke-linejoin="round"/>
<path d="M55.8694 152.275C55.8694 156.185 59.0323 159.348 62.9418 159.348" stroke="#24449F" stroke-width="2.03333" stroke-linecap="round" stroke-linejoin="round"/>
<path d="M112.449 152.275C112.449 156.185 109.286 159.348 105.377 159.348" stroke="#24449F" stroke-width="2.03333" stroke-linecap="round" stroke-linejoin="round"/>
<path d="M55.8694 67.4058V152.275" stroke="#24449F" stroke-width="2.03333" stroke-linecap="round" stroke-linejoin="round"/>
<path d="M105.377 159.348H62.9419" stroke="#24449F" stroke-width="2.03333" stroke-linecap="round" stroke-linejoin="round"/>
<path d="M62.9419 60.3333H84.3557" stroke="#24449F" stroke-width="2.03333" stroke-linecap="round" stroke-linejoin="round"/>
<path d="M112.449 92.1594V145.203V152.275" stroke="#24449F" stroke-width="2.03333" stroke-linecap="round" stroke-linejoin="round"/>
<path d="M78.855 74.4783H89.4637" stroke="#24449F" stroke-width="2.03333" stroke-linecap="round" stroke-linejoin="round"/>
<circle cx="84.1593" cy="147.167" r="2.65217" stroke="#24449F" stroke-width="2.03333" stroke-linecap="round" stroke-linejoin="round"/>
<path d="M115.985 78.0145C115.985 66.286 106.497 56.7971 94.7681 56.7971" stroke="#24449F" stroke-width="2.03333" stroke-linecap="round" stroke-linejoin="round"/>
<path d="M130.13 78.0145C130.13 58.467 114.316 42.6522 94.7681 42.6522" stroke="#24449F" stroke-width="2.03333" stroke-linecap="round" stroke-linejoin="round"/>
<path d="M71.096 226.224H47.768V238.536C48.776 237.288 50.216 236.28 52.088 235.512C53.96 234.696 55.952 234.288 58.064 234.288C61.904 234.288 65.048 235.128 67.496 236.808C69.944 238.488 71.72 240.648 72.824 243.288C73.928 245.88 74.48 248.664 74.48 251.64C74.48 257.16 72.896 261.6 69.728 264.96C66.608 268.32 62.144 270 56.336 270C50.864 270 46.496 268.632 43.232 265.896C39.968 263.16 38.12 259.584 37.688 255.168H47.48C47.912 257.088 48.872 258.624 50.36 259.776C51.896 260.928 53.84 261.504 56.192 261.504C59.024 261.504 61.16 260.616 62.6 258.84C64.04 257.064 64.76 254.712 64.76 251.784C64.76 248.808 64.016 246.552 62.528 245.016C61.088 243.432 58.952 242.64 56.12 242.64C54.104 242.64 52.424 243.144 51.08 244.152C49.736 245.16 48.776 246.504 48.2 248.184H38.552V217.368H71.096V226.224ZM87.7679 270.504C85.9439 270.504 84.4319 269.952 83.2319 268.848C82.0799 267.696 81.5039 266.28 81.5039 264.6C81.5039 262.92 82.0799 261.528 83.2319 260.424C84.4319 259.272 85.9439 258.696 87.7679 258.696C89.5439 258.696 91.0079 259.272 92.1599 260.424C93.3119 261.528 93.8879 262.92 93.8879 264.6C93.8879 266.28 93.3119 267.696 92.1599 268.848C91.0079 269.952 89.5439 270.504 87.7679 270.504Z" fill="#24449F"/>
<path d="M51.92 317.248V334H48.56V323.104L44.072 334H41.528L37.016 323.104V334H33.656V317.248H37.472L42.8 329.704L48.128 317.248H51.92ZM61.1459 334.216C59.8659 334.216 58.7139 333.936 57.6899 333.376C56.6659 332.8 55.8579 331.992 55.2659 330.952C54.6899 329.912 54.4019 328.712 54.4019 327.352C54.4019 325.992 54.6979 324.792 55.2899 323.752C55.8979 322.712 56.7219 321.912 57.7619 321.352C58.8019 320.776 59.9619 320.488 61.2419 320.488C62.5219 320.488 63.6819 320.776 64.7219 321.352C65.7619 321.912 66.5779 322.712 67.1699 323.752C67.7779 324.792 68.0819 325.992 68.0819 327.352C68.0819 328.712 67.7699 329.912 67.1459 330.952C66.5379 331.992 65.7059 332.8 64.6499 333.376C63.6099 333.936 62.4419 334.216 61.1459 334.216ZM61.1459 331.288C61.7539 331.288 62.3219 331.144 62.8499 330.856C63.3939 330.552 63.8259 330.104 64.1459 329.512C64.4659 328.92 64.6259 328.2 64.6259 327.352C64.6259 326.088 64.2899 325.12 63.6179 324.448C62.9619 323.76 62.1539 323.416 61.1939 323.416C60.2339 323.416 59.4259 323.76 58.7699 324.448C58.1299 325.12 57.8099 326.088 57.8099 327.352C57.8099 328.616 58.1219 329.592 58.7459 330.28C59.3859 330.952 60.1859 331.288 61.1459 331.288ZM64.0019 317.08L58.4819 319.6V317.2L64.0019 314.344V317.08ZM76.0906 330.904L79.4506 320.704H83.0266L78.1066 334H74.0266L69.1306 320.704H72.7306L76.0906 330.904ZM97.2738 327.064C97.2738 327.544 97.2418 327.976 97.1778 328.36H87.4578C87.5378 329.32 87.8738 330.072 88.4658 330.616C89.0578 331.16 89.7858 331.432 90.6498 331.432C91.8978 331.432 92.7858 330.896 93.3138 329.824H96.9378C96.5538 331.104 95.8178 332.16 94.7298 332.992C93.6418 333.808 92.3058 334.216 90.7218 334.216C89.4418 334.216 88.2898 333.936 87.2658 333.376C86.2578 332.8 85.4658 331.992 84.8898 330.952C84.3298 329.912 84.0498 328.712 84.0498 327.352C84.0498 325.976 84.3298 324.768 84.8898 323.728C85.4498 322.688 86.2338 321.888 87.2418 321.328C88.2498 320.768 89.4098 320.488 90.7218 320.488C91.9858 320.488 93.1138 320.76 94.1058 321.304C95.1138 321.848 95.8898 322.624 96.4338 323.632C96.9938 324.624 97.2738 325.768 97.2738 327.064ZM93.7938 326.104C93.7778 325.24 93.4658 324.552 92.8578 324.04C92.2498 323.512 91.5058 323.248 90.6258 323.248C89.7938 323.248 89.0898 323.504 88.5138 324.016C87.9538 324.512 87.6098 325.208 87.4818 326.104H93.7938ZM103.086 316.24V334H99.7263V316.24H103.086Z" fill="#24449F"/>
<path d="M45.374 369.718C45.374 373.48 42.62 376.126 39.074 376.126C35.546 376.126 32.774 373.48 32.774 369.718C32.774 365.956 35.546 363.31 39.074 363.31C42.62 363.31 45.374 365.956 45.374 369.718ZM34.448 369.718C34.448 372.778 36.428 374.704 39.074 374.704C41.72 374.704 43.7 372.778 43.7 369.718C43.7 366.64 41.72 364.732 39.074 364.732C36.428 364.732 34.448 366.64 34.448 369.718ZM49.1744 367.954C49.7684 366.91 51.0644 365.974 52.8644 365.974C55.5104 365.974 57.5444 367.954 57.5444 371.032C57.5444 374.092 55.5104 376.162 52.8644 376.162C51.0644 376.162 49.7864 375.19 49.1744 374.182V380.68H47.5364V366.136H49.1744V367.954ZM55.8704 371.032C55.8704 368.71 54.3404 367.396 52.5224 367.396C50.7404 367.396 49.1744 368.764 49.1744 371.05C49.1744 373.372 50.7404 374.722 52.5224 374.722C54.3404 374.722 55.8704 373.354 55.8704 371.032ZM63.8945 367.36C62.2925 367.36 60.9605 368.422 60.7805 370.348H67.0085C67.0265 368.422 65.5865 367.36 63.8945 367.36ZM68.5025 372.958C67.9985 374.758 66.4145 376.162 63.9665 376.162C61.1585 376.162 59.0885 374.182 59.0885 371.05C59.0885 367.936 61.0865 365.974 63.9665 365.974C66.8285 365.974 68.7005 367.99 68.7005 370.69C68.7005 371.05 68.6825 371.338 68.6465 371.68H60.7625C60.8885 373.678 62.2925 374.776 63.9665 374.776C65.4425 374.776 66.3785 374.02 66.7385 372.958H68.5025ZM72.5006 370.636V376H70.8626V366.136H72.5006V367.738C73.0586 366.64 74.1206 365.956 75.6866 365.956V367.648H75.2546C73.6886 367.648 72.5006 368.35 72.5006 370.636ZM76.9654 371.032C76.9654 367.954 78.9994 365.974 81.6454 365.974C83.4814 365.974 84.7414 366.91 85.3174 367.936V366.136H86.9734V376H85.3174V374.164C84.7234 375.226 83.4454 376.162 81.6274 376.162C78.9994 376.162 76.9654 374.092 76.9654 371.032ZM85.3174 371.05C85.3174 368.764 83.7694 367.396 81.9694 367.396C80.1694 367.396 78.6394 368.71 78.6394 371.032C78.6394 373.354 80.1694 374.722 81.9694 374.722C83.7694 374.722 85.3174 373.372 85.3174 371.05ZM89.1295 371.05C89.1295 367.954 91.1275 365.974 93.9355 365.974C96.3835 365.974 97.9855 367.234 98.4895 369.304H96.7255C96.3835 368.116 95.3935 367.36 93.9355 367.36C92.1355 367.36 90.8035 368.638 90.8035 371.05C90.8035 373.498 92.1355 374.776 93.9355 374.776C95.3935 374.776 96.3655 374.074 96.7255 372.832H98.4895C98.0215 374.65 96.5995 375.964 94.4395 376.144V377.044C95.8255 377.026 96.7615 377.638 96.7615 378.826C96.7615 379.96 95.8435 380.68 94.5655 380.68H92.4955V379.618H94.2415C95.0155 379.618 95.3935 379.402 95.3935 378.826C95.3935 378.268 95.0155 378.052 94.2415 378.052H93.3415V376.126C90.8575 375.874 89.1295 373.948 89.1295 371.05ZM100.063 371.032C100.063 367.954 102.097 365.974 104.743 365.974C106.579 365.974 107.839 366.91 108.415 367.936V366.136H110.071V376H108.415V374.164C107.821 375.226 106.543 376.162 104.725 376.162C102.097 376.162 100.063 374.092 100.063 371.032ZM108.415 371.05C108.415 368.764 106.867 367.396 105.067 367.396C103.267 367.396 101.737 368.71 101.737 371.032C101.737 373.354 103.267 374.722 105.067 374.722C106.867 374.722 108.415 373.372 108.415 371.05ZM102.745 365.074C102.925 363.832 103.609 363.184 104.545 363.184C105.499 363.184 105.859 364.012 106.597 364.012C106.993 364.012 107.317 363.76 107.389 363.238H108.325C108.181 364.462 107.461 365.11 106.525 365.11C105.553 365.11 105.193 364.282 104.473 364.282C104.077 364.282 103.771 364.534 103.699 365.074H102.745ZM122.199 371.05C122.199 374.182 119.949 376.162 117.141 376.162C114.351 376.162 112.227 374.182 112.227 371.05C112.227 367.936 114.423 365.974 117.213 365.974C120.021 365.974 122.199 367.936 122.199 371.05ZM113.901 371.05C113.901 373.552 115.431 374.722 117.141 374.722C118.851 374.722 120.525 373.552 120.525 371.05C120.525 368.566 118.887 367.396 117.195 367.396C115.467 367.396 113.901 368.566 113.901 371.05ZM133.346 367.36C131.744 367.36 130.412 368.422 130.232 370.348H136.46C136.478 368.422 135.038 367.36 133.346 367.36ZM137.954 372.958C137.45 374.758 135.866 376.162 133.418 376.162C130.61 376.162 128.54 374.182 128.54 371.05C128.54 367.936 130.538 365.974 133.418 365.974C136.28 365.974 138.152 367.99 138.152 370.69C138.152 371.05 138.134 371.338 138.098 371.68H130.214C130.34 373.678 131.744 374.776 133.418 374.776C134.894 374.776 135.83 374.02 136.19 372.958H137.954ZM159.351 376V370.42C159.351 368.404 158.271 367.378 156.651 367.378C154.995 367.378 153.861 368.44 153.861 370.564V376H152.241V370.42C152.241 368.404 151.161 367.378 149.541 367.378C147.885 367.378 146.751 368.44 146.751 370.564V376H145.113V366.136H146.751V367.558C147.399 366.514 148.569 365.956 149.865 365.956C151.485 365.956 152.835 366.676 153.483 368.152C154.059 366.73 155.463 365.956 156.975 365.956C159.225 365.956 160.971 367.36 160.971 370.186V376H159.351ZM163.045 371.032C163.045 367.954 165.079 365.974 167.725 365.974C169.561 365.974 170.821 366.91 171.397 367.936V366.136H173.053V376H171.397V374.164C170.803 375.226 169.525 376.162 167.707 376.162C165.079 376.162 163.045 374.092 163.045 371.032ZM171.397 371.05C171.397 368.764 169.849 367.396 168.049 367.396C166.249 367.396 164.719 368.71 164.719 371.032C164.719 373.354 166.249 374.722 168.049 374.722C169.849 374.722 171.397 373.372 171.397 371.05ZM183.04 376V370.42C183.04 368.404 181.942 367.378 180.286 367.378C178.612 367.378 177.46 368.422 177.46 370.546V376H175.822V366.136H177.46V367.54C178.108 366.514 179.296 365.956 180.628 365.956C182.914 365.956 184.66 367.36 184.66 370.186V376H183.04ZM196.083 366.136V376H194.445V374.542C193.815 375.568 192.609 376.144 191.295 376.144C189.027 376.144 187.245 374.74 187.245 371.914V366.136H188.865V371.698C188.865 373.696 189.963 374.722 191.619 374.722C193.311 374.722 194.445 373.678 194.445 371.554V366.136H196.083ZM199.209 373.3V367.486H197.931V366.136H199.209V363.652H200.847V366.136H203.421V367.486H200.847V373.3C200.847 374.272 201.207 374.614 202.215 374.614H203.421V376H201.945C200.199 376 199.209 375.28 199.209 373.3ZM209.6 367.36C207.998 367.36 206.666 368.422 206.486 370.348H212.714C212.732 368.422 211.292 367.36 209.6 367.36ZM214.208 372.958C213.704 374.758 212.12 376.162 209.672 376.162C206.864 376.162 204.794 374.182 204.794 371.05C204.794 367.936 206.792 365.974 209.672 365.974C212.534 365.974 214.406 367.99 214.406 370.69C214.406 371.05 214.388 371.338 214.352 371.68H206.468C206.594 373.678 207.998 374.776 209.672 374.776C211.148 374.776 212.084 374.02 212.444 372.958H214.208ZM223.786 376V370.42C223.786 368.404 222.688 367.378 221.032 367.378C219.358 367.378 218.206 368.422 218.206 370.546V376H216.568V366.136H218.206V367.54C218.854 366.514 220.042 365.956 221.374 365.956C223.66 365.956 225.406 367.36 225.406 370.186V376H223.786ZM227.469 371.05C227.469 367.954 229.467 365.974 232.275 365.974C234.723 365.974 236.325 367.234 236.829 369.304H235.065C234.723 368.116 233.733 367.36 232.275 367.36C230.475 367.36 229.143 368.638 229.143 371.05C229.143 373.498 230.475 374.776 232.275 374.776C233.733 374.776 234.705 374.074 235.065 372.832H236.829C236.361 374.65 234.939 375.964 232.779 376.144V377.044C234.165 377.026 235.101 377.638 235.101 378.826C235.101 379.96 234.183 380.68 232.905 380.68H230.835V379.618H232.581C233.355 379.618 233.733 379.402 233.733 378.826C233.733 378.268 233.355 378.052 232.581 378.052H231.681V376.126C229.197 375.874 227.469 373.948 227.469 371.05ZM238.403 371.032C238.403 367.954 240.437 365.974 243.083 365.974C244.919 365.974 246.179 366.91 246.755 367.936V366.136H248.411V376H246.755V374.164C246.161 375.226 244.883 376.162 243.065 376.162C240.437 376.162 238.403 374.092 238.403 371.032ZM246.755 371.05C246.755 368.764 245.207 367.396 243.407 367.396C241.607 367.396 240.077 368.71 240.077 371.032C240.077 373.354 241.607 374.722 243.407 374.722C245.207 374.722 246.755 373.372 246.755 371.05ZM241.085 365.074C241.265 363.832 241.949 363.184 242.885 363.184C243.839 363.184 244.199 364.012 244.937 364.012C245.333 364.012 245.657 363.76 245.729 363.238H246.665C246.521 364.462 245.801 365.11 244.865 365.11C243.893 365.11 243.533 364.282 242.813 364.282C242.417 364.282 242.111 364.534 242.039 365.074H241.085ZM260.539 371.05C260.539 374.182 258.289 376.162 255.481 376.162C252.691 376.162 250.567 374.182 250.567 371.05C250.567 367.936 252.763 365.974 255.553 365.974C258.361 365.974 260.539 367.936 260.539 371.05ZM252.241 371.05C252.241 373.552 253.771 374.722 255.481 374.722C257.191 374.722 258.865 373.552 258.865 371.05C258.865 368.566 257.227 367.396 255.535 367.396C253.807 367.396 252.241 368.566 252.241 371.05ZM32.774 398.032C32.774 394.954 34.808 392.974 37.472 392.974C39.02 392.974 40.442 393.766 41.126 394.9V389.68H42.782V403H41.126V401.146C40.532 402.244 39.254 403.162 37.454 403.162C34.808 403.162 32.774 401.092 32.774 398.032ZM41.126 398.05C41.126 395.764 39.578 394.396 37.778 394.396C35.978 394.396 34.448 395.71 34.448 398.032C34.448 400.354 35.978 401.722 37.778 401.722C39.578 401.722 41.126 400.372 41.126 398.05ZM49.7441 394.36C48.1421 394.36 46.8101 395.422 46.6301 397.348H52.8581C52.8761 395.422 51.4361 394.36 49.7441 394.36ZM54.3521 399.958C53.8481 401.758 52.2641 403.162 49.8161 403.162C47.0081 403.162 44.9381 401.182 44.9381 398.05C44.9381 394.936 46.9361 392.974 49.8161 392.974C52.6781 392.974 54.5501 394.99 54.5501 397.69C54.5501 398.05 54.5321 398.338 54.4961 398.68H46.6121C46.7381 400.678 48.1421 401.776 49.8161 401.776C51.2921 401.776 52.2281 401.02 52.5881 399.958H54.3521ZM75.749 403V397.42C75.749 395.404 74.669 394.378 73.049 394.378C71.393 394.378 70.259 395.44 70.259 397.564V403H68.639V397.42C68.639 395.404 67.559 394.378 65.939 394.378C64.283 394.378 63.149 395.44 63.149 397.564V403H61.511V393.136H63.149V394.558C63.797 393.514 64.967 392.956 66.263 392.956C67.883 392.956 69.233 393.676 69.881 395.152C70.457 393.73 71.861 392.956 73.373 392.956C75.623 392.956 77.369 394.36 77.369 397.186V403H75.749ZM79.4439 398.032C79.4439 394.954 81.4779 392.974 84.1239 392.974C85.9599 392.974 87.2199 393.91 87.7959 394.936V393.136H89.4519V403H87.7959V401.164C87.2019 402.226 85.9239 403.162 84.1059 403.162C81.4779 403.162 79.4439 401.092 79.4439 398.032ZM87.7959 398.05C87.7959 395.764 86.2479 394.396 84.4479 394.396C82.6479 394.396 81.1179 395.71 81.1179 398.032C81.1179 400.354 82.6479 401.722 84.4479 401.722C86.2479 401.722 87.7959 400.372 87.7959 398.05ZM92.22 403V393.136H93.858V403H92.22ZM93.066 391.534C92.436 391.534 91.95 391.048 91.95 390.418C91.95 389.788 92.436 389.302 93.066 389.302C93.66 389.302 94.146 389.788 94.146 390.418C94.146 391.048 93.66 391.534 93.066 391.534ZM103.742 400.318C103.742 401.938 102.32 403.162 100.142 403.162C97.8377 403.162 96.2177 401.902 96.1097 400.102H97.8017C97.8917 401.056 98.7377 401.776 100.124 401.776C101.42 401.776 102.14 401.128 102.14 400.318C102.14 398.122 96.3077 399.4 96.3077 395.728C96.3077 394.216 97.7297 392.974 99.9257 392.974C102.104 392.974 103.544 394.144 103.652 396.07H102.014C101.942 395.08 101.186 394.36 99.8717 394.36C98.6657 394.36 97.9457 394.936 97.9457 395.728C97.9457 398.068 103.67 396.79 103.742 400.318ZM110.241 398.032C110.241 394.954 112.275 392.974 114.939 392.974C116.487 392.974 117.909 393.766 118.593 394.9V389.68H120.249V403H118.593V401.146C117.999 402.244 116.721 403.162 114.921 403.162C112.275 403.162 110.241 401.092 110.241 398.032ZM118.593 398.05C118.593 395.764 117.045 394.396 115.245 394.396C113.445 394.396 111.915 395.71 111.915 398.032C111.915 400.354 113.445 401.722 115.245 401.722C117.045 401.722 118.593 400.372 118.593 398.05ZM127.211 394.36C125.609 394.36 124.277 395.422 124.097 397.348H130.325C130.343 395.422 128.903 394.36 127.211 394.36ZM131.819 399.958C131.315 401.758 129.731 403.162 127.283 403.162C124.475 403.162 122.405 401.182 122.405 398.05C122.405 394.936 124.403 392.974 127.283 392.974C130.145 392.974 132.017 394.99 132.017 397.69C132.017 398.05 131.999 398.338 131.963 398.68H124.079C124.205 400.678 125.609 401.776 127.283 401.776C128.759 401.776 129.695 401.02 130.055 399.958H131.819ZM147.762 393.406H144.9C144.72 392.542 144.288 392.074 143.37 392.074C141.984 392.074 141.444 393.244 141.426 395.782C141.948 394.936 143.01 394.432 144.216 394.432C146.502 394.432 148.122 395.926 148.122 398.662C148.122 401.272 146.466 403.072 143.64 403.072C139.68 403.072 138.708 400.264 138.708 396.34C138.708 391.84 140.112 389.59 143.514 389.59C146.34 389.59 147.6 391.462 147.762 393.406ZM143.478 396.862C142.506 396.862 141.678 397.438 141.678 398.626C141.678 399.778 142.344 400.462 143.514 400.462C144.558 400.462 145.224 399.796 145.224 398.68C145.224 397.582 144.63 396.862 143.478 396.862ZM153.427 401.488C153.427 402.406 152.689 403.144 151.609 403.144C150.511 403.144 149.773 402.406 149.773 401.488C149.773 400.534 150.511 399.796 151.609 399.796C152.689 399.796 153.427 400.534 153.427 401.488ZM155.789 389.842H164.195V392.542H158.579V395.026C159.047 394.504 159.947 394.126 160.991 394.126C163.853 394.126 164.951 396.304 164.951 398.428C164.951 401.2 163.331 403 160.415 403C157.463 403 155.753 401.362 155.645 399.094H158.651C158.777 399.778 159.299 400.39 160.307 400.39C161.477 400.39 161.981 399.544 161.981 398.41C161.981 397.222 161.387 396.592 160.289 396.592C159.425 396.592 158.921 397.06 158.759 397.672H155.789V389.842ZM166.65 396.25C166.65 392.398 167.964 389.59 171.708 389.59C175.452 389.59 176.766 392.398 176.766 396.25C176.766 400.138 175.452 402.946 171.708 402.946C167.964 402.946 166.65 400.138 166.65 396.25ZM173.742 396.25C173.742 394.234 173.526 392.47 171.708 392.47C169.89 392.47 169.674 394.234 169.674 396.25C169.674 398.338 169.89 400.066 171.708 400.066C173.526 400.066 173.742 398.338 173.742 396.25ZM178.392 396.25C178.392 392.398 179.706 389.59 183.45 389.59C187.194 389.59 188.508 392.398 188.508 396.25C188.508 400.138 187.194 402.946 183.45 402.946C179.706 402.946 178.392 400.138 178.392 396.25ZM185.484 396.25C185.484 394.234 185.268 392.47 183.45 392.47C181.632 392.47 181.416 394.234 181.416 396.25C181.416 398.338 181.632 400.066 183.45 400.066C185.268 400.066 185.484 398.338 185.484 396.25ZM202.409 400.084C202.409 401.83 200.861 403.144 198.341 403.144C195.659 403.144 193.859 401.65 193.715 399.706H196.757C196.829 400.408 197.459 400.876 198.305 400.876C199.097 400.876 199.511 400.516 199.511 400.066C199.511 398.446 194.039 399.616 194.039 395.926C194.039 394.216 195.497 392.812 198.125 392.812C200.717 392.812 202.157 394.252 202.355 396.232H199.511C199.421 395.548 198.899 395.098 198.035 395.098C197.315 395.098 196.919 395.386 196.919 395.872C196.919 397.474 202.355 396.34 202.409 400.084ZM204.292 403V392.956H207.37V403H204.292ZM205.84 391.912C204.742 391.912 204.004 391.174 204.004 390.256C204.004 389.32 204.742 388.582 205.84 388.582C206.92 388.582 207.658 389.32 207.658 390.256C207.658 391.174 206.92 391.912 205.84 391.912ZM210.086 399.508V395.512H208.862V392.956H210.086V390.508H213.164V392.956H215.18V395.512H213.164V399.544C213.164 400.138 213.416 400.39 214.1 400.39H215.198V403H213.632C211.544 403 210.086 402.118 210.086 399.508ZM221.341 395.278C220.333 395.278 219.559 395.89 219.379 397.006H223.231C223.231 395.908 222.367 395.278 221.341 395.278ZM226.147 399.67C225.661 401.632 223.879 403.144 221.377 403.144C218.425 403.144 216.301 401.164 216.301 397.978C216.301 394.792 218.389 392.812 221.377 392.812C224.311 392.812 226.381 394.756 226.381 397.816C226.381 398.104 226.363 398.41 226.327 398.716H219.361C219.469 400.03 220.279 400.642 221.269 400.642C222.133 400.642 222.619 400.21 222.871 399.67H226.147ZM236.159 400.084C236.159 401.83 234.611 403.144 232.091 403.144C229.409 403.144 227.609 401.65 227.465 399.706H230.507C230.579 400.408 231.209 400.876 232.055 400.876C232.847 400.876 233.261 400.516 233.261 400.066C233.261 398.446 227.789 399.616 227.789 395.926C227.789 394.216 229.247 392.812 231.875 392.812C234.467 392.812 235.907 394.252 236.105 396.232H233.261C233.171 395.548 232.649 395.098 231.785 395.098C231.065 395.098 230.669 395.386 230.669 395.872C230.669 397.474 236.105 396.34 236.159 400.084ZM246.284 395.278C245.276 395.278 244.502 395.89 244.322 397.006H248.174C248.174 395.908 247.31 395.278 246.284 395.278ZM251.09 399.67C250.604 401.632 248.822 403.144 246.32 403.144C243.368 403.144 241.244 401.164 241.244 397.978C241.244 394.792 243.332 392.812 246.32 392.812C249.254 392.812 251.324 394.756 251.324 397.816C251.324 398.104 251.306 398.41 251.27 398.716H244.304C244.412 400.03 245.222 400.642 246.212 400.642C247.076 400.642 247.562 400.21 247.814 399.67H251.09ZM257.914 403V392.722H256.132V389.86H261.118V403H257.914ZM272.584 393.406H269.722C269.542 392.542 269.11 392.074 268.192 392.074C266.806 392.074 266.266 393.244 266.248 395.782C266.77 394.936 267.832 394.432 269.038 394.432C271.324 394.432 272.944 395.926 272.944 398.662C272.944 401.272 271.288 403.072 268.462 403.072C264.502 403.072 263.53 400.264 263.53 396.34C263.53 391.84 264.934 389.59 268.336 389.59C271.162 389.59 272.422 391.462 272.584 393.406ZM268.3 396.862C267.328 396.862 266.5 397.438 266.5 398.626C266.5 399.778 267.166 400.462 268.336 400.462C269.38 400.462 270.046 399.796 270.046 398.68C270.046 397.582 269.452 396.862 268.3 396.862ZM36.194 421.378C36.752 420.496 37.814 419.812 39.29 419.812C41.756 419.812 43.718 421.792 43.718 424.96C43.718 428.128 41.756 430.144 39.29 430.144C37.814 430.144 36.752 429.442 36.194 428.596V434.788H33.116V419.956H36.194V421.378ZM40.586 424.96C40.586 423.358 39.542 422.494 38.372 422.494C37.22 422.494 36.176 423.376 36.176 424.978C36.176 426.58 37.22 427.462 38.372 427.462C39.542 427.462 40.586 426.562 40.586 424.96ZM48.4108 425.338V430H45.3328V419.956H48.4108V421.63C49.1128 420.568 50.2108 419.848 51.5608 419.848V423.106H50.7148C49.2568 423.106 48.4108 423.61 48.4108 425.338ZM57.46 422.278C56.452 422.278 55.678 422.89 55.498 424.006H59.35C59.35 422.908 58.486 422.278 57.46 422.278ZM62.266 426.67C61.78 428.632 59.998 430.144 57.496 430.144C54.544 430.144 52.42 428.164 52.42 424.978C52.42 421.792 54.508 419.812 57.496 419.812C60.43 419.812 62.5 421.756 62.5 424.816C62.5 425.104 62.482 425.41 62.446 425.716H55.48C55.588 427.03 56.398 427.642 57.388 427.642C58.252 427.642 58.738 427.21 58.99 426.67H62.266ZM55.228 417.076L59.566 414.988V417.382L55.228 419.2V417.076ZM63.5118 424.96C63.5118 421.792 65.4738 419.812 67.9398 419.812C69.2718 419.812 70.4238 420.424 71.0358 421.342V416.68H74.1138V430H71.0358V428.56C70.4778 429.478 69.4158 430.144 67.9398 430.144C65.4738 430.144 63.5118 428.128 63.5118 424.96ZM71.0358 424.978C71.0358 423.376 70.0098 422.494 68.8398 422.494C67.6878 422.494 66.6438 423.358 66.6438 424.96C66.6438 426.562 67.6878 427.462 68.8398 427.462C70.0098 427.462 71.0358 426.58 71.0358 424.978ZM76.3406 430V419.956H79.4186V430H76.3406ZM77.8886 418.912C76.7906 418.912 76.0526 418.174 76.0526 417.256C76.0526 416.32 76.7906 415.582 77.8886 415.582C78.9686 415.582 79.7066 416.32 79.7066 417.256C79.7066 418.174 78.9686 418.912 77.8886 418.912ZM91.4772 424.978C91.4772 428.164 89.1732 430.144 86.2212 430.144C83.2692 430.144 81.0372 428.164 81.0372 424.978C81.0372 421.792 83.3232 419.812 86.2572 419.812C89.2092 419.812 91.4772 421.792 91.4772 424.978ZM84.1692 424.978C84.1692 426.67 85.1052 427.48 86.2212 427.48C87.3192 427.48 88.3452 426.67 88.3452 424.978C88.3452 423.268 87.3372 422.476 86.2572 422.476C85.1412 422.476 84.1692 423.268 84.1692 424.978ZM101.264 427.084C101.264 428.83 99.7161 430.144 97.1961 430.144C94.5141 430.144 92.7141 428.65 92.5701 426.706H95.6121C95.6841 427.408 96.3141 427.876 97.1601 427.876C97.9521 427.876 98.3661 427.516 98.3661 427.066C98.3661 425.446 92.8941 426.616 92.8941 422.926C92.8941 421.216 94.3521 419.812 96.9801 419.812C99.5721 419.812 101.012 421.252 101.21 423.232H98.3661C98.2761 422.548 97.7541 422.098 96.8901 422.098C96.1701 422.098 95.7741 422.386 95.7741 422.872C95.7741 424.474 101.21 423.34 101.264 427.084ZM107.604 425.05C107.604 421.954 109.602 419.974 112.41 419.974C114.858 419.974 116.46 421.234 116.964 423.304H115.2C114.858 422.116 113.868 421.36 112.41 421.36C110.61 421.36 109.278 422.638 109.278 425.05C109.278 427.498 110.61 428.776 112.41 428.776C113.868 428.776 114.84 428.074 115.2 426.832H116.964C116.46 428.794 114.858 430.162 112.41 430.162C109.602 430.162 107.604 428.182 107.604 425.05ZM128.51 425.05C128.51 428.182 126.26 430.162 123.452 430.162C120.662 430.162 118.538 428.182 118.538 425.05C118.538 421.936 120.734 419.974 123.524 419.974C126.332 419.974 128.51 421.936 128.51 425.05ZM120.212 425.05C120.212 427.552 121.742 428.722 123.452 428.722C125.162 428.722 126.836 427.552 126.836 425.05C126.836 422.566 125.198 421.396 123.506 421.396C121.778 421.396 120.212 422.566 120.212 425.05ZM137.881 430V424.42C137.881 422.404 136.783 421.378 135.127 421.378C133.453 421.378 132.301 422.422 132.301 424.546V430H130.663V420.136H132.301V421.54C132.949 420.514 134.137 419.956 135.469 419.956C137.755 419.956 139.501 421.36 139.501 424.186V430H137.881ZM141.565 425.05C141.565 421.954 143.563 419.974 146.371 419.974C148.819 419.974 150.421 421.234 150.925 423.304H149.161C148.819 422.116 147.829 421.36 146.371 421.36C144.571 421.36 143.239 422.638 143.239 425.05C143.239 427.498 144.571 428.776 146.371 428.776C147.829 428.776 148.801 428.074 149.161 426.832H150.925C150.421 428.794 148.819 430.162 146.371 430.162C143.563 430.162 141.565 428.182 141.565 425.05ZM157.305 421.36C155.703 421.36 154.371 422.422 154.191 424.348H160.419C160.437 422.422 158.997 421.36 157.305 421.36ZM161.913 426.958C161.409 428.758 159.825 430.162 157.377 430.162C154.569 430.162 152.499 428.182 152.499 425.05C152.499 421.936 154.497 419.974 157.377 419.974C160.239 419.974 162.111 421.99 162.111 424.69C162.111 425.05 162.093 425.338 162.057 425.68H154.173C154.299 427.678 155.703 428.776 157.377 428.776C158.853 428.776 159.789 428.02 160.149 426.958H161.913ZM171.491 430V424.42C171.491 422.404 170.393 421.378 168.737 421.378C167.063 421.378 165.911 422.422 165.911 424.546V430H164.273V420.136H165.911V421.54C166.559 420.514 167.747 419.956 169.079 419.956C171.365 419.956 173.111 421.36 173.111 424.186V430H171.491ZM176.146 427.3V421.486H174.868V420.136H176.146V417.652H177.784V420.136H180.358V421.486H177.784V427.3C177.784 428.272 178.144 428.614 179.152 428.614H180.358V430H178.882C177.136 430 176.146 429.28 176.146 427.3ZM183.981 424.636V430H182.343V420.136H183.981V421.738C184.539 420.64 185.601 419.956 187.167 419.956V421.648H186.735C185.169 421.648 183.981 422.35 183.981 424.636ZM188.446 425.032C188.446 421.954 190.48 419.974 193.126 419.974C194.962 419.974 196.222 420.91 196.798 421.936V420.136H198.454V430H196.798V428.164C196.204 429.226 194.926 430.162 193.108 430.162C190.48 430.162 188.446 428.092 188.446 425.032ZM196.798 425.05C196.798 422.764 195.25 421.396 193.45 421.396C191.65 421.396 190.12 422.71 190.12 425.032C190.12 427.354 191.65 428.722 193.45 428.722C195.25 428.722 196.798 427.372 196.798 425.05ZM200.61 425.032C200.61 421.954 202.644 419.974 205.308 419.974C206.856 419.974 208.278 420.766 208.962 421.9V416.68H210.618V430H208.962V428.146C208.368 429.244 207.09 430.162 205.29 430.162C202.644 430.162 200.61 428.092 200.61 425.032ZM208.962 425.05C208.962 422.764 207.414 421.396 205.614 421.396C203.814 421.396 202.284 422.71 202.284 425.032C202.284 427.354 203.814 428.722 205.614 428.722C207.414 428.722 208.962 427.372 208.962 425.05ZM222.746 425.05C222.746 428.182 220.496 430.162 217.688 430.162C214.898 430.162 212.774 428.182 212.774 425.05C212.774 421.936 214.97 419.974 217.76 419.974C220.568 419.974 222.746 421.936 222.746 425.05ZM214.448 425.05C214.448 427.552 215.978 428.722 217.688 428.722C219.398 428.722 221.072 427.552 221.072 425.05C221.072 422.566 219.434 421.396 217.742 421.396C216.014 421.396 214.448 422.566 214.448 425.05ZM226.538 424.636V430H224.9V420.136H226.538V421.738C227.096 420.64 228.158 419.956 229.724 419.956V421.648H229.292C227.726 421.648 226.538 422.35 226.538 424.636ZM235.809 421.36C234.207 421.36 232.875 422.422 232.695 424.348H238.923C238.941 422.422 237.501 421.36 235.809 421.36ZM240.417 426.958C239.913 428.758 238.329 430.162 235.881 430.162C233.073 430.162 231.003 428.182 231.003 425.05C231.003 421.936 233.001 419.974 235.881 419.974C238.743 419.974 240.615 421.99 240.615 424.69C240.615 425.05 240.597 425.338 240.561 425.68H232.677C232.803 427.678 234.207 428.776 235.881 428.776C237.357 428.776 238.293 428.02 238.653 426.958H240.417ZM249.869 427.318C249.869 428.938 248.447 430.162 246.269 430.162C243.965 430.162 242.345 428.902 242.237 427.102H243.929C244.019 428.056 244.865 428.776 246.251 428.776C247.547 428.776 248.267 428.128 248.267 427.318C248.267 425.122 242.435 426.4 242.435 422.728C242.435 421.216 243.857 419.974 246.053 419.974C248.231 419.974 249.671 421.144 249.779 423.07H248.141C248.069 422.08 247.313 421.36 245.999 421.36C244.793 421.36 244.073 421.936 244.073 422.728C244.073 425.068 249.797 423.79 249.869 427.318ZM256.368 425.032C256.368 421.954 258.402 419.974 261.066 419.974C262.614 419.974 264.036 420.766 264.72 421.9V416.68H266.376V430H264.72V428.146C264.126 429.244 262.848 430.162 261.048 430.162C258.402 430.162 256.368 428.092 256.368 425.032ZM264.72 425.05C264.72 422.764 263.172 421.396 261.372 421.396C259.572 421.396 258.042 422.71 258.042 425.032C258.042 427.354 259.572 428.722 261.372 428.722C263.172 428.722 264.72 427.372 264.72 425.05ZM273.338 421.36C271.736 421.36 270.404 422.422 270.224 424.348H276.452C276.47 422.422 275.03 421.36 273.338 421.36ZM277.946 426.958C277.442 428.758 275.858 430.162 273.41 430.162C270.602 430.162 268.532 428.182 268.532 425.05C268.532 421.936 270.53 419.974 273.41 419.974C276.272 419.974 278.144 421.99 278.144 424.69C278.144 425.05 278.126 425.338 278.09 425.68H270.206C270.332 427.678 271.736 428.776 273.41 428.776C274.886 428.776 275.822 428.02 276.182 426.958H277.946ZM33.746 454.3V448.486H32.468V447.136H33.746V444.652H35.384V447.136H37.958V448.486H35.384V454.3C35.384 455.272 35.744 455.614 36.752 455.614H37.958V457H36.482C34.736 457 33.746 456.28 33.746 454.3ZM44.1366 448.36C42.5346 448.36 41.2026 449.422 41.0226 451.348H47.2506C47.2686 449.422 45.8286 448.36 44.1366 448.36ZM48.7446 453.958C48.2406 455.758 46.6566 457.162 44.2086 457.162C41.4006 457.162 39.3306 455.182 39.3306 452.05C39.3306 448.936 41.3286 446.974 44.2086 446.974C47.0706 446.974 48.9426 448.99 48.9426 451.69C48.9426 452.05 48.9246 452.338 48.8886 452.68H41.0046C41.1306 454.678 42.5346 455.776 44.2086 455.776C45.6846 455.776 46.6206 455.02 46.9806 453.958H48.7446ZM51.1048 457V443.68H52.7428V457H51.1048ZM59.7284 448.36C58.1264 448.36 56.7944 449.422 56.6144 451.348H62.8424C62.8604 449.422 61.4204 448.36 59.7284 448.36ZM64.3364 453.958C63.8324 455.758 62.2484 457.162 59.8004 457.162C56.9924 457.162 54.9224 455.182 54.9224 452.05C54.9224 448.936 56.9204 446.974 59.8004 446.974C62.6624 446.974 64.5344 448.99 64.5344 451.69C64.5344 452.05 64.5164 452.338 64.4804 452.68H56.5964C56.7224 454.678 58.1264 455.776 59.8004 455.776C61.2764 455.776 62.2124 455.02 62.5724 453.958H64.3364ZM67.0025 457V448.486H65.7245V447.136H67.0025V446.434C67.0025 444.238 68.0825 443.248 70.6025 443.248V444.616C69.1265 444.616 68.6405 445.156 68.6405 446.434V447.136H70.7105V448.486H68.6405V457H67.0025ZM81.9804 452.05C81.9804 455.182 79.7304 457.162 76.9224 457.162C74.1324 457.162 72.0084 455.182 72.0084 452.05C72.0084 448.936 74.2044 446.974 76.9944 446.974C79.8024 446.974 81.9804 448.936 81.9804 452.05ZM73.6824 452.05C73.6824 454.552 75.2124 455.722 76.9224 455.722C78.6324 455.722 80.3064 454.552 80.3064 452.05C80.3064 449.566 78.6684 448.396 76.9764 448.396C75.2484 448.396 73.6824 449.566 73.6824 452.05ZM91.352 457V451.42C91.352 449.404 90.254 448.378 88.598 448.378C86.924 448.378 85.772 449.422 85.772 451.546V457H84.134V447.136H85.772V448.54C86.42 447.514 87.608 446.956 88.94 446.956C91.226 446.956 92.972 448.36 92.972 451.186V457H91.352ZM95.6477 457V447.136H97.2857V457H95.6477ZM96.4937 445.534C95.8637 445.534 95.3777 445.048 95.3777 444.418C95.3777 443.788 95.8637 443.302 96.4937 443.302C97.0877 443.302 97.5737 443.788 97.5737 444.418C97.5737 445.048 97.0877 445.534 96.4937 445.534ZM99.4654 452.032C99.4654 448.954 101.499 446.974 104.145 446.974C105.981 446.974 107.241 447.91 107.817 448.936V447.136H109.473V457H107.817V455.164C107.223 456.226 105.945 457.162 104.127 457.162C101.499 457.162 99.4654 455.092 99.4654 452.032ZM107.817 452.05C107.817 449.764 106.269 448.396 104.469 448.396C102.669 448.396 101.139 449.71 101.139 452.032C101.139 454.354 102.669 455.722 104.469 455.722C106.269 455.722 107.817 454.372 107.817 452.05ZM131.278 457V451.42C131.278 449.404 130.198 448.378 128.578 448.378C126.922 448.378 125.788 449.44 125.788 451.564V457H124.168V451.42C124.168 449.404 123.088 448.378 121.468 448.378C119.812 448.378 118.678 449.44 118.678 451.564V457H117.04V447.136H118.678V448.558C119.326 447.514 120.496 446.956 121.792 446.956C123.412 446.956 124.762 447.676 125.41 449.152C125.986 447.73 127.39 446.956 128.902 446.956C131.152 446.956 132.898 448.36 132.898 451.186V457H131.278ZM144.945 452.05C144.945 455.182 142.695 457.162 139.887 457.162C137.097 457.162 134.973 455.182 134.973 452.05C134.973 448.936 137.169 446.974 139.959 446.974C142.767 446.974 144.945 448.936 144.945 452.05ZM136.647 452.05C136.647 454.552 138.177 455.722 139.887 455.722C141.597 455.722 143.271 454.552 143.271 452.05C143.271 449.566 141.633 448.396 139.941 448.396C138.213 448.396 136.647 449.566 136.647 452.05ZM137.889 445.048L141.723 442.798V444.22L137.889 446.272V445.048ZM145.929 447.136H147.693L150.771 455.488L153.831 447.136H155.577L151.707 457H149.799L145.929 447.136ZM161.383 448.36C159.781 448.36 158.449 449.422 158.269 451.348H164.497C164.515 449.422 163.075 448.36 161.383 448.36ZM165.991 453.958C165.487 455.758 163.903 457.162 161.455 457.162C158.647 457.162 156.577 455.182 156.577 452.05C156.577 448.936 158.575 446.974 161.455 446.974C164.317 446.974 166.189 448.99 166.189 451.69C166.189 452.05 166.171 452.338 166.135 452.68H158.251C158.377 454.678 159.781 455.776 161.455 455.776C162.931 455.776 163.867 455.02 164.227 453.958H165.991ZM168.351 457V443.68H169.989V457H168.351Z" fill="#24449F"/>
</g>
<defs>
<filter id="filter0_d_91_1476" x="0" y="-4" width="317" height="548" filterUnits="userSpaceOnUse" color-interpolation-filters="sRGB">
<feFlood flood-opacity="0" result="BackgroundImageFix"/>
<feColorMatrix in="SourceAlpha" type="matrix" values="0 0 0 0 0 0 0 0 0 0 0 0 0 0 0 0 0 0 127 0" result="hardAlpha"/>
<feOffset dy="8"/>
<feGaussianBlur stdDeviation="6"/>
<feComposite in2="hardAlpha" operator="out"/>
<feColorMatrix type="matrix" values="0 0 0 0 0 0 0 0 0 0 0 0 0 0 0 0 0 0 0.07 0"/>
<feBlend mode="normal" in2="BackgroundImageFix" result="effect1_dropShadow_91_1476"/>
<feBlend mode="normal" in="SourceGraphic" in2="effect1_dropShadow_91_1476" result="shape"/>
</filter>
</defs>
</svg>
