<svg width="305" height="544" viewBox="0 0 305 544" fill="none" xmlns="http://www.w3.org/2000/svg">
<g filter="url(#filter0_d_91_947)">
<rect x="12" width="293" height="524" rx="24" fill="#0DEAB1" shape-rendering="crispEdges"/>
<path d="M92.9993 78.0374C97.2696 78.0374 100.731 74.5693 100.731 70.2913C100.731 66.0133 97.2696 62.5453 92.9993 62.5453C88.7291 62.5453 85.2673 66.0133 85.2673 70.2913C85.2673 74.5693 88.7291 78.0374 92.9993 78.0374Z" stroke="#24449F" stroke-width="2.03333" stroke-linecap="round" stroke-linejoin="round"/>
<path d="M72.733 86.7214C63.6736 77.6456 63.6736 62.9325 72.733 53.8567" stroke="#24449F" stroke-width="2.03333" stroke-linecap="round" stroke-linejoin="round"/>
<path d="M113.266 53.8611C122.326 62.9369 122.326 77.65 113.266 86.7258" stroke="#24449F" stroke-width="2.03333" stroke-linecap="round" stroke-linejoin="round"/>
<path d="M61.7968 97.6777C46.6979 82.5514 46.6979 58.0309 61.7968 42.9047" stroke="#24449F" stroke-width="2.03333" stroke-linecap="round" stroke-linejoin="round"/>
<path d="M124.202 42.9047C139.301 58.0309 139.301 82.5514 124.202 97.6777" stroke="#24449F" stroke-width="2.03333" stroke-linecap="round" stroke-linejoin="round"/>
<path d="M79.4685 120.365L114.263 151.349" stroke="#24449F" stroke-width="2.03333" stroke-linecap="round" stroke-linejoin="round"/>
<path d="M106.531 120.365L71.7368 151.349" stroke="#24449F" stroke-width="2.03333" stroke-linecap="round" stroke-linejoin="round"/>
<path d="M69.804 159.095L90.1649 77.4993" stroke="#24449F" stroke-width="2.03333" stroke-linecap="round" stroke-linejoin="round"/>
<path d="M116.195 159.095L95.8345 77.4993" stroke="#24449F" stroke-width="2.03333" stroke-linecap="round" stroke-linejoin="round"/>
<path d="M108.464 112.619H77.5356" stroke="#24449F" stroke-width="2.03333" stroke-linecap="round" stroke-linejoin="round"/>
<path d="M38.984 285.624C43.592 281.784 47.264 278.592 50 276.048C52.736 273.456 55.016 270.768 56.84 267.984C58.664 265.2 59.576 262.464 59.576 259.776C59.576 257.328 59 255.408 57.848 254.016C56.696 252.624 54.92 251.928 52.52 251.928C50.12 251.928 48.272 252.744 46.976 254.376C45.68 255.96 45.008 258.144 44.96 260.928H35.168C35.36 255.168 37.064 250.8 40.28 247.824C43.544 244.848 47.672 243.36 52.664 243.36C58.136 243.36 62.336 244.824 65.264 247.752C68.192 250.632 69.656 254.448 69.656 259.2C69.656 262.944 68.648 266.52 66.632 269.928C64.616 273.336 62.312 276.312 59.72 278.856C57.128 281.352 53.744 284.376 49.568 287.928H70.808V296.28H35.24V288.792L38.984 285.624ZM82.7758 297.504C80.9518 297.504 79.4398 296.952 78.2398 295.848C77.0878 294.696 76.5118 293.28 76.5118 291.6C76.5118 289.92 77.0878 288.528 78.2398 287.424C79.4398 286.272 80.9518 285.696 82.7758 285.696C84.5518 285.696 86.0158 286.272 87.1678 287.424C88.3198 288.528 88.8958 289.92 88.8958 291.6C88.8958 293.28 88.3198 294.696 87.1678 295.848C86.0158 296.952 84.5518 297.504 82.7758 297.504Z" fill="#24449F"/>
<path d="M43.16 352.408C44.104 352.584 44.88 353.056 45.488 353.824C46.096 354.592 46.4 355.472 46.4 356.464C46.4 357.36 46.176 358.152 45.728 358.84C45.296 359.512 44.664 360.04 43.832 360.424C43 360.808 42.016 361 40.88 361H33.656V344.248H40.568C41.704 344.248 42.68 344.432 43.496 344.8C44.328 345.168 44.952 345.68 45.368 346.336C45.8 346.992 46.016 347.736 46.016 348.568C46.016 349.544 45.752 350.36 45.224 351.016C44.712 351.672 44.024 352.136 43.16 352.408ZM37.016 351.16H40.088C40.888 351.16 41.504 350.984 41.936 350.632C42.368 350.264 42.584 349.744 42.584 349.072C42.584 348.4 42.368 347.88 41.936 347.512C41.504 347.144 40.888 346.96 40.088 346.96H37.016V351.16ZM40.4 358.264C41.216 358.264 41.848 358.072 42.296 357.688C42.76 357.304 42.992 356.76 42.992 356.056C42.992 355.336 42.752 354.776 42.272 354.376C41.792 353.96 41.144 353.752 40.328 353.752H37.016V358.264H40.4ZM48.2139 354.304C48.2139 352.96 48.4779 351.768 49.0059 350.728C49.5499 349.688 50.2779 348.888 51.1899 348.328C52.1179 347.768 53.1499 347.488 54.2859 347.488C55.2779 347.488 56.1419 347.688 56.8779 348.088C57.6299 348.488 58.2299 348.992 58.6779 349.6V347.704H62.0619V361H58.6779V359.056C58.2459 359.68 57.6459 360.2 56.8779 360.616C56.1259 361.016 55.2539 361.216 54.2619 361.216C53.1419 361.216 52.1179 360.928 51.1899 360.352C50.2779 359.776 49.5499 358.968 49.0059 357.928C48.4779 356.872 48.2139 355.664 48.2139 354.304ZM58.6779 354.352C58.6779 353.536 58.5179 352.84 58.1979 352.264C57.8779 351.672 57.4459 351.224 56.9019 350.92C56.3579 350.6 55.7739 350.44 55.1499 350.44C54.5259 350.44 53.9499 350.592 53.4219 350.896C52.8939 351.2 52.4619 351.648 52.1259 352.24C51.8059 352.816 51.6459 353.504 51.6459 354.304C51.6459 355.104 51.8059 355.808 52.1259 356.416C52.4619 357.008 52.8939 357.464 53.4219 357.784C53.9659 358.104 54.5419 358.264 55.1499 358.264C55.7739 358.264 56.3579 358.112 56.9019 357.808C57.4459 357.488 57.8779 357.04 58.1979 356.464C58.5179 355.872 58.6779 355.168 58.6779 354.352ZM64.4795 354.352C64.4795 352.976 64.7595 351.776 65.3195 350.752C65.8795 349.712 66.6555 348.912 67.6475 348.352C68.6395 347.776 69.7755 347.488 71.0555 347.488C72.7035 347.488 74.0635 347.904 75.1355 348.736C76.2235 349.552 76.9515 350.704 77.3195 352.192H73.6955C73.5035 351.616 73.1755 351.168 72.7115 350.848C72.2635 350.512 71.7035 350.344 71.0315 350.344C70.0715 350.344 69.3115 350.696 68.7515 351.4C68.1915 352.088 67.9115 353.072 67.9115 354.352C67.9115 355.616 68.1915 356.6 68.7515 357.304C69.3115 357.992 70.0715 358.336 71.0315 358.336C72.3915 358.336 73.2795 357.728 73.6955 356.512H77.3195C76.9515 357.952 76.2235 359.096 75.1355 359.944C74.0475 360.792 72.6875 361.216 71.0555 361.216C69.7755 361.216 68.6395 360.936 67.6475 360.376C66.6555 359.8 65.8795 359 65.3195 357.976C64.7595 356.936 64.4795 355.728 64.4795 354.352ZM87.653 361L83.141 355.336V361H79.781V343.24H83.141V353.344L87.605 347.704H91.973L86.117 354.376L92.021 361H87.653ZM97.1566 349.648C97.5886 349.008 98.1806 348.488 98.9326 348.088C99.7006 347.688 100.573 347.488 101.549 347.488C102.685 347.488 103.709 347.768 104.621 348.328C105.549 348.888 106.277 349.688 106.805 350.728C107.349 351.752 107.621 352.944 107.621 354.304C107.621 355.664 107.349 356.872 106.805 357.928C106.277 358.968 105.549 359.776 104.621 360.352C103.709 360.928 102.685 361.216 101.549 361.216C100.557 361.216 99.6846 361.024 98.9326 360.64C98.1966 360.24 97.6046 359.728 97.1566 359.104V361H93.7966V343.24H97.1566V349.648ZM104.189 354.304C104.189 353.504 104.021 352.816 103.685 352.24C103.365 351.648 102.933 351.2 102.389 350.896C101.861 350.592 101.285 350.44 100.661 350.44C100.053 350.44 99.4766 350.6 98.9326 350.92C98.4046 351.224 97.9726 351.672 97.6366 352.264C97.3166 352.856 97.1566 353.552 97.1566 354.352C97.1566 355.152 97.3166 355.848 97.6366 356.44C97.9726 357.032 98.4046 357.488 98.9326 357.808C99.4766 358.112 100.053 358.264 100.661 358.264C101.285 358.264 101.861 358.104 102.389 357.784C102.933 357.464 103.365 357.008 103.685 356.416C104.021 355.824 104.189 355.12 104.189 354.304ZM115.966 361.216C114.686 361.216 113.534 360.936 112.51 360.376C111.486 359.8 110.678 358.992 110.086 357.952C109.51 356.912 109.222 355.712 109.222 354.352C109.222 352.992 109.518 351.792 110.11 350.752C110.718 349.712 111.542 348.912 112.582 348.352C113.622 347.776 114.782 347.488 116.062 347.488C117.342 347.488 118.502 347.776 119.542 348.352C120.582 348.912 121.398 349.712 121.99 350.752C122.598 351.792 122.902 352.992 122.902 354.352C122.902 355.712 122.59 356.912 121.966 357.952C121.358 358.992 120.526 359.8 119.47 360.376C118.43 360.936 117.262 361.216 115.966 361.216ZM115.966 358.288C116.574 358.288 117.142 358.144 117.67 357.856C118.214 357.552 118.646 357.104 118.966 356.512C119.286 355.92 119.446 355.2 119.446 354.352C119.446 353.088 119.11 352.12 118.438 351.448C117.782 350.76 116.974 350.416 116.014 350.416C115.054 350.416 114.246 350.76 113.59 351.448C112.95 352.12 112.63 353.088 112.63 354.352C112.63 355.616 112.942 356.592 113.566 357.28C114.206 357.952 115.006 358.288 115.966 358.288ZM132.735 347.512C134.319 347.512 135.599 348.016 136.575 349.024C137.551 350.016 138.039 351.408 138.039 353.2V361H134.679V353.656C134.679 352.6 134.415 351.792 133.887 351.232C133.359 350.656 132.639 350.368 131.727 350.368C130.799 350.368 130.063 350.656 129.519 351.232C128.991 351.792 128.727 352.6 128.727 353.656V361H125.367V347.704H128.727V349.36C129.175 348.784 129.743 348.336 130.431 348.016C131.135 347.68 131.903 347.512 132.735 347.512ZM153.594 354.064C153.594 354.544 153.562 354.976 153.498 355.36H143.778C143.858 356.32 144.194 357.072 144.786 357.616C145.378 358.16 146.106 358.432 146.97 358.432C148.218 358.432 149.106 357.896 149.634 356.824H153.258C152.874 358.104 152.138 359.16 151.05 359.992C149.962 360.808 148.626 361.216 147.042 361.216C145.762 361.216 144.61 360.936 143.586 360.376C142.578 359.8 141.786 358.992 141.21 357.952C140.65 356.912 140.37 355.712 140.37 354.352C140.37 352.976 140.65 351.768 141.21 350.728C141.77 349.688 142.554 348.888 143.562 348.328C144.57 347.768 145.73 347.488 147.042 347.488C148.306 347.488 149.434 347.76 150.426 348.304C151.434 348.848 152.21 349.624 152.754 350.632C153.314 351.624 153.594 352.768 153.594 354.064ZM150.114 353.104C150.098 352.24 149.786 351.552 149.178 351.04C148.57 350.512 147.826 350.248 146.946 350.248C146.114 350.248 145.41 350.504 144.834 351.016C144.274 351.512 143.93 352.208 143.802 353.104H150.114Z" fill="#24449F"/>
<path d="M32.774 396.718C32.774 392.956 35.528 390.292 39.038 390.292C41.756 390.292 43.916 391.66 44.852 394.09H42.89C42.206 392.578 40.874 391.732 39.038 391.732C36.41 391.732 34.448 393.64 34.448 396.718C34.448 399.778 36.41 401.686 39.038 401.686C40.874 401.686 42.206 400.84 42.89 399.346H44.852C43.916 401.758 41.756 403.108 39.038 403.108C35.528 403.108 32.774 400.48 32.774 396.718ZM56.6503 398.05C56.6503 401.182 54.4003 403.162 51.5923 403.162C48.8023 403.162 46.6783 401.182 46.6783 398.05C46.6783 394.936 48.8743 392.974 51.6643 392.974C54.4723 392.974 56.6503 394.936 56.6503 398.05ZM48.3523 398.05C48.3523 400.552 49.8823 401.722 51.5923 401.722C53.3023 401.722 54.9763 400.552 54.9763 398.05C54.9763 395.566 53.3383 394.396 51.6463 394.396C49.9183 394.396 48.3523 395.566 48.3523 398.05ZM66.022 403V397.42C66.022 395.404 64.924 394.378 63.268 394.378C61.594 394.378 60.442 395.422 60.442 397.546V403H58.804V393.136H60.442V394.54C61.09 393.514 62.278 392.956 63.61 392.956C65.896 392.956 67.642 394.36 67.642 397.186V403H66.022ZM77.4096 400.318C77.4096 401.938 75.9876 403.162 73.8096 403.162C71.5056 403.162 69.8856 401.902 69.7776 400.102H71.4696C71.5596 401.056 72.4056 401.776 73.7916 401.776C75.0876 401.776 75.8076 401.128 75.8076 400.318C75.8076 398.122 69.9756 399.4 69.9756 395.728C69.9756 394.216 71.3976 392.974 73.5936 392.974C75.7716 392.974 77.2116 394.144 77.3196 396.07H75.6816C75.6096 395.08 74.8536 394.36 73.5396 394.36C72.3336 394.36 71.6136 394.936 71.6136 395.728C71.6136 398.068 77.3376 396.79 77.4096 400.318ZM80.0819 400.3V394.486H78.8039V393.136H80.0819V390.652H81.7199V393.136H84.2939V394.486H81.7199V400.3C81.7199 401.272 82.0799 401.614 83.0879 401.614H84.2939V403H82.8179C81.0719 403 80.0819 402.28 80.0819 400.3ZM87.9166 397.636V403H86.2786V393.136H87.9166V394.738C88.4746 393.64 89.5366 392.956 91.1026 392.956V394.648H90.6706C89.1046 394.648 87.9166 395.35 87.9166 397.636ZM101.741 393.136V403H100.103V401.542C99.4734 402.568 98.2674 403.144 96.9534 403.144C94.6854 403.144 92.9034 401.74 92.9034 398.914V393.136H94.5234V398.698C94.5234 400.696 95.6214 401.722 97.2774 401.722C98.9694 401.722 100.103 400.678 100.103 398.554V393.136H101.741ZM103.895 398.05C103.895 394.954 105.893 392.974 108.701 392.974C111.149 392.974 112.751 394.234 113.255 396.304H111.491C111.149 395.116 110.159 394.36 108.701 394.36C106.901 394.36 105.569 395.638 105.569 398.05C105.569 400.498 106.901 401.776 108.701 401.776C110.159 401.776 111.131 401.074 111.491 399.832H113.255C112.787 401.65 111.365 402.964 109.205 403.144V404.044C110.591 404.026 111.527 404.638 111.527 405.826C111.527 406.96 110.609 407.68 109.331 407.68H107.261V406.618H109.007C109.781 406.618 110.159 406.402 110.159 405.826C110.159 405.268 109.781 405.052 109.007 405.052H108.107V403.126C105.623 402.874 103.895 400.948 103.895 398.05ZM114.829 398.032C114.829 394.954 116.863 392.974 119.509 392.974C121.345 392.974 122.605 393.91 123.181 394.936V393.136H124.837V403H123.181V401.164C122.587 402.226 121.309 403.162 119.491 403.162C116.863 403.162 114.829 401.092 114.829 398.032ZM123.181 398.05C123.181 395.764 121.633 394.396 119.833 394.396C118.033 394.396 116.503 395.71 116.503 398.032C116.503 400.354 118.033 401.722 119.833 401.722C121.633 401.722 123.181 400.372 123.181 398.05ZM117.511 392.074C117.691 390.832 118.375 390.184 119.311 390.184C120.265 390.184 120.625 391.012 121.363 391.012C121.759 391.012 122.083 390.76 122.155 390.238H123.091C122.947 391.462 122.227 392.11 121.291 392.11C120.319 392.11 119.959 391.282 119.239 391.282C118.843 391.282 118.537 391.534 118.465 392.074H117.511ZM136.965 398.05C136.965 401.182 134.715 403.162 131.907 403.162C129.117 403.162 126.993 401.182 126.993 398.05C126.993 394.936 129.189 392.974 131.979 392.974C134.787 392.974 136.965 394.936 136.965 398.05ZM128.667 398.05C128.667 400.552 130.197 401.722 131.907 401.722C133.617 401.722 135.291 400.552 135.291 398.05C135.291 395.566 133.653 394.396 131.961 394.396C130.233 394.396 128.667 395.566 128.667 398.05ZM143.305 398.032C143.305 394.954 145.339 392.974 148.003 392.974C149.551 392.974 150.973 393.766 151.657 394.9V389.68H153.313V403H151.657V401.146C151.063 402.244 149.785 403.162 147.985 403.162C145.339 403.162 143.305 401.092 143.305 398.032ZM151.657 398.05C151.657 395.764 150.109 394.396 148.309 394.396C146.509 394.396 144.979 395.71 144.979 398.032C144.979 400.354 146.509 401.722 148.309 401.722C150.109 401.722 151.657 400.372 151.657 398.05ZM160.275 394.36C158.673 394.36 157.341 395.422 157.161 397.348H163.389C163.407 395.422 161.967 394.36 160.275 394.36ZM164.883 399.958C164.379 401.758 162.795 403.162 160.347 403.162C157.539 403.162 155.469 401.182 155.469 398.05C155.469 394.936 157.467 392.974 160.347 392.974C163.209 392.974 165.081 394.99 165.081 397.69C165.081 398.05 165.063 398.338 165.027 398.68H157.143C157.269 400.678 158.673 401.776 160.347 401.776C161.823 401.776 162.759 401.02 163.119 399.958H164.883ZM186.28 403V397.42C186.28 395.404 185.2 394.378 183.58 394.378C181.924 394.378 180.79 395.44 180.79 397.564V403H179.17V397.42C179.17 395.404 178.09 394.378 176.47 394.378C174.814 394.378 173.68 395.44 173.68 397.564V403H172.042V393.136H173.68V394.558C174.328 393.514 175.498 392.956 176.794 392.956C178.414 392.956 179.764 393.676 180.412 395.152C180.988 393.73 182.392 392.956 183.904 392.956C186.154 392.956 187.9 394.36 187.9 397.186V403H186.28ZM189.975 398.032C189.975 394.954 192.009 392.974 194.655 392.974C196.491 392.974 197.751 393.91 198.327 394.936V393.136H199.983V403H198.327V401.164C197.733 402.226 196.455 403.162 194.637 403.162C192.009 403.162 189.975 401.092 189.975 398.032ZM198.327 398.05C198.327 395.764 196.779 394.396 194.979 394.396C193.179 394.396 191.649 395.71 191.649 398.032C191.649 400.354 193.179 401.722 194.979 401.722C196.779 401.722 198.327 400.372 198.327 398.05ZM202.751 403V393.136H204.389V403H202.751ZM203.597 391.534C202.967 391.534 202.481 391.048 202.481 390.418C202.481 389.788 202.967 389.302 203.597 389.302C204.191 389.302 204.677 389.788 204.677 390.418C204.677 391.048 204.191 391.534 203.597 391.534ZM214.273 400.318C214.273 401.938 212.851 403.162 210.673 403.162C208.369 403.162 206.749 401.902 206.641 400.102H208.333C208.423 401.056 209.269 401.776 210.655 401.776C211.951 401.776 212.671 401.128 212.671 400.318C212.671 398.122 206.839 399.4 206.839 395.728C206.839 394.216 208.261 392.974 210.457 392.974C212.635 392.974 214.075 394.144 214.183 396.07H212.545C212.473 395.08 211.717 394.36 210.403 394.36C209.197 394.36 208.477 394.936 208.477 395.728C208.477 398.068 214.201 396.79 214.273 400.318ZM220.772 398.032C220.772 394.954 222.806 392.974 225.47 392.974C227.018 392.974 228.44 393.766 229.124 394.9V389.68H230.78V403H229.124V401.146C228.53 402.244 227.252 403.162 225.452 403.162C222.806 403.162 220.772 401.092 220.772 398.032ZM229.124 398.05C229.124 395.764 227.576 394.396 225.776 394.396C223.976 394.396 222.446 395.71 222.446 398.032C222.446 400.354 223.976 401.722 225.776 401.722C227.576 401.722 229.124 400.372 229.124 398.05ZM237.742 394.36C236.14 394.36 234.808 395.422 234.628 397.348H240.856C240.874 395.422 239.434 394.36 237.742 394.36ZM242.35 399.958C241.846 401.758 240.262 403.162 237.814 403.162C235.006 403.162 232.936 401.182 232.936 398.05C232.936 394.936 234.934 392.974 237.814 392.974C240.676 392.974 242.548 394.99 242.548 397.69C242.548 398.05 242.53 398.338 242.494 398.68H234.61C234.736 400.678 236.14 401.776 237.814 401.776C239.29 401.776 240.226 401.02 240.586 399.958H242.35ZM34.268 430V419.722H32.486V416.86H37.472V430H34.268ZM43.1416 428.488C43.1416 429.406 42.4036 430.144 41.3236 430.144C40.2256 430.144 39.4876 429.406 39.4876 428.488C39.4876 427.534 40.2256 426.796 41.3236 426.796C42.4036 426.796 43.1416 427.534 43.1416 428.488ZM54.0177 420.406H51.1557C50.9757 419.542 50.5437 419.074 49.6257 419.074C48.2397 419.074 47.6997 420.244 47.6817 422.782C48.2037 421.936 49.2657 421.432 50.4717 421.432C52.7577 421.432 54.3777 422.926 54.3777 425.662C54.3777 428.272 52.7217 430.072 49.8957 430.072C45.9357 430.072 44.9637 427.264 44.9637 423.34C44.9637 418.84 46.3677 416.59 49.7697 416.59C52.5957 416.59 53.8557 418.462 54.0177 420.406ZM49.7337 423.862C48.7617 423.862 47.9337 424.438 47.9337 425.626C47.9337 426.778 48.5997 427.462 49.7697 427.462C50.8137 427.462 51.4797 426.796 51.4797 425.68C51.4797 424.582 50.8857 423.862 49.7337 423.862ZM56.1186 423.25C56.1186 419.398 57.4326 416.59 61.1766 416.59C64.9206 416.59 66.2346 419.398 66.2346 423.25C66.2346 427.138 64.9206 429.946 61.1766 429.946C57.4326 429.946 56.1186 427.138 56.1186 423.25ZM63.2106 423.25C63.2106 421.234 62.9946 419.47 61.1766 419.47C59.3586 419.47 59.1426 421.234 59.1426 423.25C59.1426 425.338 59.3586 427.066 61.1766 427.066C62.9946 427.066 63.2106 425.338 63.2106 423.25ZM67.8608 423.25C67.8608 419.398 69.1748 416.59 72.9188 416.59C76.6628 416.59 77.9768 419.398 77.9768 423.25C77.9768 427.138 76.6628 429.946 72.9188 429.946C69.1748 429.946 67.8608 427.138 67.8608 423.25ZM74.9528 423.25C74.9528 421.234 74.7368 419.47 72.9188 419.47C71.1008 419.47 70.8848 421.234 70.8848 423.25C70.8848 425.338 71.1008 427.066 72.9188 427.066C74.7368 427.066 74.9528 425.338 74.9528 423.25ZM83.7234 430V416.68H86.8014V424.042L89.8434 419.956H93.6414L89.4654 424.996L93.6774 430H89.8614L86.8014 425.788V430H83.7234ZM108.692 430V424.546C108.692 423.232 107.936 422.512 106.766 422.512C105.596 422.512 104.84 423.232 104.84 424.546V430H101.78V424.546C101.78 423.232 101.024 422.512 99.8544 422.512C98.6844 422.512 97.9284 423.232 97.9284 424.546V430H94.8504V419.956H97.9284V421.216C98.5224 420.406 99.5484 419.848 100.862 419.848C102.374 419.848 103.598 420.514 104.282 421.72C104.948 420.658 106.208 419.848 107.666 419.848C110.15 419.848 111.752 421.432 111.752 424.132V430H108.692ZM117.378 425.032C117.378 421.954 119.412 419.974 122.076 419.974C123.624 419.974 125.046 420.766 125.73 421.9V416.68H127.386V430H125.73V428.146C125.136 429.244 123.858 430.162 122.058 430.162C119.412 430.162 117.378 428.092 117.378 425.032ZM125.73 425.05C125.73 422.764 124.182 421.396 122.382 421.396C120.582 421.396 119.052 422.71 119.052 425.032C119.052 427.354 120.582 428.722 122.382 428.722C124.182 428.722 125.73 427.372 125.73 425.05ZM134.348 421.36C132.746 421.36 131.414 422.422 131.234 424.348H137.462C137.48 422.422 136.04 421.36 134.348 421.36ZM138.956 426.958C138.452 428.758 136.868 430.162 134.42 430.162C131.612 430.162 129.542 428.182 129.542 425.05C129.542 421.936 131.54 419.974 134.42 419.974C137.282 419.974 139.154 421.99 139.154 424.69C139.154 425.05 139.136 425.338 139.1 425.68H131.216C131.342 427.678 132.746 428.776 134.42 428.776C135.896 428.776 136.832 428.02 137.192 426.958H138.956ZM147.753 421.972C148.383 420.874 149.697 419.974 151.443 419.974C154.107 419.974 156.123 421.954 156.123 425.032C156.123 428.092 154.089 430.162 151.443 430.162C149.643 430.162 148.365 429.262 147.753 428.182V430H146.115V416.68H147.753V421.972ZM154.449 425.032C154.449 422.71 152.919 421.396 151.101 421.396C149.319 421.396 147.753 422.764 147.753 425.05C147.753 427.372 149.319 428.722 151.101 428.722C152.919 428.722 154.449 427.354 154.449 425.032ZM157.667 425.032C157.667 421.954 159.701 419.974 162.347 419.974C164.183 419.974 165.443 420.91 166.019 421.936V420.136H167.675V430H166.019V428.164C165.425 429.226 164.147 430.162 162.329 430.162C159.701 430.162 157.667 428.092 157.667 425.032ZM166.019 425.05C166.019 422.764 164.471 421.396 162.671 421.396C160.871 421.396 159.341 422.71 159.341 425.032C159.341 427.354 160.871 428.722 162.671 428.722C164.471 428.722 166.019 427.372 166.019 425.05ZM169.831 425.05C169.831 421.954 171.829 419.974 174.637 419.974C177.085 419.974 178.687 421.234 179.191 423.304H177.427C177.085 422.116 176.095 421.36 174.637 421.36C172.837 421.36 171.505 422.638 171.505 425.05C171.505 427.498 172.837 428.776 174.637 428.776C176.095 428.776 177.067 428.074 177.427 426.832H179.191C178.687 428.794 177.085 430.162 174.637 430.162C171.829 430.162 169.831 428.182 169.831 425.05ZM181.376 430V416.68H183.014V424.51L186.812 420.136H189.098L184.454 425.05L189.116 430H186.884L183.014 425.644V430H181.376ZM192.278 421.972C192.908 420.874 194.222 419.974 195.968 419.974C198.632 419.974 200.648 421.954 200.648 425.032C200.648 428.092 198.614 430.162 195.968 430.162C194.168 430.162 192.89 429.262 192.278 428.182V430H190.64V416.68H192.278V421.972ZM198.974 425.032C198.974 422.71 197.444 421.396 195.626 421.396C193.844 421.396 192.278 422.764 192.278 425.05C192.278 427.372 193.844 428.722 195.626 428.722C197.444 428.722 198.974 427.354 198.974 425.032ZM212.164 425.05C212.164 428.182 209.914 430.162 207.106 430.162C204.316 430.162 202.192 428.182 202.192 425.05C202.192 421.936 204.388 419.974 207.178 419.974C209.986 419.974 212.164 421.936 212.164 425.05ZM203.866 425.05C203.866 427.552 205.396 428.722 207.106 428.722C208.816 428.722 210.49 427.552 210.49 425.05C210.49 422.566 208.852 421.396 207.16 421.396C205.432 421.396 203.866 422.566 203.866 425.05ZM221.536 430V424.42C221.536 422.404 220.438 421.378 218.782 421.378C217.108 421.378 215.956 422.422 215.956 424.546V430H214.318V420.136H215.956V421.54C216.604 420.514 217.792 419.956 219.124 419.956C221.41 419.956 223.156 421.36 223.156 424.186V430H221.536ZM230.025 421.36C228.423 421.36 227.091 422.422 226.911 424.348H233.139C233.157 422.422 231.717 421.36 230.025 421.36ZM234.633 426.958C234.129 428.758 232.545 430.162 230.097 430.162C227.289 430.162 225.219 428.182 225.219 425.05C225.219 421.936 227.217 419.974 230.097 419.974C232.959 419.974 234.831 421.99 234.831 424.69C234.831 425.05 234.813 425.338 234.777 425.68H226.893C227.019 427.678 228.423 428.776 230.097 428.776C231.573 428.776 232.509 428.02 232.869 426.958H234.633ZM241.18 425.032C241.18 421.954 243.214 419.974 245.878 419.974C247.426 419.974 248.848 420.766 249.532 421.9V416.68H251.188V430H249.532V428.146C248.938 429.244 247.66 430.162 245.86 430.162C243.214 430.162 241.18 428.092 241.18 425.032ZM249.532 425.05C249.532 422.764 247.984 421.396 246.184 421.396C244.384 421.396 242.854 422.71 242.854 425.032C242.854 427.354 244.384 428.722 246.184 428.722C247.984 428.722 249.532 427.372 249.532 425.05ZM258.15 421.36C256.548 421.36 255.216 422.422 255.036 424.348H261.264C261.282 422.422 259.842 421.36 258.15 421.36ZM262.758 426.958C262.254 428.758 260.67 430.162 258.222 430.162C255.414 430.162 253.344 428.182 253.344 425.05C253.344 421.936 255.342 419.974 258.222 419.974C261.084 419.974 262.956 421.99 262.956 424.69C262.956 425.05 262.938 425.338 262.902 425.68H255.018C255.144 427.678 256.548 428.776 258.222 428.776C259.698 428.776 260.634 428.02 260.994 426.958H262.758ZM33.692 457V448.486H32.414V447.136H33.692V446.434C33.692 444.238 34.772 443.248 37.292 443.248V444.616C35.816 444.616 35.33 445.156 35.33 446.434V447.136H37.4V448.486H35.33V457H33.692ZM39.3098 457V447.136H40.9478V457H39.3098ZM40.1558 445.534C39.5258 445.534 39.0398 445.048 39.0398 444.418C39.0398 443.788 39.5258 443.302 40.1558 443.302C40.7498 443.302 41.2358 443.788 41.2358 444.418C41.2358 445.048 40.7498 445.534 40.1558 445.534ZM45.3775 448.972C46.0075 447.874 47.3215 446.974 49.0675 446.974C51.7315 446.974 53.7475 448.954 53.7475 452.032C53.7475 455.092 51.7135 457.162 49.0675 457.162C47.2675 457.162 45.9895 456.262 45.3775 455.182V457H43.7395V443.68H45.3775V448.972ZM52.0735 452.032C52.0735 449.71 50.5435 448.396 48.7255 448.396C46.9435 448.396 45.3775 449.764 45.3775 452.05C45.3775 454.372 46.9435 455.722 48.7255 455.722C50.5435 455.722 52.0735 454.354 52.0735 452.032ZM57.5416 451.636V457H55.9036V447.136H57.5416V448.738C58.0996 447.64 59.1616 446.956 60.7276 446.956V448.648H60.2956C58.7296 448.648 57.5416 449.35 57.5416 451.636ZM62.0064 452.032C62.0064 448.954 64.0404 446.974 66.6864 446.974C68.5224 446.974 69.7824 447.91 70.3584 448.936V447.136H72.0144V457H70.3584V455.164C69.7644 456.226 68.4864 457.162 66.6684 457.162C64.0404 457.162 62.0064 455.092 62.0064 452.032ZM70.3584 452.05C70.3584 449.764 68.8104 448.396 67.0104 448.396C65.2104 448.396 63.6804 449.71 63.6804 452.032C63.6804 454.354 65.2104 455.722 67.0104 455.722C68.8104 455.722 70.3584 454.372 70.3584 452.05ZM88.9413 452.05C88.9413 455.182 86.6913 457.162 83.8833 457.162C81.0933 457.162 78.9693 455.182 78.9693 452.05C78.9693 448.936 81.1653 446.974 83.9553 446.974C86.7633 446.974 88.9413 448.936 88.9413 452.05ZM80.6433 452.05C80.6433 454.552 82.1733 455.722 83.8833 455.722C85.5933 455.722 87.2673 454.552 87.2673 452.05C87.2673 449.566 85.6293 448.396 83.9373 448.396C82.2093 448.396 80.6433 449.566 80.6433 452.05ZM81.8853 445.048L85.7193 442.798V444.22L81.8853 446.272V445.048ZM91.455 454.3V448.486H90.177V447.136H91.455V444.652H93.093V447.136H95.667V448.486H93.093V454.3C93.093 455.272 93.453 455.614 94.461 455.614H95.667V457H94.191C92.445 457 91.455 456.28 91.455 454.3ZM97.6516 457V447.136H99.2896V457H97.6516ZM98.4976 445.534C97.8676 445.534 97.3816 445.048 97.3816 444.418C97.3816 443.788 97.8676 443.302 98.4976 443.302C99.0916 443.302 99.5776 443.788 99.5776 444.418C99.5776 445.048 99.0916 445.534 98.4976 445.534ZM101.469 452.05C101.469 448.954 103.467 446.974 106.275 446.974C108.723 446.974 110.325 448.234 110.829 450.304H109.065C108.723 449.116 107.733 448.36 106.275 448.36C104.475 448.36 103.143 449.638 103.143 452.05C103.143 454.498 104.475 455.776 106.275 455.776C107.733 455.776 108.705 455.074 109.065 453.832H110.829C110.325 455.794 108.723 457.162 106.275 457.162C103.467 457.162 101.469 455.182 101.469 452.05ZM112.403 452.032C112.403 448.954 114.437 446.974 117.083 446.974C118.919 446.974 120.179 447.91 120.755 448.936V447.136H122.411V457H120.755V455.164C120.161 456.226 118.883 457.162 117.065 457.162C114.437 457.162 112.403 455.092 112.403 452.032ZM120.755 452.05C120.755 449.764 119.207 448.396 117.407 448.396C115.607 448.396 114.077 449.71 114.077 452.032C114.077 454.354 115.607 455.722 117.407 455.722C119.207 455.722 120.755 454.372 120.755 452.05Z" fill="#24449F"/>
</g>
<defs>
<filter id="filter0_d_91_947" x="0" y="-4" width="317" height="548" filterUnits="userSpaceOnUse" color-interpolation-filters="sRGB">
<feFlood flood-opacity="0" result="BackgroundImageFix"/>
<feColorMatrix in="SourceAlpha" type="matrix" values="0 0 0 0 0 0 0 0 0 0 0 0 0 0 0 0 0 0 127 0" result="hardAlpha"/>
<feOffset dy="8"/>
<feGaussianBlur stdDeviation="6"/>
<feComposite in2="hardAlpha" operator="out"/>
<feColorMatrix type="matrix" values="0 0 0 0 0 0 0 0 0 0 0 0 0 0 0 0 0 0 0.07 0"/>
<feBlend mode="normal" in2="BackgroundImageFix" result="effect1_dropShadow_91_947"/>
<feBlend mode="normal" in="SourceGraphic" in2="effect1_dropShadow_91_947" result="shape"/>
</filter>
</defs>
</svg>
