<svg width="305" height="544" viewBox="0 0 305 544" fill="none" xmlns="http://www.w3.org/2000/svg">
<g filter="url(#filter0_d_91_1123)">
<rect x="12" width="293" height="524" rx="24" fill="#0DEAB1" shape-rendering="crispEdges"/>
<path d="M92.9999 62.2697C98.3474 62.2697 102.682 57.9347 102.682 52.5872C102.682 47.2397 98.3474 42.9047 92.9999 42.9047C87.6524 42.9047 83.3174 47.2397 83.3174 52.5872C83.3174 57.9347 87.6524 62.2697 92.9999 62.2697Z" stroke="#24449F" stroke-width="2.03333" stroke-linecap="round" stroke-linejoin="round"/>
<path d="M93 77.7618V62.2698" stroke="#24449F" stroke-width="2.03333" stroke-linecap="round" stroke-linejoin="round"/>
<path d="M92.9999 159.095C98.3474 159.095 102.682 154.76 102.682 149.413C102.682 144.065 98.3474 139.73 92.9999 139.73C87.6524 139.73 83.3174 144.065 83.3174 149.413C83.3174 154.76 87.6524 159.095 92.9999 159.095Z" stroke="#24449F" stroke-width="2.03333" stroke-linecap="round" stroke-linejoin="round"/>
<path d="M93 124.238V139.73" stroke="#24449F" stroke-width="2.03333" stroke-linecap="round" stroke-linejoin="round"/>
<path d="M144.605 77.0493C144.746 71.7036 140.526 67.2558 135.181 67.1149C129.835 66.974 125.387 71.1933 125.246 76.539C125.105 81.8846 129.325 86.3324 134.67 86.4733C140.016 86.6142 144.464 82.3949 144.605 77.0493Z" stroke="#24449F" stroke-width="2.03333" stroke-linecap="round" stroke-linejoin="round"/>
<path d="M113.127 89.3809L126.54 81.6349" stroke="#24449F" stroke-width="2.03333" stroke-linecap="round" stroke-linejoin="round"/>
<path d="M60.7524 125.461C60.8933 120.115 56.6741 115.667 51.3284 115.526C45.9827 115.385 41.535 119.605 41.3941 124.95C41.2531 130.296 45.4724 134.744 50.8181 134.885C56.1638 135.026 60.6115 130.806 60.7524 125.461Z" stroke="#24449F" stroke-width="2.03333" stroke-linecap="round" stroke-linejoin="round"/>
<path d="M72.8776 112.619L59.4597 120.365" stroke="#24449F" stroke-width="2.03333" stroke-linecap="round" stroke-linejoin="round"/>
<path d="M51.1411 86.4752C56.4884 86.4351 60.7908 82.0677 60.7507 76.7203C60.7105 71.3729 56.3431 67.0706 50.9957 67.1107C45.6484 67.1508 41.346 71.5182 41.3861 76.8656C41.4263 82.213 45.7937 86.5153 51.1411 86.4752Z" stroke="#24449F" stroke-width="2.03333" stroke-linecap="round" stroke-linejoin="round"/>
<path d="M72.8776 89.3809L59.4597 81.6349" stroke="#24449F" stroke-width="2.03333" stroke-linecap="round" stroke-linejoin="round"/>
<path d="M134.996 134.894C140.343 134.854 144.646 130.486 144.605 125.139C144.565 119.792 140.198 115.489 134.85 115.53C129.503 115.57 125.201 119.937 125.241 125.284C125.281 130.632 129.648 134.934 134.996 134.894Z" stroke="#24449F" stroke-width="2.03333" stroke-linecap="round" stroke-linejoin="round"/>
<path d="M113.122 112.619L126.54 120.365" stroke="#24449F" stroke-width="2.03333" stroke-linecap="round" stroke-linejoin="round"/>
<path d="M92.9998 124.238C105.834 124.238 116.238 113.834 116.238 101C116.238 88.166 105.834 77.762 92.9998 77.762C80.1658 77.762 69.7617 88.166 69.7617 101C69.7617 113.834 80.1658 124.238 92.9998 124.238Z" stroke="#24449F" stroke-width="2.03333" stroke-linecap="round" stroke-linejoin="round"/>
<path d="M35.96 258.336C36.2 253.536 37.88 249.84 41 247.248C44.168 244.608 48.32 243.288 53.456 243.288C56.96 243.288 59.96 243.912 62.456 245.16C64.952 246.36 66.824 248.016 68.072 250.128C69.368 252.192 70.016 254.544 70.016 257.184C70.016 260.208 69.224 262.776 67.64 264.888C66.104 266.952 64.256 268.344 62.096 269.064V269.352C64.88 270.216 67.04 271.752 68.576 273.96C70.16 276.168 70.952 279 70.952 282.456C70.952 285.336 70.28 287.904 68.936 290.16C67.64 292.416 65.696 294.192 63.104 295.488C60.56 296.736 57.488 297.36 53.888 297.36C48.464 297.36 44.048 295.992 40.64 293.256C37.232 290.52 35.432 286.488 35.24 281.16H45.032C45.128 283.512 45.92 285.408 47.408 286.848C48.944 288.24 51.032 288.936 53.672 288.936C56.12 288.936 57.992 288.264 59.288 286.92C60.632 285.528 61.304 283.752 61.304 281.592C61.304 278.712 60.392 276.648 58.568 275.4C56.744 274.152 53.912 273.528 50.072 273.528H47.984V265.248H50.072C56.888 265.248 60.296 262.968 60.296 258.408C60.296 256.344 59.672 254.736 58.424 253.584C57.224 252.432 55.472 251.856 53.168 251.856C50.912 251.856 49.16 252.48 47.912 253.728C46.712 254.928 46.016 256.464 45.824 258.336H35.96ZM101.69 297.504C99.8658 297.504 98.3538 296.952 97.1538 295.848C96.0018 294.696 95.4258 293.28 95.4258 291.6C95.4258 289.92 96.0018 288.528 97.1538 287.424C98.3538 286.272 99.8658 285.696 101.69 285.696C103.466 285.696 104.93 286.272 106.082 287.424C107.234 288.528 107.81 289.92 107.81 291.6C107.81 293.28 107.234 294.696 106.082 295.848C104.93 296.952 103.466 297.504 101.69 297.504Z" fill="#24449F"/>
<path d="M32.84 352.6C32.84 350.952 33.208 349.48 33.944 348.184C34.696 346.872 35.712 345.856 36.992 345.136C38.288 344.4 39.736 344.032 41.336 344.032C43.208 344.032 44.848 344.512 46.256 345.472C47.664 346.432 48.648 347.76 49.208 349.456H45.344C44.96 348.656 44.416 348.056 43.712 347.656C43.024 347.256 42.224 347.056 41.312 347.056C40.336 347.056 39.464 347.288 38.696 347.752C37.944 348.2 37.352 348.84 36.92 349.672C36.504 350.504 36.296 351.48 36.296 352.6C36.296 353.704 36.504 354.68 36.92 355.528C37.352 356.36 37.944 357.008 38.696 357.472C39.464 357.92 40.336 358.144 41.312 358.144C42.224 358.144 43.024 357.944 43.712 357.544C44.416 357.128 44.96 356.52 45.344 355.72H49.208C48.648 357.432 47.664 358.768 46.256 359.728C44.864 360.672 43.224 361.144 41.336 361.144C39.736 361.144 38.288 360.784 36.992 360.064C35.712 359.328 34.696 358.312 33.944 357.016C33.208 355.72 32.84 354.248 32.84 352.6ZM64.4379 354.064C64.4379 354.544 64.4059 354.976 64.3419 355.36H54.6219C54.7019 356.32 55.0379 357.072 55.6299 357.616C56.2219 358.16 56.9499 358.432 57.8139 358.432C59.0619 358.432 59.9499 357.896 60.4779 356.824H64.1019C63.7179 358.104 62.9819 359.16 61.8939 359.992C60.8059 360.808 59.4699 361.216 57.8859 361.216C56.6059 361.216 55.4539 360.936 54.4299 360.376C53.4219 359.8 52.6299 358.992 52.0539 357.952C51.4939 356.912 51.2139 355.712 51.2139 354.352C51.2139 352.976 51.4939 351.768 52.0539 350.728C52.6139 349.688 53.3979 348.888 54.4059 348.328C55.4139 347.768 56.5739 347.488 57.8859 347.488C59.1499 347.488 60.2779 347.76 61.2699 348.304C62.2779 348.848 63.0539 349.624 63.5979 350.632C64.1579 351.624 64.4379 352.768 64.4379 354.064ZM60.9579 353.104C60.9419 352.24 60.6299 351.552 60.0219 351.04C59.4139 350.512 58.6699 350.248 57.7899 350.248C56.9579 350.248 56.2539 350.504 55.6779 351.016C55.1179 351.512 54.7739 352.208 54.6459 353.104H60.9579ZM74.2584 347.512C75.8424 347.512 77.1224 348.016 78.0984 349.024C79.0744 350.016 79.5624 351.408 79.5624 353.2V361H76.2024V353.656C76.2024 352.6 75.9384 351.792 75.4104 351.232C74.8824 350.656 74.1624 350.368 73.2504 350.368C72.3224 350.368 71.5864 350.656 71.0424 351.232C70.5144 351.792 70.2504 352.6 70.2504 353.656V361H66.8904V347.704H70.2504V349.36C70.6984 348.784 71.2664 348.336 71.9544 348.016C72.6584 347.68 73.4264 347.512 74.2584 347.512ZM86.6696 350.464V356.896C86.6696 357.344 86.7736 357.672 86.9816 357.88C87.2056 358.072 87.5736 358.168 88.0856 358.168H89.6456V361H87.5336C84.7016 361 83.2856 359.624 83.2856 356.872V350.464H81.7016V347.704H83.2856V344.416H86.6696V347.704H89.6456V350.464H86.6696ZM95.4223 349.768C95.8543 349.064 96.4143 348.512 97.1023 348.112C97.8063 347.712 98.6063 347.512 99.5023 347.512V351.04H98.6143C97.5583 351.04 96.7583 351.288 96.2143 351.784C95.6863 352.28 95.4223 353.144 95.4223 354.376V361H92.0623V347.704H95.4223V349.768ZM100.901 354.304C100.901 352.96 101.165 351.768 101.693 350.728C102.237 349.688 102.965 348.888 103.877 348.328C104.805 347.768 105.837 347.488 106.973 347.488C107.965 347.488 108.829 347.688 109.565 348.088C110.317 348.488 110.917 348.992 111.365 349.6V347.704H114.749V361H111.365V359.056C110.933 359.68 110.333 360.2 109.565 360.616C108.813 361.016 107.941 361.216 106.949 361.216C105.829 361.216 104.805 360.928 103.877 360.352C102.965 359.776 102.237 358.968 101.693 357.928C101.165 356.872 100.901 355.664 100.901 354.304ZM111.365 354.352C111.365 353.536 111.205 352.84 110.885 352.264C110.565 351.672 110.133 351.224 109.589 350.92C109.045 350.6 108.461 350.44 107.837 350.44C107.213 350.44 106.637 350.592 106.109 350.896C105.581 351.2 105.149 351.648 104.813 352.24C104.493 352.816 104.333 353.504 104.333 354.304C104.333 355.104 104.493 355.808 104.813 356.416C105.149 357.008 105.581 357.464 106.109 357.784C106.653 358.104 107.229 358.264 107.837 358.264C108.461 358.264 109.045 358.112 109.589 357.808C110.133 357.488 110.565 357.04 110.885 356.464C111.205 355.872 111.365 355.168 111.365 354.352ZM121.391 343.24V361H118.031V343.24H121.391ZM136.237 365.728C134.685 364.224 133.477 362.304 132.613 359.968C131.765 357.632 131.341 355.128 131.341 352.456C131.341 349.72 131.789 347.152 132.685 344.752C133.581 342.336 134.885 340.36 136.597 338.824H139.981V339.136C138.221 340.816 136.877 342.832 135.949 345.184C135.037 347.536 134.581 349.96 134.581 352.456C134.581 354.888 135.013 357.24 135.877 359.512C136.757 361.768 138.005 363.728 139.621 365.392V365.728H136.237ZM147.934 344.248C149.694 344.248 151.238 344.592 152.566 345.28C153.91 345.968 154.942 346.952 155.662 348.232C156.398 349.496 156.766 350.968 156.766 352.648C156.766 354.328 156.398 355.8 155.662 357.064C154.942 358.312 153.91 359.28 152.566 359.968C151.238 360.656 149.694 361 147.934 361H142.078V344.248H147.934ZM147.814 358.144C149.574 358.144 150.934 357.664 151.894 356.704C152.854 355.744 153.334 354.392 153.334 352.648C153.334 350.904 152.854 349.544 151.894 348.568C150.934 347.576 149.574 347.08 147.814 347.08H145.438V358.144H147.814ZM170.945 349.288C170.561 348.584 170.033 348.048 169.361 347.68C168.689 347.312 167.905 347.128 167.009 347.128C166.017 347.128 165.137 347.352 164.369 347.8C163.601 348.248 163.001 348.888 162.569 349.72C162.137 350.552 161.921 351.512 161.921 352.6C161.921 353.72 162.137 354.696 162.569 355.528C163.017 356.36 163.633 357 164.417 357.448C165.201 357.896 166.113 358.12 167.153 358.12C168.433 358.12 169.481 357.784 170.297 357.112C171.113 356.424 171.649 355.472 171.905 354.256H166.145V351.688H175.217V354.616C174.993 355.784 174.513 356.864 173.777 357.856C173.041 358.848 172.089 359.648 170.921 360.256C169.769 360.848 168.473 361.144 167.033 361.144C165.417 361.144 163.953 360.784 162.641 360.064C161.345 359.328 160.321 358.312 159.569 357.016C158.833 355.72 158.465 354.248 158.465 352.6C158.465 350.952 158.833 349.48 159.569 348.184C160.321 346.872 161.345 345.856 162.641 345.136C163.953 344.4 165.409 344.032 167.009 344.032C168.897 344.032 170.537 344.496 171.929 345.424C173.321 346.336 174.281 347.624 174.809 349.288H170.945ZM176.839 365.728V365.392C178.455 363.728 179.695 361.768 180.559 359.512C181.439 357.24 181.879 354.888 181.879 352.456C181.879 349.96 181.415 347.536 180.487 345.184C179.575 342.832 178.239 340.816 176.479 339.136V338.824H179.863C181.575 340.36 182.879 342.336 183.775 344.752C184.671 347.152 185.119 349.72 185.119 352.456C185.119 355.128 184.687 357.632 183.823 359.968C182.975 362.304 181.775 364.224 180.223 365.728H176.839Z" fill="#24449F"/>
<path d="M36.194 392.11H39.11V395.332H42.242V398.086H39.11V401.29H36.194V398.086H33.062V395.332H36.194V392.11ZM48.0352 393.568C48.1432 390.976 49.8352 389.554 52.5172 389.554C55.2892 389.554 56.7832 391.138 56.7832 393.118C56.7832 394.846 55.7032 395.764 54.8032 396.07V396.142C56.1172 396.574 57.0172 397.582 57.0172 399.31C57.0172 401.524 55.4332 403.108 52.6792 403.108C49.9432 403.108 47.9632 401.812 47.8732 398.842H50.8612C50.8792 399.868 51.4372 400.552 52.5712 400.552C53.5252 400.552 54.0472 399.94 54.0472 399.076C54.0472 397.906 53.3452 397.438 51.7432 397.438H51.1672V394.936H51.7432C52.7872 394.936 53.7952 394.684 53.7952 393.496C53.7952 392.614 53.2732 392.128 52.4452 392.128C51.4552 392.128 51.0952 392.848 51.0412 393.568H48.0352ZM64.9456 403V400.66H58.8976V398.176L64.5856 390.04H68.0236V397.996H69.4996V400.66H68.0236V403H64.9456ZM62.1376 397.996H65.1616V393.424L62.1376 397.996ZM71.8533 389.842H80.2593V392.542H74.6433V395.026C75.1113 394.504 76.0113 394.126 77.0553 394.126C79.9173 394.126 81.0153 396.304 81.0153 398.428C81.0153 401.2 79.3953 403 76.4793 403C73.5273 403 71.8173 401.362 71.7093 399.094H74.7153C74.8413 399.778 75.3633 400.39 76.3713 400.39C77.5413 400.39 78.0453 399.544 78.0453 398.41C78.0453 397.222 77.4513 396.592 76.3533 396.592C75.4893 396.592 74.9853 397.06 74.8233 397.672H71.8533V389.842ZM86.2783 401.488C86.2783 402.406 85.5403 403.144 84.4603 403.144C83.3623 403.144 82.6243 402.406 82.6243 401.488C82.6243 400.534 83.3623 399.796 84.4603 399.796C85.5403 399.796 86.2783 400.534 86.2783 401.488ZM87.7944 396.25C87.7944 392.398 89.1084 389.59 92.8524 389.59C96.5964 389.59 97.9104 392.398 97.9104 396.25C97.9104 400.138 96.5964 402.946 92.8524 402.946C89.1084 402.946 87.7944 400.138 87.7944 396.25ZM94.8864 396.25C94.8864 394.234 94.6704 392.47 92.8524 392.47C91.0344 392.47 90.8184 394.234 90.8184 396.25C90.8184 398.338 91.0344 400.066 92.8524 400.066C94.6704 400.066 94.8864 398.338 94.8864 396.25ZM99.5366 396.25C99.5366 392.398 100.851 389.59 104.595 389.59C108.339 389.59 109.653 392.398 109.653 396.25C109.653 400.138 108.339 402.946 104.595 402.946C100.851 402.946 99.5366 400.138 99.5366 396.25ZM106.629 396.25C106.629 394.234 106.413 392.47 104.595 392.47C102.777 392.47 102.561 394.234 102.561 396.25C102.561 398.338 102.777 400.066 104.595 400.066C106.413 400.066 106.629 398.338 106.629 396.25ZM111.279 396.25C111.279 392.398 112.593 389.59 116.337 389.59C120.081 389.59 121.395 392.398 121.395 396.25C121.395 400.138 120.081 402.946 116.337 402.946C112.593 402.946 111.279 400.138 111.279 396.25ZM118.371 396.25C118.371 394.234 118.155 392.47 116.337 392.47C114.519 392.47 114.303 394.234 114.303 396.25C114.303 398.338 114.519 400.066 116.337 400.066C118.155 400.066 118.371 398.338 118.371 396.25ZM128.396 403V390.454H130.034V403H128.396ZM140.043 403V397.42C140.043 395.404 138.945 394.378 137.289 394.378C135.615 394.378 134.463 395.422 134.463 397.546V403H132.825V393.136H134.463V394.54C135.111 393.514 136.299 392.956 137.631 392.956C139.917 392.956 141.663 394.36 141.663 397.186V403H140.043ZM151.431 400.318C151.431 401.938 150.009 403.162 147.831 403.162C145.527 403.162 143.907 401.902 143.799 400.102H145.491C145.581 401.056 146.427 401.776 147.813 401.776C149.109 401.776 149.829 401.128 149.829 400.318C149.829 398.122 143.997 399.4 143.997 395.728C143.997 394.216 145.419 392.974 147.615 392.974C149.793 392.974 151.233 394.144 151.341 396.07H149.703C149.631 395.08 148.875 394.36 147.561 394.36C146.355 394.36 145.635 394.936 145.635 395.728C145.635 398.068 151.359 396.79 151.431 400.318ZM154.103 400.3V394.486H152.825V393.136H154.103V390.652H155.741V393.136H158.315V394.486H155.741V400.3C155.741 401.272 156.101 401.614 157.109 401.614H158.315V403H156.839C155.093 403 154.103 402.28 154.103 400.3ZM159.688 398.032C159.688 394.954 161.722 392.974 164.368 392.974C166.204 392.974 167.464 393.91 168.04 394.936V393.136H169.696V403H168.04V401.164C167.446 402.226 166.168 403.162 164.35 403.162C161.722 403.162 159.688 401.092 159.688 398.032ZM168.04 398.05C168.04 395.764 166.492 394.396 164.692 394.396C162.892 394.396 161.362 395.71 161.362 398.032C161.362 400.354 162.892 401.722 164.692 401.722C166.492 401.722 168.04 400.372 168.04 398.05ZM172.464 403V389.68H174.102V403H172.464ZM176.282 398.032C176.282 394.954 178.316 392.974 180.962 392.974C182.798 392.974 184.058 393.91 184.634 394.936V393.136H186.29V403H184.634V401.164C184.04 402.226 182.762 403.162 180.944 403.162C178.316 403.162 176.282 401.092 176.282 398.032ZM184.634 398.05C184.634 395.764 183.086 394.396 181.286 394.396C179.486 394.396 177.956 395.71 177.956 398.032C177.956 400.354 179.486 401.722 181.286 401.722C183.086 401.722 184.634 400.372 184.634 398.05ZM188.446 398.05C188.446 394.954 190.444 392.974 193.252 392.974C195.7 392.974 197.302 394.234 197.806 396.304H196.042C195.7 395.116 194.71 394.36 193.252 394.36C191.452 394.36 190.12 395.638 190.12 398.05C190.12 400.498 191.452 401.776 193.252 401.776C194.71 401.776 195.682 401.074 196.042 399.832H197.806C197.338 401.65 195.916 402.964 193.756 403.144V404.044C195.142 404.026 196.078 404.638 196.078 405.826C196.078 406.96 195.16 407.68 193.882 407.68H191.812V406.618H193.558C194.332 406.618 194.71 406.402 194.71 405.826C194.71 405.268 194.332 405.052 193.558 405.052H192.658V403.126C190.174 402.874 188.446 400.948 188.446 398.05ZM209.351 398.05C209.351 401.182 207.101 403.162 204.293 403.162C201.503 403.162 199.379 401.182 199.379 398.05C199.379 394.936 201.575 392.974 204.365 392.974C207.173 392.974 209.351 394.936 209.351 398.05ZM201.053 398.05C201.053 400.552 202.583 401.722 204.293 401.722C206.003 401.722 207.677 400.552 207.677 398.05C207.677 395.566 206.039 394.396 204.347 394.396C202.619 394.396 201.053 395.566 201.053 398.05ZM201.737 391.948C201.917 390.706 202.601 390.058 203.537 390.058C204.491 390.058 204.851 390.886 205.589 390.886C205.985 390.886 206.309 390.634 206.381 390.112H207.317C207.173 391.336 206.453 391.984 205.517 391.984C204.545 391.984 204.185 391.156 203.465 391.156C203.069 391.156 202.763 391.408 202.691 391.948H201.737ZM215.699 394.36C214.097 394.36 212.765 395.422 212.585 397.348H218.813C218.831 395.422 217.391 394.36 215.699 394.36ZM220.307 399.958C219.803 401.758 218.219 403.162 215.771 403.162C212.963 403.162 210.893 401.182 210.893 398.05C210.893 394.936 212.891 392.974 215.771 392.974C218.633 392.974 220.505 394.99 220.505 397.69C220.505 398.05 220.487 398.338 220.451 398.68H212.567C212.693 400.678 214.097 401.776 215.771 401.776C217.247 401.776 218.183 401.02 218.543 399.958H220.307ZM229.759 400.318C229.759 401.938 228.337 403.162 226.159 403.162C223.855 403.162 222.235 401.902 222.127 400.102H223.819C223.909 401.056 224.755 401.776 226.141 401.776C227.437 401.776 228.157 401.128 228.157 400.318C228.157 398.122 222.325 399.4 222.325 395.728C222.325 394.216 223.747 392.974 225.943 392.974C228.121 392.974 229.561 394.144 229.669 396.07H228.031C227.959 395.08 227.203 394.36 225.889 394.36C224.683 394.36 223.963 394.936 223.963 395.728C223.963 398.068 229.687 396.79 229.759 400.318ZM32.774 425.032C32.774 421.954 34.808 419.974 37.454 419.974C39.29 419.974 40.55 420.91 41.126 421.936V420.136H42.782V430H41.126V428.164C40.532 429.226 39.254 430.162 37.436 430.162C34.808 430.162 32.774 428.092 32.774 425.032ZM41.126 425.05C41.126 422.764 39.578 421.396 37.778 421.396C35.978 421.396 34.448 422.71 34.448 425.032C34.448 427.354 35.978 428.722 37.778 428.722C39.578 428.722 41.126 427.372 41.126 425.05ZM52.7681 430V424.42C52.7681 422.404 51.6701 421.378 50.0141 421.378C48.3401 421.378 47.1881 422.422 47.1881 424.546V430H45.5501V420.136H47.1881V421.54C47.8361 420.514 49.0241 419.956 50.3561 419.956C52.6421 419.956 54.3881 421.36 54.3881 424.186V430H52.7681ZM65.8117 420.136V430H64.1737V428.542C63.5437 429.568 62.3377 430.144 61.0237 430.144C58.7557 430.144 56.9737 428.74 56.9737 425.914V420.136H58.5937V425.698C58.5937 427.696 59.6917 428.722 61.3477 428.722C63.0397 428.722 64.1737 427.678 64.1737 425.554V420.136H65.8117ZM67.9654 425.032C67.9654 421.954 69.9994 419.974 72.6454 419.974C74.4814 419.974 75.7414 420.91 76.3174 421.936V420.136H77.9734V430H76.3174V428.164C75.7234 429.226 74.4454 430.162 72.6274 430.162C69.9994 430.162 67.9654 428.092 67.9654 425.032ZM76.3174 425.05C76.3174 422.764 74.7694 421.396 72.9694 421.396C71.1694 421.396 69.6394 422.71 69.6394 425.032C69.6394 427.354 71.1694 428.722 72.9694 428.722C74.7694 428.722 76.3174 427.372 76.3174 425.05ZM80.7415 430V420.136H82.3795V430H80.7415ZM81.5875 418.534C80.9575 418.534 80.4715 418.048 80.4715 417.418C80.4715 416.788 80.9575 416.302 81.5875 416.302C82.1815 416.302 82.6675 416.788 82.6675 417.418C82.6675 418.048 82.1815 418.534 81.5875 418.534ZM92.2632 427.318C92.2632 428.938 90.8412 430.162 88.6632 430.162C86.3592 430.162 84.7392 428.902 84.6312 427.102H86.3232C86.4132 428.056 87.2592 428.776 88.6452 428.776C89.9412 428.776 90.6612 428.128 90.6612 427.318C90.6612 425.122 84.8292 426.4 84.8292 422.728C84.8292 421.216 86.2512 419.974 88.4472 419.974C90.6252 419.974 92.0652 421.144 92.1732 423.07H90.5352C90.4632 422.08 89.7072 421.36 88.3932 421.36C87.1872 421.36 86.4672 421.936 86.4672 422.728C86.4672 425.068 92.1912 423.79 92.2632 427.318ZM96.1775 428.992C96.1775 429.622 95.6915 430.108 95.0975 430.108C94.4675 430.108 93.9815 429.622 93.9815 428.992C93.9815 428.362 94.4675 427.876 95.0975 427.876C95.6915 427.876 96.1775 428.362 96.1775 428.992ZM105.962 419.11H108.878V422.332H112.01V425.086H108.878V428.29H105.962V425.086H102.83V422.332H105.962V419.11ZM118.541 416.842H126.947V419.542H121.331V422.026C121.799 421.504 122.699 421.126 123.743 421.126C126.605 421.126 127.703 423.304 127.703 425.428C127.703 428.2 126.083 430 123.167 430C120.215 430 118.505 428.362 118.397 426.094H121.403C121.529 426.778 122.051 427.39 123.059 427.39C124.229 427.39 124.733 426.544 124.733 425.41C124.733 424.222 124.139 423.592 123.041 423.592C122.177 423.592 121.673 424.06 121.511 424.672H118.541V416.842ZM135.522 430V427.66H129.474V425.176L135.162 417.04H138.6V424.996H140.076V427.66H138.6V430H135.522ZM132.714 424.996H135.738V420.424L132.714 424.996ZM141.583 423.25C141.583 419.398 142.897 416.59 146.641 416.59C150.385 416.59 151.699 419.398 151.699 423.25C151.699 427.138 150.385 429.946 146.641 429.946C142.897 429.946 141.583 427.138 141.583 423.25ZM148.675 423.25C148.675 421.234 148.459 419.47 146.641 419.47C144.823 419.47 144.607 421.234 144.607 423.25C144.607 425.338 144.823 427.066 146.641 427.066C148.459 427.066 148.675 425.338 148.675 423.25ZM156.89 428.488C156.89 429.406 156.152 430.144 155.072 430.144C153.974 430.144 153.236 429.406 153.236 428.488C153.236 427.534 153.974 426.796 155.072 426.796C156.152 426.796 156.89 427.534 156.89 428.488ZM158.406 423.25C158.406 419.398 159.72 416.59 163.464 416.59C167.208 416.59 168.522 419.398 168.522 423.25C168.522 427.138 167.208 429.946 163.464 429.946C159.72 429.946 158.406 427.138 158.406 423.25ZM165.498 423.25C165.498 421.234 165.282 419.47 163.464 419.47C161.646 419.47 161.43 421.234 161.43 423.25C161.43 425.338 161.646 427.066 163.464 427.066C165.282 427.066 165.498 425.338 165.498 423.25ZM170.148 423.25C170.148 419.398 171.462 416.59 175.206 416.59C178.95 416.59 180.264 419.398 180.264 423.25C180.264 427.138 178.95 429.946 175.206 429.946C171.462 429.946 170.148 427.138 170.148 423.25ZM177.24 423.25C177.24 421.234 177.024 419.47 175.206 419.47C173.388 419.47 173.172 421.234 173.172 423.25C173.172 425.338 173.388 427.066 175.206 427.066C177.024 427.066 177.24 425.338 177.24 423.25ZM181.89 423.25C181.89 419.398 183.204 416.59 186.948 416.59C190.692 416.59 192.006 419.398 192.006 423.25C192.006 427.138 190.692 429.946 186.948 429.946C183.204 429.946 181.89 427.138 181.89 423.25ZM188.982 423.25C188.982 421.234 188.766 419.47 186.948 419.47C185.13 419.47 184.914 421.234 184.914 423.25C184.914 425.338 185.13 427.066 186.948 427.066C188.766 427.066 188.982 425.338 188.982 423.25ZM200.645 424.636V430H199.007V420.136H200.645V421.738C201.203 420.64 202.265 419.956 203.831 419.956V421.648H203.399C201.833 421.648 200.645 422.35 200.645 424.636ZM209.916 421.36C208.314 421.36 206.982 422.422 206.802 424.348H213.03C213.048 422.422 211.608 421.36 209.916 421.36ZM214.524 426.958C214.02 428.758 212.436 430.162 209.988 430.162C207.18 430.162 205.11 428.182 205.11 425.05C205.11 421.936 207.108 419.974 209.988 419.974C212.85 419.974 214.722 421.99 214.722 424.69C214.722 425.05 214.704 425.338 214.668 425.68H206.784C206.91 427.678 208.314 428.776 209.988 428.776C211.464 428.776 212.4 428.02 212.76 426.958H214.524ZM218.522 421.954C219.116 420.91 220.412 419.974 222.212 419.974C224.858 419.974 226.892 421.954 226.892 425.032C226.892 428.092 224.858 430.162 222.212 430.162C220.412 430.162 219.134 429.19 218.522 428.182V434.68H216.884V420.136H218.522V421.954ZM225.218 425.032C225.218 422.71 223.688 421.396 221.87 421.396C220.088 421.396 218.522 422.764 218.522 425.05C218.522 427.372 220.088 428.722 221.87 428.722C223.688 428.722 225.218 427.354 225.218 425.032ZM228.436 425.032C228.436 421.954 230.47 419.974 233.116 419.974C234.952 419.974 236.212 420.91 236.788 421.936V420.136H238.444V430H236.788V428.164C236.194 429.226 234.916 430.162 233.098 430.162C230.47 430.162 228.436 428.092 228.436 425.032ZM236.788 425.05C236.788 422.764 235.24 421.396 233.44 421.396C231.64 421.396 230.11 422.71 230.11 425.032C230.11 427.354 231.64 428.722 233.44 428.722C235.24 428.722 236.788 427.372 236.788 425.05ZM242.85 424.636V430H241.212V420.136H242.85V421.738C243.408 420.64 244.47 419.956 246.036 419.956V421.648H245.604C244.038 421.648 242.85 422.35 242.85 424.636ZM257.287 425.05C257.287 428.182 255.037 430.162 252.229 430.162C249.439 430.162 247.315 428.182 247.315 425.05C247.315 421.936 249.511 419.974 252.301 419.974C255.109 419.974 257.287 421.936 257.287 425.05ZM248.989 425.05C248.989 427.552 250.519 428.722 252.229 428.722C253.939 428.722 255.613 427.552 255.613 425.05C255.613 422.566 253.975 421.396 252.283 421.396C250.555 421.396 248.989 422.566 248.989 425.05ZM266.533 427.318C266.533 428.938 265.111 430.162 262.933 430.162C260.629 430.162 259.009 428.902 258.901 427.102H260.593C260.683 428.056 261.529 428.776 262.915 428.776C264.211 428.776 264.931 428.128 264.931 427.318C264.931 425.122 259.099 426.4 259.099 422.728C259.099 421.216 260.521 419.974 262.717 419.974C264.895 419.974 266.335 421.144 266.443 423.07H264.805C264.733 422.08 263.977 421.36 262.663 421.36C261.457 421.36 260.737 421.936 260.737 422.728C260.737 425.068 266.461 423.79 266.533 427.318ZM32.774 452.032C32.774 448.954 34.808 446.974 37.454 446.974C39.29 446.974 40.55 447.91 41.126 448.936V447.136H42.782V457H41.126V455.164C40.532 456.226 39.254 457.162 37.436 457.162C34.808 457.162 32.774 455.092 32.774 452.032ZM41.126 452.05C41.126 449.764 39.578 448.396 37.778 448.396C35.978 448.396 34.448 449.71 34.448 452.032C34.448 454.354 35.978 455.722 37.778 455.722C39.578 455.722 41.126 454.372 41.126 452.05ZM52.7681 457V451.42C52.7681 449.404 51.6701 448.378 50.0141 448.378C48.3401 448.378 47.1881 449.422 47.1881 451.546V457H45.5501V447.136H47.1881V448.54C47.8361 447.514 49.0241 446.956 50.3561 446.956C52.6421 446.956 54.3881 448.36 54.3881 451.186V457H52.7681ZM65.8117 447.136V457H64.1737V455.542C63.5437 456.568 62.3377 457.144 61.0237 457.144C58.7557 457.144 56.9737 455.74 56.9737 452.914V447.136H58.5937V452.698C58.5937 454.696 59.6917 455.722 61.3477 455.722C63.0397 455.722 64.1737 454.678 64.1737 452.554V447.136H65.8117ZM67.9654 452.032C67.9654 448.954 69.9994 446.974 72.6454 446.974C74.4814 446.974 75.7414 447.91 76.3174 448.936V447.136H77.9734V457H76.3174V455.164C75.7234 456.226 74.4454 457.162 72.6274 457.162C69.9994 457.162 67.9654 455.092 67.9654 452.032ZM76.3174 452.05C76.3174 449.764 74.7694 448.396 72.9694 448.396C71.1694 448.396 69.6394 449.71 69.6394 452.032C69.6394 454.354 71.1694 455.722 72.9694 455.722C74.7694 455.722 76.3174 454.372 76.3174 452.05ZM80.7415 457V447.136H82.3795V457H80.7415ZM81.5875 445.534C80.9575 445.534 80.4715 445.048 80.4715 444.418C80.4715 443.788 80.9575 443.302 81.5875 443.302C82.1815 443.302 82.6675 443.788 82.6675 444.418C82.6675 445.048 82.1815 445.534 81.5875 445.534ZM92.2632 454.318C92.2632 455.938 90.8412 457.162 88.6632 457.162C86.3592 457.162 84.7392 455.902 84.6312 454.102H86.3232C86.4132 455.056 87.2592 455.776 88.6452 455.776C89.9412 455.776 90.6612 455.128 90.6612 454.318C90.6612 452.122 84.8292 453.4 84.8292 449.728C84.8292 448.216 86.2512 446.974 88.4472 446.974C90.6252 446.974 92.0652 448.144 92.1732 450.07H90.5352C90.4632 449.08 89.7072 448.36 88.3932 448.36C87.1872 448.36 86.4672 448.936 86.4672 449.728C86.4672 452.068 92.1912 450.79 92.2632 454.318Z" fill="#24449F"/>
</g>
<defs>
<filter id="filter0_d_91_1123" x="0" y="-4" width="317" height="548" filterUnits="userSpaceOnUse" color-interpolation-filters="sRGB">
<feFlood flood-opacity="0" result="BackgroundImageFix"/>
<feColorMatrix in="SourceAlpha" type="matrix" values="0 0 0 0 0 0 0 0 0 0 0 0 0 0 0 0 0 0 127 0" result="hardAlpha"/>
<feOffset dy="8"/>
<feGaussianBlur stdDeviation="6"/>
<feComposite in2="hardAlpha" operator="out"/>
<feColorMatrix type="matrix" values="0 0 0 0 0 0 0 0 0 0 0 0 0 0 0 0 0 0 0.07 0"/>
<feBlend mode="normal" in2="BackgroundImageFix" result="effect1_dropShadow_91_1123"/>
<feBlend mode="normal" in="SourceGraphic" in2="effect1_dropShadow_91_1123" result="shape"/>
</filter>
</defs>
</svg>
