<svg width="106" height="38" viewBox="0 0 106 38" fill="none" xmlns="http://www.w3.org/2000/svg">
<g id="Logo" clip-path="url(#clip0_803_200)">
<path id="Vector" fill-rule="evenodd" clip-rule="evenodd" d="M87.3456 0.535324C83.4052 1.11755 80.0422 2.31165 77.439 4.08585C75.2579 5.57 74.2859 6.52274 72.8668 8.48537C70.5806 11.7183 69.5813 14.9767 69.5562 19.2979C69.5562 24.6776 71.4224 29.1555 75.0479 32.4138C79.6979 36.6016 86.741 38.2171 95.2012 37.078C96.7778 36.8663 98.6693 36.5212 99.4061 36.3095C100.141 36.0978 101.403 35.8056 102.244 35.6214C103.978 35.2763 104.321 34.7724 103.454 33.8451C102.876 33.2353 102.849 32.9961 102.849 28.9967C102.849 26.2401 102.954 24.6776 103.139 24.4913C103.296 24.3325 104.006 24.0404 104.715 23.8562C105.924 23.5386 106.002 23.4857 106.002 22.6642V21.7898L97.9093 21.7623C92.2601 21.7347 89.764 21.8152 89.5541 22.0269C89.3966 22.1857 89.3169 22.6367 89.4218 22.9818C89.5541 23.564 89.764 23.6699 90.9459 23.8308C93.1796 24.1229 94.2838 24.4659 94.5714 25.0227C94.9136 25.6325 94.9136 32.7081 94.5987 33.5825C93.9164 35.3589 88.7123 35.2255 85.0091 33.3179C82.3283 31.9396 79.912 28.5754 78.94 24.8915C78.2829 22.3212 78.0205 18.7961 78.2829 16.1475C78.9127 10.0796 81.3311 6.0252 85.5864 4.01175C87.268 3.2178 87.5052 3.16276 90.4988 3.16276C93.4924 3.16276 93.7569 3.21569 95.1235 3.90377C97.015 4.8311 98.854 6.81914 99.8785 9.0189C100.666 10.7148 100.693 10.7423 101.64 10.6618C102.402 10.6089 102.587 10.4755 102.534 10.0521C102.507 9.75992 102.349 7.7994 102.192 5.68009C102.034 3.58619 101.85 1.81199 101.797 1.75906C101.745 1.70613 100.536 1.41396 99.1164 1.1239C96.6455 0.620012 89.3169 0.249504 87.3456 0.541676V0.535324Z" fill="#999999"/>
<path id="Vector_2" fill-rule="evenodd" clip-rule="evenodd" d="M0.45342 1.35705C0.295973 1.54337 0.24349 1.99221 0.348455 2.33731C0.480711 2.86661 0.743124 2.99999 2.13496 3.26464C3.2119 3.45095 3.94876 3.74101 4.23636 4.08611C4.89344 4.90758 5.0236 7.84835 4.91863 20.8331C4.83886 32.3591 4.81367 32.6788 4.28884 33.4198C3.86898 33.9766 3.42183 34.2137 2.44986 34.3746C-0.203661 34.851 -0.0462134 34.7727 0.03356 35.7L0.113333 36.549L14.2227 36.6294L28.3321 36.6824L29.1467 34.165C29.5665 32.7613 30.0935 30.7987 30.2509 29.7655C30.5406 28.1755 30.5133 27.8579 30.1984 27.6462C29.2789 27.064 28.5421 27.4874 27.4126 29.395C24.9691 33.4494 24.1272 33.9004 19.0301 33.8728C14.8777 33.8728 14.0107 33.6082 13.1962 32.0965C12.749 31.328 12.7238 30.1614 12.7238 18.1315C12.7238 3.31969 12.6714 3.74313 14.6153 3.42555C16.4543 3.10797 16.9266 2.86873 17.0064 2.25898C17.0589 1.91387 16.9791 1.51796 16.849 1.38458C16.4543 0.986544 0.795606 0.961138 0.45342 1.35705Z" fill="#999999"/>
<path id="Vector_3" fill-rule="evenodd" clip-rule="evenodd" d="M33.1669 1.35705C33.0871 1.51584 33.0871 1.93928 33.1396 2.25897C33.1921 2.73534 33.5594 2.97458 35.1633 3.45095C36.3452 3.82146 37.397 4.32535 37.8693 4.80172C38.6041 5.4898 43.1763 12.1949 46.2245 17.0179L47.6164 19.2431L47.144 20.1979C46.9068 20.7272 45.3827 23.0858 43.7809 25.3914C38.4466 33.1297 37.5544 34.0041 34.4013 34.5863C32.5098 34.9314 32.0899 35.2744 32.5623 36.1763C32.8247 36.6527 33.1396 36.6802 39.3409 36.6273L45.8298 36.5469L45.9096 35.6979C45.9894 34.9039 45.9369 34.8489 44.9901 34.6901C42.9139 34.345 42.809 34.292 42.809 33.6823C42.809 32.8079 48.9053 22.3934 49.405 22.368C49.6149 22.368 53.6875 28.6476 55.3964 31.563C56.0262 32.6237 56.4733 33.6569 56.3956 33.8686C56.3159 34.0803 55.791 34.345 55.2389 34.4254C52.6631 34.8489 52.768 34.7959 52.8478 35.6979L52.9276 36.5469H70.7947L70.8745 35.7783C70.9795 34.8764 70.6121 34.5588 69.3504 34.5588C68.1685 34.5313 66.4597 33.7649 65.5402 32.81C64.7529 31.961 55.9758 18.7392 55.1088 17.0433L54.5839 15.9826L55.2935 14.869C56.6329 12.8026 60.4704 7.68744 61.942 5.99158C63.6235 4.05646 64.2533 3.66055 66.4345 3.31545C67.3288 3.18207 68.1685 2.97035 68.3008 2.89201C68.643 2.68029 68.643 1.51372 68.3008 1.302C68.1433 1.19614 65.2274 1.11569 61.8118 1.11569C56.0303 1.11569 55.558 1.16862 55.4006 1.61958C55.1381 2.41353 55.453 2.99787 56.2424 3.12914C56.6622 3.20959 57.3466 3.36838 57.7917 3.44671C58.2115 3.52717 58.6335 3.71136 58.7384 3.84475C58.8182 3.97813 58.5012 4.77207 58.0562 5.62107C57.1094 7.31694 53.064 13.624 52.9066 13.624C52.4867 13.624 47.2847 4.98591 47.2847 4.29571C47.2847 3.76641 47.8368 3.42131 49.1761 3.18207C50.2006 2.99575 50.6477 2.30767 50.2279 1.56665C50.0431 1.19614 48.941 1.14321 41.6627 1.09028C35.4362 1.03735 33.255 1.11781 33.1753 1.35493L33.1669 1.35705Z" fill="#999999"/>
</g>
<defs>
<clipPath id="clip0_803_200">
<rect width="106" height="37" fill="white" transform="translate(0 0.431641)"/>
</clipPath>
</defs>
</svg>
