<svg width="187" height="38" viewBox="0 0 187 38" fill="none" xmlns="http://www.w3.org/2000/svg">
<g clip-path="url(#clip0_59_2105)">
<path d="M10.945 37.9999C7.87581 37.9999 5.26506 36.9655 3.14941 34.8531C1.03605 32.7407 0 30.134 0 27.0695C0 24.0051 1.03605 21.4396 3.1517 19.3272C5.26506 17.2148 7.8781 16.1392 10.9473 16.1392C14.0165 16.1392 16.6272 17.2148 18.7429 19.3272C20.8562 21.4373 21.9358 24.0051 21.9358 27.0695C21.9358 30.134 20.8585 32.7407 18.7429 34.8531C16.6272 36.9632 14.0165 37.9999 10.9473 37.9999H10.945ZM10.945 32.7819C12.561 32.7819 13.8881 32.2441 14.9677 31.1661C16.045 30.0905 16.586 28.7242 16.586 27.0672C16.586 25.4103 16.0473 24.044 14.9677 22.9684C13.8904 21.8927 12.5632 21.3526 10.945 21.3526C9.32674 21.3526 8.00188 21.8904 6.92228 22.9684C5.88623 24.044 5.34757 25.4103 5.34757 27.0672C5.34757 28.7242 5.88623 30.0905 6.92228 31.1661C7.99958 32.2418 9.32674 32.7819 10.945 32.7819Z" fill="#24449F"/>
<path d="M40.5664 18.4165C42.0586 19.9476 42.8058 22.0187 42.8058 24.7101V37.4188H37.4559V25.3715C37.4559 22.5978 35.84 21.1079 33.3507 21.1079C30.5726 21.1079 28.7893 22.806 28.7893 26.2412V37.4188H23.4418V16.7206H28.7893V19.039C30.0752 17.0937 32.1473 16.1416 34.9667 16.1416C37.2474 16.1416 39.1132 16.8877 40.5641 18.4188L40.5664 18.4165Z" fill="#24449F"/>
<path d="M60.9184 8.44043H66.2659V37.4187H60.9184V34.9768C59.3437 37.0045 57.1042 38.0001 54.2024 38.0001C51.3005 38.0001 49.0199 36.9656 47.0303 34.8532C45.0819 32.7431 44.0872 30.1341 44.0872 27.0697C44.0872 24.0052 45.0819 21.4397 47.0303 19.3273C49.0199 17.2149 51.4266 16.1393 54.2024 16.1393C56.9782 16.1393 59.3437 17.1326 60.9184 19.1625V8.44043ZM55.1972 32.9079C56.8567 32.9079 58.2251 32.3701 59.3024 31.2922C60.3797 30.1753 60.9207 28.7678 60.9207 27.0697C60.9207 25.3715 60.382 23.964 59.3024 22.8884C58.2251 21.7716 56.8567 21.2314 55.1972 21.2314C53.5377 21.2314 52.1693 21.7693 51.0507 22.8884C49.9734 23.964 49.4347 25.3715 49.4347 27.0697C49.4347 28.7678 49.9734 30.1753 51.0507 31.2922C52.1693 32.3678 53.5377 32.9079 55.1972 32.9079Z" fill="#24449F"/>
<path d="M84.7268 16.7205H90.0744V37.4186H84.7268V34.9767C83.1086 37.0044 80.8714 37.9999 77.9673 37.9999C75.0631 37.9999 72.826 36.9655 70.8364 34.8531C68.8881 32.743 67.8933 30.134 67.8933 27.0695C67.8933 24.0051 68.8881 21.4396 70.8364 19.3272C72.826 17.2148 75.1892 16.1392 77.9673 16.1392C80.7454 16.1392 83.1086 17.1324 84.7268 19.1624V16.7205ZM78.9621 32.9078C80.6216 32.9078 81.9877 32.3699 83.0673 31.292C84.1859 30.1752 84.7268 28.7677 84.7268 27.0695C84.7268 25.3714 84.1882 23.9639 83.0673 22.8883C81.99 21.7714 80.6216 21.2313 78.9621 21.2313C77.3026 21.2313 75.9364 21.7691 74.8568 22.8883C73.7795 23.9639 73.2409 25.3714 73.2409 27.0695C73.2409 28.7677 73.7795 30.1752 74.8568 31.292C75.9341 32.3677 77.3026 32.9078 78.9621 32.9078Z" fill="#24449F"/>
<path d="M94.7893 34.8531C92.7172 32.743 91.6788 30.1752 91.6788 27.0695C91.6788 23.9639 92.7149 21.3984 94.7893 19.286C96.9049 17.1759 99.5157 16.1392 102.626 16.1392C106.649 16.1392 110.213 18.2081 111.914 21.4808L107.311 24.1722C106.482 22.474 104.698 21.3984 102.585 21.3984C99.3919 21.3984 97.0287 23.7579 97.0287 27.0695C97.0287 28.683 97.5673 30.0493 98.6034 31.1272C99.6394 32.1617 100.967 32.6995 102.585 32.6995C104.742 32.6995 106.525 31.6651 107.353 29.9669L111.996 32.6171C110.172 35.8875 106.647 37.9999 102.626 37.9999C99.5157 37.9999 96.9049 36.9655 94.7893 34.8531Z" fill="#24449F"/>
<path d="M122.348 37.9999C119.279 37.9999 116.668 36.9655 114.552 34.8531C112.437 32.743 111.401 30.134 111.401 27.0695C111.401 24.0051 112.437 21.4396 114.552 19.3272C116.666 17.2148 119.279 16.1392 122.348 16.1392C125.417 16.1392 128.028 17.2148 130.143 19.3272C132.257 21.4373 133.336 24.0051 133.336 27.0695C133.336 30.134 132.259 32.7407 130.143 34.8531C128.028 36.9632 125.417 37.9999 122.348 37.9999ZM122.348 32.7819C123.964 32.7819 125.291 32.2441 126.371 31.1661C127.448 30.0905 127.989 28.7242 127.989 27.0672C127.989 25.4103 127.45 24.044 126.371 22.9684C125.293 21.8927 123.966 21.3526 122.348 21.3526C120.73 21.3526 119.405 21.8904 118.325 22.9684C117.289 24.044 116.75 25.4103 116.75 27.0672C116.75 28.7242 117.289 30.0905 118.325 31.1661C119.402 32.2418 120.73 32.7819 122.348 32.7819Z" fill="#24449F"/>
<path d="M165.61 24.6689V37.4188H160.262V25.0397C160.262 22.5566 158.976 21.1079 156.78 21.1079C154.335 21.1079 152.925 22.7648 152.925 25.7858V37.4188H147.575V25.0397C147.575 22.5566 146.289 21.1079 144.093 21.1079C141.73 21.1079 140.197 22.7648 140.197 25.7858V37.4188H134.849V16.7206H140.197V18.9154C141.441 17.0525 143.348 16.1416 145.959 16.1416C148.57 16.1416 150.394 17.1349 151.598 19.1214C152.966 17.1349 155.038 16.1416 157.775 16.1416C162.543 16.1416 165.612 19.4944 165.612 24.6689H165.61Z" fill="#24449F"/>
<path d="M168.984 17.9128C168.058 16.4939 167.567 14.8484 167.567 13.1525C167.567 12.2851 167.696 11.4269 167.948 10.603C168.544 8.65311 169.818 6.96412 171.537 5.8427C172.958 4.91811 174.606 4.42835 176.305 4.42835C177.579 4.42835 178.826 4.70298 179.968 5.23165C178.968 4.10794 177.673 3.2726 176.227 2.8309C175.45 2.59288 174.641 2.47388 173.825 2.47388C172.227 2.47388 170.678 2.93389 169.341 3.80356C167.003 5.32777 165.607 7.89558 165.607 10.6785C165.607 10.793 165.61 10.9143 165.617 11.0539C165.711 13.7636 166.82 16.3108 168.741 18.2263C169.252 18.7367 169.809 19.1898 170.4 19.5812C169.864 19.0914 169.385 18.533 168.981 17.9128H168.984Z" fill="url(#paint0_linear_59_2105)"/>
<path d="M169.059 3.36657C170.481 2.44197 172.129 1.95221 173.827 1.95221C174.696 1.95221 175.555 2.08037 176.381 2.33212C178.333 2.92716 180.025 4.19962 181.148 5.91607C182.074 7.33501 182.565 8.98052 182.565 10.6764C182.565 11.9488 182.29 13.1938 181.76 14.3336C182.886 13.3357 183.722 12.0427 184.165 10.5986C184.401 9.82272 184.522 9.01485 184.522 8.2001C184.522 6.60494 184.061 5.05785 183.19 3.72359C181.756 1.52882 179.34 0.137346 176.729 0.00460709C176.587 2.98778e-05 176.447 -0.00683594 176.305 -0.00683594C176.19 -0.00683594 176.071 -0.00454733 175.929 0.00231848C173.215 0.0961513 170.666 1.20612 168.745 3.12169C168.234 3.63205 167.78 4.18589 167.388 4.77864C167.879 4.2431 168.441 3.76479 169.062 3.3597L169.059 3.36657Z" fill="url(#paint1_linear_59_2105)"/>
<path d="M184.662 10.7542C184.066 12.7041 182.792 14.3953 181.072 15.5145C179.651 16.4391 178.003 16.9288 176.305 16.9288C175.03 16.9288 173.783 16.6542 172.642 16.1255C173.641 17.2492 174.936 18.0846 176.383 18.5263C177.16 18.7643 177.969 18.8833 178.785 18.8833C180.383 18.8833 181.932 18.4233 183.268 17.5536C185.606 16.0294 187.002 13.4616 187.002 10.6786C187.002 10.5688 187 10.4521 186.993 10.3125C186.901 7.60963 185.797 5.06698 183.887 3.14913C183.369 2.62962 182.808 2.16961 182.207 1.77368C182.746 2.26344 183.225 2.82415 183.631 3.44665C184.557 4.8633 185.047 6.51109 185.047 8.20695C185.047 9.07433 184.919 9.93256 184.667 10.7565L184.662 10.7542Z" fill="url(#paint2_linear_59_2105)"/>
<path d="M183.883 18.2082C184.387 17.7024 184.834 17.1531 185.221 16.5695C184.731 17.1051 184.169 17.5834 183.548 17.9885C182.127 18.9131 180.479 19.4028 178.78 19.4028C177.914 19.4028 177.054 19.2747 176.227 19.0229C174.274 18.4279 172.582 17.1554 171.459 15.439C170.533 14.02 170.043 12.3745 170.043 10.6787C170.043 9.40621 170.318 8.16121 170.847 7.02148C169.722 8.01932 168.885 9.31238 168.443 10.7565C168.204 11.5323 168.085 12.3402 168.085 13.1549C168.085 14.7501 168.546 16.2972 169.417 17.6315C170.944 19.9658 173.515 21.3596 176.303 21.3596C176.449 21.3596 176.601 21.355 176.729 21.3482C179.431 21.2429 181.971 20.1283 183.883 18.2105V18.2082Z" fill="url(#paint3_linear_59_2105)"/>
</g>
<defs>
<linearGradient id="paint0_linear_59_2105" x1="165.61" y1="11.0287" x2="179.968" y2="11.0287" gradientUnits="userSpaceOnUse">
<stop stop-color="#24449F"/>
<stop offset="0.5" stop-color="#01E2E1"/>
<stop offset="1" stop-color="#0DEAB1"/>
</linearGradient>
<linearGradient id="paint1_linear_59_2105" x1="167.386" y1="7.16794" x2="184.522" y2="7.16794" gradientUnits="userSpaceOnUse">
<stop stop-color="#24449F"/>
<stop offset="0.5" stop-color="#01E2E1"/>
<stop offset="1" stop-color="#0DEAB1"/>
</linearGradient>
<linearGradient id="paint2_linear_59_2105" x1="172.64" y1="10.3262" x2="187" y2="10.3262" gradientUnits="userSpaceOnUse">
<stop stop-color="#24449F"/>
<stop offset="0.5" stop-color="#01E2E1"/>
<stop offset="1" stop-color="#0DEAB1"/>
</linearGradient>
<linearGradient id="paint3_linear_59_2105" x1="168.087" y1="14.1894" x2="185.224" y2="14.1894" gradientUnits="userSpaceOnUse">
<stop stop-color="#24449F"/>
<stop offset="0.5" stop-color="#01E2E1"/>
<stop offset="1" stop-color="#0DEAB1"/>
</linearGradient>
<clipPath id="clip0_59_2105">
<rect width="187" height="38" fill="white"/>
</clipPath>
</defs>
</svg>
